<?xml version="1.0" encoding="utf-8" standalone="no"?>
<!DOCTYPE svg PUBLIC "-//W3C//DTD SVG 1.1//EN"
  "http://www.w3.org/Graphics/SVG/1.1/DTD/svg11.dtd">
<!-- Created with matplotlib (https://matplotlib.org/) -->
<svg height="288pt" version="1.1" viewBox="0 0 432 288" width="432pt" xmlns="http://www.w3.org/2000/svg" xmlns:xlink="http://www.w3.org/1999/xlink">
 <defs>
  <style type="text/css">
*{stroke-linecap:butt;stroke-linejoin:round;}
  </style>
 </defs>
 <g id="figure_1">
  <g id="patch_1">
   <path d="M 0 288 
L 432 288 
L 432 0 
L 0 0 
z
" style="fill:#ffffff;"/>
  </g>
  <g id="axes_1">
   <g id="patch_2">
    <path d="M 54 252 
L 388.8 252 
L 388.8 34.56 
L 54 34.56 
z
" style="fill:#ffffff;"/>
   </g>
   <g id="patch_3">
    <path clip-path="url(#p5603784886)" d="M 71.935335 252 
L 87.017659 252 
L 87.017659 65.622857 
L 71.935335 65.622857 
z
" style="fill:#1f77b4;"/>
   </g>
   <g id="patch_4">
    <path clip-path="url(#p5603784886)" d="M 87.017659 252 
L 102.099983 252 
L 102.099983 138.102857 
L 87.017659 138.102857 
z
" style="fill:#1f77b4;"/>
   </g>
   <g id="patch_5">
    <path clip-path="url(#p5603784886)" d="M 102.099983 252 
L 117.182308 252 
L 117.182308 148.457143 
L 102.099983 148.457143 
z
" style="fill:#1f77b4;"/>
   </g>
   <g id="patch_6">
    <path clip-path="url(#p5603784886)" d="M 117.182308 252 
L 132.264632 252 
L 132.264632 158.811429 
L 117.182308 158.811429 
z
" style="fill:#1f77b4;"/>
   </g>
   <g id="patch_7">
    <path clip-path="url(#p5603784886)" d="M 132.264632 252 
L 147.346956 252 
L 147.346956 138.102857 
L 132.264632 138.102857 
z
" style="fill:#1f77b4;"/>
   </g>
   <g id="patch_8">
    <path clip-path="url(#p5603784886)" d="M 147.346956 252 
L 162.42928 252 
L 162.42928 189.874286 
L 147.346956 189.874286 
z
" style="fill:#1f77b4;"/>
   </g>
   <g id="patch_9">
    <path clip-path="url(#p5603784886)" d="M 162.42928 252 
L 177.511604 252 
L 177.511604 117.394286 
L 162.42928 117.394286 
z
" style="fill:#1f77b4;"/>
   </g>
   <g id="patch_10">
    <path clip-path="url(#p5603784886)" d="M 177.511604 252 
L 192.593928 252 
L 192.593928 138.102857 
L 177.511604 138.102857 
z
" style="fill:#1f77b4;"/>
   </g>
   <g id="patch_11">
    <path clip-path="url(#p5603784886)" d="M 192.593928 252 
L 207.676253 252 
L 207.676253 127.748571 
L 192.593928 127.748571 
z
" style="fill:#1f77b4;"/>
   </g>
   <g id="patch_12">
    <path clip-path="url(#p5603784886)" d="M 207.676253 252 
L 222.758577 252 
L 222.758577 189.874286 
L 207.676253 189.874286 
z
" style="fill:#1f77b4;"/>
   </g>
   <g id="patch_13">
    <path clip-path="url(#p5603784886)" d="M 222.758577 252 
L 237.840901 252 
L 237.840901 127.748571 
L 222.758577 127.748571 
z
" style="fill:#1f77b4;"/>
   </g>
   <g id="patch_14">
    <path clip-path="url(#p5603784886)" d="M 237.840901 252 
L 252.923225 252 
L 252.923225 127.748571 
L 237.840901 127.748571 
z
" style="fill:#1f77b4;"/>
   </g>
   <g id="patch_15">
    <path clip-path="url(#p5603784886)" d="M 252.923225 252 
L 268.005549 252 
L 268.005549 231.291429 
L 252.923225 231.291429 
z
" style="fill:#1f77b4;"/>
   </g>
   <g id="patch_16">
    <path clip-path="url(#p5603784886)" d="M 268.005549 252 
L 283.087873 252 
L 283.087873 179.52 
L 268.005549 179.52 
z
" style="fill:#1f77b4;"/>
   </g>
   <g id="patch_17">
    <path clip-path="url(#p5603784886)" d="M 283.087873 252 
L 298.170197 252 
L 298.170197 189.874286 
L 283.087873 189.874286 
z
" style="fill:#1f77b4;"/>
   </g>
   <g id="patch_18">
    <path clip-path="url(#p5603784886)" d="M 298.170197 252 
L 313.252522 252 
L 313.252522 107.04 
L 298.170197 107.04 
z
" style="fill:#1f77b4;"/>
   </g>
   <g id="patch_19">
    <path clip-path="url(#p5603784886)" d="M 313.252522 252 
L 328.334846 252 
L 328.334846 179.52 
L 313.252522 179.52 
z
" style="fill:#1f77b4;"/>
   </g>
   <g id="patch_20">
    <path clip-path="url(#p5603784886)" d="M 328.334846 252 
L 343.41717 252 
L 343.41717 138.102857 
L 328.334846 138.102857 
z
" style="fill:#1f77b4;"/>
   </g>
   <g id="patch_21">
    <path clip-path="url(#p5603784886)" d="M 343.41717 252 
L 358.499494 252 
L 358.499494 127.748571 
L 343.41717 127.748571 
z
" style="fill:#1f77b4;"/>
   </g>
   <g id="patch_22">
    <path clip-path="url(#p5603784886)" d="M 358.499494 252 
L 373.581818 252 
L 373.581818 148.457143 
L 358.499494 148.457143 
z
" style="fill:#1f77b4;"/>
   </g>
   <g id="patch_23">
    <path clip-path="url(#p5603784886)" d="M 70.132556 252 
L 85.301439 252 
L 85.301439 107.04 
L 70.132556 107.04 
z
" style="fill:#ff7f0e;"/>
   </g>
   <g id="patch_24">
    <path clip-path="url(#p5603784886)" d="M 85.301439 252 
L 100.470322 252 
L 100.470322 179.52 
L 85.301439 179.52 
z
" style="fill:#ff7f0e;"/>
   </g>
   <g id="patch_25">
    <path clip-path="url(#p5603784886)" d="M 100.470322 252 
L 115.639204 252 
L 115.639204 220.937143 
L 100.470322 220.937143 
z
" style="fill:#ff7f0e;"/>
   </g>
   <g id="patch_26">
    <path clip-path="url(#p5603784886)" d="M 115.639204 252 
L 130.808087 252 
L 130.808087 169.165714 
L 115.639204 169.165714 
z
" style="fill:#ff7f0e;"/>
   </g>
   <g id="patch_27">
    <path clip-path="url(#p5603784886)" d="M 130.808087 252 
L 145.97697 252 
L 145.97697 117.394286 
L 130.808087 117.394286 
z
" style="fill:#ff7f0e;"/>
   </g>
   <g id="patch_28">
    <path clip-path="url(#p5603784886)" d="M 145.97697 252 
L 161.145853 252 
L 161.145853 107.04 
L 145.97697 107.04 
z
" style="fill:#ff7f0e;"/>
   </g>
   <g id="patch_29">
    <path clip-path="url(#p5603784886)" d="M 161.145853 252 
L 176.314735 252 
L 176.314735 138.102857 
L 161.145853 138.102857 
z
" style="fill:#ff7f0e;"/>
   </g>
   <g id="patch_30">
    <path clip-path="url(#p5603784886)" d="M 176.314735 252 
L 191.483618 252 
L 191.483618 169.165714 
L 176.314735 169.165714 
z
" style="fill:#ff7f0e;"/>
   </g>
   <g id="patch_31">
    <path clip-path="url(#p5603784886)" d="M 191.483618 252 
L 206.652501 252 
L 206.652501 179.52 
L 191.483618 179.52 
z
" style="fill:#ff7f0e;"/>
   </g>
   <g id="patch_32">
    <path clip-path="url(#p5603784886)" d="M 206.652501 252 
L 221.821383 252 
L 221.821383 127.748571 
L 206.652501 127.748571 
z
" style="fill:#ff7f0e;"/>
   </g>
   <g id="patch_33">
    <path clip-path="url(#p5603784886)" d="M 221.821383 252 
L 236.990266 252 
L 236.990266 107.04 
L 221.821383 107.04 
z
" style="fill:#ff7f0e;"/>
   </g>
   <g id="patch_34">
    <path clip-path="url(#p5603784886)" d="M 236.990266 252 
L 252.159149 252 
L 252.159149 65.622857 
L 236.990266 65.622857 
z
" style="fill:#ff7f0e;"/>
   </g>
   <g id="patch_35">
    <path clip-path="url(#p5603784886)" d="M 252.159149 252 
L 267.328031 252 
L 267.328031 179.52 
L 252.159149 179.52 
z
" style="fill:#ff7f0e;"/>
   </g>
   <g id="patch_36">
    <path clip-path="url(#p5603784886)" d="M 267.328031 252 
L 282.496914 252 
L 282.496914 127.748571 
L 267.328031 127.748571 
z
" style="fill:#ff7f0e;"/>
   </g>
   <g id="patch_37">
    <path clip-path="url(#p5603784886)" d="M 282.496914 252 
L 297.665797 252 
L 297.665797 200.228571 
L 282.496914 200.228571 
z
" style="fill:#ff7f0e;"/>
   </g>
   <g id="patch_38">
    <path clip-path="url(#p5603784886)" d="M 297.665797 252 
L 312.834679 252 
L 312.834679 86.331429 
L 297.665797 86.331429 
z
" style="fill:#ff7f0e;"/>
   </g>
   <g id="patch_39">
    <path clip-path="url(#p5603784886)" d="M 312.834679 252 
L 328.003562 252 
L 328.003562 158.811429 
L 312.834679 158.811429 
z
" style="fill:#ff7f0e;"/>
   </g>
   <g id="patch_40">
    <path clip-path="url(#p5603784886)" d="M 328.003562 252 
L 343.172445 252 
L 343.172445 169.165714 
L 328.003562 169.165714 
z
" style="fill:#ff7f0e;"/>
   </g>
   <g id="patch_41">
    <path clip-path="url(#p5603784886)" d="M 343.172445 252 
L 358.341327 252 
L 358.341327 148.457143 
L 343.172445 148.457143 
z
" style="fill:#ff7f0e;"/>
   </g>
   <g id="patch_42">
    <path clip-path="url(#p5603784886)" d="M 358.341327 252 
L 373.51021 252 
L 373.51021 210.582857 
L 358.341327 210.582857 
z
" style="fill:#ff7f0e;"/>
   </g>
   <g id="patch_43">
    <path clip-path="url(#p5603784886)" d="M 69.218182 252 
L 84.3915 252 
L 84.3915 169.165714 
L 69.218182 169.165714 
z
" style="fill:#2ca02c;"/>
   </g>
   <g id="patch_44">
    <path clip-path="url(#p5603784886)" d="M 84.3915 252 
L 99.564818 252 
L 99.564818 148.457143 
L 84.3915 148.457143 
z
" style="fill:#2ca02c;"/>
   </g>
   <g id="patch_45">
    <path clip-path="url(#p5603784886)" d="M 99.564818 252 
L 114.738136 252 
L 114.738136 138.102857 
L 99.564818 138.102857 
z
" style="fill:#2ca02c;"/>
   </g>
   <g id="patch_46">
    <path clip-path="url(#p5603784886)" d="M 114.738136 252 
L 129.911454 252 
L 129.911454 75.977143 
L 114.738136 75.977143 
z
" style="fill:#2ca02c;"/>
   </g>
   <g id="patch_47">
    <path clip-path="url(#p5603784886)" d="M 129.911454 252 
L 145.084772 252 
L 145.084772 158.811429 
L 129.911454 158.811429 
z
" style="fill:#2ca02c;"/>
   </g>
   <g id="patch_48">
    <path clip-path="url(#p5603784886)" d="M 145.084772 252 
L 160.25809 252 
L 160.25809 158.811429 
L 145.084772 158.811429 
z
" style="fill:#2ca02c;"/>
   </g>
   <g id="patch_49">
    <path clip-path="url(#p5603784886)" d="M 160.25809 252 
L 175.431408 252 
L 175.431408 148.457143 
L 160.25809 148.457143 
z
" style="fill:#2ca02c;"/>
   </g>
   <g id="patch_50">
    <path clip-path="url(#p5603784886)" d="M 175.431408 252 
L 190.604726 252 
L 190.604726 148.457143 
L 175.431408 148.457143 
z
" style="fill:#2ca02c;"/>
   </g>
   <g id="patch_51">
    <path clip-path="url(#p5603784886)" d="M 190.604726 252 
L 205.778044 252 
L 205.778044 117.394286 
L 190.604726 117.394286 
z
" style="fill:#2ca02c;"/>
   </g>
   <g id="patch_52">
    <path clip-path="url(#p5603784886)" d="M 205.778044 252 
L 220.951362 252 
L 220.951362 138.102857 
L 205.778044 138.102857 
z
" style="fill:#2ca02c;"/>
   </g>
   <g id="patch_53">
    <path clip-path="url(#p5603784886)" d="M 220.951362 252 
L 236.12468 252 
L 236.12468 169.165714 
L 220.951362 169.165714 
z
" style="fill:#2ca02c;"/>
   </g>
   <g id="patch_54">
    <path clip-path="url(#p5603784886)" d="M 236.12468 252 
L 251.297997 252 
L 251.297997 138.102857 
L 236.12468 138.102857 
z
" style="fill:#2ca02c;"/>
   </g>
   <g id="patch_55">
    <path clip-path="url(#p5603784886)" d="M 251.297997 252 
L 266.471315 252 
L 266.471315 86.331429 
L 251.297997 86.331429 
z
" style="fill:#2ca02c;"/>
   </g>
   <g id="patch_56">
    <path clip-path="url(#p5603784886)" d="M 266.471315 252 
L 281.644633 252 
L 281.644633 158.811429 
L 266.471315 158.811429 
z
" style="fill:#2ca02c;"/>
   </g>
   <g id="patch_57">
    <path clip-path="url(#p5603784886)" d="M 281.644633 252 
L 296.817951 252 
L 296.817951 179.52 
L 281.644633 179.52 
z
" style="fill:#2ca02c;"/>
   </g>
   <g id="patch_58">
    <path clip-path="url(#p5603784886)" d="M 296.817951 252 
L 311.991269 252 
L 311.991269 200.228571 
L 296.817951 200.228571 
z
" style="fill:#2ca02c;"/>
   </g>
   <g id="patch_59">
    <path clip-path="url(#p5603784886)" d="M 311.991269 252 
L 327.164587 252 
L 327.164587 127.748571 
L 311.991269 127.748571 
z
" style="fill:#2ca02c;"/>
   </g>
   <g id="patch_60">
    <path clip-path="url(#p5603784886)" d="M 327.164587 252 
L 342.337905 252 
L 342.337905 169.165714 
L 327.164587 169.165714 
z
" style="fill:#2ca02c;"/>
   </g>
   <g id="patch_61">
    <path clip-path="url(#p5603784886)" d="M 342.337905 252 
L 357.511223 252 
L 357.511223 138.102857 
L 342.337905 138.102857 
z
" style="fill:#2ca02c;"/>
   </g>
   <g id="patch_62">
    <path clip-path="url(#p5603784886)" d="M 357.511223 252 
L 372.684541 252 
L 372.684541 200.228571 
L 357.511223 200.228571 
z
" style="fill:#2ca02c;"/>
   </g>
   <g id="patch_63">
    <path clip-path="url(#p5603784886)" d="M 72.248652 252 
L 87.231727 252 
L 87.231727 117.394286 
L 72.248652 117.394286 
z
" style="fill:#d62728;"/>
   </g>
   <g id="patch_64">
    <path clip-path="url(#p5603784886)" d="M 87.231727 252 
L 102.214802 252 
L 102.214802 117.394286 
L 87.231727 117.394286 
z
" style="fill:#d62728;"/>
   </g>
   <g id="patch_65">
    <path clip-path="url(#p5603784886)" d="M 102.214802 252 
L 117.197878 252 
L 117.197878 210.582857 
L 102.214802 210.582857 
z
" style="fill:#d62728;"/>
   </g>
   <g id="patch_66">
    <path clip-path="url(#p5603784886)" d="M 117.197878 252 
L 132.180953 252 
L 132.180953 169.165714 
L 117.197878 169.165714 
z
" style="fill:#d62728;"/>
   </g>
   <g id="patch_67">
    <path clip-path="url(#p5603784886)" d="M 132.180953 252 
L 147.164029 252 
L 147.164029 138.102857 
L 132.180953 138.102857 
z
" style="fill:#d62728;"/>
   </g>
   <g id="patch_68">
    <path clip-path="url(#p5603784886)" d="M 147.164029 252 
L 162.147104 252 
L 162.147104 158.811429 
L 147.164029 158.811429 
z
" style="fill:#d62728;"/>
   </g>
   <g id="patch_69">
    <path clip-path="url(#p5603784886)" d="M 162.147104 252 
L 177.130179 252 
L 177.130179 158.811429 
L 162.147104 158.811429 
z
" style="fill:#d62728;"/>
   </g>
   <g id="patch_70">
    <path clip-path="url(#p5603784886)" d="M 177.130179 252 
L 192.113255 252 
L 192.113255 189.874286 
L 177.130179 189.874286 
z
" style="fill:#d62728;"/>
   </g>
   <g id="patch_71">
    <path clip-path="url(#p5603784886)" d="M 192.113255 252 
L 207.09633 252 
L 207.09633 96.685714 
L 192.113255 96.685714 
z
" style="fill:#d62728;"/>
   </g>
   <g id="patch_72">
    <path clip-path="url(#p5603784886)" d="M 207.09633 252 
L 222.079406 252 
L 222.079406 158.811429 
L 207.09633 158.811429 
z
" style="fill:#d62728;"/>
   </g>
   <g id="patch_73">
    <path clip-path="url(#p5603784886)" d="M 222.079406 252 
L 237.062481 252 
L 237.062481 138.102857 
L 222.079406 138.102857 
z
" style="fill:#d62728;"/>
   </g>
   <g id="patch_74">
    <path clip-path="url(#p5603784886)" d="M 237.062481 252 
L 252.045556 252 
L 252.045556 138.102857 
L 237.062481 138.102857 
z
" style="fill:#d62728;"/>
   </g>
   <g id="patch_75">
    <path clip-path="url(#p5603784886)" d="M 252.045556 252 
L 267.028632 252 
L 267.028632 148.457143 
L 252.045556 148.457143 
z
" style="fill:#d62728;"/>
   </g>
   <g id="patch_76">
    <path clip-path="url(#p5603784886)" d="M 267.028632 252 
L 282.011707 252 
L 282.011707 179.52 
L 267.028632 179.52 
z
" style="fill:#d62728;"/>
   </g>
   <g id="patch_77">
    <path clip-path="url(#p5603784886)" d="M 282.011707 252 
L 296.994783 252 
L 296.994783 158.811429 
L 282.011707 158.811429 
z
" style="fill:#d62728;"/>
   </g>
   <g id="patch_78">
    <path clip-path="url(#p5603784886)" d="M 296.994783 252 
L 311.977858 252 
L 311.977858 169.165714 
L 296.994783 169.165714 
z
" style="fill:#d62728;"/>
   </g>
   <g id="patch_79">
    <path clip-path="url(#p5603784886)" d="M 311.977858 252 
L 326.960934 252 
L 326.960934 107.04 
L 311.977858 107.04 
z
" style="fill:#d62728;"/>
   </g>
   <g id="patch_80">
    <path clip-path="url(#p5603784886)" d="M 326.960934 252 
L 341.944009 252 
L 341.944009 138.102857 
L 326.960934 138.102857 
z
" style="fill:#d62728;"/>
   </g>
   <g id="patch_81">
    <path clip-path="url(#p5603784886)" d="M 341.944009 252 
L 356.927084 252 
L 356.927084 148.457143 
L 341.944009 148.457143 
z
" style="fill:#d62728;"/>
   </g>
   <g id="patch_82">
    <path clip-path="url(#p5603784886)" d="M 356.927084 252 
L 371.91016 252 
L 371.91016 127.748571 
L 356.927084 127.748571 
z
" style="fill:#d62728;"/>
   </g>
   <g id="patch_83">
    <path clip-path="url(#p5603784886)" d="M 69.352261 252 
L 84.48422 252 
L 84.48422 158.811429 
L 69.352261 158.811429 
z
" style="fill:#9467bd;"/>
   </g>
   <g id="patch_84">
    <path clip-path="url(#p5603784886)" d="M 84.48422 252 
L 99.616178 252 
L 99.616178 169.165714 
L 84.48422 169.165714 
z
" style="fill:#9467bd;"/>
   </g>
   <g id="patch_85">
    <path clip-path="url(#p5603784886)" d="M 99.616178 252 
L 114.748137 252 
L 114.748137 158.811429 
L 99.616178 158.811429 
z
" style="fill:#9467bd;"/>
   </g>
   <g id="patch_86">
    <path clip-path="url(#p5603784886)" d="M 114.748137 252 
L 129.880096 252 
L 129.880096 158.811429 
L 114.748137 158.811429 
z
" style="fill:#9467bd;"/>
   </g>
   <g id="patch_87">
    <path clip-path="url(#p5603784886)" d="M 129.880096 252 
L 145.012054 252 
L 145.012054 96.685714 
L 129.880096 96.685714 
z
" style="fill:#9467bd;"/>
   </g>
   <g id="patch_88">
    <path clip-path="url(#p5603784886)" d="M 145.012054 252 
L 160.144013 252 
L 160.144013 169.165714 
L 145.012054 169.165714 
z
" style="fill:#9467bd;"/>
   </g>
   <g id="patch_89">
    <path clip-path="url(#p5603784886)" d="M 160.144013 252 
L 175.275971 252 
L 175.275971 158.811429 
L 160.144013 158.811429 
z
" style="fill:#9467bd;"/>
   </g>
   <g id="patch_90">
    <path clip-path="url(#p5603784886)" d="M 175.275971 252 
L 190.40793 252 
L 190.40793 127.748571 
L 175.275971 127.748571 
z
" style="fill:#9467bd;"/>
   </g>
   <g id="patch_91">
    <path clip-path="url(#p5603784886)" d="M 190.40793 252 
L 205.539889 252 
L 205.539889 179.52 
L 190.40793 179.52 
z
" style="fill:#9467bd;"/>
   </g>
   <g id="patch_92">
    <path clip-path="url(#p5603784886)" d="M 205.539889 252 
L 220.671847 252 
L 220.671847 200.228571 
L 205.539889 200.228571 
z
" style="fill:#9467bd;"/>
   </g>
   <g id="patch_93">
    <path clip-path="url(#p5603784886)" d="M 220.671847 252 
L 235.803806 252 
L 235.803806 107.04 
L 220.671847 107.04 
z
" style="fill:#9467bd;"/>
   </g>
   <g id="patch_94">
    <path clip-path="url(#p5603784886)" d="M 235.803806 252 
L 250.935764 252 
L 250.935764 179.52 
L 235.803806 179.52 
z
" style="fill:#9467bd;"/>
   </g>
   <g id="patch_95">
    <path clip-path="url(#p5603784886)" d="M 250.935764 252 
L 266.067723 252 
L 266.067723 158.811429 
L 250.935764 158.811429 
z
" style="fill:#9467bd;"/>
   </g>
   <g id="patch_96">
    <path clip-path="url(#p5603784886)" d="M 266.067723 252 
L 281.199681 252 
L 281.199681 148.457143 
L 266.067723 148.457143 
z
" style="fill:#9467bd;"/>
   </g>
   <g id="patch_97">
    <path clip-path="url(#p5603784886)" d="M 281.199681 252 
L 296.33164 252 
L 296.33164 158.811429 
L 281.199681 158.811429 
z
" style="fill:#9467bd;"/>
   </g>
   <g id="patch_98">
    <path clip-path="url(#p5603784886)" d="M 296.33164 252 
L 311.463599 252 
L 311.463599 117.394286 
L 296.33164 117.394286 
z
" style="fill:#9467bd;"/>
   </g>
   <g id="patch_99">
    <path clip-path="url(#p5603784886)" d="M 311.463599 252 
L 326.595557 252 
L 326.595557 148.457143 
L 311.463599 148.457143 
z
" style="fill:#9467bd;"/>
   </g>
   <g id="patch_100">
    <path clip-path="url(#p5603784886)" d="M 326.595557 252 
L 341.727516 252 
L 341.727516 107.04 
L 326.595557 107.04 
z
" style="fill:#9467bd;"/>
   </g>
   <g id="patch_101">
    <path clip-path="url(#p5603784886)" d="M 341.727516 252 
L 356.859474 252 
L 356.859474 75.977143 
L 341.727516 75.977143 
z
" style="fill:#9467bd;"/>
   </g>
   <g id="patch_102">
    <path clip-path="url(#p5603784886)" d="M 356.859474 252 
L 371.991433 252 
L 371.991433 189.874286 
L 356.859474 189.874286 
z
" style="fill:#9467bd;"/>
   </g>
   <g id="patch_103">
    <path clip-path="url(#p5603784886)" d="M 69.606145 252 
L 84.788968 252 
L 84.788968 169.165714 
L 69.606145 169.165714 
z
" style="fill:#8c564b;"/>
   </g>
   <g id="patch_104">
    <path clip-path="url(#p5603784886)" d="M 84.788968 252 
L 99.971791 252 
L 99.971791 127.748571 
L 84.788968 127.748571 
z
" style="fill:#8c564b;"/>
   </g>
   <g id="patch_105">
    <path clip-path="url(#p5603784886)" d="M 99.971791 252 
L 115.154614 252 
L 115.154614 117.394286 
L 99.971791 117.394286 
z
" style="fill:#8c564b;"/>
   </g>
   <g id="patch_106">
    <path clip-path="url(#p5603784886)" d="M 115.154614 252 
L 130.337436 252 
L 130.337436 220.937143 
L 115.154614 220.937143 
z
" style="fill:#8c564b;"/>
   </g>
   <g id="patch_107">
    <path clip-path="url(#p5603784886)" d="M 130.337436 252 
L 145.520259 252 
L 145.520259 117.394286 
L 130.337436 117.394286 
z
" style="fill:#8c564b;"/>
   </g>
   <g id="patch_108">
    <path clip-path="url(#p5603784886)" d="M 145.520259 252 
L 160.703082 252 
L 160.703082 189.874286 
L 145.520259 189.874286 
z
" style="fill:#8c564b;"/>
   </g>
   <g id="patch_109">
    <path clip-path="url(#p5603784886)" d="M 160.703082 252 
L 175.885905 252 
L 175.885905 127.748571 
L 160.703082 127.748571 
z
" style="fill:#8c564b;"/>
   </g>
   <g id="patch_110">
    <path clip-path="url(#p5603784886)" d="M 175.885905 252 
L 191.068728 252 
L 191.068728 189.874286 
L 175.885905 189.874286 
z
" style="fill:#8c564b;"/>
   </g>
   <g id="patch_111">
    <path clip-path="url(#p5603784886)" d="M 191.068728 252 
L 206.25155 252 
L 206.25155 127.748571 
L 191.068728 127.748571 
z
" style="fill:#8c564b;"/>
   </g>
   <g id="patch_112">
    <path clip-path="url(#p5603784886)" d="M 206.25155 252 
L 221.434373 252 
L 221.434373 169.165714 
L 206.25155 169.165714 
z
" style="fill:#8c564b;"/>
   </g>
   <g id="patch_113">
    <path clip-path="url(#p5603784886)" d="M 221.434373 252 
L 236.617196 252 
L 236.617196 179.52 
L 221.434373 179.52 
z
" style="fill:#8c564b;"/>
   </g>
   <g id="patch_114">
    <path clip-path="url(#p5603784886)" d="M 236.617196 252 
L 251.800019 252 
L 251.800019 86.331429 
L 236.617196 86.331429 
z
" style="fill:#8c564b;"/>
   </g>
   <g id="patch_115">
    <path clip-path="url(#p5603784886)" d="M 251.800019 252 
L 266.982841 252 
L 266.982841 189.874286 
L 251.800019 189.874286 
z
" style="fill:#8c564b;"/>
   </g>
   <g id="patch_116">
    <path clip-path="url(#p5603784886)" d="M 266.982841 252 
L 282.165664 252 
L 282.165664 148.457143 
L 266.982841 148.457143 
z
" style="fill:#8c564b;"/>
   </g>
   <g id="patch_117">
    <path clip-path="url(#p5603784886)" d="M 282.165664 252 
L 297.348487 252 
L 297.348487 107.04 
L 282.165664 107.04 
z
" style="fill:#8c564b;"/>
   </g>
   <g id="patch_118">
    <path clip-path="url(#p5603784886)" d="M 297.348487 252 
L 312.53131 252 
L 312.53131 169.165714 
L 297.348487 169.165714 
z
" style="fill:#8c564b;"/>
   </g>
   <g id="patch_119">
    <path clip-path="url(#p5603784886)" d="M 312.53131 252 
L 327.714132 252 
L 327.714132 127.748571 
L 312.53131 127.748571 
z
" style="fill:#8c564b;"/>
   </g>
   <g id="patch_120">
    <path clip-path="url(#p5603784886)" d="M 327.714132 252 
L 342.896955 252 
L 342.896955 107.04 
L 327.714132 107.04 
z
" style="fill:#8c564b;"/>
   </g>
   <g id="patch_121">
    <path clip-path="url(#p5603784886)" d="M 342.896955 252 
L 358.079778 252 
L 358.079778 127.748571 
L 342.896955 127.748571 
z
" style="fill:#8c564b;"/>
   </g>
   <g id="patch_122">
    <path clip-path="url(#p5603784886)" d="M 358.079778 252 
L 373.262601 252 
L 373.262601 169.165714 
L 358.079778 169.165714 
z
" style="fill:#8c564b;"/>
   </g>
   <g id="patch_123">
    <path clip-path="url(#p5603784886)" d="M 72.432151 252 
L 87.460637 252 
L 87.460637 148.457143 
L 72.432151 148.457143 
z
" style="fill:#e377c2;"/>
   </g>
   <g id="patch_124">
    <path clip-path="url(#p5603784886)" d="M 87.460637 252 
L 102.489122 252 
L 102.489122 148.457143 
L 87.460637 148.457143 
z
" style="fill:#e377c2;"/>
   </g>
   <g id="patch_125">
    <path clip-path="url(#p5603784886)" d="M 102.489122 252 
L 117.517607 252 
L 117.517607 107.04 
L 102.489122 107.04 
z
" style="fill:#e377c2;"/>
   </g>
   <g id="patch_126">
    <path clip-path="url(#p5603784886)" d="M 117.517607 252 
L 132.546092 252 
L 132.546092 169.165714 
L 117.517607 169.165714 
z
" style="fill:#e377c2;"/>
   </g>
   <g id="patch_127">
    <path clip-path="url(#p5603784886)" d="M 132.546092 252 
L 147.574578 252 
L 147.574578 179.52 
L 132.546092 179.52 
z
" style="fill:#e377c2;"/>
   </g>
   <g id="patch_128">
    <path clip-path="url(#p5603784886)" d="M 147.574578 252 
L 162.603063 252 
L 162.603063 96.685714 
L 147.574578 96.685714 
z
" style="fill:#e377c2;"/>
   </g>
   <g id="patch_129">
    <path clip-path="url(#p5603784886)" d="M 162.603063 252 
L 177.631548 252 
L 177.631548 148.457143 
L 162.603063 148.457143 
z
" style="fill:#e377c2;"/>
   </g>
   <g id="patch_130">
    <path clip-path="url(#p5603784886)" d="M 177.631548 252 
L 192.660033 252 
L 192.660033 179.52 
L 177.631548 179.52 
z
" style="fill:#e377c2;"/>
   </g>
   <g id="patch_131">
    <path clip-path="url(#p5603784886)" d="M 192.660033 252 
L 207.688518 252 
L 207.688518 189.874286 
L 192.660033 189.874286 
z
" style="fill:#e377c2;"/>
   </g>
   <g id="patch_132">
    <path clip-path="url(#p5603784886)" d="M 207.688518 252 
L 222.717004 252 
L 222.717004 189.874286 
L 207.688518 189.874286 
z
" style="fill:#e377c2;"/>
   </g>
   <g id="patch_133">
    <path clip-path="url(#p5603784886)" d="M 222.717004 252 
L 237.745489 252 
L 237.745489 189.874286 
L 222.717004 189.874286 
z
" style="fill:#e377c2;"/>
   </g>
   <g id="patch_134">
    <path clip-path="url(#p5603784886)" d="M 237.745489 252 
L 252.773974 252 
L 252.773974 179.52 
L 237.745489 179.52 
z
" style="fill:#e377c2;"/>
   </g>
   <g id="patch_135">
    <path clip-path="url(#p5603784886)" d="M 252.773974 252 
L 267.802459 252 
L 267.802459 148.457143 
L 252.773974 148.457143 
z
" style="fill:#e377c2;"/>
   </g>
   <g id="patch_136">
    <path clip-path="url(#p5603784886)" d="M 267.802459 252 
L 282.830944 252 
L 282.830944 179.52 
L 267.802459 179.52 
z
" style="fill:#e377c2;"/>
   </g>
   <g id="patch_137">
    <path clip-path="url(#p5603784886)" d="M 282.830944 252 
L 297.85943 252 
L 297.85943 179.52 
L 282.830944 179.52 
z
" style="fill:#e377c2;"/>
   </g>
   <g id="patch_138">
    <path clip-path="url(#p5603784886)" d="M 297.85943 252 
L 312.887915 252 
L 312.887915 65.622857 
L 297.85943 65.622857 
z
" style="fill:#e377c2;"/>
   </g>
   <g id="patch_139">
    <path clip-path="url(#p5603784886)" d="M 312.887915 252 
L 327.9164 252 
L 327.9164 127.748571 
L 312.887915 127.748571 
z
" style="fill:#e377c2;"/>
   </g>
   <g id="patch_140">
    <path clip-path="url(#p5603784886)" d="M 327.9164 252 
L 342.944885 252 
L 342.944885 117.394286 
L 327.9164 117.394286 
z
" style="fill:#e377c2;"/>
   </g>
   <g id="patch_141">
    <path clip-path="url(#p5603784886)" d="M 342.944885 252 
L 357.97337 252 
L 357.97337 86.331429 
L 342.944885 86.331429 
z
" style="fill:#e377c2;"/>
   </g>
   <g id="patch_142">
    <path clip-path="url(#p5603784886)" d="M 357.97337 252 
L 373.001856 252 
L 373.001856 138.102857 
L 357.97337 138.102857 
z
" style="fill:#e377c2;"/>
   </g>
   <g id="patch_143">
    <path clip-path="url(#p5603784886)" d="M 69.794424 252 
L 84.935128 252 
L 84.935128 179.52 
L 69.794424 179.52 
z
" style="fill:#7f7f7f;"/>
   </g>
   <g id="patch_144">
    <path clip-path="url(#p5603784886)" d="M 84.935128 252 
L 100.075833 252 
L 100.075833 138.102857 
L 84.935128 138.102857 
z
" style="fill:#7f7f7f;"/>
   </g>
   <g id="patch_145">
    <path clip-path="url(#p5603784886)" d="M 100.075833 252 
L 115.216538 252 
L 115.216538 158.811429 
L 100.075833 158.811429 
z
" style="fill:#7f7f7f;"/>
   </g>
   <g id="patch_146">
    <path clip-path="url(#p5603784886)" d="M 115.216538 252 
L 130.357243 252 
L 130.357243 127.748571 
L 115.216538 127.748571 
z
" style="fill:#7f7f7f;"/>
   </g>
   <g id="patch_147">
    <path clip-path="url(#p5603784886)" d="M 130.357243 252 
L 145.497947 252 
L 145.497947 169.165714 
L 130.357243 169.165714 
z
" style="fill:#7f7f7f;"/>
   </g>
   <g id="patch_148">
    <path clip-path="url(#p5603784886)" d="M 145.497947 252 
L 160.638652 252 
L 160.638652 148.457143 
L 145.497947 148.457143 
z
" style="fill:#7f7f7f;"/>
   </g>
   <g id="patch_149">
    <path clip-path="url(#p5603784886)" d="M 160.638652 252 
L 175.779357 252 
L 175.779357 158.811429 
L 160.638652 158.811429 
z
" style="fill:#7f7f7f;"/>
   </g>
   <g id="patch_150">
    <path clip-path="url(#p5603784886)" d="M 175.779357 252 
L 190.920061 252 
L 190.920061 148.457143 
L 175.779357 148.457143 
z
" style="fill:#7f7f7f;"/>
   </g>
   <g id="patch_151">
    <path clip-path="url(#p5603784886)" d="M 190.920061 252 
L 206.060766 252 
L 206.060766 127.748571 
L 190.920061 127.748571 
z
" style="fill:#7f7f7f;"/>
   </g>
   <g id="patch_152">
    <path clip-path="url(#p5603784886)" d="M 206.060766 252 
L 221.201471 252 
L 221.201471 148.457143 
L 206.060766 148.457143 
z
" style="fill:#7f7f7f;"/>
   </g>
   <g id="patch_153">
    <path clip-path="url(#p5603784886)" d="M 221.201471 252 
L 236.342176 252 
L 236.342176 169.165714 
L 221.201471 169.165714 
z
" style="fill:#7f7f7f;"/>
   </g>
   <g id="patch_154">
    <path clip-path="url(#p5603784886)" d="M 236.342176 252 
L 251.48288 252 
L 251.48288 200.228571 
L 236.342176 200.228571 
z
" style="fill:#7f7f7f;"/>
   </g>
   <g id="patch_155">
    <path clip-path="url(#p5603784886)" d="M 251.48288 252 
L 266.623585 252 
L 266.623585 127.748571 
L 251.48288 127.748571 
z
" style="fill:#7f7f7f;"/>
   </g>
   <g id="patch_156">
    <path clip-path="url(#p5603784886)" d="M 266.623585 252 
L 281.76429 252 
L 281.76429 138.102857 
L 266.623585 138.102857 
z
" style="fill:#7f7f7f;"/>
   </g>
   <g id="patch_157">
    <path clip-path="url(#p5603784886)" d="M 281.76429 252 
L 296.904994 252 
L 296.904994 117.394286 
L 281.76429 117.394286 
z
" style="fill:#7f7f7f;"/>
   </g>
   <g id="patch_158">
    <path clip-path="url(#p5603784886)" d="M 296.904994 252 
L 312.045699 252 
L 312.045699 138.102857 
L 296.904994 138.102857 
z
" style="fill:#7f7f7f;"/>
   </g>
   <g id="patch_159">
    <path clip-path="url(#p5603784886)" d="M 312.045699 252 
L 327.186404 252 
L 327.186404 138.102857 
L 312.045699 138.102857 
z
" style="fill:#7f7f7f;"/>
   </g>
   <g id="patch_160">
    <path clip-path="url(#p5603784886)" d="M 327.186404 252 
L 342.327108 252 
L 342.327108 96.685714 
L 327.186404 96.685714 
z
" style="fill:#7f7f7f;"/>
   </g>
   <g id="patch_161">
    <path clip-path="url(#p5603784886)" d="M 342.327108 252 
L 357.467813 252 
L 357.467813 169.165714 
L 342.327108 169.165714 
z
" style="fill:#7f7f7f;"/>
   </g>
   <g id="patch_162">
    <path clip-path="url(#p5603784886)" d="M 357.467813 252 
L 372.608518 252 
L 372.608518 169.165714 
L 357.467813 169.165714 
z
" style="fill:#7f7f7f;"/>
   </g>
   <g id="patch_163">
    <path clip-path="url(#p5603784886)" d="M 69.368661 252 
L 84.572568 252 
L 84.572568 138.102857 
L 69.368661 138.102857 
z
" style="fill:#bcbd22;"/>
   </g>
   <g id="patch_164">
    <path clip-path="url(#p5603784886)" d="M 84.572568 252 
L 99.776475 252 
L 99.776475 148.457143 
L 84.572568 148.457143 
z
" style="fill:#bcbd22;"/>
   </g>
   <g id="patch_165">
    <path clip-path="url(#p5603784886)" d="M 99.776475 252 
L 114.980382 252 
L 114.980382 127.748571 
L 99.776475 127.748571 
z
" style="fill:#bcbd22;"/>
   </g>
   <g id="patch_166">
    <path clip-path="url(#p5603784886)" d="M 114.980382 252 
L 130.184288 252 
L 130.184288 138.102857 
L 114.980382 138.102857 
z
" style="fill:#bcbd22;"/>
   </g>
   <g id="patch_167">
    <path clip-path="url(#p5603784886)" d="M 130.184288 252 
L 145.388195 252 
L 145.388195 148.457143 
L 130.184288 148.457143 
z
" style="fill:#bcbd22;"/>
   </g>
   <g id="patch_168">
    <path clip-path="url(#p5603784886)" d="M 145.388195 252 
L 160.592102 252 
L 160.592102 179.52 
L 145.388195 179.52 
z
" style="fill:#bcbd22;"/>
   </g>
   <g id="patch_169">
    <path clip-path="url(#p5603784886)" d="M 160.592102 252 
L 175.796008 252 
L 175.796008 117.394286 
L 160.592102 117.394286 
z
" style="fill:#bcbd22;"/>
   </g>
   <g id="patch_170">
    <path clip-path="url(#p5603784886)" d="M 175.796008 252 
L 190.999915 252 
L 190.999915 127.748571 
L 175.796008 127.748571 
z
" style="fill:#bcbd22;"/>
   </g>
   <g id="patch_171">
    <path clip-path="url(#p5603784886)" d="M 190.999915 252 
L 206.203822 252 
L 206.203822 158.811429 
L 190.999915 158.811429 
z
" style="fill:#bcbd22;"/>
   </g>
   <g id="patch_172">
    <path clip-path="url(#p5603784886)" d="M 206.203822 252 
L 221.407729 252 
L 221.407729 148.457143 
L 206.203822 148.457143 
z
" style="fill:#bcbd22;"/>
   </g>
   <g id="patch_173">
    <path clip-path="url(#p5603784886)" d="M 221.407729 252 
L 236.611635 252 
L 236.611635 158.811429 
L 221.407729 158.811429 
z
" style="fill:#bcbd22;"/>
   </g>
   <g id="patch_174">
    <path clip-path="url(#p5603784886)" d="M 236.611635 252 
L 251.815542 252 
L 251.815542 138.102857 
L 236.611635 138.102857 
z
" style="fill:#bcbd22;"/>
   </g>
   <g id="patch_175">
    <path clip-path="url(#p5603784886)" d="M 251.815542 252 
L 267.019449 252 
L 267.019449 200.228571 
L 251.815542 200.228571 
z
" style="fill:#bcbd22;"/>
   </g>
   <g id="patch_176">
    <path clip-path="url(#p5603784886)" d="M 267.019449 252 
L 282.223355 252 
L 282.223355 148.457143 
L 267.019449 148.457143 
z
" style="fill:#bcbd22;"/>
   </g>
   <g id="patch_177">
    <path clip-path="url(#p5603784886)" d="M 282.223355 252 
L 297.427262 252 
L 297.427262 158.811429 
L 282.223355 158.811429 
z
" style="fill:#bcbd22;"/>
   </g>
   <g id="patch_178">
    <path clip-path="url(#p5603784886)" d="M 297.427262 252 
L 312.631169 252 
L 312.631169 189.874286 
L 297.427262 189.874286 
z
" style="fill:#bcbd22;"/>
   </g>
   <g id="patch_179">
    <path clip-path="url(#p5603784886)" d="M 312.631169 252 
L 327.835076 252 
L 327.835076 148.457143 
L 312.631169 148.457143 
z
" style="fill:#bcbd22;"/>
   </g>
   <g id="patch_180">
    <path clip-path="url(#p5603784886)" d="M 327.835076 252 
L 343.038982 252 
L 343.038982 148.457143 
L 327.835076 148.457143 
z
" style="fill:#bcbd22;"/>
   </g>
   <g id="patch_181">
    <path clip-path="url(#p5603784886)" d="M 343.038982 252 
L 358.242889 252 
L 358.242889 117.394286 
L 343.038982 117.394286 
z
" style="fill:#bcbd22;"/>
   </g>
   <g id="patch_182">
    <path clip-path="url(#p5603784886)" d="M 358.242889 252 
L 373.446796 252 
L 373.446796 127.748571 
L 358.242889 127.748571 
z
" style="fill:#bcbd22;"/>
   </g>
   <g id="patch_183">
    <path clip-path="url(#p5603784886)" d="M 69.983281 252 
L 85.154424 252 
L 85.154424 189.874286 
L 69.983281 189.874286 
z
" style="fill:#17becf;"/>
   </g>
   <g id="patch_184">
    <path clip-path="url(#p5603784886)" d="M 85.154424 252 
L 100.325566 252 
L 100.325566 179.52 
L 85.154424 179.52 
z
" style="fill:#17becf;"/>
   </g>
   <g id="patch_185">
    <path clip-path="url(#p5603784886)" d="M 100.325566 252 
L 115.496708 252 
L 115.496708 179.52 
L 100.325566 179.52 
z
" style="fill:#17becf;"/>
   </g>
   <g id="patch_186">
    <path clip-path="url(#p5603784886)" d="M 115.496708 252 
L 130.667851 252 
L 130.667851 127.748571 
L 115.496708 127.748571 
z
" style="fill:#17becf;"/>
   </g>
   <g id="patch_187">
    <path clip-path="url(#p5603784886)" d="M 130.667851 252 
L 145.838993 252 
L 145.838993 179.52 
L 130.667851 179.52 
z
" style="fill:#17becf;"/>
   </g>
   <g id="patch_188">
    <path clip-path="url(#p5603784886)" d="M 145.838993 252 
L 161.010135 252 
L 161.010135 44.914286 
L 145.838993 44.914286 
z
" style="fill:#17becf;"/>
   </g>
   <g id="patch_189">
    <path clip-path="url(#p5603784886)" d="M 161.010135 252 
L 176.181277 252 
L 176.181277 179.52 
L 161.010135 179.52 
z
" style="fill:#17becf;"/>
   </g>
   <g id="patch_190">
    <path clip-path="url(#p5603784886)" d="M 176.181277 252 
L 191.35242 252 
L 191.35242 169.165714 
L 176.181277 169.165714 
z
" style="fill:#17becf;"/>
   </g>
   <g id="patch_191">
    <path clip-path="url(#p5603784886)" d="M 191.35242 252 
L 206.523562 252 
L 206.523562 148.457143 
L 191.35242 148.457143 
z
" style="fill:#17becf;"/>
   </g>
   <g id="patch_192">
    <path clip-path="url(#p5603784886)" d="M 206.523562 252 
L 221.694704 252 
L 221.694704 107.04 
L 206.523562 107.04 
z
" style="fill:#17becf;"/>
   </g>
   <g id="patch_193">
    <path clip-path="url(#p5603784886)" d="M 221.694704 252 
L 236.865847 252 
L 236.865847 189.874286 
L 221.694704 189.874286 
z
" style="fill:#17becf;"/>
   </g>
   <g id="patch_194">
    <path clip-path="url(#p5603784886)" d="M 236.865847 252 
L 252.036989 252 
L 252.036989 148.457143 
L 236.865847 148.457143 
z
" style="fill:#17becf;"/>
   </g>
   <g id="patch_195">
    <path clip-path="url(#p5603784886)" d="M 252.036989 252 
L 267.208131 252 
L 267.208131 179.52 
L 252.036989 179.52 
z
" style="fill:#17becf;"/>
   </g>
   <g id="patch_196">
    <path clip-path="url(#p5603784886)" d="M 267.208131 252 
L 282.379273 252 
L 282.379273 127.748571 
L 267.208131 127.748571 
z
" style="fill:#17becf;"/>
   </g>
   <g id="patch_197">
    <path clip-path="url(#p5603784886)" d="M 282.379273 252 
L 297.550416 252 
L 297.550416 189.874286 
L 282.379273 189.874286 
z
" style="fill:#17becf;"/>
   </g>
   <g id="patch_198">
    <path clip-path="url(#p5603784886)" d="M 297.550416 252 
L 312.721558 252 
L 312.721558 169.165714 
L 297.550416 169.165714 
z
" style="fill:#17becf;"/>
   </g>
   <g id="patch_199">
    <path clip-path="url(#p5603784886)" d="M 312.721558 252 
L 327.8927 252 
L 327.8927 117.394286 
L 312.721558 117.394286 
z
" style="fill:#17becf;"/>
   </g>
   <g id="patch_200">
    <path clip-path="url(#p5603784886)" d="M 327.8927 252 
L 343.063842 252 
L 343.063842 86.331429 
L 327.8927 86.331429 
z
" style="fill:#17becf;"/>
   </g>
   <g id="patch_201">
    <path clip-path="url(#p5603784886)" d="M 343.063842 252 
L 358.234985 252 
L 358.234985 138.102857 
L 343.063842 138.102857 
z
" style="fill:#17becf;"/>
   </g>
   <g id="patch_202">
    <path clip-path="url(#p5603784886)" d="M 358.234985 252 
L 373.406127 252 
L 373.406127 117.394286 
L 358.234985 117.394286 
z
" style="fill:#17becf;"/>
   </g>
   <g id="matplotlib.axis_1">
    <g id="xtick_1">
     <g id="line2d_1">
      <defs>
       <path d="M 0 0 
L 0 3.5 
" id="mc0fdadab13" style="stroke:#000000;stroke-width:0.8;"/>
      </defs>
      <g>
       <use style="stroke:#000000;stroke-width:0.8;" x="69.156789" xlink:href="#mc0fdadab13" y="252"/>
      </g>
     </g>
     <g id="text_1">
      <!-- 0.0 -->
      <defs>
       <path d="M 31.78125 66.40625 
Q 24.171875 66.40625 20.328125 58.90625 
Q 16.5 51.421875 16.5 36.375 
Q 16.5 21.390625 20.328125 13.890625 
Q 24.171875 6.390625 31.78125 6.390625 
Q 39.453125 6.390625 43.28125 13.890625 
Q 47.125 21.390625 47.125 36.375 
Q 47.125 51.421875 43.28125 58.90625 
Q 39.453125 66.40625 31.78125 66.40625 
z
M 31.78125 74.21875 
Q 44.046875 74.21875 50.515625 64.515625 
Q 56.984375 54.828125 56.984375 36.375 
Q 56.984375 17.96875 50.515625 8.265625 
Q 44.046875 -1.421875 31.78125 -1.421875 
Q 19.53125 -1.421875 13.0625 8.265625 
Q 6.59375 17.96875 6.59375 36.375 
Q 6.59375 54.828125 13.0625 64.515625 
Q 19.53125 74.21875 31.78125 74.21875 
z
" id="DejaVuSans-48"/>
       <path d="M 10.6875 12.40625 
L 21 12.40625 
L 21 0 
L 10.6875 0 
z
" id="DejaVuSans-46"/>
      </defs>
      <g transform="translate(61.205226 266.598437)scale(0.1 -0.1)">
       <use xlink:href="#DejaVuSans-48"/>
       <use x="63.623047" xlink:href="#DejaVuSans-46"/>
       <use x="95.410156" xlink:href="#DejaVuSans-48"/>
      </g>
     </g>
    </g>
    <g id="xtick_2">
     <g id="line2d_2">
      <g>
       <use style="stroke:#000000;stroke-width:0.8;" x="130.047872" xlink:href="#mc0fdadab13" y="252"/>
      </g>
     </g>
     <g id="text_2">
      <!-- 0.2 -->
      <defs>
       <path d="M 19.1875 8.296875 
L 53.609375 8.296875 
L 53.609375 0 
L 7.328125 0 
L 7.328125 8.296875 
Q 12.9375 14.109375 22.625 23.890625 
Q 32.328125 33.6875 34.8125 36.53125 
Q 39.546875 41.84375 41.421875 45.53125 
Q 43.3125 49.21875 43.3125 52.78125 
Q 43.3125 58.59375 39.234375 62.25 
Q 35.15625 65.921875 28.609375 65.921875 
Q 23.96875 65.921875 18.8125 64.3125 
Q 13.671875 62.703125 7.8125 59.421875 
L 7.8125 69.390625 
Q 13.765625 71.78125 18.9375 73 
Q 24.125 74.21875 28.421875 74.21875 
Q 39.75 74.21875 46.484375 68.546875 
Q 53.21875 62.890625 53.21875 53.421875 
Q 53.21875 48.921875 51.53125 44.890625 
Q 49.859375 40.875 45.40625 35.40625 
Q 44.1875 33.984375 37.640625 27.21875 
Q 31.109375 20.453125 19.1875 8.296875 
z
" id="DejaVuSans-50"/>
      </defs>
      <g transform="translate(122.09631 266.598437)scale(0.1 -0.1)">
       <use xlink:href="#DejaVuSans-48"/>
       <use x="63.623047" xlink:href="#DejaVuSans-46"/>
       <use x="95.410156" xlink:href="#DejaVuSans-50"/>
      </g>
     </g>
    </g>
    <g id="xtick_3">
     <g id="line2d_3">
      <g>
       <use style="stroke:#000000;stroke-width:0.8;" x="190.938956" xlink:href="#mc0fdadab13" y="252"/>
      </g>
     </g>
     <g id="text_3">
      <!-- 0.4 -->
      <defs>
       <path d="M 37.796875 64.3125 
L 12.890625 25.390625 
L 37.796875 25.390625 
z
M 35.203125 72.90625 
L 47.609375 72.90625 
L 47.609375 25.390625 
L 58.015625 25.390625 
L 58.015625 17.1875 
L 47.609375 17.1875 
L 47.609375 0 
L 37.796875 0 
L 37.796875 17.1875 
L 4.890625 17.1875 
L 4.890625 26.703125 
z
" id="DejaVuSans-52"/>
      </defs>
      <g transform="translate(182.987393 266.598437)scale(0.1 -0.1)">
       <use xlink:href="#DejaVuSans-48"/>
       <use x="63.623047" xlink:href="#DejaVuSans-46"/>
       <use x="95.410156" xlink:href="#DejaVuSans-52"/>
      </g>
     </g>
    </g>
    <g id="xtick_4">
     <g id="line2d_4">
      <g>
       <use style="stroke:#000000;stroke-width:0.8;" x="251.830039" xlink:href="#mc0fdadab13" y="252"/>
      </g>
     </g>
     <g id="text_4">
      <!-- 0.6 -->
      <defs>
       <path d="M 33.015625 40.375 
Q 26.375 40.375 22.484375 35.828125 
Q 18.609375 31.296875 18.609375 23.390625 
Q 18.609375 15.53125 22.484375 10.953125 
Q 26.375 6.390625 33.015625 6.390625 
Q 39.65625 6.390625 43.53125 10.953125 
Q 47.40625 15.53125 47.40625 23.390625 
Q 47.40625 31.296875 43.53125 35.828125 
Q 39.65625 40.375 33.015625 40.375 
z
M 52.59375 71.296875 
L 52.59375 62.3125 
Q 48.875 64.0625 45.09375 64.984375 
Q 41.3125 65.921875 37.59375 65.921875 
Q 27.828125 65.921875 22.671875 59.328125 
Q 17.53125 52.734375 16.796875 39.40625 
Q 19.671875 43.65625 24.015625 45.921875 
Q 28.375 48.1875 33.59375 48.1875 
Q 44.578125 48.1875 50.953125 41.515625 
Q 57.328125 34.859375 57.328125 23.390625 
Q 57.328125 12.15625 50.6875 5.359375 
Q 44.046875 -1.421875 33.015625 -1.421875 
Q 20.359375 -1.421875 13.671875 8.265625 
Q 6.984375 17.96875 6.984375 36.375 
Q 6.984375 53.65625 15.1875 63.9375 
Q 23.390625 74.21875 37.203125 74.21875 
Q 40.921875 74.21875 44.703125 73.484375 
Q 48.484375 72.75 52.59375 71.296875 
z
" id="DejaVuSans-54"/>
      </defs>
      <g transform="translate(243.878477 266.598437)scale(0.1 -0.1)">
       <use xlink:href="#DejaVuSans-48"/>
       <use x="63.623047" xlink:href="#DejaVuSans-46"/>
       <use x="95.410156" xlink:href="#DejaVuSans-54"/>
      </g>
     </g>
    </g>
    <g id="xtick_5">
     <g id="line2d_5">
      <g>
       <use style="stroke:#000000;stroke-width:0.8;" x="312.721123" xlink:href="#mc0fdadab13" y="252"/>
      </g>
     </g>
     <g id="text_5">
      <!-- 0.8 -->
      <defs>
       <path d="M 31.78125 34.625 
Q 24.75 34.625 20.71875 30.859375 
Q 16.703125 27.09375 16.703125 20.515625 
Q 16.703125 13.921875 20.71875 10.15625 
Q 24.75 6.390625 31.78125 6.390625 
Q 38.8125 6.390625 42.859375 10.171875 
Q 46.921875 13.96875 46.921875 20.515625 
Q 46.921875 27.09375 42.890625 30.859375 
Q 38.875 34.625 31.78125 34.625 
z
M 21.921875 38.8125 
Q 15.578125 40.375 12.03125 44.71875 
Q 8.5 49.078125 8.5 55.328125 
Q 8.5 64.0625 14.71875 69.140625 
Q 20.953125 74.21875 31.78125 74.21875 
Q 42.671875 74.21875 48.875 69.140625 
Q 55.078125 64.0625 55.078125 55.328125 
Q 55.078125 49.078125 51.53125 44.71875 
Q 48 40.375 41.703125 38.8125 
Q 48.828125 37.15625 52.796875 32.3125 
Q 56.78125 27.484375 56.78125 20.515625 
Q 56.78125 9.90625 50.3125 4.234375 
Q 43.84375 -1.421875 31.78125 -1.421875 
Q 19.734375 -1.421875 13.25 4.234375 
Q 6.78125 9.90625 6.78125 20.515625 
Q 6.78125 27.484375 10.78125 32.3125 
Q 14.796875 37.15625 21.921875 38.8125 
z
M 18.3125 54.390625 
Q 18.3125 48.734375 21.84375 45.5625 
Q 25.390625 42.390625 31.78125 42.390625 
Q 38.140625 42.390625 41.71875 45.5625 
Q 45.3125 48.734375 45.3125 54.390625 
Q 45.3125 60.0625 41.71875 63.234375 
Q 38.140625 66.40625 31.78125 66.40625 
Q 25.390625 66.40625 21.84375 63.234375 
Q 18.3125 60.0625 18.3125 54.390625 
z
" id="DejaVuSans-56"/>
      </defs>
      <g transform="translate(304.76956 266.598437)scale(0.1 -0.1)">
       <use xlink:href="#DejaVuSans-48"/>
       <use x="63.623047" xlink:href="#DejaVuSans-46"/>
       <use x="95.410156" xlink:href="#DejaVuSans-56"/>
      </g>
     </g>
    </g>
    <g id="xtick_6">
     <g id="line2d_6">
      <g>
       <use style="stroke:#000000;stroke-width:0.8;" x="373.612206" xlink:href="#mc0fdadab13" y="252"/>
      </g>
     </g>
     <g id="text_6">
      <!-- 1.0 -->
      <defs>
       <path d="M 12.40625 8.296875 
L 28.515625 8.296875 
L 28.515625 63.921875 
L 10.984375 60.40625 
L 10.984375 69.390625 
L 28.421875 72.90625 
L 38.28125 72.90625 
L 38.28125 8.296875 
L 54.390625 8.296875 
L 54.390625 0 
L 12.40625 0 
z
" id="DejaVuSans-49"/>
      </defs>
      <g transform="translate(365.660644 266.598437)scale(0.1 -0.1)">
       <use xlink:href="#DejaVuSans-49"/>
       <use x="63.623047" xlink:href="#DejaVuSans-46"/>
       <use x="95.410156" xlink:href="#DejaVuSans-48"/>
      </g>
     </g>
    </g>
   </g>
   <g id="matplotlib.axis_2">
    <g id="ytick_1">
     <g id="line2d_7">
      <defs>
       <path d="M 0 0 
L -3.5 0 
" id="mdfc48df60f" style="stroke:#000000;stroke-width:0.8;"/>
      </defs>
      <g>
       <use style="stroke:#000000;stroke-width:0.8;" x="54" xlink:href="#mdfc48df60f" y="252"/>
      </g>
     </g>
     <g id="text_7">
      <!-- 0.0 -->
      <g transform="translate(31.096875 255.799219)scale(0.1 -0.1)">
       <use xlink:href="#DejaVuSans-48"/>
       <use x="63.623047" xlink:href="#DejaVuSans-46"/>
       <use x="95.410156" xlink:href="#DejaVuSans-48"/>
      </g>
     </g>
    </g>
    <g id="ytick_2">
     <g id="line2d_8">
      <g>
       <use style="stroke:#000000;stroke-width:0.8;" x="54" xlink:href="#mdfc48df60f" y="226.114286"/>
      </g>
     </g>
     <g id="text_8">
      <!-- 2.5 -->
      <defs>
       <path d="M 10.796875 72.90625 
L 49.515625 72.90625 
L 49.515625 64.59375 
L 19.828125 64.59375 
L 19.828125 46.734375 
Q 21.96875 47.46875 24.109375 47.828125 
Q 26.265625 48.1875 28.421875 48.1875 
Q 40.625 48.1875 47.75 41.5 
Q 54.890625 34.8125 54.890625 23.390625 
Q 54.890625 11.625 47.5625 5.09375 
Q 40.234375 -1.421875 26.90625 -1.421875 
Q 22.3125 -1.421875 17.546875 -0.640625 
Q 12.796875 0.140625 7.71875 1.703125 
L 7.71875 11.625 
Q 12.109375 9.234375 16.796875 8.0625 
Q 21.484375 6.890625 26.703125 6.890625 
Q 35.15625 6.890625 40.078125 11.328125 
Q 45.015625 15.765625 45.015625 23.390625 
Q 45.015625 31 40.078125 35.4375 
Q 35.15625 39.890625 26.703125 39.890625 
Q 22.75 39.890625 18.8125 39.015625 
Q 14.890625 38.140625 10.796875 36.28125 
z
" id="DejaVuSans-53"/>
      </defs>
      <g transform="translate(31.096875 229.913504)scale(0.1 -0.1)">
       <use xlink:href="#DejaVuSans-50"/>
       <use x="63.623047" xlink:href="#DejaVuSans-46"/>
       <use x="95.410156" xlink:href="#DejaVuSans-53"/>
      </g>
     </g>
    </g>
    <g id="ytick_3">
     <g id="line2d_9">
      <g>
       <use style="stroke:#000000;stroke-width:0.8;" x="54" xlink:href="#mdfc48df60f" y="200.228571"/>
      </g>
     </g>
     <g id="text_9">
      <!-- 5.0 -->
      <g transform="translate(31.096875 204.02779)scale(0.1 -0.1)">
       <use xlink:href="#DejaVuSans-53"/>
       <use x="63.623047" xlink:href="#DejaVuSans-46"/>
       <use x="95.410156" xlink:href="#DejaVuSans-48"/>
      </g>
     </g>
    </g>
    <g id="ytick_4">
     <g id="line2d_10">
      <g>
       <use style="stroke:#000000;stroke-width:0.8;" x="54" xlink:href="#mdfc48df60f" y="174.342857"/>
      </g>
     </g>
     <g id="text_10">
      <!-- 7.5 -->
      <defs>
       <path d="M 8.203125 72.90625 
L 55.078125 72.90625 
L 55.078125 68.703125 
L 28.609375 0 
L 18.3125 0 
L 43.21875 64.59375 
L 8.203125 64.59375 
z
" id="DejaVuSans-55"/>
      </defs>
      <g transform="translate(31.096875 178.142076)scale(0.1 -0.1)">
       <use xlink:href="#DejaVuSans-55"/>
       <use x="63.623047" xlink:href="#DejaVuSans-46"/>
       <use x="95.410156" xlink:href="#DejaVuSans-53"/>
      </g>
     </g>
    </g>
    <g id="ytick_5">
     <g id="line2d_11">
      <g>
       <use style="stroke:#000000;stroke-width:0.8;" x="54" xlink:href="#mdfc48df60f" y="148.457143"/>
      </g>
     </g>
     <g id="text_11">
      <!-- 10.0 -->
      <g transform="translate(24.734375 152.256362)scale(0.1 -0.1)">
       <use xlink:href="#DejaVuSans-49"/>
       <use x="63.623047" xlink:href="#DejaVuSans-48"/>
       <use x="127.246094" xlink:href="#DejaVuSans-46"/>
       <use x="159.033203" xlink:href="#DejaVuSans-48"/>
      </g>
     </g>
    </g>
    <g id="ytick_6">
     <g id="line2d_12">
      <g>
       <use style="stroke:#000000;stroke-width:0.8;" x="54" xlink:href="#mdfc48df60f" y="122.571429"/>
      </g>
     </g>
     <g id="text_12">
      <!-- 12.5 -->
      <g transform="translate(24.734375 126.370647)scale(0.1 -0.1)">
       <use xlink:href="#DejaVuSans-49"/>
       <use x="63.623047" xlink:href="#DejaVuSans-50"/>
       <use x="127.246094" xlink:href="#DejaVuSans-46"/>
       <use x="159.033203" xlink:href="#DejaVuSans-53"/>
      </g>
     </g>
    </g>
    <g id="ytick_7">
     <g id="line2d_13">
      <g>
       <use style="stroke:#000000;stroke-width:0.8;" x="54" xlink:href="#mdfc48df60f" y="96.685714"/>
      </g>
     </g>
     <g id="text_13">
      <!-- 15.0 -->
      <g transform="translate(24.734375 100.484933)scale(0.1 -0.1)">
       <use xlink:href="#DejaVuSans-49"/>
       <use x="63.623047" xlink:href="#DejaVuSans-53"/>
       <use x="127.246094" xlink:href="#DejaVuSans-46"/>
       <use x="159.033203" xlink:href="#DejaVuSans-48"/>
      </g>
     </g>
    </g>
    <g id="ytick_8">
     <g id="line2d_14">
      <g>
       <use style="stroke:#000000;stroke-width:0.8;" x="54" xlink:href="#mdfc48df60f" y="70.8"/>
      </g>
     </g>
     <g id="text_14">
      <!-- 17.5 -->
      <g transform="translate(24.734375 74.599219)scale(0.1 -0.1)">
       <use xlink:href="#DejaVuSans-49"/>
       <use x="63.623047" xlink:href="#DejaVuSans-55"/>
       <use x="127.246094" xlink:href="#DejaVuSans-46"/>
       <use x="159.033203" xlink:href="#DejaVuSans-53"/>
      </g>
     </g>
    </g>
    <g id="ytick_9">
     <g id="line2d_15">
      <g>
       <use style="stroke:#000000;stroke-width:0.8;" x="54" xlink:href="#mdfc48df60f" y="44.914286"/>
      </g>
     </g>
     <g id="text_15">
      <!-- 20.0 -->
      <g transform="translate(24.734375 48.713504)scale(0.1 -0.1)">
       <use xlink:href="#DejaVuSans-50"/>
       <use x="63.623047" xlink:href="#DejaVuSans-48"/>
       <use x="127.246094" xlink:href="#DejaVuSans-46"/>
       <use x="159.033203" xlink:href="#DejaVuSans-48"/>
      </g>
     </g>
    </g>
   </g>
   <g id="patch_203">
    <path d="M 54 252 
L 54 34.56 
" style="fill:none;stroke:#000000;stroke-linecap:square;stroke-linejoin:miter;stroke-width:0.8;"/>
   </g>
   <g id="patch_204">
    <path d="M 54 252 
L 388.8 252 
" style="fill:none;stroke:#000000;stroke-linecap:square;stroke-linejoin:miter;stroke-width:0.8;"/>
   </g>
  </g>
 </g>
 <defs>
  <clipPath id="p5603784886">
   <rect height="217.44" width="334.8" x="54" y="34.56"/>
  </clipPath>
 </defs>
</svg>
