<?xml version="1.0" encoding="utf-8" standalone="no"?>
<!DOCTYPE svg PUBLIC "-//W3C//DTD SVG 1.1//EN"
  "http://www.w3.org/Graphics/SVG/1.1/DTD/svg11.dtd">
<!-- Created with matplotlib (https://matplotlib.org/) -->
<svg height="432pt" version="1.1" viewBox="0 0 432 432" width="432pt" xmlns="http://www.w3.org/2000/svg" xmlns:xlink="http://www.w3.org/1999/xlink">
 <defs>
  <style type="text/css">
*{stroke-linecap:butt;stroke-linejoin:round;}
  </style>
 </defs>
 <g id="figure_1">
  <g id="patch_1">
   <path d="M 0 432 
L 432 432 
L 432 0 
L 0 0 
z
" style="fill:#ffffff;"/>
  </g>
  <g id="axes_1">
   <g id="patch_2">
    <path d="M 54 378 
L 388.8 378 
L 388.8 51.84 
L 54 51.84 
z
" style="fill:#ffffff;"/>
   </g>
   <g id="matplotlib.axis_1">
    <g id="xtick_1">
     <g id="line2d_1">
      <path clip-path="url(#p91b9f2be56)" d="M 87.48 378 
L 87.48 51.84 
" style="fill:none;stroke:#b0b0b0;stroke-linecap:square;stroke-width:0.8;"/>
     </g>
     <g id="line2d_2">
      <defs>
       <path d="M 0 0 
L 0 3.5 
" id="m16066e4f22" style="stroke:#000000;stroke-width:0.8;"/>
      </defs>
      <g>
       <use style="stroke:#000000;stroke-width:0.8;" x="87.48" xlink:href="#m16066e4f22" y="378"/>
      </g>
     </g>
     <g id="text_1">
      <!-- −4 -->
      <defs>
       <path d="M 10.59375 35.5 
L 73.1875 35.5 
L 73.1875 27.203125 
L 10.59375 27.203125 
z
" id="DejaVuSans-8722"/>
       <path d="M 37.796875 64.3125 
L 12.890625 25.390625 
L 37.796875 25.390625 
z
M 35.203125 72.90625 
L 47.609375 72.90625 
L 47.609375 25.390625 
L 58.015625 25.390625 
L 58.015625 17.1875 
L 47.609375 17.1875 
L 47.609375 0 
L 37.796875 0 
L 37.796875 17.1875 
L 4.890625 17.1875 
L 4.890625 26.703125 
z
" id="DejaVuSans-52"/>
      </defs>
      <g transform="translate(80.108906 392.598437)scale(0.1 -0.1)">
       <use xlink:href="#DejaVuSans-8722"/>
       <use x="83.789062" xlink:href="#DejaVuSans-52"/>
      </g>
     </g>
    </g>
    <g id="xtick_2">
     <g id="line2d_3">
      <path clip-path="url(#p91b9f2be56)" d="M 154.44 378 
L 154.44 51.84 
" style="fill:none;stroke:#b0b0b0;stroke-linecap:square;stroke-width:0.8;"/>
     </g>
     <g id="line2d_4">
      <g>
       <use style="stroke:#000000;stroke-width:0.8;" x="154.44" xlink:href="#m16066e4f22" y="378"/>
      </g>
     </g>
     <g id="text_2">
      <!-- −2 -->
      <defs>
       <path d="M 19.1875 8.296875 
L 53.609375 8.296875 
L 53.609375 0 
L 7.328125 0 
L 7.328125 8.296875 
Q 12.9375 14.109375 22.625 23.890625 
Q 32.328125 33.6875 34.8125 36.53125 
Q 39.546875 41.84375 41.421875 45.53125 
Q 43.3125 49.21875 43.3125 52.78125 
Q 43.3125 58.59375 39.234375 62.25 
Q 35.15625 65.921875 28.609375 65.921875 
Q 23.96875 65.921875 18.8125 64.3125 
Q 13.671875 62.703125 7.8125 59.421875 
L 7.8125 69.390625 
Q 13.765625 71.78125 18.9375 73 
Q 24.125 74.21875 28.421875 74.21875 
Q 39.75 74.21875 46.484375 68.546875 
Q 53.21875 62.890625 53.21875 53.421875 
Q 53.21875 48.921875 51.53125 44.890625 
Q 49.859375 40.875 45.40625 35.40625 
Q 44.1875 33.984375 37.640625 27.21875 
Q 31.109375 20.453125 19.1875 8.296875 
z
" id="DejaVuSans-50"/>
      </defs>
      <g transform="translate(147.068906 392.598437)scale(0.1 -0.1)">
       <use xlink:href="#DejaVuSans-8722"/>
       <use x="83.789062" xlink:href="#DejaVuSans-50"/>
      </g>
     </g>
    </g>
    <g id="xtick_3">
     <g id="line2d_5">
      <path clip-path="url(#p91b9f2be56)" d="M 221.4 378 
L 221.4 51.84 
" style="fill:none;stroke:#b0b0b0;stroke-linecap:square;stroke-width:0.8;"/>
     </g>
     <g id="line2d_6">
      <g>
       <use style="stroke:#000000;stroke-width:0.8;" x="221.4" xlink:href="#m16066e4f22" y="378"/>
      </g>
     </g>
     <g id="text_3">
      <!-- 0 -->
      <defs>
       <path d="M 31.78125 66.40625 
Q 24.171875 66.40625 20.328125 58.90625 
Q 16.5 51.421875 16.5 36.375 
Q 16.5 21.390625 20.328125 13.890625 
Q 24.171875 6.390625 31.78125 6.390625 
Q 39.453125 6.390625 43.28125 13.890625 
Q 47.125 21.390625 47.125 36.375 
Q 47.125 51.421875 43.28125 58.90625 
Q 39.453125 66.40625 31.78125 66.40625 
z
M 31.78125 74.21875 
Q 44.046875 74.21875 50.515625 64.515625 
Q 56.984375 54.828125 56.984375 36.375 
Q 56.984375 17.96875 50.515625 8.265625 
Q 44.046875 -1.421875 31.78125 -1.421875 
Q 19.53125 -1.421875 13.0625 8.265625 
Q 6.59375 17.96875 6.59375 36.375 
Q 6.59375 54.828125 13.0625 64.515625 
Q 19.53125 74.21875 31.78125 74.21875 
z
" id="DejaVuSans-48"/>
      </defs>
      <g transform="translate(218.21875 392.598437)scale(0.1 -0.1)">
       <use xlink:href="#DejaVuSans-48"/>
      </g>
     </g>
    </g>
    <g id="xtick_4">
     <g id="line2d_7">
      <path clip-path="url(#p91b9f2be56)" d="M 288.36 378 
L 288.36 51.84 
" style="fill:none;stroke:#b0b0b0;stroke-linecap:square;stroke-width:0.8;"/>
     </g>
     <g id="line2d_8">
      <g>
       <use style="stroke:#000000;stroke-width:0.8;" x="288.36" xlink:href="#m16066e4f22" y="378"/>
      </g>
     </g>
     <g id="text_4">
      <!-- 2 -->
      <g transform="translate(285.17875 392.598437)scale(0.1 -0.1)">
       <use xlink:href="#DejaVuSans-50"/>
      </g>
     </g>
    </g>
    <g id="xtick_5">
     <g id="line2d_9">
      <path clip-path="url(#p91b9f2be56)" d="M 355.32 378 
L 355.32 51.84 
" style="fill:none;stroke:#b0b0b0;stroke-linecap:square;stroke-width:0.8;"/>
     </g>
     <g id="line2d_10">
      <g>
       <use style="stroke:#000000;stroke-width:0.8;" x="355.32" xlink:href="#m16066e4f22" y="378"/>
      </g>
     </g>
     <g id="text_5">
      <!-- 4 -->
      <g transform="translate(352.13875 392.598437)scale(0.1 -0.1)">
       <use xlink:href="#DejaVuSans-52"/>
      </g>
     </g>
    </g>
   </g>
   <g id="matplotlib.axis_2">
    <g id="ytick_1">
     <g id="line2d_11">
      <path clip-path="url(#p91b9f2be56)" d="M 54 345.384 
L 388.8 345.384 
" style="fill:none;stroke:#b0b0b0;stroke-linecap:square;stroke-width:0.8;"/>
     </g>
     <g id="line2d_12">
      <defs>
       <path d="M 0 0 
L -3.5 0 
" id="m3583abb4d8" style="stroke:#000000;stroke-width:0.8;"/>
      </defs>
      <g>
       <use style="stroke:#000000;stroke-width:0.8;" x="54" xlink:href="#m3583abb4d8" y="345.384"/>
      </g>
     </g>
     <g id="text_6">
      <!-- −4 -->
      <g transform="translate(32.257812 349.183219)scale(0.1 -0.1)">
       <use xlink:href="#DejaVuSans-8722"/>
       <use x="83.789062" xlink:href="#DejaVuSans-52"/>
      </g>
     </g>
    </g>
    <g id="ytick_2">
     <g id="line2d_13">
      <path clip-path="url(#p91b9f2be56)" d="M 54 280.152 
L 388.8 280.152 
" style="fill:none;stroke:#b0b0b0;stroke-linecap:square;stroke-width:0.8;"/>
     </g>
     <g id="line2d_14">
      <g>
       <use style="stroke:#000000;stroke-width:0.8;" x="54" xlink:href="#m3583abb4d8" y="280.152"/>
      </g>
     </g>
     <g id="text_7">
      <!-- −2 -->
      <g transform="translate(32.257812 283.951219)scale(0.1 -0.1)">
       <use xlink:href="#DejaVuSans-8722"/>
       <use x="83.789062" xlink:href="#DejaVuSans-50"/>
      </g>
     </g>
    </g>
    <g id="ytick_3">
     <g id="line2d_15">
      <path clip-path="url(#p91b9f2be56)" d="M 54 214.92 
L 388.8 214.92 
" style="fill:none;stroke:#b0b0b0;stroke-linecap:square;stroke-width:0.8;"/>
     </g>
     <g id="line2d_16">
      <g>
       <use style="stroke:#000000;stroke-width:0.8;" x="54" xlink:href="#m3583abb4d8" y="214.92"/>
      </g>
     </g>
     <g id="text_8">
      <!-- 0 -->
      <g transform="translate(40.6375 218.719219)scale(0.1 -0.1)">
       <use xlink:href="#DejaVuSans-48"/>
      </g>
     </g>
    </g>
    <g id="ytick_4">
     <g id="line2d_17">
      <path clip-path="url(#p91b9f2be56)" d="M 54 149.688 
L 388.8 149.688 
" style="fill:none;stroke:#b0b0b0;stroke-linecap:square;stroke-width:0.8;"/>
     </g>
     <g id="line2d_18">
      <g>
       <use style="stroke:#000000;stroke-width:0.8;" x="54" xlink:href="#m3583abb4d8" y="149.688"/>
      </g>
     </g>
     <g id="text_9">
      <!-- 2 -->
      <g transform="translate(40.6375 153.487219)scale(0.1 -0.1)">
       <use xlink:href="#DejaVuSans-50"/>
      </g>
     </g>
    </g>
    <g id="ytick_5">
     <g id="line2d_19">
      <path clip-path="url(#p91b9f2be56)" d="M 54 84.456 
L 388.8 84.456 
" style="fill:none;stroke:#b0b0b0;stroke-linecap:square;stroke-width:0.8;"/>
     </g>
     <g id="line2d_20">
      <g>
       <use style="stroke:#000000;stroke-width:0.8;" x="54" xlink:href="#m3583abb4d8" y="84.456"/>
      </g>
     </g>
     <g id="text_10">
      <!-- 4 -->
      <g transform="translate(40.6375 88.255219)scale(0.1 -0.1)">
       <use xlink:href="#DejaVuSans-52"/>
      </g>
     </g>
    </g>
   </g>
   <g id="LineCollection_1"/>
   <g id="LineCollection_2">
    <path clip-path="url(#p91b9f2be56)" d="M 149.02278 202.375385 
L 146.666597 194.012308 
L 146.052477 185.649231 
L 146.742164 177.286154 
L 148.566221 168.923077 
L 149.657143 165.78017 
L 151.270671 160.56 
L 154.875126 152.196923 
L 156.489796 149.253142 
L 159.306219 143.833846 
L 163.322449 137.605265 
L 164.677374 135.470769 
L 170.155102 128.129261 
L 170.934831 127.107692 
L 176.987755 120.013416 
L 178.138677 118.744615 
L 183.820408 112.868475 
L 186.477799 110.381538 
L 190.653061 106.544916 
L 196.312649 102.018462 
L 197.485714 101.055735 
L 204.318367 96.015393 
L 208.117706 93.655385 
L 211.15102 91.624307 
L 217.983673 87.752402 
L 223.33978 85.292308 
L 224.816327 84.524421 
L 231.64898 81.589537 
L 238.481633 79.371159 
L 245.314286 77.773494 
L 251.088732 76.929231 
L 252.146939 76.742991 
L 258.979592 76.330718 
L 265.812245 76.787555 
L 266.510467 76.929231 
L 272.644898 78.201885 
L 279.477551 81.014616 
L 285.571931 85.292308 
L 286.310204 85.977101 
L 292.188524 93.655385 
L 293.142857 95.854832 
L 295.436313 102.018462 
L 296.675726 110.381538 
L 296.474363 118.744615 
L 295.097498 127.107692 
L 293.142857 133.664581 
L 292.667904 135.470769 
L 289.50757 143.833846 
L 286.310204 150.115648 
L 285.315995 152.196923 
L 280.334528 160.56 
L 279.477551 161.791528 
L 274.521949 168.923077 
L 272.644898 171.289528 
L 267.709909 177.286154 
L 265.812245 179.404622 
L 259.781477 185.649231 
L 258.979592 186.447632 
L 252.146939 192.74434 
L 250.609643 194.012308 
L 245.314286 198.425989 
L 239.702716 202.375385 
L 238.481633 203.282616 
L 231.64898 207.783753 
L 226.139026 210.738462 
L 224.816327 211.524963 
L 217.983673 214.990094 
L 211.15102 217.693931 
L 206.57739 219.101538 
L 204.318367 219.91634 
L 197.485714 221.701015 
L 190.653061 222.783771 
L 183.820408 223.147292 
L 176.987755 222.691056 
L 170.155102 221.208588 
L 164.951743 219.101538 
L 163.322449 218.350779 
L 156.489796 213.364758 
L 154.00664 210.738462 
L 149.657143 203.645874 
L 149.02278 202.375385 
" style="fill:none;stroke:#3b528b;stroke-width:1.5;"/>
   </g>
   <g id="LineCollection_3">
    <path clip-path="url(#p91b9f2be56)" d="M 173.119303 185.649231 
L 170.992313 177.286154 
L 171.230016 168.923077 
L 173.107427 160.56 
L 176.376013 152.196923 
L 176.987755 151.074741 
L 180.913237 143.833846 
L 183.820408 139.612845 
L 186.773374 135.470769 
L 190.653061 130.882506 
L 194.093407 127.107692 
L 197.485714 123.776523 
L 203.239893 118.744615 
L 204.318367 117.853748 
L 211.15102 112.906109 
L 215.31171 110.381538 
L 217.983673 108.768401 
L 224.816327 105.446312 
L 231.64898 102.929604 
L 235.357767 102.018462 
L 238.481633 101.213549 
L 245.314286 100.46387 
L 252.146939 100.875313 
L 256.394438 102.018462 
L 258.979592 102.919867 
L 265.812245 107.927247 
L 267.853775 110.381538 
L 271.304202 118.744615 
L 271.888981 127.107692 
L 270.61631 135.470769 
L 267.896517 143.833846 
L 265.812245 148.110946 
L 263.848562 152.196923 
L 258.979592 159.859907 
L 258.522845 160.56 
L 252.146939 168.552196 
L 251.830487 168.923077 
L 245.314286 175.589085 
L 243.465037 177.286154 
L 238.481633 181.514214 
L 232.815221 185.649231 
L 231.64898 186.478486 
L 224.816327 190.601377 
L 217.983673 193.908021 
L 217.698758 194.012308 
L 211.15102 196.473908 
L 204.318367 198.155651 
L 197.485714 198.884662 
L 190.653061 198.447796 
L 183.820408 196.414595 
L 179.800135 194.012308 
L 176.987755 191.411463 
L 173.119303 185.649231 
" style="fill:none;stroke:#21918c;stroke-width:1.5;"/>
   </g>
   <g id="LineCollection_4">
    <path clip-path="url(#p91b9f2be56)" d="M 195.606322 168.923077 
L 194.562515 160.56 
L 196.749607 152.196923 
L 197.485714 150.855171 
L 201.624759 143.833846 
L 204.318367 140.559621 
L 209.040097 135.470769 
L 211.15102 133.642107 
L 217.983673 128.799243 
L 221.161269 127.107692 
L 224.816327 125.43788 
L 231.64898 123.750696 
L 238.481633 123.914469 
L 245.241481 127.107692 
L 245.314286 127.198921 
L 248.318747 135.470769 
L 247.214928 143.833846 
L 245.314286 148.132393 
L 243.3888 152.196923 
L 238.481633 158.923202 
L 237.13612 160.56 
L 231.64898 165.626174 
L 227.401004 168.923077 
L 224.816327 170.60876 
L 217.983673 173.826655 
L 211.15102 175.707975 
L 204.318367 175.552759 
L 197.485714 171.557072 
L 195.606322 168.923077 
" style="fill:none;stroke:#5ec962;stroke-width:1.5;"/>
   </g>
   <g id="LineCollection_5"/>
   <g id="LineCollection_6"/>
   <g id="LineCollection_7">
    <path clip-path="url(#p91b9f2be56)" d="M 217.684497 202.375385 
L 215.038084 194.012308 
L 213.484193 185.649231 
L 213.042112 177.286154 
L 213.942023 168.923077 
L 216.709907 160.56 
L 217.983673 158.338445 
L 222.466881 152.196923 
L 224.816327 149.990669 
L 231.64898 145.555468 
L 236.196882 143.833846 
L 238.481633 143.046191 
L 245.314286 141.776217 
L 252.146939 141.496347 
L 258.979592 142.03374 
L 265.812245 143.314757 
L 267.593782 143.833846 
L 272.644898 145.074353 
L 279.477551 147.343057 
L 286.310204 150.301968 
L 289.857159 152.196923 
L 293.142857 153.7606 
L 299.97551 157.657584 
L 304.207436 160.56 
L 306.808163 162.229041 
L 313.640816 167.313492 
L 315.558899 168.923077 
L 320.473469 172.977336 
L 325.055156 177.286154 
L 327.306122 179.461595 
L 333.144768 185.649231 
L 334.138776 186.782652 
L 340.14876 194.012308 
L 340.971429 195.129445 
L 346.227857 202.375385 
L 347.804082 204.956215 
L 351.418944 210.738462 
L 354.636735 217.197931 
L 355.64524 219.101538 
L 359.130556 227.464615 
L 361.469388 235.529593 
L 361.567213 235.827692 
L 363.225307 244.190769 
L 363.690857 252.553846 
L 362.762633 260.916923 
L 361.469388 265.083836 
L 360.000077 269.28 
L 354.636735 277.255282 
L 354.284546 277.643077 
L 347.804082 282.796175 
L 340.971429 285.948433 
L 340.756569 286.006154 
L 334.138776 287.688304 
L 327.306122 288.336947 
L 320.473469 288.112628 
L 313.640816 287.125677 
L 309.184547 286.006154 
L 306.808163 285.50413 
L 299.97551 283.480178 
L 293.142857 280.813748 
L 286.825895 277.643077 
L 286.310204 277.413065 
L 279.477551 273.847855 
L 272.644898 269.367652 
L 272.524228 269.28 
L 265.812245 264.701202 
L 261.164982 260.916923 
L 258.979592 259.171408 
L 252.146939 252.97086 
L 251.718716 252.553846 
L 245.314286 246.125369 
L 243.540292 244.190769 
L 238.481633 238.241368 
L 236.518673 235.827692 
L 231.64898 229.058697 
L 230.509301 227.464615 
L 225.395641 219.101538 
L 224.816327 217.942148 
L 221.01028 210.738462 
L 217.983673 203.06575 
L 217.684497 202.375385 
" style="fill:none;stroke:#3b528b;stroke-width:1.5;"/>
   </g>
   <g id="LineCollection_8">
    <path clip-path="url(#p91b9f2be56)" d="M 237.985559 194.012308 
L 238.130027 185.649231 
L 238.481633 184.326327 
L 240.906029 177.286154 
L 245.314286 171.841306 
L 249.406059 168.923077 
L 252.146939 167.574343 
L 258.979592 165.945585 
L 265.812245 165.772317 
L 272.644898 166.709077 
L 279.477551 168.596308 
L 280.279977 168.923077 
L 286.310204 171.290552 
L 293.142857 174.755743 
L 297.17933 177.286154 
L 299.97551 179.065926 
L 306.808163 184.184083 
L 308.522953 185.649231 
L 313.640816 190.327037 
L 317.261096 194.012308 
L 320.473469 197.708003 
L 324.268155 202.375385 
L 327.306122 206.864691 
L 329.859084 210.738462 
L 334.131492 219.101538 
L 334.138776 219.122429 
L 337.148541 227.464615 
L 338.719742 235.827692 
L 338.55041 244.190769 
L 335.845185 252.553846 
L 334.138776 255.010059 
L 327.575707 260.916923 
L 327.306122 261.077403 
L 320.473469 263.445129 
L 313.640816 264.145943 
L 306.808163 263.625244 
L 299.97551 262.108349 
L 296.638019 260.916923 
L 293.142857 259.714562 
L 286.310204 256.569262 
L 279.477551 252.584135 
L 279.43346 252.553846 
L 272.644898 247.815715 
L 268.215679 244.190769 
L 265.812245 242.086085 
L 259.454371 235.827692 
L 258.979592 235.298655 
L 252.459984 227.464615 
L 252.146939 227.010972 
L 246.874257 219.101538 
L 245.314286 216.060033 
L 242.568856 210.738462 
L 239.583013 202.375385 
L 238.481633 196.49191 
L 237.985559 194.012308 
" style="fill:none;stroke:#21918c;stroke-width:1.5;"/>
   </g>
   <g id="LineCollection_9">
    <path clip-path="url(#p91b9f2be56)" d="M 263.142067 210.738462 
L 261.405508 202.375385 
L 263.519427 194.012308 
L 265.812245 191.648439 
L 272.644898 188.933637 
L 279.477551 189.223116 
L 286.310204 191.283966 
L 291.821752 194.012308 
L 293.142857 194.788088 
L 299.97551 200.091779 
L 302.447312 202.375385 
L 306.808163 207.487636 
L 309.291281 210.738462 
L 313.640816 218.92313 
L 313.729886 219.101538 
L 315.363202 227.464615 
L 313.640816 235.441023 
L 313.481152 235.827692 
L 306.808163 240.291949 
L 299.97551 240.991113 
L 293.142857 239.550824 
L 286.310204 236.692365 
L 284.893015 235.827692 
L 279.477551 231.961887 
L 274.242119 227.464615 
L 272.644898 225.698418 
L 267.40565 219.101538 
L 265.812245 216.128692 
L 263.142067 210.738462 
" style="fill:none;stroke:#5ec962;stroke-width:1.5;"/>
   </g>
   <g id="LineCollection_10"/>
   <g id="LineCollection_11"/>
   <g id="LineCollection_12">
    <path clip-path="url(#p91b9f2be56)" d="M 79.138684 302.732308 
L 77.000161 294.369231 
L 75.897263 286.006154 
L 75.717639 277.643077 
L 76.443274 269.28 
L 78.147436 260.916923 
L 81.007151 252.553846 
L 81.330612 251.85247 
L 84.849959 244.190769 
L 88.163265 238.874104 
L 90.177806 235.827692 
L 94.995918 229.90449 
L 97.244557 227.464615 
L 101.828571 223.067698 
L 106.846354 219.101538 
L 108.661224 217.734014 
L 115.493878 213.420924 
L 121.094706 210.738462 
L 122.326531 210.122456 
L 129.159184 207.385873 
L 135.991837 205.455735 
L 142.82449 204.20144 
L 149.657143 203.541117 
L 156.489796 203.432658 
L 163.322449 203.869216 
L 170.155102 204.878473 
L 176.987755 206.525591 
L 183.820408 208.92027 
L 187.743138 210.738462 
L 190.653061 212.019495 
L 197.485714 215.857288 
L 202.026004 219.101538 
L 204.318367 220.805522 
L 211.15102 226.994401 
L 211.610597 227.464615 
L 217.983673 234.933557 
L 218.670598 235.827692 
L 223.973096 244.190769 
L 224.816327 245.946929 
L 227.963528 252.553846 
L 230.669929 260.916923 
L 231.64898 265.874967 
L 232.382615 269.28 
L 233.177583 277.643077 
L 232.980796 286.006154 
L 231.772517 294.369231 
L 231.64898 294.841418 
L 229.731824 302.732308 
L 226.513995 311.095385 
L 224.816327 314.34068 
L 222.082016 319.458462 
L 217.983673 325.351957 
L 216.113522 327.821538 
L 211.15102 333.337552 
L 208.169482 336.184615 
L 204.318367 339.537746 
L 197.485714 344.334328 
L 197.123113 344.547692 
L 190.653061 348.360913 
L 183.820408 351.365046 
L 179.075809 352.910769 
L 176.987755 353.655843 
L 170.155102 355.428704 
L 163.322449 356.515009 
L 156.489796 356.984894 
L 149.657143 356.868156 
L 142.82449 356.157422 
L 135.991837 354.807373 
L 129.718882 352.910769 
L 129.159184 352.758186 
L 122.326531 350.273532 
L 115.493878 346.880401 
L 111.776096 344.547692 
L 108.661224 342.580068 
L 101.828571 337.19585 
L 100.719328 336.184615 
L 94.995918 330.414428 
L 92.755616 327.821538 
L 88.163265 321.454287 
L 86.824422 319.458462 
L 82.39267 311.095385 
L 81.330612 308.322 
L 79.138684 302.732308 
" style="fill:none;stroke:#3b528b;stroke-width:1.5;"/>
   </g>
   <g id="LineCollection_13">
    <path clip-path="url(#p91b9f2be56)" d="M 100.838767 294.369231 
L 99.193468 286.006154 
L 98.925506 277.643077 
L 100.008004 269.28 
L 101.828571 263.191723 
L 102.528924 260.916923 
L 106.668873 252.553846 
L 108.661224 249.662367 
L 112.977032 244.190769 
L 115.493878 241.634543 
L 122.326531 236.016904 
L 122.615605 235.827692 
L 129.159184 231.963659 
L 135.991837 229.106918 
L 142.003825 227.464615 
L 142.82449 227.240062 
L 149.657143 226.215225 
L 156.489796 226.046895 
L 163.322449 226.724442 
L 166.615008 227.464615 
L 170.155102 228.252529 
L 176.987755 230.69038 
L 183.820408 234.234675 
L 186.195464 235.827692 
L 190.653061 239.18342 
L 195.901833 244.190769 
L 197.485714 246.061299 
L 202.203299 252.553846 
L 204.318367 256.638555 
L 206.36853 260.916923 
L 208.869156 269.28 
L 209.933926 277.643077 
L 209.670353 286.006154 
L 208.051999 294.369231 
L 204.91401 302.732308 
L 204.318367 303.827 
L 199.988292 311.095385 
L 197.485714 314.23163 
L 192.56101 319.458462 
L 190.653061 321.149416 
L 183.820408 326.05155 
L 180.546795 327.821538 
L 176.987755 329.619061 
L 170.155102 332.086313 
L 163.322449 333.5981 
L 156.489796 334.252029 
L 149.657143 334.089567 
L 142.82449 333.100455 
L 135.991837 331.22162 
L 129.159184 328.330426 
L 128.24381 327.821538 
L 122.326531 324.270422 
L 116.30759 319.458462 
L 115.493878 318.689084 
L 108.888523 311.095385 
L 108.661224 310.749725 
L 103.963932 302.732308 
L 101.828571 297.095139 
L 100.838767 294.369231 
" style="fill:none;stroke:#21918c;stroke-width:1.5;"/>
   </g>
   <g id="LineCollection_14">
    <path clip-path="url(#p91b9f2be56)" d="M 122.002669 294.369231 
L 119.440092 286.006154 
L 119.022738 277.643077 
L 120.708745 269.28 
L 122.326531 265.742887 
L 124.956041 260.916923 
L 129.159184 256.017341 
L 133.118303 252.553846 
L 135.991837 250.622991 
L 142.82449 247.520306 
L 149.657143 245.886897 
L 156.489796 245.618609 
L 163.322449 246.698499 
L 170.155102 249.195047 
L 175.844323 252.553846 
L 176.987755 253.425425 
L 183.820408 260.640273 
L 184.02935 260.916923 
L 188.144235 269.28 
L 189.896359 277.643077 
L 189.462638 286.006154 
L 186.79957 294.369231 
L 183.820408 299.341002 
L 181.296961 302.732308 
L 176.987755 306.751295 
L 170.430885 311.095385 
L 170.155102 311.243645 
L 163.322449 313.624068 
L 156.489796 314.653729 
L 149.657143 314.397919 
L 142.82449 312.840487 
L 138.71859 311.095385 
L 135.991837 309.684875 
L 129.159184 304.392371 
L 127.542134 302.732308 
L 122.326531 294.952356 
L 122.002669 294.369231 
" style="fill:none;stroke:#5ec962;stroke-width:1.5;"/>
   </g>
   <g id="LineCollection_15"/>
   <g id="patch_3">
    <path d="M 54 378 
L 54 51.84 
" style="fill:none;stroke:#000000;stroke-linecap:square;stroke-linejoin:miter;stroke-width:0.8;"/>
   </g>
   <g id="patch_4">
    <path d="M 54 378 
L 388.8 378 
" style="fill:none;stroke:#000000;stroke-linecap:square;stroke-linejoin:miter;stroke-width:0.8;"/>
   </g>
  </g>
 </g>
 <defs>
  <clipPath id="p91b9f2be56">
   <rect height="326.16" width="334.8" x="54" y="51.84"/>
  </clipPath>
 </defs>
</svg>
