<?xml version="1.0" encoding="utf-8" standalone="no"?>
<!DOCTYPE svg PUBLIC "-//W3C//DTD SVG 1.1//EN"
  "http://www.w3.org/Graphics/SVG/1.1/DTD/svg11.dtd">
<!-- Created with matplotlib (https://matplotlib.org/) -->
<svg height="216pt" version="1.1" viewBox="0 0 216 216" width="216pt" xmlns="http://www.w3.org/2000/svg" xmlns:xlink="http://www.w3.org/1999/xlink">
 <defs>
  <style type="text/css">
*{stroke-linecap:butt;stroke-linejoin:round;}
  </style>
 </defs>
 <g id="figure_1">
  <g id="patch_1">
   <path d="M 0 216 
L 216 216 
L 216 0 
L 0 0 
z
" style="fill:#ffffff;"/>
  </g>
  <g id="axes_1">
   <g id="patch_2">
    <path d="M 27 189 
L 194.4 189 
L 194.4 25.92 
L 27 25.92 
z
" style="fill:#ffffff;"/>
   </g>
   <g id="patch_3">
    <path clip-path="url(#p17d1f524ae)" d="M 34.609091 189 
L 35.828985 189 
L 35.828985 46.416393 
L 34.609091 46.416393 
z
" style="fill:#ff0000;opacity:0.7;"/>
   </g>
   <g id="patch_4">
    <path clip-path="url(#p17d1f524ae)" d="M 36.133959 189 
L 37.353853 189 
L 37.353853 45.143326 
L 36.133959 45.143326 
z
" style="fill:#ff0000;opacity:0.7;"/>
   </g>
   <g id="patch_5">
    <path clip-path="url(#p17d1f524ae)" d="M 37.658827 189 
L 38.878721 189 
L 38.878721 46.416393 
L 37.658827 46.416393 
z
" style="fill:#ff0000;opacity:0.7;"/>
   </g>
   <g id="patch_6">
    <path clip-path="url(#p17d1f524ae)" d="M 39.183695 189 
L 40.403589 189 
L 40.403589 73.15082 
L 39.183695 73.15082 
z
" style="fill:#ff0000;opacity:0.7;"/>
   </g>
   <g id="patch_7">
    <path clip-path="url(#p17d1f524ae)" d="M 40.708563 189 
L 41.928457 189 
L 41.928457 71.877752 
L 40.708563 71.877752 
z
" style="fill:#ff0000;opacity:0.7;"/>
   </g>
   <g id="patch_8">
    <path clip-path="url(#p17d1f524ae)" d="M 42.23343 189 
L 43.453325 189 
L 43.453325 69.331616 
L 42.23343 69.331616 
z
" style="fill:#ff0000;opacity:0.7;"/>
   </g>
   <g id="patch_9">
    <path clip-path="url(#p17d1f524ae)" d="M 43.758298 189 
L 44.978193 189 
L 44.978193 60.420141 
L 43.758298 60.420141 
z
" style="fill:#ff0000;opacity:0.7;"/>
   </g>
   <g id="patch_10">
    <path clip-path="url(#p17d1f524ae)" d="M 45.283166 189 
L 46.503061 189 
L 46.503061 69.331616 
L 45.283166 69.331616 
z
" style="fill:#ff0000;opacity:0.7;"/>
   </g>
   <g id="patch_11">
    <path clip-path="url(#p17d1f524ae)" d="M 46.808034 189 
L 48.027929 189 
L 48.027929 60.420141 
L 46.808034 60.420141 
z
" style="fill:#ff0000;opacity:0.7;"/>
   </g>
   <g id="patch_12">
    <path clip-path="url(#p17d1f524ae)" d="M 48.332902 189 
L 49.552797 189 
L 49.552797 61.693208 
L 48.332902 61.693208 
z
" style="fill:#ff0000;opacity:0.7;"/>
   </g>
   <g id="patch_13">
    <path clip-path="url(#p17d1f524ae)" d="M 49.85777 189 
L 51.077664 189 
L 51.077664 56.600937 
L 49.85777 56.600937 
z
" style="fill:#ff0000;opacity:0.7;"/>
   </g>
   <g id="patch_14">
    <path clip-path="url(#p17d1f524ae)" d="M 51.382638 189 
L 52.602532 189 
L 52.602532 78.243091 
L 51.382638 78.243091 
z
" style="fill:#ff0000;opacity:0.7;"/>
   </g>
   <g id="patch_15">
    <path clip-path="url(#p17d1f524ae)" d="M 52.907506 189 
L 54.1274 189 
L 54.1274 51.508665 
L 52.907506 51.508665 
z
" style="fill:#ff0000;opacity:0.7;"/>
   </g>
   <g id="patch_16">
    <path clip-path="url(#p17d1f524ae)" d="M 54.432374 189 
L 55.652268 189 
L 55.652268 80.789227 
L 54.432374 80.789227 
z
" style="fill:#ff0000;opacity:0.7;"/>
   </g>
   <g id="patch_17">
    <path clip-path="url(#p17d1f524ae)" d="M 55.957242 189 
L 57.177136 189 
L 57.177136 70.604684 
L 55.957242 70.604684 
z
" style="fill:#ff0000;opacity:0.7;"/>
   </g>
   <g id="patch_18">
    <path clip-path="url(#p17d1f524ae)" d="M 57.48211 189 
L 58.702004 189 
L 58.702004 47.689461 
L 57.48211 47.689461 
z
" style="fill:#ff0000;opacity:0.7;"/>
   </g>
   <g id="patch_19">
    <path clip-path="url(#p17d1f524ae)" d="M 59.006978 189 
L 60.226872 189 
L 60.226872 51.508665 
L 59.006978 51.508665 
z
" style="fill:#ff0000;opacity:0.7;"/>
   </g>
   <g id="patch_20">
    <path clip-path="url(#p17d1f524ae)" d="M 60.531846 189 
L 61.75174 189 
L 61.75174 57.874005 
L 60.531846 57.874005 
z
" style="fill:#ff0000;opacity:0.7;"/>
   </g>
   <g id="patch_21">
    <path clip-path="url(#p17d1f524ae)" d="M 62.056713 189 
L 63.276608 189 
L 63.276608 55.327869 
L 62.056713 55.327869 
z
" style="fill:#ff0000;opacity:0.7;"/>
   </g>
   <g id="patch_22">
    <path clip-path="url(#p17d1f524ae)" d="M 63.581581 189 
L 64.801476 189 
L 64.801476 62.966276 
L 63.581581 62.966276 
z
" style="fill:#ff0000;opacity:0.7;"/>
   </g>
   <g id="patch_23">
    <path clip-path="url(#p17d1f524ae)" d="M 65.106449 189 
L 66.326344 189 
L 66.326344 64.239344 
L 65.106449 64.239344 
z
" style="fill:#ff0000;opacity:0.7;"/>
   </g>
   <g id="patch_24">
    <path clip-path="url(#p17d1f524ae)" d="M 66.631317 189 
L 67.851212 189 
L 67.851212 68.058548 
L 66.631317 68.058548 
z
" style="fill:#ff0000;opacity:0.7;"/>
   </g>
   <g id="patch_25">
    <path clip-path="url(#p17d1f524ae)" d="M 68.156185 189 
L 69.376079 189 
L 69.376079 73.15082 
L 68.156185 73.15082 
z
" style="fill:#ff0000;opacity:0.7;"/>
   </g>
   <g id="patch_26">
    <path clip-path="url(#p17d1f524ae)" d="M 69.681053 189 
L 70.900947 189 
L 70.900947 42.59719 
L 69.681053 42.59719 
z
" style="fill:#ff0000;opacity:0.7;"/>
   </g>
   <g id="patch_27">
    <path clip-path="url(#p17d1f524ae)" d="M 71.205921 189 
L 72.425815 189 
L 72.425815 50.235597 
L 71.205921 50.235597 
z
" style="fill:#ff0000;opacity:0.7;"/>
   </g>
   <g id="patch_28">
    <path clip-path="url(#p17d1f524ae)" d="M 72.730789 189 
L 73.950683 189 
L 73.950683 68.058548 
L 72.730789 68.058548 
z
" style="fill:#ff0000;opacity:0.7;"/>
   </g>
   <g id="patch_29">
    <path clip-path="url(#p17d1f524ae)" d="M 74.255657 189 
L 75.475551 189 
L 75.475551 66.78548 
L 74.255657 66.78548 
z
" style="fill:#ff0000;opacity:0.7;"/>
   </g>
   <g id="patch_30">
    <path clip-path="url(#p17d1f524ae)" d="M 75.780525 189 
L 77.000419 189 
L 77.000419 76.970023 
L 75.780525 76.970023 
z
" style="fill:#ff0000;opacity:0.7;"/>
   </g>
   <g id="patch_31">
    <path clip-path="url(#p17d1f524ae)" d="M 77.305393 189 
L 78.525287 189 
L 78.525287 43.870258 
L 77.305393 43.870258 
z
" style="fill:#ff0000;opacity:0.7;"/>
   </g>
   <g id="patch_32">
    <path clip-path="url(#p17d1f524ae)" d="M 78.830261 189 
L 80.050155 189 
L 80.050155 60.420141 
L 78.830261 60.420141 
z
" style="fill:#ff0000;opacity:0.7;"/>
   </g>
   <g id="patch_33">
    <path clip-path="url(#p17d1f524ae)" d="M 80.355128 189 
L 81.575023 189 
L 81.575023 62.966276 
L 80.355128 62.966276 
z
" style="fill:#ff0000;opacity:0.7;"/>
   </g>
   <g id="patch_34">
    <path clip-path="url(#p17d1f524ae)" d="M 81.879996 189 
L 83.099891 189 
L 83.099891 60.420141 
L 81.879996 60.420141 
z
" style="fill:#ff0000;opacity:0.7;"/>
   </g>
   <g id="patch_35">
    <path clip-path="url(#p17d1f524ae)" d="M 83.404864 189 
L 84.624759 189 
L 84.624759 66.78548 
L 83.404864 66.78548 
z
" style="fill:#ff0000;opacity:0.7;"/>
   </g>
   <g id="patch_36">
    <path clip-path="url(#p17d1f524ae)" d="M 84.929732 189 
L 86.149627 189 
L 86.149627 47.689461 
L 84.929732 47.689461 
z
" style="fill:#ff0000;opacity:0.7;"/>
   </g>
   <g id="patch_37">
    <path clip-path="url(#p17d1f524ae)" d="M 86.4546 189 
L 87.674494 189 
L 87.674494 50.235597 
L 86.4546 50.235597 
z
" style="fill:#ff0000;opacity:0.7;"/>
   </g>
   <g id="patch_38">
    <path clip-path="url(#p17d1f524ae)" d="M 87.979468 189 
L 89.199362 189 
L 89.199362 73.15082 
L 87.979468 73.15082 
z
" style="fill:#ff0000;opacity:0.7;"/>
   </g>
   <g id="patch_39">
    <path clip-path="url(#p17d1f524ae)" d="M 89.504336 189 
L 90.72423 189 
L 90.72423 84.608431 
L 89.504336 84.608431 
z
" style="fill:#ff0000;opacity:0.7;"/>
   </g>
   <g id="patch_40">
    <path clip-path="url(#p17d1f524ae)" d="M 91.029204 189 
L 92.249098 189 
L 92.249098 62.966276 
L 91.029204 62.966276 
z
" style="fill:#ff0000;opacity:0.7;"/>
   </g>
   <g id="patch_41">
    <path clip-path="url(#p17d1f524ae)" d="M 92.554072 189 
L 93.773966 189 
L 93.773966 80.789227 
L 92.554072 80.789227 
z
" style="fill:#ff0000;opacity:0.7;"/>
   </g>
   <g id="patch_42">
    <path clip-path="url(#p17d1f524ae)" d="M 94.07894 189 
L 95.298834 189 
L 95.298834 59.147073 
L 94.07894 59.147073 
z
" style="fill:#ff0000;opacity:0.7;"/>
   </g>
   <g id="patch_43">
    <path clip-path="url(#p17d1f524ae)" d="M 95.603808 189 
L 96.823702 189 
L 96.823702 61.693208 
L 95.603808 61.693208 
z
" style="fill:#ff0000;opacity:0.7;"/>
   </g>
   <g id="patch_44">
    <path clip-path="url(#p17d1f524ae)" d="M 97.128676 189 
L 98.34857 189 
L 98.34857 55.327869 
L 97.128676 55.327869 
z
" style="fill:#ff0000;opacity:0.7;"/>
   </g>
   <g id="patch_45">
    <path clip-path="url(#p17d1f524ae)" d="M 98.653543 189 
L 99.873438 189 
L 99.873438 64.239344 
L 98.653543 64.239344 
z
" style="fill:#ff0000;opacity:0.7;"/>
   </g>
   <g id="patch_46">
    <path clip-path="url(#p17d1f524ae)" d="M 100.178411 189 
L 101.398306 189 
L 101.398306 51.508665 
L 100.178411 51.508665 
z
" style="fill:#ff0000;opacity:0.7;"/>
   </g>
   <g id="patch_47">
    <path clip-path="url(#p17d1f524ae)" d="M 101.703279 189 
L 102.923174 189 
L 102.923174 54.054801 
L 101.703279 54.054801 
z
" style="fill:#ff0000;opacity:0.7;"/>
   </g>
   <g id="patch_48">
    <path clip-path="url(#p17d1f524ae)" d="M 103.228147 189 
L 104.448042 189 
L 104.448042 80.789227 
L 103.228147 80.789227 
z
" style="fill:#ff0000;opacity:0.7;"/>
   </g>
   <g id="patch_49">
    <path clip-path="url(#p17d1f524ae)" d="M 104.753015 189 
L 105.972909 189 
L 105.972909 55.327869 
L 104.753015 55.327869 
z
" style="fill:#ff0000;opacity:0.7;"/>
   </g>
   <g id="patch_50">
    <path clip-path="url(#p17d1f524ae)" d="M 106.277883 189 
L 107.497777 189 
L 107.497777 82.062295 
L 106.277883 82.062295 
z
" style="fill:#ff0000;opacity:0.7;"/>
   </g>
   <g id="patch_51">
    <path clip-path="url(#p17d1f524ae)" d="M 107.802751 189 
L 109.022645 189 
L 109.022645 59.147073 
L 107.802751 59.147073 
z
" style="fill:#ff0000;opacity:0.7;"/>
   </g>
   <g id="patch_52">
    <path clip-path="url(#p17d1f524ae)" d="M 109.327619 189 
L 110.547513 189 
L 110.547513 54.054801 
L 109.327619 54.054801 
z
" style="fill:#ff0000;opacity:0.7;"/>
   </g>
   <g id="patch_53">
    <path clip-path="url(#p17d1f524ae)" d="M 110.852487 189 
L 112.072381 189 
L 112.072381 69.331616 
L 110.852487 69.331616 
z
" style="fill:#ff0000;opacity:0.7;"/>
   </g>
   <g id="patch_54">
    <path clip-path="url(#p17d1f524ae)" d="M 112.377355 189 
L 113.597249 189 
L 113.597249 90.97377 
L 112.377355 90.97377 
z
" style="fill:#ff0000;opacity:0.7;"/>
   </g>
   <g id="patch_55">
    <path clip-path="url(#p17d1f524ae)" d="M 113.902223 189 
L 115.122117 189 
L 115.122117 57.874005 
L 113.902223 57.874005 
z
" style="fill:#ff0000;opacity:0.7;"/>
   </g>
   <g id="patch_56">
    <path clip-path="url(#p17d1f524ae)" d="M 115.427091 189 
L 116.646985 189 
L 116.646985 64.239344 
L 115.427091 64.239344 
z
" style="fill:#ff0000;opacity:0.7;"/>
   </g>
   <g id="patch_57">
    <path clip-path="url(#p17d1f524ae)" d="M 116.951958 189 
L 118.171853 189 
L 118.171853 66.78548 
L 116.951958 66.78548 
z
" style="fill:#ff0000;opacity:0.7;"/>
   </g>
   <g id="patch_58">
    <path clip-path="url(#p17d1f524ae)" d="M 118.476826 189 
L 119.696721 189 
L 119.696721 42.59719 
L 118.476826 42.59719 
z
" style="fill:#ff0000;opacity:0.7;"/>
   </g>
   <g id="patch_59">
    <path clip-path="url(#p17d1f524ae)" d="M 120.001694 189 
L 121.221589 189 
L 121.221589 68.058548 
L 120.001694 68.058548 
z
" style="fill:#ff0000;opacity:0.7;"/>
   </g>
   <g id="patch_60">
    <path clip-path="url(#p17d1f524ae)" d="M 121.526562 189 
L 122.746457 189 
L 122.746457 47.689461 
L 121.526562 47.689461 
z
" style="fill:#ff0000;opacity:0.7;"/>
   </g>
   <g id="patch_61">
    <path clip-path="url(#p17d1f524ae)" d="M 123.05143 189 
L 124.271324 189 
L 124.271324 60.420141 
L 123.05143 60.420141 
z
" style="fill:#ff0000;opacity:0.7;"/>
   </g>
   <g id="patch_62">
    <path clip-path="url(#p17d1f524ae)" d="M 124.576298 189 
L 125.796192 189 
L 125.796192 59.147073 
L 124.576298 59.147073 
z
" style="fill:#ff0000;opacity:0.7;"/>
   </g>
   <g id="patch_63">
    <path clip-path="url(#p17d1f524ae)" d="M 126.101166 189 
L 127.32106 189 
L 127.32106 55.327869 
L 126.101166 55.327869 
z
" style="fill:#ff0000;opacity:0.7;"/>
   </g>
   <g id="patch_64">
    <path clip-path="url(#p17d1f524ae)" d="M 127.626034 189 
L 128.845928 189 
L 128.845928 87.154567 
L 127.626034 87.154567 
z
" style="fill:#ff0000;opacity:0.7;"/>
   </g>
   <g id="patch_65">
    <path clip-path="url(#p17d1f524ae)" d="M 129.150902 189 
L 130.370796 189 
L 130.370796 43.870258 
L 129.150902 43.870258 
z
" style="fill:#ff0000;opacity:0.7;"/>
   </g>
   <g id="patch_66">
    <path clip-path="url(#p17d1f524ae)" d="M 130.67577 189 
L 131.895664 189 
L 131.895664 48.962529 
L 130.67577 48.962529 
z
" style="fill:#ff0000;opacity:0.7;"/>
   </g>
   <g id="patch_67">
    <path clip-path="url(#p17d1f524ae)" d="M 132.200638 189 
L 133.420532 189 
L 133.420532 70.604684 
L 132.200638 70.604684 
z
" style="fill:#ff0000;opacity:0.7;"/>
   </g>
   <g id="patch_68">
    <path clip-path="url(#p17d1f524ae)" d="M 133.725506 189 
L 134.9454 189 
L 134.9454 52.781733 
L 133.725506 52.781733 
z
" style="fill:#ff0000;opacity:0.7;"/>
   </g>
   <g id="patch_69">
    <path clip-path="url(#p17d1f524ae)" d="M 135.250373 189 
L 136.470268 189 
L 136.470268 57.874005 
L 135.250373 57.874005 
z
" style="fill:#ff0000;opacity:0.7;"/>
   </g>
   <g id="patch_70">
    <path clip-path="url(#p17d1f524ae)" d="M 136.775241 189 
L 137.995136 189 
L 137.995136 70.604684 
L 136.775241 70.604684 
z
" style="fill:#ff0000;opacity:0.7;"/>
   </g>
   <g id="patch_71">
    <path clip-path="url(#p17d1f524ae)" d="M 138.300109 189 
L 139.520004 189 
L 139.520004 75.696956 
L 138.300109 75.696956 
z
" style="fill:#ff0000;opacity:0.7;"/>
   </g>
   <g id="patch_72">
    <path clip-path="url(#p17d1f524ae)" d="M 139.824977 189 
L 141.044872 189 
L 141.044872 69.331616 
L 139.824977 69.331616 
z
" style="fill:#ff0000;opacity:0.7;"/>
   </g>
   <g id="patch_73">
    <path clip-path="url(#p17d1f524ae)" d="M 141.349845 189 
L 142.569739 189 
L 142.569739 50.235597 
L 141.349845 50.235597 
z
" style="fill:#ff0000;opacity:0.7;"/>
   </g>
   <g id="patch_74">
    <path clip-path="url(#p17d1f524ae)" d="M 142.874713 189 
L 144.094607 189 
L 144.094607 51.508665 
L 142.874713 51.508665 
z
" style="fill:#ff0000;opacity:0.7;"/>
   </g>
   <g id="patch_75">
    <path clip-path="url(#p17d1f524ae)" d="M 144.399581 189 
L 145.619475 189 
L 145.619475 64.239344 
L 144.399581 64.239344 
z
" style="fill:#ff0000;opacity:0.7;"/>
   </g>
   <g id="patch_76">
    <path clip-path="url(#p17d1f524ae)" d="M 145.924449 189 
L 147.144343 189 
L 147.144343 69.331616 
L 145.924449 69.331616 
z
" style="fill:#ff0000;opacity:0.7;"/>
   </g>
   <g id="patch_77">
    <path clip-path="url(#p17d1f524ae)" d="M 147.449317 189 
L 148.669211 189 
L 148.669211 76.970023 
L 147.449317 76.970023 
z
" style="fill:#ff0000;opacity:0.7;"/>
   </g>
   <g id="patch_78">
    <path clip-path="url(#p17d1f524ae)" d="M 148.974185 189 
L 150.194079 189 
L 150.194079 40.051054 
L 148.974185 40.051054 
z
" style="fill:#ff0000;opacity:0.7;"/>
   </g>
   <g id="patch_79">
    <path clip-path="url(#p17d1f524ae)" d="M 150.499053 189 
L 151.718947 189 
L 151.718947 83.335363 
L 150.499053 83.335363 
z
" style="fill:#ff0000;opacity:0.7;"/>
   </g>
   <g id="patch_80">
    <path clip-path="url(#p17d1f524ae)" d="M 152.023921 189 
L 153.243815 189 
L 153.243815 37.504918 
L 152.023921 37.504918 
z
" style="fill:#ff0000;opacity:0.7;"/>
   </g>
   <g id="patch_81">
    <path clip-path="url(#p17d1f524ae)" d="M 153.548788 189 
L 154.768683 189 
L 154.768683 34.958782 
L 153.548788 34.958782 
z
" style="fill:#ff0000;opacity:0.7;"/>
   </g>
   <g id="patch_82">
    <path clip-path="url(#p17d1f524ae)" d="M 155.073656 189 
L 156.293551 189 
L 156.293551 68.058548 
L 155.073656 68.058548 
z
" style="fill:#ff0000;opacity:0.7;"/>
   </g>
   <g id="patch_83">
    <path clip-path="url(#p17d1f524ae)" d="M 156.598524 189 
L 157.818419 189 
L 157.818419 59.147073 
L 156.598524 59.147073 
z
" style="fill:#ff0000;opacity:0.7;"/>
   </g>
   <g id="patch_84">
    <path clip-path="url(#p17d1f524ae)" d="M 158.123392 189 
L 159.343287 189 
L 159.343287 33.685714 
L 158.123392 33.685714 
z
" style="fill:#ff0000;opacity:0.7;"/>
   </g>
   <g id="patch_85">
    <path clip-path="url(#p17d1f524ae)" d="M 159.64826 189 
L 160.868154 189 
L 160.868154 82.062295 
L 159.64826 82.062295 
z
" style="fill:#ff0000;opacity:0.7;"/>
   </g>
   <g id="patch_86">
    <path clip-path="url(#p17d1f524ae)" d="M 161.173128 189 
L 162.393022 189 
L 162.393022 65.512412 
L 161.173128 65.512412 
z
" style="fill:#ff0000;opacity:0.7;"/>
   </g>
   <g id="patch_87">
    <path clip-path="url(#p17d1f524ae)" d="M 162.697996 189 
L 163.91789 189 
L 163.91789 62.966276 
L 162.697996 62.966276 
z
" style="fill:#ff0000;opacity:0.7;"/>
   </g>
   <g id="patch_88">
    <path clip-path="url(#p17d1f524ae)" d="M 164.222864 189 
L 165.442758 189 
L 165.442758 73.15082 
L 164.222864 73.15082 
z
" style="fill:#ff0000;opacity:0.7;"/>
   </g>
   <g id="patch_89">
    <path clip-path="url(#p17d1f524ae)" d="M 165.747732 189 
L 166.967626 189 
L 166.967626 59.147073 
L 165.747732 59.147073 
z
" style="fill:#ff0000;opacity:0.7;"/>
   </g>
   <g id="patch_90">
    <path clip-path="url(#p17d1f524ae)" d="M 167.2726 189 
L 168.492494 189 
L 168.492494 62.966276 
L 167.2726 62.966276 
z
" style="fill:#ff0000;opacity:0.7;"/>
   </g>
   <g id="patch_91">
    <path clip-path="url(#p17d1f524ae)" d="M 168.797468 189 
L 170.017362 189 
L 170.017362 79.516159 
L 168.797468 79.516159 
z
" style="fill:#ff0000;opacity:0.7;"/>
   </g>
   <g id="patch_92">
    <path clip-path="url(#p17d1f524ae)" d="M 170.322336 189 
L 171.54223 189 
L 171.54223 46.416393 
L 170.322336 46.416393 
z
" style="fill:#ff0000;opacity:0.7;"/>
   </g>
   <g id="patch_93">
    <path clip-path="url(#p17d1f524ae)" d="M 171.847203 189 
L 173.067098 189 
L 173.067098 45.143326 
L 171.847203 45.143326 
z
" style="fill:#ff0000;opacity:0.7;"/>
   </g>
   <g id="patch_94">
    <path clip-path="url(#p17d1f524ae)" d="M 173.372071 189 
L 174.591966 189 
L 174.591966 64.239344 
L 173.372071 64.239344 
z
" style="fill:#ff0000;opacity:0.7;"/>
   </g>
   <g id="patch_95">
    <path clip-path="url(#p17d1f524ae)" d="M 174.896939 189 
L 176.116834 189 
L 176.116834 83.335363 
L 174.896939 83.335363 
z
" style="fill:#ff0000;opacity:0.7;"/>
   </g>
   <g id="patch_96">
    <path clip-path="url(#p17d1f524ae)" d="M 176.421807 189 
L 177.641702 189 
L 177.641702 57.874005 
L 176.421807 57.874005 
z
" style="fill:#ff0000;opacity:0.7;"/>
   </g>
   <g id="patch_97">
    <path clip-path="url(#p17d1f524ae)" d="M 177.946675 189 
L 179.16657 189 
L 179.16657 68.058548 
L 177.946675 68.058548 
z
" style="fill:#ff0000;opacity:0.7;"/>
   </g>
   <g id="patch_98">
    <path clip-path="url(#p17d1f524ae)" d="M 179.471543 189 
L 180.691437 189 
L 180.691437 46.416393 
L 179.471543 46.416393 
z
" style="fill:#ff0000;opacity:0.7;"/>
   </g>
   <g id="patch_99">
    <path clip-path="url(#p17d1f524ae)" d="M 180.996411 189 
L 182.216305 189 
L 182.216305 46.416393 
L 180.996411 46.416393 
z
" style="fill:#ff0000;opacity:0.7;"/>
   </g>
   <g id="patch_100">
    <path clip-path="url(#p17d1f524ae)" d="M 182.521279 189 
L 183.741173 189 
L 183.741173 80.789227 
L 182.521279 80.789227 
z
" style="fill:#ff0000;opacity:0.7;"/>
   </g>
   <g id="patch_101">
    <path clip-path="url(#p17d1f524ae)" d="M 184.046147 189 
L 185.266041 189 
L 185.266041 51.508665 
L 184.046147 51.508665 
z
" style="fill:#ff0000;opacity:0.7;"/>
   </g>
   <g id="patch_102">
    <path clip-path="url(#p17d1f524ae)" d="M 185.571015 189 
L 186.790909 189 
L 186.790909 66.78548 
L 185.571015 66.78548 
z
" style="fill:#ff0000;opacity:0.7;"/>
   </g>
   <g id="matplotlib.axis_1">
    <g id="xtick_1">
     <g id="line2d_1">
      <defs>
       <path d="M 0 0 
L 0 3.5 
" id="md162d18fd8" style="stroke:#000000;stroke-width:0.8;"/>
      </defs>
      <g>
       <use style="stroke:#000000;stroke-width:0.8;" x="34.402744" xlink:href="#md162d18fd8" y="189"/>
      </g>
     </g>
     <g id="text_1">
      <!-- 0.00 -->
      <defs>
       <path d="M 31.78125 66.40625 
Q 24.171875 66.40625 20.328125 58.90625 
Q 16.5 51.421875 16.5 36.375 
Q 16.5 21.390625 20.328125 13.890625 
Q 24.171875 6.390625 31.78125 6.390625 
Q 39.453125 6.390625 43.28125 13.890625 
Q 47.125 21.390625 47.125 36.375 
Q 47.125 51.421875 43.28125 58.90625 
Q 39.453125 66.40625 31.78125 66.40625 
z
M 31.78125 74.21875 
Q 44.046875 74.21875 50.515625 64.515625 
Q 56.984375 54.828125 56.984375 36.375 
Q 56.984375 17.96875 50.515625 8.265625 
Q 44.046875 -1.421875 31.78125 -1.421875 
Q 19.53125 -1.421875 13.0625 8.265625 
Q 6.59375 17.96875 6.59375 36.375 
Q 6.59375 54.828125 13.0625 64.515625 
Q 19.53125 74.21875 31.78125 74.21875 
z
" id="DejaVuSans-48"/>
       <path d="M 10.6875 12.40625 
L 21 12.40625 
L 21 0 
L 10.6875 0 
z
" id="DejaVuSans-46"/>
      </defs>
      <g transform="translate(23.269931 203.598437)scale(0.1 -0.1)">
       <use xlink:href="#DejaVuSans-48"/>
       <use x="63.623047" xlink:href="#DejaVuSans-46"/>
       <use x="95.410156" xlink:href="#DejaVuSans-48"/>
       <use x="159.033203" xlink:href="#DejaVuSans-48"/>
      </g>
     </g>
    </g>
    <g id="xtick_2">
     <g id="line2d_2">
      <g>
       <use style="stroke:#000000;stroke-width:0.8;" x="72.543108" xlink:href="#md162d18fd8" y="189"/>
      </g>
     </g>
     <g id="text_2">
      <!-- 0.25 -->
      <defs>
       <path d="M 19.1875 8.296875 
L 53.609375 8.296875 
L 53.609375 0 
L 7.328125 0 
L 7.328125 8.296875 
Q 12.9375 14.109375 22.625 23.890625 
Q 32.328125 33.6875 34.8125 36.53125 
Q 39.546875 41.84375 41.421875 45.53125 
Q 43.3125 49.21875 43.3125 52.78125 
Q 43.3125 58.59375 39.234375 62.25 
Q 35.15625 65.921875 28.609375 65.921875 
Q 23.96875 65.921875 18.8125 64.3125 
Q 13.671875 62.703125 7.8125 59.421875 
L 7.8125 69.390625 
Q 13.765625 71.78125 18.9375 73 
Q 24.125 74.21875 28.421875 74.21875 
Q 39.75 74.21875 46.484375 68.546875 
Q 53.21875 62.890625 53.21875 53.421875 
Q 53.21875 48.921875 51.53125 44.890625 
Q 49.859375 40.875 45.40625 35.40625 
Q 44.1875 33.984375 37.640625 27.21875 
Q 31.109375 20.453125 19.1875 8.296875 
z
" id="DejaVuSans-50"/>
       <path d="M 10.796875 72.90625 
L 49.515625 72.90625 
L 49.515625 64.59375 
L 19.828125 64.59375 
L 19.828125 46.734375 
Q 21.96875 47.46875 24.109375 47.828125 
Q 26.265625 48.1875 28.421875 48.1875 
Q 40.625 48.1875 47.75 41.5 
Q 54.890625 34.8125 54.890625 23.390625 
Q 54.890625 11.625 47.5625 5.09375 
Q 40.234375 -1.421875 26.90625 -1.421875 
Q 22.3125 -1.421875 17.546875 -0.640625 
Q 12.796875 0.140625 7.71875 1.703125 
L 7.71875 11.625 
Q 12.109375 9.234375 16.796875 8.0625 
Q 21.484375 6.890625 26.703125 6.890625 
Q 35.15625 6.890625 40.078125 11.328125 
Q 45.015625 15.765625 45.015625 23.390625 
Q 45.015625 31 40.078125 35.4375 
Q 35.15625 39.890625 26.703125 39.890625 
Q 22.75 39.890625 18.8125 39.015625 
Q 14.890625 38.140625 10.796875 36.28125 
z
" id="DejaVuSans-53"/>
      </defs>
      <g transform="translate(61.410295 203.598437)scale(0.1 -0.1)">
       <use xlink:href="#DejaVuSans-48"/>
       <use x="63.623047" xlink:href="#DejaVuSans-46"/>
       <use x="95.410156" xlink:href="#DejaVuSans-50"/>
       <use x="159.033203" xlink:href="#DejaVuSans-53"/>
      </g>
     </g>
    </g>
    <g id="xtick_3">
     <g id="line2d_3">
      <g>
       <use style="stroke:#000000;stroke-width:0.8;" x="110.683472" xlink:href="#md162d18fd8" y="189"/>
      </g>
     </g>
     <g id="text_3">
      <!-- 0.50 -->
      <g transform="translate(99.550659 203.598437)scale(0.1 -0.1)">
       <use xlink:href="#DejaVuSans-48"/>
       <use x="63.623047" xlink:href="#DejaVuSans-46"/>
       <use x="95.410156" xlink:href="#DejaVuSans-53"/>
       <use x="159.033203" xlink:href="#DejaVuSans-48"/>
      </g>
     </g>
    </g>
    <g id="xtick_4">
     <g id="line2d_4">
      <g>
       <use style="stroke:#000000;stroke-width:0.8;" x="148.823835" xlink:href="#md162d18fd8" y="189"/>
      </g>
     </g>
     <g id="text_4">
      <!-- 0.75 -->
      <defs>
       <path d="M 8.203125 72.90625 
L 55.078125 72.90625 
L 55.078125 68.703125 
L 28.609375 0 
L 18.3125 0 
L 43.21875 64.59375 
L 8.203125 64.59375 
z
" id="DejaVuSans-55"/>
      </defs>
      <g transform="translate(137.691023 203.598437)scale(0.1 -0.1)">
       <use xlink:href="#DejaVuSans-48"/>
       <use x="63.623047" xlink:href="#DejaVuSans-46"/>
       <use x="95.410156" xlink:href="#DejaVuSans-55"/>
       <use x="159.033203" xlink:href="#DejaVuSans-53"/>
      </g>
     </g>
    </g>
    <g id="xtick_5">
     <g id="line2d_5">
      <g>
       <use style="stroke:#000000;stroke-width:0.8;" x="186.964199" xlink:href="#md162d18fd8" y="189"/>
      </g>
     </g>
     <g id="text_5">
      <!-- 1.00 -->
      <defs>
       <path d="M 12.40625 8.296875 
L 28.515625 8.296875 
L 28.515625 63.921875 
L 10.984375 60.40625 
L 10.984375 69.390625 
L 28.421875 72.90625 
L 38.28125 72.90625 
L 38.28125 8.296875 
L 54.390625 8.296875 
L 54.390625 0 
L 12.40625 0 
z
" id="DejaVuSans-49"/>
      </defs>
      <g transform="translate(175.831387 203.598437)scale(0.1 -0.1)">
       <use xlink:href="#DejaVuSans-49"/>
       <use x="63.623047" xlink:href="#DejaVuSans-46"/>
       <use x="95.410156" xlink:href="#DejaVuSans-48"/>
       <use x="159.033203" xlink:href="#DejaVuSans-48"/>
      </g>
     </g>
    </g>
   </g>
   <g id="matplotlib.axis_2">
    <g id="ytick_1">
     <g id="line2d_6">
      <defs>
       <path d="M 0 0 
L -3.5 0 
" id="mc7ce44ac6b" style="stroke:#000000;stroke-width:0.8;"/>
      </defs>
      <g>
       <use style="stroke:#000000;stroke-width:0.8;" x="27" xlink:href="#mc7ce44ac6b" y="189"/>
      </g>
     </g>
     <g id="text_6">
      <!-- 0 -->
      <g transform="translate(13.6375 192.799219)scale(0.1 -0.1)">
       <use xlink:href="#DejaVuSans-48"/>
      </g>
     </g>
    </g>
    <g id="ytick_2">
     <g id="line2d_7">
      <g>
       <use style="stroke:#000000;stroke-width:0.8;" x="27" xlink:href="#mc7ce44ac6b" y="163.538642"/>
      </g>
     </g>
     <g id="text_7">
      <!-- 20 -->
      <g transform="translate(7.275 167.33786)scale(0.1 -0.1)">
       <use xlink:href="#DejaVuSans-50"/>
       <use x="63.623047" xlink:href="#DejaVuSans-48"/>
      </g>
     </g>
    </g>
    <g id="ytick_3">
     <g id="line2d_8">
      <g>
       <use style="stroke:#000000;stroke-width:0.8;" x="27" xlink:href="#mc7ce44ac6b" y="138.077283"/>
      </g>
     </g>
     <g id="text_8">
      <!-- 40 -->
      <defs>
       <path d="M 37.796875 64.3125 
L 12.890625 25.390625 
L 37.796875 25.390625 
z
M 35.203125 72.90625 
L 47.609375 72.90625 
L 47.609375 25.390625 
L 58.015625 25.390625 
L 58.015625 17.1875 
L 47.609375 17.1875 
L 47.609375 0 
L 37.796875 0 
L 37.796875 17.1875 
L 4.890625 17.1875 
L 4.890625 26.703125 
z
" id="DejaVuSans-52"/>
      </defs>
      <g transform="translate(7.275 141.876502)scale(0.1 -0.1)">
       <use xlink:href="#DejaVuSans-52"/>
       <use x="63.623047" xlink:href="#DejaVuSans-48"/>
      </g>
     </g>
    </g>
    <g id="ytick_4">
     <g id="line2d_9">
      <g>
       <use style="stroke:#000000;stroke-width:0.8;" x="27" xlink:href="#mc7ce44ac6b" y="112.615925"/>
      </g>
     </g>
     <g id="text_9">
      <!-- 60 -->
      <defs>
       <path d="M 33.015625 40.375 
Q 26.375 40.375 22.484375 35.828125 
Q 18.609375 31.296875 18.609375 23.390625 
Q 18.609375 15.53125 22.484375 10.953125 
Q 26.375 6.390625 33.015625 6.390625 
Q 39.65625 6.390625 43.53125 10.953125 
Q 47.40625 15.53125 47.40625 23.390625 
Q 47.40625 31.296875 43.53125 35.828125 
Q 39.65625 40.375 33.015625 40.375 
z
M 52.59375 71.296875 
L 52.59375 62.3125 
Q 48.875 64.0625 45.09375 64.984375 
Q 41.3125 65.921875 37.59375 65.921875 
Q 27.828125 65.921875 22.671875 59.328125 
Q 17.53125 52.734375 16.796875 39.40625 
Q 19.671875 43.65625 24.015625 45.921875 
Q 28.375 48.1875 33.59375 48.1875 
Q 44.578125 48.1875 50.953125 41.515625 
Q 57.328125 34.859375 57.328125 23.390625 
Q 57.328125 12.15625 50.6875 5.359375 
Q 44.046875 -1.421875 33.015625 -1.421875 
Q 20.359375 -1.421875 13.671875 8.265625 
Q 6.984375 17.96875 6.984375 36.375 
Q 6.984375 53.65625 15.1875 63.9375 
Q 23.390625 74.21875 37.203125 74.21875 
Q 40.921875 74.21875 44.703125 73.484375 
Q 48.484375 72.75 52.59375 71.296875 
z
" id="DejaVuSans-54"/>
      </defs>
      <g transform="translate(7.275 116.415144)scale(0.1 -0.1)">
       <use xlink:href="#DejaVuSans-54"/>
       <use x="63.623047" xlink:href="#DejaVuSans-48"/>
      </g>
     </g>
    </g>
    <g id="ytick_5">
     <g id="line2d_10">
      <g>
       <use style="stroke:#000000;stroke-width:0.8;" x="27" xlink:href="#mc7ce44ac6b" y="87.154567"/>
      </g>
     </g>
     <g id="text_10">
      <!-- 80 -->
      <defs>
       <path d="M 31.78125 34.625 
Q 24.75 34.625 20.71875 30.859375 
Q 16.703125 27.09375 16.703125 20.515625 
Q 16.703125 13.921875 20.71875 10.15625 
Q 24.75 6.390625 31.78125 6.390625 
Q 38.8125 6.390625 42.859375 10.171875 
Q 46.921875 13.96875 46.921875 20.515625 
Q 46.921875 27.09375 42.890625 30.859375 
Q 38.875 34.625 31.78125 34.625 
z
M 21.921875 38.8125 
Q 15.578125 40.375 12.03125 44.71875 
Q 8.5 49.078125 8.5 55.328125 
Q 8.5 64.0625 14.71875 69.140625 
Q 20.953125 74.21875 31.78125 74.21875 
Q 42.671875 74.21875 48.875 69.140625 
Q 55.078125 64.0625 55.078125 55.328125 
Q 55.078125 49.078125 51.53125 44.71875 
Q 48 40.375 41.703125 38.8125 
Q 48.828125 37.15625 52.796875 32.3125 
Q 56.78125 27.484375 56.78125 20.515625 
Q 56.78125 9.90625 50.3125 4.234375 
Q 43.84375 -1.421875 31.78125 -1.421875 
Q 19.734375 -1.421875 13.25 4.234375 
Q 6.78125 9.90625 6.78125 20.515625 
Q 6.78125 27.484375 10.78125 32.3125 
Q 14.796875 37.15625 21.921875 38.8125 
z
M 18.3125 54.390625 
Q 18.3125 48.734375 21.84375 45.5625 
Q 25.390625 42.390625 31.78125 42.390625 
Q 38.140625 42.390625 41.71875 45.5625 
Q 45.3125 48.734375 45.3125 54.390625 
Q 45.3125 60.0625 41.71875 63.234375 
Q 38.140625 66.40625 31.78125 66.40625 
Q 25.390625 66.40625 21.84375 63.234375 
Q 18.3125 60.0625 18.3125 54.390625 
z
" id="DejaVuSans-56"/>
      </defs>
      <g transform="translate(7.275 90.953785)scale(0.1 -0.1)">
       <use xlink:href="#DejaVuSans-56"/>
       <use x="63.623047" xlink:href="#DejaVuSans-48"/>
      </g>
     </g>
    </g>
    <g id="ytick_6">
     <g id="line2d_11">
      <g>
       <use style="stroke:#000000;stroke-width:0.8;" x="27" xlink:href="#mc7ce44ac6b" y="61.693208"/>
      </g>
     </g>
     <g id="text_11">
      <!-- 100 -->
      <g transform="translate(0.9125 65.492427)scale(0.1 -0.1)">
       <use xlink:href="#DejaVuSans-49"/>
       <use x="63.623047" xlink:href="#DejaVuSans-48"/>
       <use x="127.246094" xlink:href="#DejaVuSans-48"/>
      </g>
     </g>
    </g>
    <g id="ytick_7">
     <g id="line2d_12">
      <g>
       <use style="stroke:#000000;stroke-width:0.8;" x="27" xlink:href="#mc7ce44ac6b" y="36.23185"/>
      </g>
     </g>
     <g id="text_12">
      <!-- 120 -->
      <g transform="translate(0.9125 40.031069)scale(0.1 -0.1)">
       <use xlink:href="#DejaVuSans-49"/>
       <use x="63.623047" xlink:href="#DejaVuSans-50"/>
       <use x="127.246094" xlink:href="#DejaVuSans-48"/>
      </g>
     </g>
    </g>
   </g>
   <g id="patch_103">
    <path d="M 27 189 
L 27 25.92 
" style="fill:none;stroke:#000000;stroke-linecap:square;stroke-linejoin:miter;stroke-width:0.8;"/>
   </g>
   <g id="patch_104">
    <path d="M 27 189 
L 194.4 189 
" style="fill:none;stroke:#000000;stroke-linecap:square;stroke-linejoin:miter;stroke-width:0.8;"/>
   </g>
  </g>
 </g>
 <defs>
  <clipPath id="p17d1f524ae">
   <rect height="163.08" width="167.4" x="27" y="25.92"/>
  </clipPath>
 </defs>
</svg>
