<?xml version="1.0" encoding="utf-8" standalone="no"?>
<!DOCTYPE svg PUBLIC "-//W3C//DTD SVG 1.1//EN"
  "http://www.w3.org/Graphics/SVG/1.1/DTD/svg11.dtd">
<!-- Created with matplotlib (https://matplotlib.org/) -->
<svg height="288pt" version="1.1" viewBox="0 0 576 288" width="576pt" xmlns="http://www.w3.org/2000/svg" xmlns:xlink="http://www.w3.org/1999/xlink">
 <defs>
  <style type="text/css">
*{stroke-linecap:butt;stroke-linejoin:round;}
  </style>
 </defs>
 <g id="figure_1">
  <g id="patch_1">
   <path d="M 0 288 
L 576 288 
L 576 0 
L 0 0 
z
" style="fill:#f0f0f0;"/>
  </g>
  <g id="axes_1">
   <g id="patch_2">
    <path d="M 46.08 252 
L 547.2 252 
L 547.2 34.56 
L 46.08 34.56 
z
" style="fill:#f0f0f0;"/>
   </g>
   <g id="matplotlib.axis_1">
    <g id="xtick_1">
     <g id="line2d_1">
      <path clip-path="url(#p218bde1f56)" d="M 68.402162 252 
L 68.402162 34.56 
" style="fill:none;stroke:#cbcbcb;"/>
     </g>
     <g id="line2d_2"/>
     <g id="text_1">
      <!-- 0.0 -->
      <defs>
       <path d="M 31.78125 66.40625 
Q 24.171875 66.40625 20.328125 58.90625 
Q 16.5 51.421875 16.5 36.375 
Q 16.5 21.390625 20.328125 13.890625 
Q 24.171875 6.390625 31.78125 6.390625 
Q 39.453125 6.390625 43.28125 13.890625 
Q 47.125 21.390625 47.125 36.375 
Q 47.125 51.421875 43.28125 58.90625 
Q 39.453125 66.40625 31.78125 66.40625 
z
M 31.78125 74.21875 
Q 44.046875 74.21875 50.515625 64.515625 
Q 56.984375 54.828125 56.984375 36.375 
Q 56.984375 17.96875 50.515625 8.265625 
Q 44.046875 -1.421875 31.78125 -1.421875 
Q 19.53125 -1.421875 13.0625 8.265625 
Q 6.59375 17.96875 6.59375 36.375 
Q 6.59375 54.828125 13.0625 64.515625 
Q 19.53125 74.21875 31.78125 74.21875 
z
" id="DejaVuSans-48"/>
       <path d="M 10.6875 12.40625 
L 21 12.40625 
L 21 0 
L 10.6875 0 
z
" id="DejaVuSans-46"/>
      </defs>
      <g transform="translate(60.4506 263.098437)scale(0.1 -0.1)">
       <use xlink:href="#DejaVuSans-48"/>
       <use x="63.623047" xlink:href="#DejaVuSans-46"/>
       <use x="95.410156" xlink:href="#DejaVuSans-48"/>
      </g>
     </g>
    </g>
    <g id="xtick_2">
     <g id="line2d_3">
      <path clip-path="url(#p218bde1f56)" d="M 145.182823 252 
L 145.182823 34.56 
" style="fill:none;stroke:#cbcbcb;"/>
     </g>
     <g id="line2d_4"/>
     <g id="text_2">
      <!-- 0.5 -->
      <defs>
       <path d="M 10.796875 72.90625 
L 49.515625 72.90625 
L 49.515625 64.59375 
L 19.828125 64.59375 
L 19.828125 46.734375 
Q 21.96875 47.46875 24.109375 47.828125 
Q 26.265625 48.1875 28.421875 48.1875 
Q 40.625 48.1875 47.75 41.5 
Q 54.890625 34.8125 54.890625 23.390625 
Q 54.890625 11.625 47.5625 5.09375 
Q 40.234375 -1.421875 26.90625 -1.421875 
Q 22.3125 -1.421875 17.546875 -0.640625 
Q 12.796875 0.140625 7.71875 1.703125 
L 7.71875 11.625 
Q 12.109375 9.234375 16.796875 8.0625 
Q 21.484375 6.890625 26.703125 6.890625 
Q 35.15625 6.890625 40.078125 11.328125 
Q 45.015625 15.765625 45.015625 23.390625 
Q 45.015625 31 40.078125 35.4375 
Q 35.15625 39.890625 26.703125 39.890625 
Q 22.75 39.890625 18.8125 39.015625 
Q 14.890625 38.140625 10.796875 36.28125 
z
" id="DejaVuSans-53"/>
      </defs>
      <g transform="translate(137.231261 263.098437)scale(0.1 -0.1)">
       <use xlink:href="#DejaVuSans-48"/>
       <use x="63.623047" xlink:href="#DejaVuSans-46"/>
       <use x="95.410156" xlink:href="#DejaVuSans-53"/>
      </g>
     </g>
    </g>
    <g id="xtick_3">
     <g id="line2d_5">
      <path clip-path="url(#p218bde1f56)" d="M 221.963484 252 
L 221.963484 34.56 
" style="fill:none;stroke:#cbcbcb;"/>
     </g>
     <g id="line2d_6"/>
     <g id="text_3">
      <!-- 1.0 -->
      <defs>
       <path d="M 12.40625 8.296875 
L 28.515625 8.296875 
L 28.515625 63.921875 
L 10.984375 60.40625 
L 10.984375 69.390625 
L 28.421875 72.90625 
L 38.28125 72.90625 
L 38.28125 8.296875 
L 54.390625 8.296875 
L 54.390625 0 
L 12.40625 0 
z
" id="DejaVuSans-49"/>
      </defs>
      <g transform="translate(214.011922 263.098437)scale(0.1 -0.1)">
       <use xlink:href="#DejaVuSans-49"/>
       <use x="63.623047" xlink:href="#DejaVuSans-46"/>
       <use x="95.410156" xlink:href="#DejaVuSans-48"/>
      </g>
     </g>
    </g>
    <g id="xtick_4">
     <g id="line2d_7">
      <path clip-path="url(#p218bde1f56)" d="M 298.744145 252 
L 298.744145 34.56 
" style="fill:none;stroke:#cbcbcb;"/>
     </g>
     <g id="line2d_8"/>
     <g id="text_4">
      <!-- 1.5 -->
      <g transform="translate(290.792583 263.098437)scale(0.1 -0.1)">
       <use xlink:href="#DejaVuSans-49"/>
       <use x="63.623047" xlink:href="#DejaVuSans-46"/>
       <use x="95.410156" xlink:href="#DejaVuSans-53"/>
      </g>
     </g>
    </g>
    <g id="xtick_5">
     <g id="line2d_9">
      <path clip-path="url(#p218bde1f56)" d="M 375.524807 252 
L 375.524807 34.56 
" style="fill:none;stroke:#cbcbcb;"/>
     </g>
     <g id="line2d_10"/>
     <g id="text_5">
      <!-- 2.0 -->
      <defs>
       <path d="M 19.1875 8.296875 
L 53.609375 8.296875 
L 53.609375 0 
L 7.328125 0 
L 7.328125 8.296875 
Q 12.9375 14.109375 22.625 23.890625 
Q 32.328125 33.6875 34.8125 36.53125 
Q 39.546875 41.84375 41.421875 45.53125 
Q 43.3125 49.21875 43.3125 52.78125 
Q 43.3125 58.59375 39.234375 62.25 
Q 35.15625 65.921875 28.609375 65.921875 
Q 23.96875 65.921875 18.8125 64.3125 
Q 13.671875 62.703125 7.8125 59.421875 
L 7.8125 69.390625 
Q 13.765625 71.78125 18.9375 73 
Q 24.125 74.21875 28.421875 74.21875 
Q 39.75 74.21875 46.484375 68.546875 
Q 53.21875 62.890625 53.21875 53.421875 
Q 53.21875 48.921875 51.53125 44.890625 
Q 49.859375 40.875 45.40625 35.40625 
Q 44.1875 33.984375 37.640625 27.21875 
Q 31.109375 20.453125 19.1875 8.296875 
z
" id="DejaVuSans-50"/>
      </defs>
      <g transform="translate(367.573244 263.098437)scale(0.1 -0.1)">
       <use xlink:href="#DejaVuSans-50"/>
       <use x="63.623047" xlink:href="#DejaVuSans-46"/>
       <use x="95.410156" xlink:href="#DejaVuSans-48"/>
      </g>
     </g>
    </g>
    <g id="xtick_6">
     <g id="line2d_11">
      <path clip-path="url(#p218bde1f56)" d="M 452.305468 252 
L 452.305468 34.56 
" style="fill:none;stroke:#cbcbcb;"/>
     </g>
     <g id="line2d_12"/>
     <g id="text_6">
      <!-- 2.5 -->
      <g transform="translate(444.353905 263.098437)scale(0.1 -0.1)">
       <use xlink:href="#DejaVuSans-50"/>
       <use x="63.623047" xlink:href="#DejaVuSans-46"/>
       <use x="95.410156" xlink:href="#DejaVuSans-53"/>
      </g>
     </g>
    </g>
    <g id="xtick_7">
     <g id="line2d_13">
      <path clip-path="url(#p218bde1f56)" d="M 529.086129 252 
L 529.086129 34.56 
" style="fill:none;stroke:#cbcbcb;"/>
     </g>
     <g id="line2d_14"/>
     <g id="text_7">
      <!-- 3.0 -->
      <defs>
       <path d="M 40.578125 39.3125 
Q 47.65625 37.796875 51.625 33 
Q 55.609375 28.21875 55.609375 21.1875 
Q 55.609375 10.40625 48.1875 4.484375 
Q 40.765625 -1.421875 27.09375 -1.421875 
Q 22.515625 -1.421875 17.65625 -0.515625 
Q 12.796875 0.390625 7.625 2.203125 
L 7.625 11.71875 
Q 11.71875 9.328125 16.59375 8.109375 
Q 21.484375 6.890625 26.8125 6.890625 
Q 36.078125 6.890625 40.9375 10.546875 
Q 45.796875 14.203125 45.796875 21.1875 
Q 45.796875 27.640625 41.28125 31.265625 
Q 36.765625 34.90625 28.71875 34.90625 
L 20.21875 34.90625 
L 20.21875 43.015625 
L 29.109375 43.015625 
Q 36.375 43.015625 40.234375 45.921875 
Q 44.09375 48.828125 44.09375 54.296875 
Q 44.09375 59.90625 40.109375 62.90625 
Q 36.140625 65.921875 28.71875 65.921875 
Q 24.65625 65.921875 20.015625 65.03125 
Q 15.375 64.15625 9.8125 62.3125 
L 9.8125 71.09375 
Q 15.4375 72.65625 20.34375 73.4375 
Q 25.25 74.21875 29.59375 74.21875 
Q 40.828125 74.21875 47.359375 69.109375 
Q 53.90625 64.015625 53.90625 55.328125 
Q 53.90625 49.265625 50.4375 45.09375 
Q 46.96875 40.921875 40.578125 39.3125 
z
" id="DejaVuSans-51"/>
      </defs>
      <g transform="translate(521.134566 263.098437)scale(0.1 -0.1)">
       <use xlink:href="#DejaVuSans-51"/>
       <use x="63.623047" xlink:href="#DejaVuSans-46"/>
       <use x="95.410156" xlink:href="#DejaVuSans-48"/>
      </g>
     </g>
    </g>
    <g id="text_8">
     <!-- Regularization -->
     <defs>
      <path d="M 44.390625 34.1875 
Q 47.5625 33.109375 50.5625 29.59375 
Q 53.5625 26.078125 56.59375 19.921875 
L 66.609375 0 
L 56 0 
L 46.6875 18.703125 
Q 43.0625 26.03125 39.671875 28.421875 
Q 36.28125 30.8125 30.421875 30.8125 
L 19.671875 30.8125 
L 19.671875 0 
L 9.8125 0 
L 9.8125 72.90625 
L 32.078125 72.90625 
Q 44.578125 72.90625 50.734375 67.671875 
Q 56.890625 62.453125 56.890625 51.90625 
Q 56.890625 45.015625 53.6875 40.46875 
Q 50.484375 35.9375 44.390625 34.1875 
z
M 19.671875 64.796875 
L 19.671875 38.921875 
L 32.078125 38.921875 
Q 39.203125 38.921875 42.84375 42.21875 
Q 46.484375 45.515625 46.484375 51.90625 
Q 46.484375 58.296875 42.84375 61.546875 
Q 39.203125 64.796875 32.078125 64.796875 
z
" id="DejaVuSans-82"/>
      <path d="M 56.203125 29.59375 
L 56.203125 25.203125 
L 14.890625 25.203125 
Q 15.484375 15.921875 20.484375 11.0625 
Q 25.484375 6.203125 34.421875 6.203125 
Q 39.59375 6.203125 44.453125 7.46875 
Q 49.3125 8.734375 54.109375 11.28125 
L 54.109375 2.78125 
Q 49.265625 0.734375 44.1875 -0.34375 
Q 39.109375 -1.421875 33.890625 -1.421875 
Q 20.796875 -1.421875 13.15625 6.1875 
Q 5.515625 13.8125 5.515625 26.8125 
Q 5.515625 40.234375 12.765625 48.109375 
Q 20.015625 56 32.328125 56 
Q 43.359375 56 49.78125 48.890625 
Q 56.203125 41.796875 56.203125 29.59375 
z
M 47.21875 32.234375 
Q 47.125 39.59375 43.09375 43.984375 
Q 39.0625 48.390625 32.421875 48.390625 
Q 24.90625 48.390625 20.390625 44.140625 
Q 15.875 39.890625 15.1875 32.171875 
z
" id="DejaVuSans-101"/>
      <path d="M 45.40625 27.984375 
Q 45.40625 37.75 41.375 43.109375 
Q 37.359375 48.484375 30.078125 48.484375 
Q 22.859375 48.484375 18.828125 43.109375 
Q 14.796875 37.75 14.796875 27.984375 
Q 14.796875 18.265625 18.828125 12.890625 
Q 22.859375 7.515625 30.078125 7.515625 
Q 37.359375 7.515625 41.375 12.890625 
Q 45.40625 18.265625 45.40625 27.984375 
z
M 54.390625 6.78125 
Q 54.390625 -7.171875 48.1875 -13.984375 
Q 42 -20.796875 29.203125 -20.796875 
Q 24.46875 -20.796875 20.265625 -20.09375 
Q 16.0625 -19.390625 12.109375 -17.921875 
L 12.109375 -9.1875 
Q 16.0625 -11.328125 19.921875 -12.34375 
Q 23.78125 -13.375 27.78125 -13.375 
Q 36.625 -13.375 41.015625 -8.765625 
Q 45.40625 -4.15625 45.40625 5.171875 
L 45.40625 9.625 
Q 42.625 4.78125 38.28125 2.390625 
Q 33.9375 0 27.875 0 
Q 17.828125 0 11.671875 7.65625 
Q 5.515625 15.328125 5.515625 27.984375 
Q 5.515625 40.671875 11.671875 48.328125 
Q 17.828125 56 27.875 56 
Q 33.9375 56 38.28125 53.609375 
Q 42.625 51.21875 45.40625 46.390625 
L 45.40625 54.6875 
L 54.390625 54.6875 
z
" id="DejaVuSans-103"/>
      <path d="M 8.5 21.578125 
L 8.5 54.6875 
L 17.484375 54.6875 
L 17.484375 21.921875 
Q 17.484375 14.15625 20.5 10.265625 
Q 23.53125 6.390625 29.59375 6.390625 
Q 36.859375 6.390625 41.078125 11.03125 
Q 45.3125 15.671875 45.3125 23.6875 
L 45.3125 54.6875 
L 54.296875 54.6875 
L 54.296875 0 
L 45.3125 0 
L 45.3125 8.40625 
Q 42.046875 3.421875 37.71875 1 
Q 33.40625 -1.421875 27.6875 -1.421875 
Q 18.265625 -1.421875 13.375 4.4375 
Q 8.5 10.296875 8.5 21.578125 
z
M 31.109375 56 
z
" id="DejaVuSans-117"/>
      <path d="M 9.421875 75.984375 
L 18.40625 75.984375 
L 18.40625 0 
L 9.421875 0 
z
" id="DejaVuSans-108"/>
      <path d="M 34.28125 27.484375 
Q 23.390625 27.484375 19.1875 25 
Q 14.984375 22.515625 14.984375 16.5 
Q 14.984375 11.71875 18.140625 8.90625 
Q 21.296875 6.109375 26.703125 6.109375 
Q 34.1875 6.109375 38.703125 11.40625 
Q 43.21875 16.703125 43.21875 25.484375 
L 43.21875 27.484375 
z
M 52.203125 31.203125 
L 52.203125 0 
L 43.21875 0 
L 43.21875 8.296875 
Q 40.140625 3.328125 35.546875 0.953125 
Q 30.953125 -1.421875 24.3125 -1.421875 
Q 15.921875 -1.421875 10.953125 3.296875 
Q 6 8.015625 6 15.921875 
Q 6 25.140625 12.171875 29.828125 
Q 18.359375 34.515625 30.609375 34.515625 
L 43.21875 34.515625 
L 43.21875 35.40625 
Q 43.21875 41.609375 39.140625 45 
Q 35.0625 48.390625 27.6875 48.390625 
Q 23 48.390625 18.546875 47.265625 
Q 14.109375 46.140625 10.015625 43.890625 
L 10.015625 52.203125 
Q 14.9375 54.109375 19.578125 55.046875 
Q 24.21875 56 28.609375 56 
Q 40.484375 56 46.34375 49.84375 
Q 52.203125 43.703125 52.203125 31.203125 
z
" id="DejaVuSans-97"/>
      <path d="M 41.109375 46.296875 
Q 39.59375 47.171875 37.8125 47.578125 
Q 36.03125 48 33.890625 48 
Q 26.265625 48 22.1875 43.046875 
Q 18.109375 38.09375 18.109375 28.8125 
L 18.109375 0 
L 9.078125 0 
L 9.078125 54.6875 
L 18.109375 54.6875 
L 18.109375 46.1875 
Q 20.953125 51.171875 25.484375 53.578125 
Q 30.03125 56 36.53125 56 
Q 37.453125 56 38.578125 55.875 
Q 39.703125 55.765625 41.0625 55.515625 
z
" id="DejaVuSans-114"/>
      <path d="M 9.421875 54.6875 
L 18.40625 54.6875 
L 18.40625 0 
L 9.421875 0 
z
M 9.421875 75.984375 
L 18.40625 75.984375 
L 18.40625 64.59375 
L 9.421875 64.59375 
z
" id="DejaVuSans-105"/>
      <path d="M 5.515625 54.6875 
L 48.1875 54.6875 
L 48.1875 46.484375 
L 14.40625 7.171875 
L 48.1875 7.171875 
L 48.1875 0 
L 4.296875 0 
L 4.296875 8.203125 
L 38.09375 47.515625 
L 5.515625 47.515625 
z
" id="DejaVuSans-122"/>
      <path d="M 18.3125 70.21875 
L 18.3125 54.6875 
L 36.8125 54.6875 
L 36.8125 47.703125 
L 18.3125 47.703125 
L 18.3125 18.015625 
Q 18.3125 11.328125 20.140625 9.421875 
Q 21.96875 7.515625 27.59375 7.515625 
L 36.8125 7.515625 
L 36.8125 0 
L 27.59375 0 
Q 17.1875 0 13.234375 3.875 
Q 9.28125 7.765625 9.28125 18.015625 
L 9.28125 47.703125 
L 2.6875 47.703125 
L 2.6875 54.6875 
L 9.28125 54.6875 
L 9.28125 70.21875 
z
" id="DejaVuSans-116"/>
      <path d="M 30.609375 48.390625 
Q 23.390625 48.390625 19.1875 42.75 
Q 14.984375 37.109375 14.984375 27.296875 
Q 14.984375 17.484375 19.15625 11.84375 
Q 23.34375 6.203125 30.609375 6.203125 
Q 37.796875 6.203125 41.984375 11.859375 
Q 46.1875 17.53125 46.1875 27.296875 
Q 46.1875 37.015625 41.984375 42.703125 
Q 37.796875 48.390625 30.609375 48.390625 
z
M 30.609375 56 
Q 42.328125 56 49.015625 48.375 
Q 55.71875 40.765625 55.71875 27.296875 
Q 55.71875 13.875 49.015625 6.21875 
Q 42.328125 -1.421875 30.609375 -1.421875 
Q 18.84375 -1.421875 12.171875 6.21875 
Q 5.515625 13.875 5.515625 27.296875 
Q 5.515625 40.765625 12.171875 48.375 
Q 18.84375 56 30.609375 56 
z
" id="DejaVuSans-111"/>
      <path d="M 54.890625 33.015625 
L 54.890625 0 
L 45.90625 0 
L 45.90625 32.71875 
Q 45.90625 40.484375 42.875 44.328125 
Q 39.84375 48.1875 33.796875 48.1875 
Q 26.515625 48.1875 22.3125 43.546875 
Q 18.109375 38.921875 18.109375 30.90625 
L 18.109375 0 
L 9.078125 0 
L 9.078125 54.6875 
L 18.109375 54.6875 
L 18.109375 46.1875 
Q 21.34375 51.125 25.703125 53.5625 
Q 30.078125 56 35.796875 56 
Q 45.21875 56 50.046875 50.171875 
Q 54.890625 44.34375 54.890625 33.015625 
z
" id="DejaVuSans-110"/>
     </defs>
     <g transform="translate(253.375312 278.29625)scale(0.12 -0.12)">
      <use xlink:href="#DejaVuSans-82"/>
      <use x="69.419922" xlink:href="#DejaVuSans-101"/>
      <use x="130.943359" xlink:href="#DejaVuSans-103"/>
      <use x="194.419922" xlink:href="#DejaVuSans-117"/>
      <use x="257.798828" xlink:href="#DejaVuSans-108"/>
      <use x="285.582031" xlink:href="#DejaVuSans-97"/>
      <use x="346.861328" xlink:href="#DejaVuSans-114"/>
      <use x="387.974609" xlink:href="#DejaVuSans-105"/>
      <use x="415.757812" xlink:href="#DejaVuSans-122"/>
      <use x="468.248047" xlink:href="#DejaVuSans-97"/>
      <use x="529.527344" xlink:href="#DejaVuSans-116"/>
      <use x="568.736328" xlink:href="#DejaVuSans-105"/>
      <use x="596.519531" xlink:href="#DejaVuSans-111"/>
      <use x="657.701172" xlink:href="#DejaVuSans-110"/>
     </g>
    </g>
   </g>
   <g id="matplotlib.axis_2">
    <g id="ytick_1">
     <g id="line2d_15">
      <path clip-path="url(#p218bde1f56)" d="M 46.08 232.995574 
L 547.2 232.995574 
" style="fill:none;stroke:#cbcbcb;"/>
     </g>
     <g id="line2d_16"/>
     <g id="text_9">
      <!-- −1.0 -->
      <defs>
       <path d="M 10.59375 35.5 
L 73.1875 35.5 
L 73.1875 27.203125 
L 10.59375 27.203125 
z
" id="DejaVuSans-8722"/>
      </defs>
      <g transform="translate(18.297187 236.794793)scale(0.1 -0.1)">
       <use xlink:href="#DejaVuSans-8722"/>
       <use x="83.789062" xlink:href="#DejaVuSans-49"/>
       <use x="147.412109" xlink:href="#DejaVuSans-46"/>
       <use x="179.199219" xlink:href="#DejaVuSans-48"/>
      </g>
     </g>
    </g>
    <g id="ytick_2">
     <g id="line2d_17">
      <path clip-path="url(#p218bde1f56)" d="M 46.08 196.894674 
L 547.2 196.894674 
" style="fill:none;stroke:#cbcbcb;"/>
     </g>
     <g id="line2d_18"/>
     <g id="text_10">
      <!-- −0.5 -->
      <g transform="translate(18.297187 200.693893)scale(0.1 -0.1)">
       <use xlink:href="#DejaVuSans-8722"/>
       <use x="83.789062" xlink:href="#DejaVuSans-48"/>
       <use x="147.412109" xlink:href="#DejaVuSans-46"/>
       <use x="179.199219" xlink:href="#DejaVuSans-53"/>
      </g>
     </g>
    </g>
    <g id="ytick_3">
     <g id="line2d_19">
      <path clip-path="url(#p218bde1f56)" d="M 46.08 160.793774 
L 547.2 160.793774 
" style="fill:none;stroke:#cbcbcb;"/>
     </g>
     <g id="line2d_20"/>
     <g id="text_11">
      <!-- 0.0 -->
      <g transform="translate(26.676875 164.592993)scale(0.1 -0.1)">
       <use xlink:href="#DejaVuSans-48"/>
       <use x="63.623047" xlink:href="#DejaVuSans-46"/>
       <use x="95.410156" xlink:href="#DejaVuSans-48"/>
      </g>
     </g>
    </g>
    <g id="ytick_4">
     <g id="line2d_21">
      <path clip-path="url(#p218bde1f56)" d="M 46.08 124.692874 
L 547.2 124.692874 
" style="fill:none;stroke:#cbcbcb;"/>
     </g>
     <g id="line2d_22"/>
     <g id="text_12">
      <!-- 0.5 -->
      <g transform="translate(26.676875 128.492093)scale(0.1 -0.1)">
       <use xlink:href="#DejaVuSans-48"/>
       <use x="63.623047" xlink:href="#DejaVuSans-46"/>
       <use x="95.410156" xlink:href="#DejaVuSans-53"/>
      </g>
     </g>
    </g>
    <g id="ytick_5">
     <g id="line2d_23">
      <path clip-path="url(#p218bde1f56)" d="M 46.08 88.591974 
L 547.2 88.591974 
" style="fill:none;stroke:#cbcbcb;"/>
     </g>
     <g id="line2d_24"/>
     <g id="text_13">
      <!-- 1.0 -->
      <g transform="translate(26.676875 92.391193)scale(0.1 -0.1)">
       <use xlink:href="#DejaVuSans-49"/>
       <use x="63.623047" xlink:href="#DejaVuSans-46"/>
       <use x="95.410156" xlink:href="#DejaVuSans-48"/>
      </g>
     </g>
    </g>
    <g id="ytick_6">
     <g id="line2d_25">
      <path clip-path="url(#p218bde1f56)" d="M 46.08 52.491074 
L 547.2 52.491074 
" style="fill:none;stroke:#cbcbcb;"/>
     </g>
     <g id="line2d_26"/>
     <g id="text_14">
      <!-- 1.5 -->
      <g transform="translate(26.676875 56.290293)scale(0.1 -0.1)">
       <use xlink:href="#DejaVuSans-49"/>
       <use x="63.623047" xlink:href="#DejaVuSans-46"/>
       <use x="95.410156" xlink:href="#DejaVuSans-53"/>
      </g>
     </g>
    </g>
    <g id="text_15">
     <!-- Regression Coefficients -->
     <defs>
      <path d="M 44.28125 53.078125 
L 44.28125 44.578125 
Q 40.484375 46.53125 36.375 47.5 
Q 32.28125 48.484375 27.875 48.484375 
Q 21.1875 48.484375 17.84375 46.4375 
Q 14.5 44.390625 14.5 40.28125 
Q 14.5 37.15625 16.890625 35.375 
Q 19.28125 33.59375 26.515625 31.984375 
L 29.59375 31.296875 
Q 39.15625 29.25 43.1875 25.515625 
Q 47.21875 21.78125 47.21875 15.09375 
Q 47.21875 7.46875 41.1875 3.015625 
Q 35.15625 -1.421875 24.609375 -1.421875 
Q 20.21875 -1.421875 15.453125 -0.5625 
Q 10.6875 0.296875 5.421875 2 
L 5.421875 11.28125 
Q 10.40625 8.6875 15.234375 7.390625 
Q 20.0625 6.109375 24.8125 6.109375 
Q 31.15625 6.109375 34.5625 8.28125 
Q 37.984375 10.453125 37.984375 14.40625 
Q 37.984375 18.0625 35.515625 20.015625 
Q 33.0625 21.96875 24.703125 23.78125 
L 21.578125 24.515625 
Q 13.234375 26.265625 9.515625 29.90625 
Q 5.8125 33.546875 5.8125 39.890625 
Q 5.8125 47.609375 11.28125 51.796875 
Q 16.75 56 26.8125 56 
Q 31.78125 56 36.171875 55.265625 
Q 40.578125 54.546875 44.28125 53.078125 
z
" id="DejaVuSans-115"/>
      <path id="DejaVuSans-32"/>
      <path d="M 64.40625 67.28125 
L 64.40625 56.890625 
Q 59.421875 61.53125 53.78125 63.8125 
Q 48.140625 66.109375 41.796875 66.109375 
Q 29.296875 66.109375 22.65625 58.46875 
Q 16.015625 50.828125 16.015625 36.375 
Q 16.015625 21.96875 22.65625 14.328125 
Q 29.296875 6.6875 41.796875 6.6875 
Q 48.140625 6.6875 53.78125 8.984375 
Q 59.421875 11.28125 64.40625 15.921875 
L 64.40625 5.609375 
Q 59.234375 2.09375 53.4375 0.328125 
Q 47.65625 -1.421875 41.21875 -1.421875 
Q 24.65625 -1.421875 15.125 8.703125 
Q 5.609375 18.84375 5.609375 36.375 
Q 5.609375 53.953125 15.125 64.078125 
Q 24.65625 74.21875 41.21875 74.21875 
Q 47.75 74.21875 53.53125 72.484375 
Q 59.328125 70.75 64.40625 67.28125 
z
" id="DejaVuSans-67"/>
      <path d="M 37.109375 75.984375 
L 37.109375 68.5 
L 28.515625 68.5 
Q 23.6875 68.5 21.796875 66.546875 
Q 19.921875 64.59375 19.921875 59.515625 
L 19.921875 54.6875 
L 34.71875 54.6875 
L 34.71875 47.703125 
L 19.921875 47.703125 
L 19.921875 0 
L 10.890625 0 
L 10.890625 47.703125 
L 2.296875 47.703125 
L 2.296875 54.6875 
L 10.890625 54.6875 
L 10.890625 58.5 
Q 10.890625 67.625 15.140625 71.796875 
Q 19.390625 75.984375 28.609375 75.984375 
z
" id="DejaVuSans-102"/>
      <path d="M 48.78125 52.59375 
L 48.78125 44.1875 
Q 44.96875 46.296875 41.140625 47.34375 
Q 37.3125 48.390625 33.40625 48.390625 
Q 24.65625 48.390625 19.8125 42.84375 
Q 14.984375 37.3125 14.984375 27.296875 
Q 14.984375 17.28125 19.8125 11.734375 
Q 24.65625 6.203125 33.40625 6.203125 
Q 37.3125 6.203125 41.140625 7.25 
Q 44.96875 8.296875 48.78125 10.40625 
L 48.78125 2.09375 
Q 45.015625 0.34375 40.984375 -0.53125 
Q 36.96875 -1.421875 32.421875 -1.421875 
Q 20.0625 -1.421875 12.78125 6.34375 
Q 5.515625 14.109375 5.515625 27.296875 
Q 5.515625 40.671875 12.859375 48.328125 
Q 20.21875 56 33.015625 56 
Q 37.15625 56 41.109375 55.140625 
Q 45.0625 54.296875 48.78125 52.59375 
z
" id="DejaVuSans-99"/>
     </defs>
     <g transform="translate(11.801562 213.78375)rotate(-90)scale(0.12 -0.12)">
      <use xlink:href="#DejaVuSans-82"/>
      <use x="69.419922" xlink:href="#DejaVuSans-101"/>
      <use x="130.943359" xlink:href="#DejaVuSans-103"/>
      <use x="194.419922" xlink:href="#DejaVuSans-114"/>
      <use x="235.501953" xlink:href="#DejaVuSans-101"/>
      <use x="297.025391" xlink:href="#DejaVuSans-115"/>
      <use x="349.125" xlink:href="#DejaVuSans-115"/>
      <use x="401.224609" xlink:href="#DejaVuSans-105"/>
      <use x="429.007812" xlink:href="#DejaVuSans-111"/>
      <use x="490.189453" xlink:href="#DejaVuSans-110"/>
      <use x="553.568359" xlink:href="#DejaVuSans-32"/>
      <use x="585.355469" xlink:href="#DejaVuSans-67"/>
      <use x="655.179688" xlink:href="#DejaVuSans-111"/>
      <use x="716.361328" xlink:href="#DejaVuSans-101"/>
      <use x="777.884766" xlink:href="#DejaVuSans-102"/>
      <use x="813.089844" xlink:href="#DejaVuSans-102"/>
      <use x="848.294922" xlink:href="#DejaVuSans-105"/>
      <use x="876.078125" xlink:href="#DejaVuSans-99"/>
      <use x="931.058594" xlink:href="#DejaVuSans-105"/>
      <use x="958.841797" xlink:href="#DejaVuSans-101"/>
      <use x="1020.365234" xlink:href="#DejaVuSans-110"/>
      <use x="1083.744141" xlink:href="#DejaVuSans-116"/>
      <use x="1122.953125" xlink:href="#DejaVuSans-115"/>
     </g>
    </g>
   </g>
   <g id="line2d_27">
    <path clip-path="url(#p218bde1f56)" d="M 524.421818 160.793774 
L 493.68762 160.793774 
L 465.024803 160.793774 
L 438.293765 160.793774 
L 413.364309 160.793774 
L 390.115014 160.793774 
L 368.432645 160.793774 
L 348.211595 160.793774 
L 329.353375 160.793774 
L 311.766137 160.793774 
L 295.36422 160.793774 
L 280.067736 160.793774 
L 265.802185 157.987014 
L 252.498084 152.147073 
L 240.090635 146.698662 
L 228.519407 141.612831 
L 217.72804 136.88158 
L 207.663976 132.459116 
L 198.278196 128.374112 
L 189.524986 124.338325 
L 181.361713 120.56808 
L 173.748617 117.051801 
L 166.648619 113.772536 
L 160.027136 110.714312 
L 153.85192 107.86223 
L 148.092892 105.202393 
L 142.722004 102.721845 
L 137.713095 100.408499 
L 133.04177 98.251084 
L 128.685277 96.23909 
L 124.622397 94.362712 
L 120.833341 92.61429 
L 117.299655 90.982759 
L 114.004128 89.460879 
L 110.930708 88.041509 
L 108.064426 86.717789 
L 105.391322 85.483264 
L 102.898377 84.200368 
L 100.573447 82.961491 
L 98.40521 81.805257 
L 96.383105 80.726989 
L 94.497283 79.721446 
L 92.73856 78.783718 
L 91.098368 77.909445 
L 89.56872 77.09358 
L 88.142164 76.333023 
L 86.811754 75.623838 
L 85.571009 74.962494 
L 84.413887 74.345757 
L 83.33475 73.771187 
L 82.328344 73.2339 
L 81.389766 72.734571 
L 80.514445 72.267985 
L 79.698117 71.832908 
L 78.936808 71.427277 
L 78.226808 71.049057 
L 77.56466 70.696373 
L 76.947138 70.367499 
L 76.371235 70.060831 
L 75.834146 69.774876 
L 75.333255 69.507229 
L 74.866123 69.259665 
L 74.430474 69.027003 
L 74.024186 68.810755 
L 73.64528 68.609342 
L 73.291911 68.421599 
L 72.962359 68.245368 
L 72.655017 68.081895 
L 72.368389 67.929836 
L 72.101078 67.786963 
L 71.851784 67.65454 
L 71.619291 67.531494 
L 71.402467 67.415682 
L 71.200256 67.307171 
L 71.011674 67.207049 
L 70.835802 67.11304 
L 70.671783 67.026274 
L 70.518818 66.94466 
L 70.376162 66.869409 
L 70.243121 66.798528 
L 70.119047 66.731963 
L 70.003335 66.669616 
L 69.895421 66.612566 
L 69.79478 66.558911 
L 69.700922 66.509823 
L 69.61339 66.462226 
L 69.531758 66.418986 
L 69.455627 66.378327 
L 69.384627 66.341419 
L 69.318412 66.305305 
L 69.25666 66.272757 
L 69.199069 66.242118 
L 69.145361 66.212659 
L 69.095271 65.717933 
L 69.048558 65.332184 
L 69.004993 64.980999 
L 68.964365 64.654058 
L 68.926474 64.349749 
L 68.891137 64.06602 
L 68.858182 63.801412 
" style="fill:none;stroke:#008fd5;stroke-width:4;"/>
   </g>
   <g id="line2d_28">
    <path clip-path="url(#p218bde1f56)" d="M 524.421818 160.793774 
L 493.68762 147.293459 
L 465.024803 134.703019 
L 438.293765 122.961133 
L 413.364309 112.01061 
L 390.115014 101.798116 
L 368.432645 92.273911 
L 348.211595 83.391604 
L 329.353375 75.107936 
L 311.766137 67.335679 
L 295.36422 60.085906 
L 280.067736 53.324744 
L 265.802185 49.664344 
L 252.498084 49.287377 
L 240.090635 48.93776 
L 228.519407 48.616063 
L 217.72804 48.304917 
L 207.663976 48.024244 
L 198.278196 47.72058 
L 189.524986 47.639309 
L 181.361713 47.569646 
L 173.748617 47.504807 
L 166.648619 47.444312 
L 160.027136 47.387865 
L 153.85192 47.335196 
L 148.092892 47.286052 
L 142.722004 47.240196 
L 137.713095 47.19741 
L 133.04177 47.157487 
L 128.685277 47.120238 
L 124.622397 47.085483 
L 120.833341 47.051754 
L 117.299655 47.021118 
L 114.004128 46.992824 
L 110.930708 46.96649 
L 108.064426 46.941938 
L 105.391322 46.919059 
L 102.898377 46.956002 
L 100.573447 47.014236 
L 98.40521 47.069257 
L 96.383105 47.120548 
L 94.497283 47.168345 
L 92.73856 47.21289 
L 91.098368 47.254375 
L 89.56872 47.293337 
L 88.142164 47.329437 
L 86.811754 47.363023 
L 85.571009 47.394317 
L 84.413887 47.423481 
L 83.33475 47.450402 
L 82.328344 47.476279 
L 81.389766 47.499425 
L 80.514445 47.521562 
L 79.698117 47.542157 
L 78.936808 47.56128 
L 78.226808 47.57907 
L 77.56466 47.595637 
L 76.947138 47.61107 
L 76.371235 47.625444 
L 75.834146 47.638832 
L 75.333255 47.651816 
L 74.866123 47.662821 
L 74.430474 47.674053 
L 74.024186 47.684136 
L 73.64528 47.6934 
L 73.291911 47.702005 
L 72.962359 47.710633 
L 72.655017 47.718211 
L 72.368389 47.725066 
L 72.101078 47.732013 
L 71.851784 47.738071 
L 71.619291 47.743488 
L 71.402467 47.749087 
L 71.200256 47.754574 
L 71.011674 47.759134 
L 70.835802 47.763692 
L 70.671783 47.767483 
L 70.518818 47.771363 
L 70.376162 47.774555 
L 70.243121 47.777882 
L 70.119047 47.781225 
L 70.003335 47.784482 
L 69.895421 47.786967 
L 69.79478 47.789496 
L 69.700922 47.791383 
L 69.61339 47.794039 
L 69.531758 47.795957 
L 69.455627 47.797905 
L 69.384627 47.799224 
L 69.318412 47.801282 
L 69.25666 47.802653 
L 69.199069 47.804068 
L 69.145361 47.805455 
L 69.095271 47.374426 
L 69.048558 46.79711 
L 69.004993 46.263639 
L 68.964365 45.760486 
L 68.926474 45.290571 
L 68.891137 44.85233 
L 68.858182 44.443636 
" style="fill:none;stroke:#fc4f30;stroke-width:4;"/>
   </g>
   <g id="line2d_29">
    <path clip-path="url(#p218bde1f56)" d="M 524.421818 160.793774 
L 493.68762 160.793774 
L 465.024803 160.793774 
L 438.293765 160.793774 
L 413.364309 160.793774 
L 390.115014 160.793774 
L 368.432645 160.793774 
L 348.211595 160.793774 
L 329.353375 160.793774 
L 311.766137 160.793774 
L 295.36422 160.793774 
L 280.067736 160.793774 
L 265.802185 160.793774 
L 252.498084 160.793774 
L 240.090635 160.793774 
L 228.519407 160.793774 
L 217.72804 160.793774 
L 207.663976 160.793774 
L 198.278196 160.793774 
L 189.524986 160.793774 
L 181.361713 160.793774 
L 173.748617 160.793774 
L 166.648619 160.793774 
L 160.027136 160.793774 
L 153.85192 160.793774 
L 148.092892 160.793774 
L 142.722004 160.793774 
L 137.713095 160.793774 
L 133.04177 160.793774 
L 128.685277 160.793774 
L 124.622397 160.793774 
L 120.833341 160.793774 
L 117.299655 160.793774 
L 114.004128 160.793774 
L 110.930708 160.793774 
L 108.064426 160.793774 
L 105.391322 160.793774 
L 102.898377 160.793774 
L 100.573447 160.793774 
L 98.40521 160.793774 
L 96.383105 160.793774 
L 94.497283 160.793774 
L 92.73856 160.793774 
L 91.098368 160.793774 
L 89.56872 160.793774 
L 88.142164 160.793774 
L 86.811754 160.793774 
L 85.571009 160.793774 
L 84.413887 160.793774 
L 83.33475 160.793774 
L 82.328344 160.793774 
L 81.389766 160.793774 
L 80.514445 160.793774 
L 79.698117 160.793774 
L 78.936808 160.793774 
L 78.226808 160.793774 
L 77.56466 160.793774 
L 76.947138 160.793774 
L 76.371235 160.793774 
L 75.834146 160.793774 
L 75.333255 160.793774 
L 74.866123 160.793774 
L 74.430474 160.793774 
L 74.024186 160.793774 
L 73.64528 160.793774 
L 73.291911 160.793774 
L 72.962359 160.793774 
L 72.655017 160.793774 
L 72.368389 160.793774 
L 72.101078 160.793774 
L 71.851784 160.793774 
L 71.619291 160.793774 
L 71.402467 160.793774 
L 71.200256 160.793774 
L 71.011674 160.793774 
L 70.835802 160.793774 
L 70.671783 160.793774 
L 70.518818 160.793774 
L 70.376162 160.793774 
L 70.243121 160.793774 
L 70.119047 160.793774 
L 70.003335 160.793774 
L 69.895421 160.793774 
L 69.79478 160.793774 
L 69.700922 160.793774 
L 69.61339 160.793774 
L 69.531758 160.793774 
L 69.455627 160.793774 
L 69.384627 160.793774 
L 69.318412 160.793774 
L 69.25666 160.793774 
L 69.199069 160.793774 
L 69.145361 160.794735 
L 69.095271 161.699625 
L 69.048558 162.650183 
L 69.004993 163.523258 
L 68.964365 164.342307 
L 68.926474 165.106244 
L 68.891137 165.818629 
L 68.858182 166.482992 
" style="fill:none;stroke:#e5ae38;stroke-width:4;"/>
   </g>
   <g id="line2d_30">
    <path clip-path="url(#p218bde1f56)" d="M 524.421818 160.793774 
L 493.68762 160.793774 
L 465.024803 160.793774 
L 438.293765 160.793774 
L 413.364309 160.793774 
L 390.115014 160.793774 
L 368.432645 160.793774 
L 348.211595 160.793774 
L 329.353375 160.793774 
L 311.766137 160.793774 
L 295.36422 160.793774 
L 280.067736 160.793774 
L 265.802185 160.793774 
L 252.498084 160.793774 
L 240.090635 160.793774 
L 228.519407 160.793774 
L 217.72804 160.793774 
L 207.663976 160.793774 
L 198.278196 161.359879 
L 189.524986 163.243715 
L 181.361713 164.99548 
L 173.748617 166.628954 
L 166.648619 168.152379 
L 160.027136 169.5732 
L 153.85192 170.898345 
L 148.092892 172.134273 
L 142.722004 173.287011 
L 137.713095 174.362179 
L 133.04177 175.365021 
L 128.685277 176.300428 
L 124.622397 177.172966 
L 120.833341 177.976168 
L 117.299655 178.733684 
L 114.004128 179.441549 
L 110.930708 180.102125 
L 108.064426 180.718468 
L 105.391322 181.293303 
L 102.898377 181.299277 
L 100.573447 181.169913 
L 98.40521 181.047855 
L 96.383105 180.933808 
L 94.497283 180.827431 
L 92.73856 180.728217 
L 91.098368 180.646391 
L 89.56872 180.560971 
L 88.142164 180.480427 
L 86.811754 180.405413 
L 85.571009 180.335546 
L 84.413887 180.270463 
L 83.33475 180.220654 
L 82.328344 180.155385 
L 81.389766 180.111694 
L 80.514445 180.065133 
L 79.698117 180.020272 
L 78.936808 179.978434 
L 78.226808 179.939729 
L 77.56466 179.904014 
L 76.947138 179.871135 
L 76.371235 179.840962 
L 75.834146 179.813389 
L 75.333255 179.77743 
L 74.866123 179.760754 
L 74.430474 179.732599 
L 74.024186 179.710475 
L 73.64528 179.692588 
L 73.291911 179.677844 
L 72.962359 179.654774 
L 72.655017 179.638505 
L 72.368389 179.627175 
L 72.101078 179.6087 
L 71.851784 179.596935 
L 71.619291 179.590331 
L 71.402467 179.576885 
L 71.200256 179.559112 
L 71.011674 179.549503 
L 70.835802 179.5357 
L 70.671783 179.529508 
L 70.518818 179.518996 
L 70.376162 179.515772 
L 70.243121 179.508215 
L 70.119047 179.49742 
L 70.003335 179.484392 
L 69.895421 179.479867 
L 69.79478 179.47253 
L 69.700922 179.472964 
L 69.61339 179.460247 
L 69.531758 179.456238 
L 69.455627 179.450093 
L 69.384627 179.451956 
L 69.318412 179.441547 
L 69.25666 179.439758 
L 69.199069 179.436156 
L 69.145361 179.431041 
L 69.095271 179.311762 
L 69.048558 179.359279 
L 69.004993 179.417848 
L 68.964365 179.472325 
L 68.926474 179.52288 
L 68.891137 179.570015 
L 68.858182 179.613978 
" style="fill:none;stroke:#6d904f;stroke-width:4;"/>
   </g>
   <g id="line2d_31">
    <path clip-path="url(#p218bde1f56)" d="M 524.421818 160.793774 
L 493.68762 160.793774 
L 465.024803 160.793774 
L 438.293765 160.793774 
L 413.364309 160.793774 
L 390.115014 160.793774 
L 368.432645 160.793774 
L 348.211595 160.793774 
L 329.353375 160.793774 
L 311.766137 160.793774 
L 295.36422 160.793774 
L 280.067736 160.793774 
L 265.802185 160.793774 
L 252.498084 160.793774 
L 240.090635 160.793774 
L 228.519407 160.793774 
L 217.72804 160.793774 
L 207.663976 160.793774 
L 198.278196 160.793774 
L 189.524986 160.793774 
L 181.361713 160.793774 
L 173.748617 160.793774 
L 166.648619 160.793774 
L 160.027136 160.793774 
L 153.85192 160.793774 
L 148.092892 160.793774 
L 142.722004 160.793774 
L 137.713095 160.793774 
L 133.04177 160.793774 
L 128.685277 160.793774 
L 124.622397 160.793774 
L 120.833341 160.793774 
L 117.299655 160.793774 
L 114.004128 160.793774 
L 110.930708 160.793774 
L 108.064426 160.793774 
L 105.391322 160.793774 
L 102.898377 162.006179 
L 100.573447 163.434236 
L 98.40521 164.767719 
L 96.383105 166.011122 
L 94.497283 167.170496 
L 92.73856 168.251533 
L 91.098368 169.255512 
L 89.56872 170.196325 
L 88.142164 171.072761 
L 86.811754 171.889676 
L 85.571009 172.651305 
L 84.413887 173.361404 
L 83.33475 174.017671 
L 82.328344 174.641489 
L 81.389766 175.210494 
L 80.514445 175.746836 
L 79.698117 176.247052 
L 78.936808 176.71302 
L 78.226808 177.147158 
L 77.56466 177.551671 
L 76.947138 177.928552 
L 76.371235 178.279631 
L 75.834146 178.606599 
L 75.333255 178.919441 
L 74.866123 179.195728 
L 74.430474 179.466545 
L 74.024186 179.713726 
L 73.64528 179.942176 
L 73.291911 180.154122 
L 72.962359 180.360595 
L 72.655017 180.546622 
L 72.368389 180.717007 
L 72.101078 180.884179 
L 71.851784 181.033651 
L 71.619291 181.169385 
L 71.402467 181.30419 
L 71.200256 181.433962 
L 71.011674 181.546703 
L 70.835802 181.657197 
L 70.671783 181.752996 
L 70.518818 181.847998 
L 70.376162 181.92949 
L 70.243121 182.011118 
L 70.119047 182.09087 
L 70.003335 182.167462 
L 69.895421 182.230135 
L 69.79478 182.292419 
L 69.700922 182.342709 
L 69.61339 182.404531 
L 69.531758 182.45267 
L 69.455627 182.500381 
L 69.384627 182.536552 
L 69.318412 182.584281 
L 69.25666 182.619371 
L 69.199069 182.654481 
L 69.145361 182.689096 
L 69.095271 182.782293 
L 69.048558 182.741122 
L 69.004993 182.708775 
L 68.964365 182.680585 
L 68.926474 182.654309 
L 68.891137 182.629756 
L 68.858182 182.606853 
" style="fill:none;stroke:#8b8b8b;stroke-width:4;"/>
   </g>
   <g id="line2d_32">
    <path clip-path="url(#p218bde1f56)" d="M 524.421818 160.793774 
L 493.68762 160.793774 
L 465.024803 160.793774 
L 438.293765 160.793774 
L 413.364309 160.793774 
L 390.115014 160.793774 
L 368.432645 160.793774 
L 348.211595 160.793774 
L 329.353375 160.793774 
L 311.766137 168.453995 
L 295.36422 175.817014 
L 280.067736 182.683791 
L 265.802185 189.133038 
L 252.498084 195.199599 
L 240.090635 200.857328 
L 228.519407 206.133819 
L 217.72804 211.054502 
L 207.663976 215.64371 
L 198.278196 219.365251 
L 189.524986 221.503783 
L 181.361713 223.503318 
L 173.748617 225.36832 
L 166.648619 227.107585 
L 160.027136 228.72956 
L 153.85192 230.242137 
L 148.092892 231.65268 
L 142.722004 232.96805 
L 137.713095 234.19465 
L 133.04177 235.338446 
L 128.685277 236.405002 
L 124.622397 237.399505 
L 120.833341 238.337331 
L 117.299655 239.203644 
L 114.004128 240.010193 
L 110.930708 240.761972 
L 108.064426 241.4628 
L 105.391322 242.116364 
L 102.898377 242.066361 
L 100.573447 241.862975 
L 98.40521 241.67307 
L 96.383105 241.496378 
L 94.497283 241.331832 
L 92.73856 241.178576 
L 91.098368 241.029202 
L 89.56872 240.894486 
L 88.142164 240.770658 
L 86.811754 240.655516 
L 85.571009 240.548266 
L 84.413887 240.448363 
L 83.33475 240.350291 
L 82.328344 240.265887 
L 81.389766 240.182687 
L 80.514445 240.105286 
L 79.698117 240.034496 
L 78.936808 239.968996 
L 78.226808 239.908019 
L 77.56466 239.851131 
L 76.947138 239.798014 
L 76.371235 239.748386 
L 75.834146 239.701982 
L 75.333255 239.661091 
L 74.866123 239.621417 
L 74.430474 239.584022 
L 74.024186 239.550321 
L 73.64528 239.518204 
L 73.291911 239.487423 
L 72.962359 239.459312 
L 72.655017 239.43429 
L 72.368389 239.410194 
L 72.101078 239.387454 
L 71.851784 239.367132 
L 71.619291 239.347447 
L 71.402467 239.328259 
L 71.200256 239.31157 
L 71.011674 239.297217 
L 70.835802 239.283384 
L 70.671783 239.270967 
L 70.518818 239.258538 
L 70.376162 239.247389 
L 70.243121 239.235991 
L 70.119047 239.225521 
L 70.003335 239.216513 
L 69.895421 239.209136 
L 69.79478 239.201587 
L 69.700922 239.194976 
L 69.61339 239.187197 
L 69.531758 239.181484 
L 69.455627 239.17578 
L 69.384627 239.17109 
L 69.318412 239.165044 
L 69.25666 239.160787 
L 69.199069 239.156399 
L 69.145361 239.152221 
L 69.095271 239.20994 
L 69.048558 239.231351 
L 69.004993 239.231215 
L 68.964365 239.229298 
L 68.926474 239.227734 
L 68.891137 239.226332 
L 68.858182 239.225026 
" style="fill:none;stroke:#810f7c;stroke-width:4;"/>
   </g>
   <g id="patch_3">
    <path d="M 46.08 252 
L 46.08 34.56 
" style="fill:none;stroke:#f0f0f0;stroke-linecap:square;stroke-linejoin:miter;stroke-width:3;"/>
   </g>
   <g id="patch_4">
    <path d="M 46.08 252 
L 547.2 252 
" style="fill:none;stroke:#f0f0f0;stroke-linecap:square;stroke-linejoin:miter;stroke-width:3;"/>
   </g>
  </g>
 </g>
 <defs>
  <clipPath id="p218bde1f56">
   <rect height="217.44" width="501.12" x="46.08" y="34.56"/>
  </clipPath>
 </defs>
</svg>
