<?xml version="1.0" encoding="utf-8" standalone="no"?>
<!DOCTYPE svg PUBLIC "-//W3C//DTD SVG 1.1//EN"
  "http://www.w3.org/Graphics/SVG/1.1/DTD/svg11.dtd">
<!-- Created with matplotlib (https://matplotlib.org/) -->
<svg height="288pt" version="1.1" viewBox="0 0 432 288" width="432pt" xmlns="http://www.w3.org/2000/svg" xmlns:xlink="http://www.w3.org/1999/xlink">
 <defs>
  <style type="text/css">
*{stroke-linecap:butt;stroke-linejoin:round;}
  </style>
 </defs>
 <g id="figure_1">
  <g id="patch_1">
   <path d="M 0 288 
L 432 288 
L 432 0 
L 0 0 
z
" style="fill:#ffffff;"/>
  </g>
  <g id="axes_1">
   <g id="patch_2">
    <path d="M 54 252 
L 388.8 252 
L 388.8 34.56 
L 54 34.56 
z
" style="fill:#ffffff;"/>
   </g>
   <g id="matplotlib.axis_1">
    <g id="xtick_1">
     <g id="line2d_1">
      <path clip-path="url(#pba628a4a44)" d="M 69.218182 252 
L 69.218182 34.56 
" style="fill:none;stroke:#b0b0b0;stroke-linecap:square;stroke-width:0.8;"/>
     </g>
     <g id="line2d_2">
      <defs>
       <path d="M 0 0 
L 0 3.5 
" id="m9e0cba318b" style="stroke:#000000;stroke-width:0.8;"/>
      </defs>
      <g>
       <use style="stroke:#000000;stroke-width:0.8;" x="69.218182" xlink:href="#m9e0cba318b" y="252"/>
      </g>
     </g>
     <g id="text_1">
      <!-- 0 -->
      <defs>
       <path d="M 31.78125 66.40625 
Q 24.171875 66.40625 20.328125 58.90625 
Q 16.5 51.421875 16.5 36.375 
Q 16.5 21.390625 20.328125 13.890625 
Q 24.171875 6.390625 31.78125 6.390625 
Q 39.453125 6.390625 43.28125 13.890625 
Q 47.125 21.390625 47.125 36.375 
Q 47.125 51.421875 43.28125 58.90625 
Q 39.453125 66.40625 31.78125 66.40625 
z
M 31.78125 74.21875 
Q 44.046875 74.21875 50.515625 64.515625 
Q 56.984375 54.828125 56.984375 36.375 
Q 56.984375 17.96875 50.515625 8.265625 
Q 44.046875 -1.421875 31.78125 -1.421875 
Q 19.53125 -1.421875 13.0625 8.265625 
Q 6.59375 17.96875 6.59375 36.375 
Q 6.59375 54.828125 13.0625 64.515625 
Q 19.53125 74.21875 31.78125 74.21875 
z
" id="DejaVuSans-48"/>
      </defs>
      <g transform="translate(66.036932 266.598437)scale(0.1 -0.1)">
       <use xlink:href="#DejaVuSans-48"/>
      </g>
     </g>
    </g>
    <g id="xtick_2">
     <g id="line2d_3">
      <path clip-path="url(#pba628a4a44)" d="M 107.282669 252 
L 107.282669 34.56 
" style="fill:none;stroke:#b0b0b0;stroke-linecap:square;stroke-width:0.8;"/>
     </g>
     <g id="line2d_4">
      <g>
       <use style="stroke:#000000;stroke-width:0.8;" x="107.282669" xlink:href="#m9e0cba318b" y="252"/>
      </g>
     </g>
     <g id="text_2">
      <!-- 250 -->
      <defs>
       <path d="M 19.1875 8.296875 
L 53.609375 8.296875 
L 53.609375 0 
L 7.328125 0 
L 7.328125 8.296875 
Q 12.9375 14.109375 22.625 23.890625 
Q 32.328125 33.6875 34.8125 36.53125 
Q 39.546875 41.84375 41.421875 45.53125 
Q 43.3125 49.21875 43.3125 52.78125 
Q 43.3125 58.59375 39.234375 62.25 
Q 35.15625 65.921875 28.609375 65.921875 
Q 23.96875 65.921875 18.8125 64.3125 
Q 13.671875 62.703125 7.8125 59.421875 
L 7.8125 69.390625 
Q 13.765625 71.78125 18.9375 73 
Q 24.125 74.21875 28.421875 74.21875 
Q 39.75 74.21875 46.484375 68.546875 
Q 53.21875 62.890625 53.21875 53.421875 
Q 53.21875 48.921875 51.53125 44.890625 
Q 49.859375 40.875 45.40625 35.40625 
Q 44.1875 33.984375 37.640625 27.21875 
Q 31.109375 20.453125 19.1875 8.296875 
z
" id="DejaVuSans-50"/>
       <path d="M 10.796875 72.90625 
L 49.515625 72.90625 
L 49.515625 64.59375 
L 19.828125 64.59375 
L 19.828125 46.734375 
Q 21.96875 47.46875 24.109375 47.828125 
Q 26.265625 48.1875 28.421875 48.1875 
Q 40.625 48.1875 47.75 41.5 
Q 54.890625 34.8125 54.890625 23.390625 
Q 54.890625 11.625 47.5625 5.09375 
Q 40.234375 -1.421875 26.90625 -1.421875 
Q 22.3125 -1.421875 17.546875 -0.640625 
Q 12.796875 0.140625 7.71875 1.703125 
L 7.71875 11.625 
Q 12.109375 9.234375 16.796875 8.0625 
Q 21.484375 6.890625 26.703125 6.890625 
Q 35.15625 6.890625 40.078125 11.328125 
Q 45.015625 15.765625 45.015625 23.390625 
Q 45.015625 31 40.078125 35.4375 
Q 35.15625 39.890625 26.703125 39.890625 
Q 22.75 39.890625 18.8125 39.015625 
Q 14.890625 38.140625 10.796875 36.28125 
z
" id="DejaVuSans-53"/>
      </defs>
      <g transform="translate(97.738919 266.598437)scale(0.1 -0.1)">
       <use xlink:href="#DejaVuSans-50"/>
       <use x="63.623047" xlink:href="#DejaVuSans-53"/>
       <use x="127.246094" xlink:href="#DejaVuSans-48"/>
      </g>
     </g>
    </g>
    <g id="xtick_3">
     <g id="line2d_5">
      <path clip-path="url(#pba628a4a44)" d="M 145.347155 252 
L 145.347155 34.56 
" style="fill:none;stroke:#b0b0b0;stroke-linecap:square;stroke-width:0.8;"/>
     </g>
     <g id="line2d_6">
      <g>
       <use style="stroke:#000000;stroke-width:0.8;" x="145.347155" xlink:href="#m9e0cba318b" y="252"/>
      </g>
     </g>
     <g id="text_3">
      <!-- 500 -->
      <g transform="translate(135.803405 266.598437)scale(0.1 -0.1)">
       <use xlink:href="#DejaVuSans-53"/>
       <use x="63.623047" xlink:href="#DejaVuSans-48"/>
       <use x="127.246094" xlink:href="#DejaVuSans-48"/>
      </g>
     </g>
    </g>
    <g id="xtick_4">
     <g id="line2d_7">
      <path clip-path="url(#pba628a4a44)" d="M 183.411642 252 
L 183.411642 34.56 
" style="fill:none;stroke:#b0b0b0;stroke-linecap:square;stroke-width:0.8;"/>
     </g>
     <g id="line2d_8">
      <g>
       <use style="stroke:#000000;stroke-width:0.8;" x="183.411642" xlink:href="#m9e0cba318b" y="252"/>
      </g>
     </g>
     <g id="text_4">
      <!-- 750 -->
      <defs>
       <path d="M 8.203125 72.90625 
L 55.078125 72.90625 
L 55.078125 68.703125 
L 28.609375 0 
L 18.3125 0 
L 43.21875 64.59375 
L 8.203125 64.59375 
z
" id="DejaVuSans-55"/>
      </defs>
      <g transform="translate(173.867892 266.598437)scale(0.1 -0.1)">
       <use xlink:href="#DejaVuSans-55"/>
       <use x="63.623047" xlink:href="#DejaVuSans-53"/>
       <use x="127.246094" xlink:href="#DejaVuSans-48"/>
      </g>
     </g>
    </g>
    <g id="xtick_5">
     <g id="line2d_9">
      <path clip-path="url(#pba628a4a44)" d="M 221.476129 252 
L 221.476129 34.56 
" style="fill:none;stroke:#b0b0b0;stroke-linecap:square;stroke-width:0.8;"/>
     </g>
     <g id="line2d_10">
      <g>
       <use style="stroke:#000000;stroke-width:0.8;" x="221.476129" xlink:href="#m9e0cba318b" y="252"/>
      </g>
     </g>
     <g id="text_5">
      <!-- 1000 -->
      <defs>
       <path d="M 12.40625 8.296875 
L 28.515625 8.296875 
L 28.515625 63.921875 
L 10.984375 60.40625 
L 10.984375 69.390625 
L 28.421875 72.90625 
L 38.28125 72.90625 
L 38.28125 8.296875 
L 54.390625 8.296875 
L 54.390625 0 
L 12.40625 0 
z
" id="DejaVuSans-49"/>
      </defs>
      <g transform="translate(208.751129 266.598437)scale(0.1 -0.1)">
       <use xlink:href="#DejaVuSans-49"/>
       <use x="63.623047" xlink:href="#DejaVuSans-48"/>
       <use x="127.246094" xlink:href="#DejaVuSans-48"/>
       <use x="190.869141" xlink:href="#DejaVuSans-48"/>
      </g>
     </g>
    </g>
    <g id="xtick_6">
     <g id="line2d_11">
      <path clip-path="url(#pba628a4a44)" d="M 259.540616 252 
L 259.540616 34.56 
" style="fill:none;stroke:#b0b0b0;stroke-linecap:square;stroke-width:0.8;"/>
     </g>
     <g id="line2d_12">
      <g>
       <use style="stroke:#000000;stroke-width:0.8;" x="259.540616" xlink:href="#m9e0cba318b" y="252"/>
      </g>
     </g>
     <g id="text_6">
      <!-- 1250 -->
      <g transform="translate(246.815616 266.598437)scale(0.1 -0.1)">
       <use xlink:href="#DejaVuSans-49"/>
       <use x="63.623047" xlink:href="#DejaVuSans-50"/>
       <use x="127.246094" xlink:href="#DejaVuSans-53"/>
       <use x="190.869141" xlink:href="#DejaVuSans-48"/>
      </g>
     </g>
    </g>
    <g id="xtick_7">
     <g id="line2d_13">
      <path clip-path="url(#pba628a4a44)" d="M 297.605103 252 
L 297.605103 34.56 
" style="fill:none;stroke:#b0b0b0;stroke-linecap:square;stroke-width:0.8;"/>
     </g>
     <g id="line2d_14">
      <g>
       <use style="stroke:#000000;stroke-width:0.8;" x="297.605103" xlink:href="#m9e0cba318b" y="252"/>
      </g>
     </g>
     <g id="text_7">
      <!-- 1500 -->
      <g transform="translate(284.880103 266.598437)scale(0.1 -0.1)">
       <use xlink:href="#DejaVuSans-49"/>
       <use x="63.623047" xlink:href="#DejaVuSans-53"/>
       <use x="127.246094" xlink:href="#DejaVuSans-48"/>
       <use x="190.869141" xlink:href="#DejaVuSans-48"/>
      </g>
     </g>
    </g>
    <g id="xtick_8">
     <g id="line2d_15">
      <path clip-path="url(#pba628a4a44)" d="M 335.669589 252 
L 335.669589 34.56 
" style="fill:none;stroke:#b0b0b0;stroke-linecap:square;stroke-width:0.8;"/>
     </g>
     <g id="line2d_16">
      <g>
       <use style="stroke:#000000;stroke-width:0.8;" x="335.669589" xlink:href="#m9e0cba318b" y="252"/>
      </g>
     </g>
     <g id="text_8">
      <!-- 1750 -->
      <g transform="translate(322.944589 266.598437)scale(0.1 -0.1)">
       <use xlink:href="#DejaVuSans-49"/>
       <use x="63.623047" xlink:href="#DejaVuSans-55"/>
       <use x="127.246094" xlink:href="#DejaVuSans-53"/>
       <use x="190.869141" xlink:href="#DejaVuSans-48"/>
      </g>
     </g>
    </g>
    <g id="xtick_9">
     <g id="line2d_17">
      <path clip-path="url(#pba628a4a44)" d="M 373.734076 252 
L 373.734076 34.56 
" style="fill:none;stroke:#b0b0b0;stroke-linecap:square;stroke-width:0.8;"/>
     </g>
     <g id="line2d_18">
      <g>
       <use style="stroke:#000000;stroke-width:0.8;" x="373.734076" xlink:href="#m9e0cba318b" y="252"/>
      </g>
     </g>
     <g id="text_9">
      <!-- 2000 -->
      <g transform="translate(361.009076 266.598437)scale(0.1 -0.1)">
       <use xlink:href="#DejaVuSans-50"/>
       <use x="63.623047" xlink:href="#DejaVuSans-48"/>
       <use x="127.246094" xlink:href="#DejaVuSans-48"/>
       <use x="190.869141" xlink:href="#DejaVuSans-48"/>
      </g>
     </g>
    </g>
    <g id="text_10">
     <!-- Iterations -->
     <defs>
      <path d="M 9.8125 72.90625 
L 19.671875 72.90625 
L 19.671875 0 
L 9.8125 0 
z
" id="DejaVuSans-73"/>
      <path d="M 18.3125 70.21875 
L 18.3125 54.6875 
L 36.8125 54.6875 
L 36.8125 47.703125 
L 18.3125 47.703125 
L 18.3125 18.015625 
Q 18.3125 11.328125 20.140625 9.421875 
Q 21.96875 7.515625 27.59375 7.515625 
L 36.8125 7.515625 
L 36.8125 0 
L 27.59375 0 
Q 17.1875 0 13.234375 3.875 
Q 9.28125 7.765625 9.28125 18.015625 
L 9.28125 47.703125 
L 2.6875 47.703125 
L 2.6875 54.6875 
L 9.28125 54.6875 
L 9.28125 70.21875 
z
" id="DejaVuSans-116"/>
      <path d="M 56.203125 29.59375 
L 56.203125 25.203125 
L 14.890625 25.203125 
Q 15.484375 15.921875 20.484375 11.0625 
Q 25.484375 6.203125 34.421875 6.203125 
Q 39.59375 6.203125 44.453125 7.46875 
Q 49.3125 8.734375 54.109375 11.28125 
L 54.109375 2.78125 
Q 49.265625 0.734375 44.1875 -0.34375 
Q 39.109375 -1.421875 33.890625 -1.421875 
Q 20.796875 -1.421875 13.15625 6.1875 
Q 5.515625 13.8125 5.515625 26.8125 
Q 5.515625 40.234375 12.765625 48.109375 
Q 20.015625 56 32.328125 56 
Q 43.359375 56 49.78125 48.890625 
Q 56.203125 41.796875 56.203125 29.59375 
z
M 47.21875 32.234375 
Q 47.125 39.59375 43.09375 43.984375 
Q 39.0625 48.390625 32.421875 48.390625 
Q 24.90625 48.390625 20.390625 44.140625 
Q 15.875 39.890625 15.1875 32.171875 
z
" id="DejaVuSans-101"/>
      <path d="M 41.109375 46.296875 
Q 39.59375 47.171875 37.8125 47.578125 
Q 36.03125 48 33.890625 48 
Q 26.265625 48 22.1875 43.046875 
Q 18.109375 38.09375 18.109375 28.8125 
L 18.109375 0 
L 9.078125 0 
L 9.078125 54.6875 
L 18.109375 54.6875 
L 18.109375 46.1875 
Q 20.953125 51.171875 25.484375 53.578125 
Q 30.03125 56 36.53125 56 
Q 37.453125 56 38.578125 55.875 
Q 39.703125 55.765625 41.0625 55.515625 
z
" id="DejaVuSans-114"/>
      <path d="M 34.28125 27.484375 
Q 23.390625 27.484375 19.1875 25 
Q 14.984375 22.515625 14.984375 16.5 
Q 14.984375 11.71875 18.140625 8.90625 
Q 21.296875 6.109375 26.703125 6.109375 
Q 34.1875 6.109375 38.703125 11.40625 
Q 43.21875 16.703125 43.21875 25.484375 
L 43.21875 27.484375 
z
M 52.203125 31.203125 
L 52.203125 0 
L 43.21875 0 
L 43.21875 8.296875 
Q 40.140625 3.328125 35.546875 0.953125 
Q 30.953125 -1.421875 24.3125 -1.421875 
Q 15.921875 -1.421875 10.953125 3.296875 
Q 6 8.015625 6 15.921875 
Q 6 25.140625 12.171875 29.828125 
Q 18.359375 34.515625 30.609375 34.515625 
L 43.21875 34.515625 
L 43.21875 35.40625 
Q 43.21875 41.609375 39.140625 45 
Q 35.0625 48.390625 27.6875 48.390625 
Q 23 48.390625 18.546875 47.265625 
Q 14.109375 46.140625 10.015625 43.890625 
L 10.015625 52.203125 
Q 14.9375 54.109375 19.578125 55.046875 
Q 24.21875 56 28.609375 56 
Q 40.484375 56 46.34375 49.84375 
Q 52.203125 43.703125 52.203125 31.203125 
z
" id="DejaVuSans-97"/>
      <path d="M 9.421875 54.6875 
L 18.40625 54.6875 
L 18.40625 0 
L 9.421875 0 
z
M 9.421875 75.984375 
L 18.40625 75.984375 
L 18.40625 64.59375 
L 9.421875 64.59375 
z
" id="DejaVuSans-105"/>
      <path d="M 30.609375 48.390625 
Q 23.390625 48.390625 19.1875 42.75 
Q 14.984375 37.109375 14.984375 27.296875 
Q 14.984375 17.484375 19.15625 11.84375 
Q 23.34375 6.203125 30.609375 6.203125 
Q 37.796875 6.203125 41.984375 11.859375 
Q 46.1875 17.53125 46.1875 27.296875 
Q 46.1875 37.015625 41.984375 42.703125 
Q 37.796875 48.390625 30.609375 48.390625 
z
M 30.609375 56 
Q 42.328125 56 49.015625 48.375 
Q 55.71875 40.765625 55.71875 27.296875 
Q 55.71875 13.875 49.015625 6.21875 
Q 42.328125 -1.421875 30.609375 -1.421875 
Q 18.84375 -1.421875 12.171875 6.21875 
Q 5.515625 13.875 5.515625 27.296875 
Q 5.515625 40.765625 12.171875 48.375 
Q 18.84375 56 30.609375 56 
z
" id="DejaVuSans-111"/>
      <path d="M 54.890625 33.015625 
L 54.890625 0 
L 45.90625 0 
L 45.90625 32.71875 
Q 45.90625 40.484375 42.875 44.328125 
Q 39.84375 48.1875 33.796875 48.1875 
Q 26.515625 48.1875 22.3125 43.546875 
Q 18.109375 38.921875 18.109375 30.90625 
L 18.109375 0 
L 9.078125 0 
L 9.078125 54.6875 
L 18.109375 54.6875 
L 18.109375 46.1875 
Q 21.34375 51.125 25.703125 53.5625 
Q 30.078125 56 35.796875 56 
Q 45.21875 56 50.046875 50.171875 
Q 54.890625 44.34375 54.890625 33.015625 
z
" id="DejaVuSans-110"/>
      <path d="M 44.28125 53.078125 
L 44.28125 44.578125 
Q 40.484375 46.53125 36.375 47.5 
Q 32.28125 48.484375 27.875 48.484375 
Q 21.1875 48.484375 17.84375 46.4375 
Q 14.5 44.390625 14.5 40.28125 
Q 14.5 37.15625 16.890625 35.375 
Q 19.28125 33.59375 26.515625 31.984375 
L 29.59375 31.296875 
Q 39.15625 29.25 43.1875 25.515625 
Q 47.21875 21.78125 47.21875 15.09375 
Q 47.21875 7.46875 41.1875 3.015625 
Q 35.15625 -1.421875 24.609375 -1.421875 
Q 20.21875 -1.421875 15.453125 -0.5625 
Q 10.6875 0.296875 5.421875 2 
L 5.421875 11.28125 
Q 10.40625 8.6875 15.234375 7.390625 
Q 20.0625 6.109375 24.8125 6.109375 
Q 31.15625 6.109375 34.5625 8.28125 
Q 37.984375 10.453125 37.984375 14.40625 
Q 37.984375 18.0625 35.515625 20.015625 
Q 33.0625 21.96875 24.703125 23.78125 
L 21.578125 24.515625 
Q 13.234375 26.265625 9.515625 29.90625 
Q 5.8125 33.546875 5.8125 39.890625 
Q 5.8125 47.609375 11.28125 51.796875 
Q 16.75 56 26.8125 56 
Q 31.78125 56 36.171875 55.265625 
Q 40.578125 54.546875 44.28125 53.078125 
z
" id="DejaVuSans-115"/>
     </defs>
     <g transform="translate(197.586719 280.276563)scale(0.1 -0.1)">
      <use xlink:href="#DejaVuSans-73"/>
      <use x="29.492188" xlink:href="#DejaVuSans-116"/>
      <use x="68.701172" xlink:href="#DejaVuSans-101"/>
      <use x="130.224609" xlink:href="#DejaVuSans-114"/>
      <use x="171.337891" xlink:href="#DejaVuSans-97"/>
      <use x="232.617188" xlink:href="#DejaVuSans-116"/>
      <use x="271.826172" xlink:href="#DejaVuSans-105"/>
      <use x="299.609375" xlink:href="#DejaVuSans-111"/>
      <use x="360.791016" xlink:href="#DejaVuSans-110"/>
      <use x="424.169922" xlink:href="#DejaVuSans-115"/>
     </g>
    </g>
   </g>
   <g id="matplotlib.axis_2">
    <g id="ytick_1">
     <g id="line2d_19">
      <path clip-path="url(#pba628a4a44)" d="M 54 226.704471 
L 388.8 226.704471 
" style="fill:none;stroke:#b0b0b0;stroke-linecap:square;stroke-width:0.8;"/>
     </g>
     <g id="line2d_20">
      <defs>
       <path d="M 0 0 
L -3.5 0 
" id="m20fcc589e5" style="stroke:#000000;stroke-width:0.8;"/>
      </defs>
      <g>
       <use style="stroke:#000000;stroke-width:0.8;" x="54" xlink:href="#m20fcc589e5" y="226.704471"/>
      </g>
     </g>
     <g id="text_11">
      <!-- 20 -->
      <g transform="translate(34.275 230.503689)scale(0.1 -0.1)">
       <use xlink:href="#DejaVuSans-50"/>
       <use x="63.623047" xlink:href="#DejaVuSans-48"/>
      </g>
     </g>
    </g>
    <g id="ytick_2">
     <g id="line2d_21">
      <path clip-path="url(#pba628a4a44)" d="M 54 180.549694 
L 388.8 180.549694 
" style="fill:none;stroke:#b0b0b0;stroke-linecap:square;stroke-width:0.8;"/>
     </g>
     <g id="line2d_22">
      <g>
       <use style="stroke:#000000;stroke-width:0.8;" x="54" xlink:href="#m20fcc589e5" y="180.549694"/>
      </g>
     </g>
     <g id="text_12">
      <!-- 40 -->
      <defs>
       <path d="M 37.796875 64.3125 
L 12.890625 25.390625 
L 37.796875 25.390625 
z
M 35.203125 72.90625 
L 47.609375 72.90625 
L 47.609375 25.390625 
L 58.015625 25.390625 
L 58.015625 17.1875 
L 47.609375 17.1875 
L 47.609375 0 
L 37.796875 0 
L 37.796875 17.1875 
L 4.890625 17.1875 
L 4.890625 26.703125 
z
" id="DejaVuSans-52"/>
      </defs>
      <g transform="translate(34.275 184.348912)scale(0.1 -0.1)">
       <use xlink:href="#DejaVuSans-52"/>
       <use x="63.623047" xlink:href="#DejaVuSans-48"/>
      </g>
     </g>
    </g>
    <g id="ytick_3">
     <g id="line2d_23">
      <path clip-path="url(#pba628a4a44)" d="M 54 134.394917 
L 388.8 134.394917 
" style="fill:none;stroke:#b0b0b0;stroke-linecap:square;stroke-width:0.8;"/>
     </g>
     <g id="line2d_24">
      <g>
       <use style="stroke:#000000;stroke-width:0.8;" x="54" xlink:href="#m20fcc589e5" y="134.394917"/>
      </g>
     </g>
     <g id="text_13">
      <!-- 60 -->
      <defs>
       <path d="M 33.015625 40.375 
Q 26.375 40.375 22.484375 35.828125 
Q 18.609375 31.296875 18.609375 23.390625 
Q 18.609375 15.53125 22.484375 10.953125 
Q 26.375 6.390625 33.015625 6.390625 
Q 39.65625 6.390625 43.53125 10.953125 
Q 47.40625 15.53125 47.40625 23.390625 
Q 47.40625 31.296875 43.53125 35.828125 
Q 39.65625 40.375 33.015625 40.375 
z
M 52.59375 71.296875 
L 52.59375 62.3125 
Q 48.875 64.0625 45.09375 64.984375 
Q 41.3125 65.921875 37.59375 65.921875 
Q 27.828125 65.921875 22.671875 59.328125 
Q 17.53125 52.734375 16.796875 39.40625 
Q 19.671875 43.65625 24.015625 45.921875 
Q 28.375 48.1875 33.59375 48.1875 
Q 44.578125 48.1875 50.953125 41.515625 
Q 57.328125 34.859375 57.328125 23.390625 
Q 57.328125 12.15625 50.6875 5.359375 
Q 44.046875 -1.421875 33.015625 -1.421875 
Q 20.359375 -1.421875 13.671875 8.265625 
Q 6.984375 17.96875 6.984375 36.375 
Q 6.984375 53.65625 15.1875 63.9375 
Q 23.390625 74.21875 37.203125 74.21875 
Q 40.921875 74.21875 44.703125 73.484375 
Q 48.484375 72.75 52.59375 71.296875 
z
" id="DejaVuSans-54"/>
      </defs>
      <g transform="translate(34.275 138.194136)scale(0.1 -0.1)">
       <use xlink:href="#DejaVuSans-54"/>
       <use x="63.623047" xlink:href="#DejaVuSans-48"/>
      </g>
     </g>
    </g>
    <g id="ytick_4">
     <g id="line2d_25">
      <path clip-path="url(#pba628a4a44)" d="M 54 88.24014 
L 388.8 88.24014 
" style="fill:none;stroke:#b0b0b0;stroke-linecap:square;stroke-width:0.8;"/>
     </g>
     <g id="line2d_26">
      <g>
       <use style="stroke:#000000;stroke-width:0.8;" x="54" xlink:href="#m20fcc589e5" y="88.24014"/>
      </g>
     </g>
     <g id="text_14">
      <!-- 80 -->
      <defs>
       <path d="M 31.78125 34.625 
Q 24.75 34.625 20.71875 30.859375 
Q 16.703125 27.09375 16.703125 20.515625 
Q 16.703125 13.921875 20.71875 10.15625 
Q 24.75 6.390625 31.78125 6.390625 
Q 38.8125 6.390625 42.859375 10.171875 
Q 46.921875 13.96875 46.921875 20.515625 
Q 46.921875 27.09375 42.890625 30.859375 
Q 38.875 34.625 31.78125 34.625 
z
M 21.921875 38.8125 
Q 15.578125 40.375 12.03125 44.71875 
Q 8.5 49.078125 8.5 55.328125 
Q 8.5 64.0625 14.71875 69.140625 
Q 20.953125 74.21875 31.78125 74.21875 
Q 42.671875 74.21875 48.875 69.140625 
Q 55.078125 64.0625 55.078125 55.328125 
Q 55.078125 49.078125 51.53125 44.71875 
Q 48 40.375 41.703125 38.8125 
Q 48.828125 37.15625 52.796875 32.3125 
Q 56.78125 27.484375 56.78125 20.515625 
Q 56.78125 9.90625 50.3125 4.234375 
Q 43.84375 -1.421875 31.78125 -1.421875 
Q 19.734375 -1.421875 13.25 4.234375 
Q 6.78125 9.90625 6.78125 20.515625 
Q 6.78125 27.484375 10.78125 32.3125 
Q 14.796875 37.15625 21.921875 38.8125 
z
M 18.3125 54.390625 
Q 18.3125 48.734375 21.84375 45.5625 
Q 25.390625 42.390625 31.78125 42.390625 
Q 38.140625 42.390625 41.71875 45.5625 
Q 45.3125 48.734375 45.3125 54.390625 
Q 45.3125 60.0625 41.71875 63.234375 
Q 38.140625 66.40625 31.78125 66.40625 
Q 25.390625 66.40625 21.84375 63.234375 
Q 18.3125 60.0625 18.3125 54.390625 
z
" id="DejaVuSans-56"/>
      </defs>
      <g transform="translate(34.275 92.039359)scale(0.1 -0.1)">
       <use xlink:href="#DejaVuSans-56"/>
       <use x="63.623047" xlink:href="#DejaVuSans-48"/>
      </g>
     </g>
    </g>
    <g id="ytick_5">
     <g id="line2d_27">
      <path clip-path="url(#pba628a4a44)" d="M 54 42.085363 
L 388.8 42.085363 
" style="fill:none;stroke:#b0b0b0;stroke-linecap:square;stroke-width:0.8;"/>
     </g>
     <g id="line2d_28">
      <g>
       <use style="stroke:#000000;stroke-width:0.8;" x="54" xlink:href="#m20fcc589e5" y="42.085363"/>
      </g>
     </g>
     <g id="text_15">
      <!-- 100 -->
      <g transform="translate(27.9125 45.884582)scale(0.1 -0.1)">
       <use xlink:href="#DejaVuSans-49"/>
       <use x="63.623047" xlink:href="#DejaVuSans-48"/>
       <use x="127.246094" xlink:href="#DejaVuSans-48"/>
      </g>
     </g>
    </g>
    <g id="text_16">
     <!-- Correct classifications (%) -->
     <defs>
      <path d="M 64.40625 67.28125 
L 64.40625 56.890625 
Q 59.421875 61.53125 53.78125 63.8125 
Q 48.140625 66.109375 41.796875 66.109375 
Q 29.296875 66.109375 22.65625 58.46875 
Q 16.015625 50.828125 16.015625 36.375 
Q 16.015625 21.96875 22.65625 14.328125 
Q 29.296875 6.6875 41.796875 6.6875 
Q 48.140625 6.6875 53.78125 8.984375 
Q 59.421875 11.28125 64.40625 15.921875 
L 64.40625 5.609375 
Q 59.234375 2.09375 53.4375 0.328125 
Q 47.65625 -1.421875 41.21875 -1.421875 
Q 24.65625 -1.421875 15.125 8.703125 
Q 5.609375 18.84375 5.609375 36.375 
Q 5.609375 53.953125 15.125 64.078125 
Q 24.65625 74.21875 41.21875 74.21875 
Q 47.75 74.21875 53.53125 72.484375 
Q 59.328125 70.75 64.40625 67.28125 
z
" id="DejaVuSans-67"/>
      <path d="M 48.78125 52.59375 
L 48.78125 44.1875 
Q 44.96875 46.296875 41.140625 47.34375 
Q 37.3125 48.390625 33.40625 48.390625 
Q 24.65625 48.390625 19.8125 42.84375 
Q 14.984375 37.3125 14.984375 27.296875 
Q 14.984375 17.28125 19.8125 11.734375 
Q 24.65625 6.203125 33.40625 6.203125 
Q 37.3125 6.203125 41.140625 7.25 
Q 44.96875 8.296875 48.78125 10.40625 
L 48.78125 2.09375 
Q 45.015625 0.34375 40.984375 -0.53125 
Q 36.96875 -1.421875 32.421875 -1.421875 
Q 20.0625 -1.421875 12.78125 6.34375 
Q 5.515625 14.109375 5.515625 27.296875 
Q 5.515625 40.671875 12.859375 48.328125 
Q 20.21875 56 33.015625 56 
Q 37.15625 56 41.109375 55.140625 
Q 45.0625 54.296875 48.78125 52.59375 
z
" id="DejaVuSans-99"/>
      <path id="DejaVuSans-32"/>
      <path d="M 9.421875 75.984375 
L 18.40625 75.984375 
L 18.40625 0 
L 9.421875 0 
z
" id="DejaVuSans-108"/>
      <path d="M 37.109375 75.984375 
L 37.109375 68.5 
L 28.515625 68.5 
Q 23.6875 68.5 21.796875 66.546875 
Q 19.921875 64.59375 19.921875 59.515625 
L 19.921875 54.6875 
L 34.71875 54.6875 
L 34.71875 47.703125 
L 19.921875 47.703125 
L 19.921875 0 
L 10.890625 0 
L 10.890625 47.703125 
L 2.296875 47.703125 
L 2.296875 54.6875 
L 10.890625 54.6875 
L 10.890625 58.5 
Q 10.890625 67.625 15.140625 71.796875 
Q 19.390625 75.984375 28.609375 75.984375 
z
" id="DejaVuSans-102"/>
      <path d="M 31 75.875 
Q 24.46875 64.65625 21.28125 53.65625 
Q 18.109375 42.671875 18.109375 31.390625 
Q 18.109375 20.125 21.3125 9.0625 
Q 24.515625 -2 31 -13.1875 
L 23.1875 -13.1875 
Q 15.875 -1.703125 12.234375 9.375 
Q 8.59375 20.453125 8.59375 31.390625 
Q 8.59375 42.28125 12.203125 53.3125 
Q 15.828125 64.359375 23.1875 75.875 
z
" id="DejaVuSans-40"/>
      <path d="M 72.703125 32.078125 
Q 68.453125 32.078125 66.03125 28.46875 
Q 63.625 24.859375 63.625 18.40625 
Q 63.625 12.0625 66.03125 8.421875 
Q 68.453125 4.78125 72.703125 4.78125 
Q 76.859375 4.78125 79.265625 8.421875 
Q 81.6875 12.0625 81.6875 18.40625 
Q 81.6875 24.8125 79.265625 28.4375 
Q 76.859375 32.078125 72.703125 32.078125 
z
M 72.703125 38.28125 
Q 80.421875 38.28125 84.953125 32.90625 
Q 89.5 27.546875 89.5 18.40625 
Q 89.5 9.28125 84.9375 3.921875 
Q 80.375 -1.421875 72.703125 -1.421875 
Q 64.890625 -1.421875 60.34375 3.921875 
Q 55.8125 9.28125 55.8125 18.40625 
Q 55.8125 27.59375 60.375 32.9375 
Q 64.9375 38.28125 72.703125 38.28125 
z
M 22.3125 68.015625 
Q 18.109375 68.015625 15.6875 64.375 
Q 13.28125 60.75 13.28125 54.390625 
Q 13.28125 47.953125 15.671875 44.328125 
Q 18.0625 40.71875 22.3125 40.71875 
Q 26.5625 40.71875 28.96875 44.328125 
Q 31.390625 47.953125 31.390625 54.390625 
Q 31.390625 60.6875 28.953125 64.34375 
Q 26.515625 68.015625 22.3125 68.015625 
z
M 66.40625 74.21875 
L 74.21875 74.21875 
L 28.609375 -1.421875 
L 20.796875 -1.421875 
z
M 22.3125 74.21875 
Q 30.03125 74.21875 34.609375 68.875 
Q 39.203125 63.53125 39.203125 54.390625 
Q 39.203125 45.171875 34.640625 39.84375 
Q 30.078125 34.515625 22.3125 34.515625 
Q 14.546875 34.515625 10.03125 39.859375 
Q 5.515625 45.21875 5.515625 54.390625 
Q 5.515625 63.484375 10.046875 68.84375 
Q 14.59375 74.21875 22.3125 74.21875 
z
" id="DejaVuSans-37"/>
      <path d="M 8.015625 75.875 
L 15.828125 75.875 
Q 23.140625 64.359375 26.78125 53.3125 
Q 30.421875 42.28125 30.421875 31.390625 
Q 30.421875 20.453125 26.78125 9.375 
Q 23.140625 -1.703125 15.828125 -13.1875 
L 8.015625 -13.1875 
Q 14.5 -2 17.703125 9.0625 
Q 20.90625 20.125 20.90625 31.390625 
Q 20.90625 42.671875 17.703125 53.65625 
Q 14.5 64.65625 8.015625 75.875 
z
" id="DejaVuSans-41"/>
     </defs>
     <g transform="translate(21.832812 208.501094)rotate(-90)scale(0.1 -0.1)">
      <use xlink:href="#DejaVuSans-67"/>
      <use x="69.824219" xlink:href="#DejaVuSans-111"/>
      <use x="131.005859" xlink:href="#DejaVuSans-114"/>
      <use x="172.103516" xlink:href="#DejaVuSans-114"/>
      <use x="213.185547" xlink:href="#DejaVuSans-101"/>
      <use x="274.708984" xlink:href="#DejaVuSans-99"/>
      <use x="329.689453" xlink:href="#DejaVuSans-116"/>
      <use x="368.898438" xlink:href="#DejaVuSans-32"/>
      <use x="400.685547" xlink:href="#DejaVuSans-99"/>
      <use x="455.666016" xlink:href="#DejaVuSans-108"/>
      <use x="483.449219" xlink:href="#DejaVuSans-97"/>
      <use x="544.728516" xlink:href="#DejaVuSans-115"/>
      <use x="596.828125" xlink:href="#DejaVuSans-115"/>
      <use x="648.927734" xlink:href="#DejaVuSans-105"/>
      <use x="676.710938" xlink:href="#DejaVuSans-102"/>
      <use x="711.916016" xlink:href="#DejaVuSans-105"/>
      <use x="739.699219" xlink:href="#DejaVuSans-99"/>
      <use x="794.679688" xlink:href="#DejaVuSans-97"/>
      <use x="855.958984" xlink:href="#DejaVuSans-116"/>
      <use x="895.167969" xlink:href="#DejaVuSans-105"/>
      <use x="922.951172" xlink:href="#DejaVuSans-111"/>
      <use x="984.132812" xlink:href="#DejaVuSans-110"/>
      <use x="1047.511719" xlink:href="#DejaVuSans-115"/>
      <use x="1099.611328" xlink:href="#DejaVuSans-32"/>
      <use x="1131.398438" xlink:href="#DejaVuSans-40"/>
      <use x="1170.412109" xlink:href="#DejaVuSans-37"/>
      <use x="1265.431641" xlink:href="#DejaVuSans-41"/>
     </g>
    </g>
   </g>
   <g id="line2d_29">
    <path clip-path="url(#pba628a4a44)" d="M 69.218182 210.043066 
L 69.522698 210.043066 
L 69.827214 208.699405 
L 69.979472 208.699405 
L 70.13173 205.340251 
L 70.283987 208.027574 
L 70.436245 207.019828 
L 70.588503 207.019828 
L 70.740761 201.981097 
L 70.893019 201.981097 
L 71.045277 204.66842 
L 71.197535 195.934619 
L 71.349793 196.942366 
L 71.654309 196.942366 
L 71.958825 187.200819 
L 72.111083 187.200819 
L 72.263341 184.513495 
L 72.415599 184.513495 
L 72.567857 182.833918 
L 72.720115 177.795187 
L 73.02463 177.795187 
L 73.176888 180.482511 
L 73.329146 180.482511 
L 73.481404 175.44378 
L 73.633662 175.44378 
L 73.78592 175.107864 
L 73.938178 172.756456 
L 74.242694 172.756456 
L 74.394952 175.779695 
L 74.54721 175.779695 
L 74.699468 168.053641 
L 74.851726 167.38181 
L 75.3085 158.312094 
L 75.613016 158.312094 
L 75.917531 160.999417 
L 76.069789 160.999417 
L 76.222047 158.648009 
L 76.526563 158.648009 
L 76.678821 153.945193 
L 76.831079 153.945193 
L 76.983337 154.281109 
L 77.135595 154.95294 
L 77.287853 152.265616 
L 77.440111 147.226885 
L 77.592369 147.226885 
L 77.744627 146.89097 
L 77.896885 139.836746 
L 78.658175 139.836746 
L 78.810432 137.149423 
L 79.114948 137.149423 
L 79.267206 132.446607 
L 79.571722 132.446607 
L 79.72398 128.751538 
L 80.789786 128.751538 
L 80.942044 126.736046 
L 81.094302 126.736046 
L 81.24656 126.40013 
L 82.769139 126.40013 
L 82.921397 121.025484 
L 83.073655 121.361399 
L 83.987203 121.361399 
L 84.291719 114.307176 
L 85.053008 114.307176 
L 85.357524 108.596614 
L 86.727846 108.596614 
L 86.880104 105.90929 
L 87.032362 105.90929 
L 87.18462 104.229713 
L 87.945909 104.229713 
L 88.098167 102.550136 
L 88.707199 102.550136 
L 88.859457 106.245206 
L 89.011715 106.917037 
L 89.163973 106.917037 
L 89.316231 107.252952 
L 90.83881 107.252952 
L 91.143326 106.581121 
L 91.6001 106.581121 
L 91.752358 104.565629 
L 92.056874 104.565629 
L 92.209132 100.870559 
L 92.36139 100.870559 
L 92.513648 95.495913 
L 94.036227 95.495913 
L 94.188485 95.831828 
L 94.645259 95.831828 
L 94.797517 89.449435 
L 95.406549 89.449435 
L 95.558807 89.11352 
L 96.472354 89.11352 
L 96.624612 88.777605 
L 96.77687 88.777605 
L 96.929128 89.449435 
L 97.994934 89.449435 
L 98.29945 81.387466 
L 98.908482 81.387466 
L 99.060739 82.059296 
L 99.212997 82.059296 
L 99.365255 81.05155 
L 100.126545 81.05155 
L 100.431061 77.692396 
L 102.867188 77.692396 
L 103.019446 82.059296 
L 103.171704 82.059296 
L 103.323962 82.731127 
L 103.47622 82.731127 
L 103.628478 94.824082 
L 103.780736 73.325496 
L 105.455573 73.325496 
L 105.607831 70.974088 
L 107.282669 70.974088 
L 107.434927 74.669158 
L 108.500732 74.669158 
L 108.65299 70.302257 
L 108.805248 70.302257 
L 108.957506 69.294511 
L 109.262022 69.294511 
L 109.41428 71.310003 
L 109.718796 71.310003 
L 109.871054 72.31775 
L 110.023312 67.950849 
L 115.047824 67.950849 
L 115.200082 68.62268 
L 116.265887 68.62268 
L 116.418145 70.638173 
L 118.245241 70.638173 
L 118.397499 75.676904 
L 118.549757 84.74662 
L 119.158788 84.74662 
L 119.311046 68.958596 
L 119.76782 68.958596 
L 119.920078 65.599442 
L 120.376852 65.599442 
L 120.52911 67.279019 
L 122.356205 67.279019 
L 122.508463 71.645919 
L 123.422011 71.645919 
L 123.574269 65.263526 
L 124.031043 65.263526 
L 124.183301 64.927611 
L 125.249106 64.927611 
L 125.401364 62.912118 
L 126.314912 62.912118 
L 126.46717 67.950849 
L 127.532976 67.950849 
L 127.685234 67.614934 
L 127.837491 75.676904 
L 127.989749 75.676904 
L 128.142007 61.568457 
L 129.969103 61.568457 
L 130.121361 63.919865 
L 132.252972 63.919865 
L 132.40523 62.912118 
L 132.709746 62.912118 
L 132.862004 61.232541 
L 133.014262 62.576203 
L 133.16652 59.552964 
L 133.471036 59.552964 
L 133.623293 59.217049 
L 134.536841 59.217049 
L 134.689099 67.950849 
L 136.363937 67.950849 
L 136.516194 78.364227 
L 136.668452 57.537472 
L 138.34329 57.537472 
L 138.495548 63.919865 
L 142.75877 63.919865 
L 142.911028 56.865641 
L 146.412961 56.865641 
L 146.565219 63.583949 
L 147.93554 63.583949 
L 148.087798 58.209303 
L 149.610378 58.209303 
L 149.762636 56.19381 
L 152.960053 56.19381 
L 153.112311 55.186064 
L 155.548438 55.186064 
L 155.700696 60.56071 
L 155.852954 73.661411 
L 156.766501 73.661411 
L 156.918759 54.850149 
L 161.943272 54.850149 
L 162.247788 51.82691 
L 165.445204 51.82691 
L 165.597462 57.537472 
L 166.663268 57.537472 
L 166.815526 51.490994 
L 174.276165 51.490994 
L 174.428423 53.842402 
L 175.037455 53.842402 
L 175.189713 50.819164 
L 177.016808 50.819164 
L 177.169066 54.178318 
L 177.778098 54.178318 
L 177.930356 50.483248 
L 178.38713 50.483248 
L 178.539388 50.147333 
L 181.127773 50.147333 
L 181.280031 51.82691 
L 182.345837 51.82691 
L 182.498095 47.795925 
L 185.238738 47.795925 
L 185.390995 52.834656 
L 185.543253 49.139587 
L 185.695511 49.139587 
L 185.847769 50.483248 
L 192.547119 50.483248 
L 192.699377 54.178318 
L 192.851635 54.178318 
L 193.003893 53.842402 
L 193.308409 53.842402 
L 193.460667 46.116348 
L 194.526472 46.116348 
L 194.67873 45.780433 
L 227.718705 45.780433 
L 227.870963 48.803671 
L 228.023221 47.795925 
L 240.812888 47.795925 
L 240.965146 45.108602 
L 253.450298 45.108602 
L 253.602556 47.46001 
L 258.322552 47.46001 
L 258.47481 50.483248 
L 259.540616 50.483248 
L 259.692874 49.139587 
L 261.672227 49.139587 
L 261.824485 45.780433 
L 284.967693 45.780433 
L 285.119951 51.490994 
L 295.930265 51.490994 
L 296.082523 44.772686 
L 304.913484 44.772686 
L 305.065742 47.795925 
L 306.740579 47.795925 
L 306.892837 44.772686 
L 325.772823 44.772686 
L 325.925081 48.803671 
L 358.203766 48.803671 
L 358.356023 49.475502 
L 359.421829 49.475502 
L 359.726345 45.780433 
L 362.162472 45.780433 
L 362.31473 49.475502 
L 363.228278 49.475502 
L 363.380536 47.46001 
L 372.211497 47.46001 
L 372.363755 45.444517 
L 372.820528 45.444517 
L 372.972786 49.475502 
L 373.581818 49.475502 
L 373.581818 49.475502 
" style="fill:none;stroke:#0000ff;stroke-linecap:square;stroke-width:1.5;"/>
   </g>
   <g id="line2d_30">
    <path clip-path="url(#pba628a4a44)" d="M 69.218182 216.260689 
L 69.979472 216.260689 
L 70.13173 211.544142 
L 70.283987 216.934481 
L 70.588503 214.239312 
L 70.740761 209.185869 
L 70.893019 209.185869 
L 71.045277 210.533454 
L 71.197535 203.458634 
L 71.349793 204.469323 
L 71.654309 204.469323 
L 71.806567 197.731399 
L 71.958825 197.057607 
L 72.111083 197.057607 
L 72.263341 192.004164 
L 72.415599 192.004164 
L 72.567857 191.330372 
L 72.720115 185.940033 
L 73.02463 185.940033 
L 73.176888 186.950721 
L 73.329146 186.950721 
L 73.481404 184.592448 
L 73.633662 184.592448 
L 73.78592 184.929344 
L 73.938178 184.592448 
L 74.242694 184.592448 
L 74.394952 184.929344 
L 74.54721 184.929344 
L 74.699468 179.875901 
L 74.851726 179.539005 
L 75.003984 176.50694 
L 75.156242 170.105912 
L 75.613016 170.105912 
L 75.765274 171.790393 
L 75.917531 171.453497 
L 76.069789 171.453497 
L 76.222047 169.095224 
L 76.526563 169.095224 
L 76.678821 164.715573 
L 76.983337 164.715573 
L 77.135595 163.367988 
L 77.440111 157.640753 
L 77.592369 157.640753 
L 77.744627 156.293169 
L 77.896885 151.913518 
L 78.658175 151.913518 
L 78.810432 147.533868 
L 79.114948 147.533868 
L 79.267206 142.817321 
L 79.571722 142.817321 
L 79.72398 139.785256 
L 80.789786 139.785256 
L 80.942044 137.426982 
L 81.094302 137.426982 
L 81.24656 136.75319 
L 82.769139 136.75319 
L 82.921397 134.058021 
L 83.073655 135.068709 
L 83.987203 135.068709 
L 84.291719 128.330786 
L 85.053008 128.330786 
L 85.357524 123.614239 
L 86.727846 123.614239 
L 86.880104 121.255966 
L 87.032362 121.255966 
L 87.18462 119.908381 
L 87.945909 119.908381 
L 88.098167 117.213212 
L 88.250425 117.213212 
L 88.402683 117.550108 
L 88.707199 117.550108 
L 88.859457 117.887004 
L 89.011715 118.560796 
L 89.163973 118.560796 
L 89.316231 120.91907 
L 90.534294 120.91907 
L 90.686552 121.592862 
L 90.83881 121.592862 
L 91.143326 120.245277 
L 91.6001 120.245277 
L 91.752358 117.213212 
L 92.056874 117.213212 
L 92.209132 112.833561 
L 92.36139 112.833561 
L 92.513648 108.790807 
L 93.427195 108.790807 
L 93.579453 106.76943 
L 94.645259 106.76943 
L 94.797517 102.052883 
L 95.406549 102.052883 
L 95.558807 99.69461 
L 96.472354 99.69461 
L 96.624612 98.347025 
L 96.77687 98.347025 
L 96.929128 96.662545 
L 97.994934 96.662545 
L 98.451708 86.555659 
L 98.908482 86.555659 
L 99.060739 86.892555 
L 99.212997 86.892555 
L 99.365255 85.208074 
L 100.126545 85.208074 
L 100.431061 83.186697 
L 102.867188 83.186697 
L 103.019446 82.176009 
L 103.171704 82.176009 
L 103.323962 84.871178 
L 103.47622 84.871178 
L 103.628478 96.325648 
L 103.780736 79.480839 
L 105.455573 79.480839 
L 105.607831 74.764293 
L 107.282669 74.764293 
L 107.434927 78.133255 
L 108.500732 78.133255 
L 108.65299 72.406019 
L 108.805248 72.406019 
L 108.957506 72.742916 
L 109.262022 72.742916 
L 109.41428 73.416708 
L 109.718796 73.416708 
L 109.871054 75.101189 
L 110.023312 71.058435 
L 116.265887 71.058435 
L 116.418145 73.079812 
L 118.245241 73.079812 
L 118.397499 74.764293 
L 118.549757 84.871178 
L 119.158788 84.871178 
L 119.311046 69.037058 
L 119.76782 69.037058 
L 119.920078 67.689473 
L 120.376852 67.689473 
L 120.52911 68.363265 
L 122.356205 68.363265 
L 122.508463 75.438085 
L 123.422011 75.438085 
L 123.574269 66.004992 
L 124.031043 66.004992 
L 124.183301 66.341888 
L 125.249106 66.341888 
L 125.401364 64.320511 
L 126.314912 64.320511 
L 126.46717 70.047746 
L 127.532976 70.047746 
L 127.685234 70.384642 
L 127.837491 74.0905 
L 127.989749 74.0905 
L 128.142007 63.983615 
L 129.969103 63.983615 
L 130.121361 66.678784 
L 132.252972 66.678784 
L 132.40523 64.994303 
L 132.709746 64.994303 
L 132.862004 62.972926 
L 133.014262 64.657407 
L 133.16652 62.299134 
L 133.471036 62.299134 
L 133.623293 59.940861 
L 134.536841 59.940861 
L 134.689099 66.678784 
L 136.363937 66.678784 
L 136.516194 75.101189 
L 136.668452 58.593276 
L 138.34329 58.593276 
L 138.495548 62.972926 
L 142.75877 62.972926 
L 142.911028 54.887418 
L 146.412961 54.887418 
L 146.565219 65.668096 
L 147.93554 65.668096 
L 148.087798 60.951549 
L 149.610378 60.951549 
L 149.762636 56.908795 
L 151.589731 56.908795 
L 151.741989 55.224314 
L 152.960053 55.224314 
L 153.112311 54.213626 
L 155.548438 54.213626 
L 155.700696 61.288445 
L 155.852954 76.111877 
L 156.766501 76.111877 
L 156.918759 54.887418 
L 161.943272 54.887418 
L 162.09553 50.844664 
L 162.247788 52.866041 
L 165.445204 52.866041 
L 165.597462 56.235003 
L 166.663268 56.235003 
L 166.815526 50.170871 
L 174.276165 50.170871 
L 174.428423 52.192249 
L 175.037455 52.192249 
L 175.189713 47.475702 
L 177.016808 47.475702 
L 177.169066 53.539833 
L 177.778098 53.539833 
L 177.930356 48.149494 
L 181.127773 48.149494 
L 181.280031 51.18156 
L 182.345837 51.18156 
L 182.498095 47.475702 
L 185.238738 47.475702 
L 185.390995 48.149494 
L 185.543253 47.812598 
L 185.695511 47.812598 
L 185.847769 47.475702 
L 192.547119 47.475702 
L 192.699377 52.529145 
L 192.851635 52.529145 
L 193.003893 52.192249 
L 193.308409 52.192249 
L 193.460667 46.80191 
L 194.526472 46.80191 
L 194.67873 46.465013 
L 227.718705 46.465013 
L 227.870963 47.138806 
L 228.023221 46.465013 
L 240.812888 46.465013 
L 240.965146 46.128117 
L 253.450298 46.128117 
L 253.602556 46.465013 
L 258.322552 46.465013 
L 258.47481 49.497079 
L 259.540616 49.497079 
L 259.692874 48.486391 
L 261.672227 48.486391 
L 261.824485 45.117429 
L 284.967693 45.117429 
L 285.119951 46.465013 
L 295.930265 46.465013 
L 296.082523 45.791221 
L 304.913484 45.791221 
L 305.065742 47.138806 
L 306.740579 47.138806 
L 306.892837 45.117429 
L 325.772823 45.117429 
L 325.925081 45.454325 
L 358.203766 45.454325 
L 358.356023 48.823287 
L 359.421829 48.823287 
L 359.726345 44.443636 
L 362.162472 44.443636 
L 362.31473 48.149494 
L 363.228278 48.149494 
L 363.380536 46.465013 
L 372.211497 46.465013 
L 372.363755 45.454325 
L 372.820528 45.454325 
L 372.972786 48.149494 
L 373.581818 48.149494 
L 373.581818 48.149494 
" style="fill:none;stroke:#ff0000;stroke-linecap:square;stroke-width:1.5;"/>
   </g>
   <g id="line2d_31">
    <path clip-path="url(#pba628a4a44)" d="M 69.218182 235.251651 
L 69.522698 235.251651 
L 69.674956 232.986335 
L 69.827214 236.088637 
L 69.979472 236.088637 
L 70.13173 242.116364 
L 70.436245 240.172844 
L 70.588503 238.380297 
L 70.740761 232.503203 
L 70.893019 232.503203 
L 71.045277 230.066739 
L 71.197535 225.180308 
L 71.349793 226.978968 
L 71.654309 226.978968 
L 71.958825 217.725555 
L 72.111083 217.725555 
L 72.263341 213.050841 
L 72.415599 213.050841 
L 72.567857 210.098107 
L 72.720115 202.564943 
L 73.02463 202.564943 
L 73.176888 206.477589 
L 73.329146 206.477589 
L 73.481404 200.57329 
L 73.633662 200.57329 
L 74.090436 195.682407 
L 74.242694 195.682407 
L 74.394952 196.813041 
L 74.54721 196.813041 
L 74.699468 187.058701 
L 74.851726 186.388328 
L 75.003984 181.870498 
L 75.156242 170.371611 
L 75.613016 170.371611 
L 75.765274 172.738885 
L 76.069789 172.692055 
L 76.222047 168.853415 
L 76.526563 168.853415 
L 76.678821 162.032714 
L 76.831079 162.032714 
L 77.135595 163.033122 
L 77.440111 152.265616 
L 77.592369 152.265616 
L 77.744627 151.346308 
L 77.896885 143.141067 
L 78.658175 143.141067 
L 78.810432 138.268045 
L 79.114948 138.268045 
L 79.267206 131.743069 
L 79.571722 131.743069 
L 79.72398 127.76564 
L 80.789786 127.76564 
L 80.942044 125.450676 
L 81.094302 125.450676 
L 81.24656 125.039219 
L 82.769139 125.039219 
L 82.921397 120.345132 
L 83.073655 121.278546 
L 83.987203 121.278546 
L 84.291719 113.547887 
L 85.053008 113.547887 
L 85.357524 108.020759 
L 86.727846 108.020759 
L 86.880104 105.731632 
L 87.032362 105.731632 
L 87.18462 103.233093 
L 87.945909 103.233093 
L 88.098167 101.134173 
L 88.250425 101.134173 
L 88.402683 101.318304 
L 88.707199 101.318304 
L 88.859457 104.424283 
L 89.011715 104.942063 
L 89.163973 104.942063 
L 89.316231 106.473383 
L 90.534294 106.473383 
L 90.686552 107.37008 
L 90.83881 107.37008 
L 90.991068 105.51096 
L 91.143326 107.491865 
L 91.6001 107.491865 
L 91.752358 104.551623 
L 92.056874 104.551623 
L 92.209132 99.966761 
L 92.36139 99.966761 
L 92.513648 94.195595 
L 93.427195 94.195595 
L 93.731711 94.042793 
L 94.036227 94.042793 
L 94.188485 93.433282 
L 94.645259 93.433282 
L 94.797517 87.952571 
L 95.406549 87.952571 
L 95.558807 86.36092 
L 96.77687 86.276107 
L 96.929128 85.275287 
L 97.994934 85.275287 
L 98.29945 76.473572 
L 98.908482 76.473572 
L 99.060739 76.992337 
L 99.212997 76.992337 
L 99.365255 75.722656 
L 100.126545 75.722656 
L 100.431061 73.705823 
L 102.867188 73.705823 
L 103.019446 75.252141 
L 103.171704 75.252141 
L 103.323962 77.501157 
L 103.47622 77.501157 
L 103.628478 87.553824 
L 103.780736 71.731378 
L 105.455573 71.731378 
L 105.607831 68.365152 
L 107.282669 68.365152 
L 107.434927 70.445527 
L 108.500732 70.445527 
L 108.65299 66.750385 
L 108.805248 66.750385 
L 108.957506 66.407121 
L 109.262022 66.407121 
L 109.41428 67.663749 
L 109.718796 67.663749 
L 109.871054 68.66961 
L 110.023312 64.924551 
L 115.047824 64.924551 
L 115.200082 65.120869 
L 116.265887 65.120869 
L 116.418145 66.618082 
L 118.245241 66.618082 
L 118.397499 69.227127 
L 118.549757 76.565696 
L 119.158788 76.565696 
L 119.311046 64.599888 
L 119.76782 64.599888 
L 119.920078 62.730576 
L 120.376852 62.730576 
L 120.52911 63.867229 
L 122.356205 63.867229 
L 122.508463 68.447438 
L 123.422011 68.447438 
L 123.574269 62.07815 
L 125.249106 62.102924 
L 125.401364 60.341888 
L 126.314912 60.341888 
L 126.46717 64.710254 
L 127.685234 64.710254 
L 127.837491 69.408318 
L 127.989749 69.408318 
L 128.142007 59.726872 
L 129.969103 59.726872 
L 130.121361 61.939974 
L 132.252972 61.939974 
L 132.40523 60.673099 
L 132.709746 60.673099 
L 132.862004 59.346263 
L 133.014262 60.341888 
L 133.16652 58.219367 
L 133.471036 58.219367 
L 133.623293 57.142128 
L 134.536841 57.142128 
L 134.689099 63.426968 
L 136.363937 63.426968 
L 136.516194 71.108208 
L 136.668452 55.987404 
L 138.34329 55.987404 
L 138.495548 60.646657 
L 142.75877 60.646657 
L 142.911028 53.986909 
L 146.412961 53.986909 
L 146.565219 61.245029 
L 147.93554 61.245029 
L 148.087798 57.085666 
L 149.610378 57.085666 
L 149.762636 54.630593 
L 151.589731 54.630593 
L 151.741989 53.878855 
L 152.960053 53.878855 
L 153.112311 53.130699 
L 155.548438 53.130699 
L 155.700696 58.803782 
L 155.852954 70.370032 
L 156.766501 70.370032 
L 156.918759 53.533676 
L 161.943272 53.533676 
L 162.09553 50.915996 
L 162.247788 51.232346 
L 165.445204 51.232346 
L 165.597462 55.238279 
L 166.663268 55.238279 
L 166.815526 49.807527 
L 174.276165 49.807527 
L 174.428423 51.621474 
L 175.037455 51.621474 
L 175.189713 48.330533 
L 177.016808 48.330533 
L 177.169066 52.467222 
L 177.778098 52.467222 
L 177.930356 48.450518 
L 178.38713 48.450518 
L 178.691646 48.306482 
L 181.127773 48.306482 
L 181.280031 50.264691 
L 182.345837 50.264691 
L 182.498095 46.976524 
L 185.238738 46.976524 
L 185.390995 49.472491 
L 185.543253 47.699581 
L 185.695511 47.699581 
L 185.847769 48.131196 
L 192.547119 48.131196 
L 192.699377 51.927407 
L 192.851635 51.927407 
L 193.003893 51.645785 
L 193.308409 51.645785 
L 193.460667 45.956409 
L 194.526472 45.956409 
L 194.67873 45.663253 
L 227.718705 45.663253 
L 227.870963 47.28632 
L 228.023221 46.557725 
L 240.812888 46.557725 
L 240.965146 45.222096 
L 253.450298 45.222096 
L 253.602556 46.394727 
L 258.322552 46.394727 
L 258.47481 49.08754 
L 259.540616 49.08754 
L 259.692874 48.063961 
L 261.672227 48.063961 
L 261.824485 45.074662 
L 284.967693 45.074662 
L 285.119951 48.154465 
L 295.930265 48.154465 
L 296.082523 44.927038 
L 304.913484 44.927038 
L 305.065742 46.868242 
L 306.740579 46.868242 
L 306.892837 44.631214 
L 325.772823 44.631214 
L 325.925081 46.540457 
L 358.203766 46.540457 
L 358.356023 48.362891 
L 359.421829 48.362891 
L 359.726345 44.789745 
L 362.162472 44.789745 
L 362.31473 48.07949 
L 363.228278 48.07949 
L 363.380536 46.450949 
L 372.211497 46.450949 
L 372.363755 45.094149 
L 372.820528 45.094149 
L 372.972786 48.102935 
L 373.581818 48.102935 
L 373.581818 48.102935 
" style="fill:none;stroke:#008000;stroke-linecap:square;stroke-width:1.5;"/>
   </g>
   <g id="patch_3">
    <path d="M 54 252 
L 54 34.56 
" style="fill:none;stroke:#000000;stroke-linecap:square;stroke-linejoin:miter;stroke-width:0.8;"/>
   </g>
   <g id="patch_4">
    <path d="M 54 252 
L 388.8 252 
" style="fill:none;stroke:#000000;stroke-linecap:square;stroke-linejoin:miter;stroke-width:0.8;"/>
   </g>
   <g id="legend_1">
    <g id="patch_5">
     <path d="M 171.623437 247 
L 381.8 247 
Q 383.8 247 383.8 245 
L 383.8 201.965625 
Q 383.8 199.965625 381.8 199.965625 
L 171.623437 199.965625 
Q 169.623437 199.965625 169.623437 201.965625 
L 169.623437 245 
Q 169.623437 247 171.623437 247 
z
" style="fill:#ffffff;opacity:0.8;stroke:#cccccc;stroke-linejoin:miter;"/>
    </g>
    <g id="line2d_32">
     <path d="M 173.623437 208.064063 
L 193.623437 208.064063 
" style="fill:none;stroke:#0000ff;stroke-linecap:square;stroke-width:1.5;"/>
    </g>
    <g id="line2d_33"/>
    <g id="text_17">
     <!-- Training Set -->
     <defs>
      <path d="M -0.296875 72.90625 
L 61.375 72.90625 
L 61.375 64.59375 
L 35.5 64.59375 
L 35.5 0 
L 25.59375 0 
L 25.59375 64.59375 
L -0.296875 64.59375 
z
" id="DejaVuSans-84"/>
      <path d="M 45.40625 27.984375 
Q 45.40625 37.75 41.375 43.109375 
Q 37.359375 48.484375 30.078125 48.484375 
Q 22.859375 48.484375 18.828125 43.109375 
Q 14.796875 37.75 14.796875 27.984375 
Q 14.796875 18.265625 18.828125 12.890625 
Q 22.859375 7.515625 30.078125 7.515625 
Q 37.359375 7.515625 41.375 12.890625 
Q 45.40625 18.265625 45.40625 27.984375 
z
M 54.390625 6.78125 
Q 54.390625 -7.171875 48.1875 -13.984375 
Q 42 -20.796875 29.203125 -20.796875 
Q 24.46875 -20.796875 20.265625 -20.09375 
Q 16.0625 -19.390625 12.109375 -17.921875 
L 12.109375 -9.1875 
Q 16.0625 -11.328125 19.921875 -12.34375 
Q 23.78125 -13.375 27.78125 -13.375 
Q 36.625 -13.375 41.015625 -8.765625 
Q 45.40625 -4.15625 45.40625 5.171875 
L 45.40625 9.625 
Q 42.625 4.78125 38.28125 2.390625 
Q 33.9375 0 27.875 0 
Q 17.828125 0 11.671875 7.65625 
Q 5.515625 15.328125 5.515625 27.984375 
Q 5.515625 40.671875 11.671875 48.328125 
Q 17.828125 56 27.875 56 
Q 33.9375 56 38.28125 53.609375 
Q 42.625 51.21875 45.40625 46.390625 
L 45.40625 54.6875 
L 54.390625 54.6875 
z
" id="DejaVuSans-103"/>
      <path d="M 53.515625 70.515625 
L 53.515625 60.890625 
Q 47.90625 63.578125 42.921875 64.890625 
Q 37.9375 66.21875 33.296875 66.21875 
Q 25.25 66.21875 20.875 63.09375 
Q 16.5 59.96875 16.5 54.203125 
Q 16.5 49.359375 19.40625 46.890625 
Q 22.3125 44.4375 30.421875 42.921875 
L 36.375 41.703125 
Q 47.40625 39.59375 52.65625 34.296875 
Q 57.90625 29 57.90625 20.125 
Q 57.90625 9.515625 50.796875 4.046875 
Q 43.703125 -1.421875 29.984375 -1.421875 
Q 24.8125 -1.421875 18.96875 -0.25 
Q 13.140625 0.921875 6.890625 3.21875 
L 6.890625 13.375 
Q 12.890625 10.015625 18.65625 8.296875 
Q 24.421875 6.59375 29.984375 6.59375 
Q 38.421875 6.59375 43.015625 9.90625 
Q 47.609375 13.234375 47.609375 19.390625 
Q 47.609375 24.75 44.3125 27.78125 
Q 41.015625 30.8125 33.5 32.328125 
L 27.484375 33.5 
Q 16.453125 35.6875 11.515625 40.375 
Q 6.59375 45.0625 6.59375 53.421875 
Q 6.59375 63.09375 13.40625 68.65625 
Q 20.21875 74.21875 32.171875 74.21875 
Q 37.3125 74.21875 42.625 73.28125 
Q 47.953125 72.359375 53.515625 70.515625 
z
" id="DejaVuSans-83"/>
     </defs>
     <g transform="translate(201.623437 211.564063)scale(0.1 -0.1)">
      <use xlink:href="#DejaVuSans-84"/>
      <use x="60.865234" xlink:href="#DejaVuSans-114"/>
      <use x="101.978516" xlink:href="#DejaVuSans-97"/>
      <use x="163.257812" xlink:href="#DejaVuSans-105"/>
      <use x="191.041016" xlink:href="#DejaVuSans-110"/>
      <use x="254.419922" xlink:href="#DejaVuSans-105"/>
      <use x="282.203125" xlink:href="#DejaVuSans-110"/>
      <use x="345.582031" xlink:href="#DejaVuSans-103"/>
      <use x="409.058594" xlink:href="#DejaVuSans-32"/>
      <use x="440.845703" xlink:href="#DejaVuSans-83"/>
      <use x="504.322266" xlink:href="#DejaVuSans-101"/>
      <use x="565.845703" xlink:href="#DejaVuSans-116"/>
     </g>
    </g>
    <g id="line2d_34">
     <path d="M 173.623437 222.742188 
L 193.623437 222.742188 
" style="fill:none;stroke:#ff0000;stroke-linecap:square;stroke-width:1.5;"/>
    </g>
    <g id="line2d_35"/>
    <g id="text_18">
     <!-- Test Set -->
     <g transform="translate(201.623437 226.242188)scale(0.1 -0.1)">
      <use xlink:href="#DejaVuSans-84"/>
      <use x="60.818359" xlink:href="#DejaVuSans-101"/>
      <use x="122.341797" xlink:href="#DejaVuSans-115"/>
      <use x="174.441406" xlink:href="#DejaVuSans-116"/>
      <use x="213.650391" xlink:href="#DejaVuSans-32"/>
      <use x="245.4375" xlink:href="#DejaVuSans-83"/>
      <use x="308.914062" xlink:href="#DejaVuSans-101"/>
      <use x="370.4375" xlink:href="#DejaVuSans-116"/>
     </g>
    </g>
    <g id="line2d_36">
     <path d="M 173.623437 237.420313 
L 193.623437 237.420313 
" style="fill:none;stroke:#008000;stroke-linecap:square;stroke-width:1.5;"/>
    </g>
    <g id="line2d_37"/>
    <g id="text_19">
     <!-- F-Measure (scaled by factor of 100) -->
     <defs>
      <path d="M 9.8125 72.90625 
L 51.703125 72.90625 
L 51.703125 64.59375 
L 19.671875 64.59375 
L 19.671875 43.109375 
L 48.578125 43.109375 
L 48.578125 34.8125 
L 19.671875 34.8125 
L 19.671875 0 
L 9.8125 0 
z
" id="DejaVuSans-70"/>
      <path d="M 4.890625 31.390625 
L 31.203125 31.390625 
L 31.203125 23.390625 
L 4.890625 23.390625 
z
" id="DejaVuSans-45"/>
      <path d="M 9.8125 72.90625 
L 24.515625 72.90625 
L 43.109375 23.296875 
L 61.8125 72.90625 
L 76.515625 72.90625 
L 76.515625 0 
L 66.890625 0 
L 66.890625 64.015625 
L 48.09375 14.015625 
L 38.1875 14.015625 
L 19.390625 64.015625 
L 19.390625 0 
L 9.8125 0 
z
" id="DejaVuSans-77"/>
      <path d="M 8.5 21.578125 
L 8.5 54.6875 
L 17.484375 54.6875 
L 17.484375 21.921875 
Q 17.484375 14.15625 20.5 10.265625 
Q 23.53125 6.390625 29.59375 6.390625 
Q 36.859375 6.390625 41.078125 11.03125 
Q 45.3125 15.671875 45.3125 23.6875 
L 45.3125 54.6875 
L 54.296875 54.6875 
L 54.296875 0 
L 45.3125 0 
L 45.3125 8.40625 
Q 42.046875 3.421875 37.71875 1 
Q 33.40625 -1.421875 27.6875 -1.421875 
Q 18.265625 -1.421875 13.375 4.4375 
Q 8.5 10.296875 8.5 21.578125 
z
M 31.109375 56 
z
" id="DejaVuSans-117"/>
      <path d="M 45.40625 46.390625 
L 45.40625 75.984375 
L 54.390625 75.984375 
L 54.390625 0 
L 45.40625 0 
L 45.40625 8.203125 
Q 42.578125 3.328125 38.25 0.953125 
Q 33.9375 -1.421875 27.875 -1.421875 
Q 17.96875 -1.421875 11.734375 6.484375 
Q 5.515625 14.40625 5.515625 27.296875 
Q 5.515625 40.1875 11.734375 48.09375 
Q 17.96875 56 27.875 56 
Q 33.9375 56 38.25 53.625 
Q 42.578125 51.265625 45.40625 46.390625 
z
M 14.796875 27.296875 
Q 14.796875 17.390625 18.875 11.75 
Q 22.953125 6.109375 30.078125 6.109375 
Q 37.203125 6.109375 41.296875 11.75 
Q 45.40625 17.390625 45.40625 27.296875 
Q 45.40625 37.203125 41.296875 42.84375 
Q 37.203125 48.484375 30.078125 48.484375 
Q 22.953125 48.484375 18.875 42.84375 
Q 14.796875 37.203125 14.796875 27.296875 
z
" id="DejaVuSans-100"/>
      <path d="M 48.6875 27.296875 
Q 48.6875 37.203125 44.609375 42.84375 
Q 40.53125 48.484375 33.40625 48.484375 
Q 26.265625 48.484375 22.1875 42.84375 
Q 18.109375 37.203125 18.109375 27.296875 
Q 18.109375 17.390625 22.1875 11.75 
Q 26.265625 6.109375 33.40625 6.109375 
Q 40.53125 6.109375 44.609375 11.75 
Q 48.6875 17.390625 48.6875 27.296875 
z
M 18.109375 46.390625 
Q 20.953125 51.265625 25.265625 53.625 
Q 29.59375 56 35.59375 56 
Q 45.5625 56 51.78125 48.09375 
Q 58.015625 40.1875 58.015625 27.296875 
Q 58.015625 14.40625 51.78125 6.484375 
Q 45.5625 -1.421875 35.59375 -1.421875 
Q 29.59375 -1.421875 25.265625 0.953125 
Q 20.953125 3.328125 18.109375 8.203125 
L 18.109375 0 
L 9.078125 0 
L 9.078125 75.984375 
L 18.109375 75.984375 
z
" id="DejaVuSans-98"/>
      <path d="M 32.171875 -5.078125 
Q 28.375 -14.84375 24.75 -17.8125 
Q 21.140625 -20.796875 15.09375 -20.796875 
L 7.90625 -20.796875 
L 7.90625 -13.28125 
L 13.1875 -13.28125 
Q 16.890625 -13.28125 18.9375 -11.515625 
Q 21 -9.765625 23.484375 -3.21875 
L 25.09375 0.875 
L 2.984375 54.6875 
L 12.5 54.6875 
L 29.59375 11.921875 
L 46.6875 54.6875 
L 56.203125 54.6875 
z
" id="DejaVuSans-121"/>
     </defs>
     <g transform="translate(201.623437 240.920313)scale(0.1 -0.1)">
      <use xlink:href="#DejaVuSans-70"/>
      <use x="57.519531" xlink:href="#DejaVuSans-45"/>
      <use x="93.603516" xlink:href="#DejaVuSans-77"/>
      <use x="179.882812" xlink:href="#DejaVuSans-101"/>
      <use x="241.40625" xlink:href="#DejaVuSans-97"/>
      <use x="302.685547" xlink:href="#DejaVuSans-115"/>
      <use x="354.785156" xlink:href="#DejaVuSans-117"/>
      <use x="418.164062" xlink:href="#DejaVuSans-114"/>
      <use x="459.246094" xlink:href="#DejaVuSans-101"/>
      <use x="520.769531" xlink:href="#DejaVuSans-32"/>
      <use x="552.556641" xlink:href="#DejaVuSans-40"/>
      <use x="591.570312" xlink:href="#DejaVuSans-115"/>
      <use x="643.669922" xlink:href="#DejaVuSans-99"/>
      <use x="698.650391" xlink:href="#DejaVuSans-97"/>
      <use x="759.929688" xlink:href="#DejaVuSans-108"/>
      <use x="787.712891" xlink:href="#DejaVuSans-101"/>
      <use x="849.236328" xlink:href="#DejaVuSans-100"/>
      <use x="912.712891" xlink:href="#DejaVuSans-32"/>
      <use x="944.5" xlink:href="#DejaVuSans-98"/>
      <use x="1007.976562" xlink:href="#DejaVuSans-121"/>
      <use x="1067.15625" xlink:href="#DejaVuSans-32"/>
      <use x="1098.943359" xlink:href="#DejaVuSans-102"/>
      <use x="1134.148438" xlink:href="#DejaVuSans-97"/>
      <use x="1195.427734" xlink:href="#DejaVuSans-99"/>
      <use x="1250.408203" xlink:href="#DejaVuSans-116"/>
      <use x="1289.617188" xlink:href="#DejaVuSans-111"/>
      <use x="1350.798828" xlink:href="#DejaVuSans-114"/>
      <use x="1391.912109" xlink:href="#DejaVuSans-32"/>
      <use x="1423.699219" xlink:href="#DejaVuSans-111"/>
      <use x="1484.880859" xlink:href="#DejaVuSans-102"/>
      <use x="1520.085938" xlink:href="#DejaVuSans-32"/>
      <use x="1551.873047" xlink:href="#DejaVuSans-49"/>
      <use x="1615.496094" xlink:href="#DejaVuSans-48"/>
      <use x="1679.119141" xlink:href="#DejaVuSans-48"/>
      <use x="1742.742188" xlink:href="#DejaVuSans-41"/>
     </g>
    </g>
   </g>
  </g>
 </g>
 <defs>
  <clipPath id="pba628a4a44">
   <rect height="217.44" width="334.8" x="54" y="34.56"/>
  </clipPath>
 </defs>
</svg>
