<?xml version="1.0" encoding="utf-8" standalone="no"?>
<!DOCTYPE svg PUBLIC "-//W3C//DTD SVG 1.1//EN"
  "http://www.w3.org/Graphics/SVG/1.1/DTD/svg11.dtd">
<!-- Created with matplotlib (https://matplotlib.org/) -->
<svg height="432pt" version="1.1" viewBox="0 0 432 432" width="432pt" xmlns="http://www.w3.org/2000/svg" xmlns:xlink="http://www.w3.org/1999/xlink">
 <defs>
  <style type="text/css">
*{stroke-linecap:butt;stroke-linejoin:round;}
  </style>
 </defs>
 <g id="figure_1">
  <g id="patch_1">
   <path d="M 0 432 
L 432 432 
L 432 0 
L 0 0 
z
" style="fill:#ffffff;"/>
  </g>
  <g id="axes_1">
   <g id="patch_2">
    <path d="M 54 378 
L 388.8 378 
L 388.8 51.84 
L 54 51.84 
z
" style="fill:#ffffff;"/>
   </g>
   <g id="PathCollection_1">
    <defs>
     <path d="M 0 0.866025 
C 0.229673 0.866025 0.449969 0.774776 0.612372 0.612372 
C 0.774776 0.449969 0.866025 0.229673 0.866025 0 
C 0.866025 -0.229673 0.774776 -0.449969 0.612372 -0.612372 
C 0.449969 -0.774776 0.229673 -0.866025 0 -0.866025 
C -0.229673 -0.866025 -0.449969 -0.774776 -0.612372 -0.612372 
C -0.774776 -0.449969 -0.866025 -0.229673 -0.866025 0 
C -0.866025 0.229673 -0.774776 0.449969 -0.612372 0.612372 
C -0.449969 0.774776 -0.229673 0.866025 0 0.866025 
z
" id="m55b75a86cb" style="stroke:#ff0000;"/>
    </defs>
    <g clip-path="url(#p8f0489fe87)">
     <use style="fill:#ff0000;stroke:#ff0000;" x="235.00787" xlink:href="#m55b75a86cb" y="115.519522"/>
     <use style="fill:#ff0000;stroke:#ff0000;" x="164.215615" xlink:href="#m55b75a86cb" y="144.898788"/>
     <use style="fill:#ff0000;stroke:#ff0000;" x="142.384466" xlink:href="#m55b75a86cb" y="229.139343"/>
     <use style="fill:#ff0000;stroke:#ff0000;" x="189.136153" xlink:href="#m55b75a86cb" y="190.802319"/>
     <use style="fill:#ff0000;stroke:#ff0000;" x="193.817662" xlink:href="#m55b75a86cb" y="181.694712"/>
     <use style="fill:#ff0000;stroke:#ff0000;" x="219.787987" xlink:href="#m55b75a86cb" y="64.901198"/>
     <use style="fill:#ff0000;stroke:#ff0000;" x="226.066047" xlink:href="#m55b75a86cb" y="152.881711"/>
     <use style="fill:#ff0000;stroke:#ff0000;" x="261.548393" xlink:href="#m55b75a86cb" y="103.463452"/>
     <use style="fill:#ff0000;stroke:#ff0000;" x="207.490525" xlink:href="#m55b75a86cb" y="209.423679"/>
     <use style="fill:#ff0000;stroke:#ff0000;" x="98.581403" xlink:href="#m55b75a86cb" y="171.699628"/>
     <use style="fill:#ff0000;stroke:#ff0000;" x="247.630463" xlink:href="#m55b75a86cb" y="169.175744"/>
     <use style="fill:#ff0000;stroke:#ff0000;" x="222.74816" xlink:href="#m55b75a86cb" y="114.075573"/>
     <use style="fill:#ff0000;stroke:#ff0000;" x="165.886382" xlink:href="#m55b75a86cb" y="209.856625"/>
     <use style="fill:#ff0000;stroke:#ff0000;" x="167.200225" xlink:href="#m55b75a86cb" y="160.349619"/>
     <use style="fill:#ff0000;stroke:#ff0000;" x="249.710046" xlink:href="#m55b75a86cb" y="128.051824"/>
     <use style="fill:#ff0000;stroke:#ff0000;" x="169.307669" xlink:href="#m55b75a86cb" y="83.571557"/>
     <use style="fill:#ff0000;stroke:#ff0000;" x="201.019857" xlink:href="#m55b75a86cb" y="121.814405"/>
     <use style="fill:#ff0000;stroke:#ff0000;" x="185.888572" xlink:href="#m55b75a86cb" y="142.208903"/>
     <use style="fill:#ff0000;stroke:#ff0000;" x="173.185256" xlink:href="#m55b75a86cb" y="159.186272"/>
     <use style="fill:#ff0000;stroke:#ff0000;" x="155.988771" xlink:href="#m55b75a86cb" y="172.582346"/>
     <use style="fill:#ff0000;stroke:#ff0000;" x="178.469636" xlink:href="#m55b75a86cb" y="177.749865"/>
     <use style="fill:#ff0000;stroke:#ff0000;" x="166.687414" xlink:href="#m55b75a86cb" y="192.276493"/>
     <use style="fill:#ff0000;stroke:#ff0000;" x="202.135028" xlink:href="#m55b75a86cb" y="205.402548"/>
     <use style="fill:#ff0000;stroke:#ff0000;" x="185.798568" xlink:href="#m55b75a86cb" y="157.893486"/>
     <use style="fill:#ff0000;stroke:#ff0000;" x="269.879471" xlink:href="#m55b75a86cb" y="57.097535"/>
     <use style="fill:#ff0000;stroke:#ff0000;" x="234.11653" xlink:href="#m55b75a86cb" y="187.426948"/>
     <use style="fill:#ff0000;stroke:#ff0000;" x="145.263188" xlink:href="#m55b75a86cb" y="211.20972"/>
     <use style="fill:#ff0000;stroke:#ff0000;" x="173.793373" xlink:href="#m55b75a86cb" y="176.292916"/>
     <use style="fill:#ff0000;stroke:#ff0000;" x="166.113564" xlink:href="#m55b75a86cb" y="161.020485"/>
     <use style="fill:#ff0000;stroke:#ff0000;" x="180.338273" xlink:href="#m55b75a86cb" y="193.011401"/>
     <use style="fill:#ff0000;stroke:#ff0000;" x="238.507529" xlink:href="#m55b75a86cb" y="143.139813"/>
     <use style="fill:#ff0000;stroke:#ff0000;" x="232.300782" xlink:href="#m55b75a86cb" y="142.864565"/>
     <use style="fill:#ff0000;stroke:#ff0000;" x="189.29752" xlink:href="#m55b75a86cb" y="200.334641"/>
     <use style="fill:#ff0000;stroke:#ff0000;" x="143.508847" xlink:href="#m55b75a86cb" y="180.730537"/>
     <use style="fill:#ff0000;stroke:#ff0000;" x="154.564684" xlink:href="#m55b75a86cb" y="192.09727"/>
     <use style="fill:#ff0000;stroke:#ff0000;" x="132.923574" xlink:href="#m55b75a86cb" y="163.94663"/>
     <use style="fill:#ff0000;stroke:#ff0000;" x="235.954476" xlink:href="#m55b75a86cb" y="158.946445"/>
     <use style="fill:#ff0000;stroke:#ff0000;" x="257.886643" xlink:href="#m55b75a86cb" y="157.757533"/>
     <use style="fill:#ff0000;stroke:#ff0000;" x="184.131452" xlink:href="#m55b75a86cb" y="217.24435"/>
     <use style="fill:#ff0000;stroke:#ff0000;" x="256.095863" xlink:href="#m55b75a86cb" y="147.260132"/>
     <use style="fill:#ff0000;stroke:#ff0000;" x="217.813268" xlink:href="#m55b75a86cb" y="196.260085"/>
     <use style="fill:#ff0000;stroke:#ff0000;" x="160.835023" xlink:href="#m55b75a86cb" y="166.19999"/>
     <use style="fill:#ff0000;stroke:#ff0000;" x="196.082158" xlink:href="#m55b75a86cb" y="150.511549"/>
     <use style="fill:#ff0000;stroke:#ff0000;" x="175.742078" xlink:href="#m55b75a86cb" y="167.344217"/>
     <use style="fill:#ff0000;stroke:#ff0000;" x="198.342824" xlink:href="#m55b75a86cb" y="200.526909"/>
     <use style="fill:#ff0000;stroke:#ff0000;" x="139.915729" xlink:href="#m55b75a86cb" y="175.26886"/>
     <use style="fill:#ff0000;stroke:#ff0000;" x="182.733211" xlink:href="#m55b75a86cb" y="183.943622"/>
     <use style="fill:#ff0000;stroke:#ff0000;" x="248.274263" xlink:href="#m55b75a86cb" y="134.8104"/>
     <use style="fill:#ff0000;stroke:#ff0000;" x="188.800388" xlink:href="#m55b75a86cb" y="183.712729"/>
     <use style="fill:#ff0000;stroke:#ff0000;" x="196.387255" xlink:href="#m55b75a86cb" y="145.48359"/>
     <use style="fill:#ff0000;stroke:#ff0000;" x="193.473138" xlink:href="#m55b75a86cb" y="103.702825"/>
     <use style="fill:#ff0000;stroke:#ff0000;" x="87.494301" xlink:href="#m55b75a86cb" y="248.569116"/>
     <use style="fill:#ff0000;stroke:#ff0000;" x="145.62944" xlink:href="#m55b75a86cb" y="240.692018"/>
     <use style="fill:#ff0000;stroke:#ff0000;" x="252.044184" xlink:href="#m55b75a86cb" y="164.454724"/>
     <use style="fill:#ff0000;stroke:#ff0000;" x="193.8068" xlink:href="#m55b75a86cb" y="176.937435"/>
     <use style="fill:#ff0000;stroke:#ff0000;" x="184.147017" xlink:href="#m55b75a86cb" y="159.254575"/>
     <use style="fill:#ff0000;stroke:#ff0000;" x="176.991405" xlink:href="#m55b75a86cb" y="192.978776"/>
     <use style="fill:#ff0000;stroke:#ff0000;" x="222.213664" xlink:href="#m55b75a86cb" y="160.590553"/>
     <use style="fill:#ff0000;stroke:#ff0000;" x="241.551077" xlink:href="#m55b75a86cb" y="185.145709"/>
     <use style="fill:#ff0000;stroke:#ff0000;" x="269.995034" xlink:href="#m55b75a86cb" y="175.297548"/>
     <use style="fill:#ff0000;stroke:#ff0000;" x="284.439087" xlink:href="#m55b75a86cb" y="116.793645"/>
     <use style="fill:#ff0000;stroke:#ff0000;" x="196.830467" xlink:href="#m55b75a86cb" y="152.312762"/>
     <use style="fill:#ff0000;stroke:#ff0000;" x="257.257782" xlink:href="#m55b75a86cb" y="153.760073"/>
     <use style="fill:#ff0000;stroke:#ff0000;" x="209.718281" xlink:href="#m55b75a86cb" y="162.026864"/>
     <use style="fill:#ff0000;stroke:#ff0000;" x="245.977514" xlink:href="#m55b75a86cb" y="164.890902"/>
     <use style="fill:#ff0000;stroke:#ff0000;" x="272.6569" xlink:href="#m55b75a86cb" y="130.410191"/>
     <use style="fill:#ff0000;stroke:#ff0000;" x="169.318872" xlink:href="#m55b75a86cb" y="155.919529"/>
     <use style="fill:#ff0000;stroke:#ff0000;" x="235.106531" xlink:href="#m55b75a86cb" y="146.673601"/>
     <use style="fill:#ff0000;stroke:#ff0000;" x="187.961838" xlink:href="#m55b75a86cb" y="170.735612"/>
     <use style="fill:#ff0000;stroke:#ff0000;" x="226.056958" xlink:href="#m55b75a86cb" y="173.961124"/>
     <use style="fill:#ff0000;stroke:#ff0000;" x="221.436704" xlink:href="#m55b75a86cb" y="205.566076"/>
     <use style="fill:#ff0000;stroke:#ff0000;" x="205.245447" xlink:href="#m55b75a86cb" y="158.078704"/>
     <use style="fill:#ff0000;stroke:#ff0000;" x="138.598228" xlink:href="#m55b75a86cb" y="159.304226"/>
     <use style="fill:#ff0000;stroke:#ff0000;" x="188.623803" xlink:href="#m55b75a86cb" y="129.790421"/>
     <use style="fill:#ff0000;stroke:#ff0000;" x="163.413091" xlink:href="#m55b75a86cb" y="156.982722"/>
     <use style="fill:#ff0000;stroke:#ff0000;" x="186.395451" xlink:href="#m55b75a86cb" y="107.909132"/>
     <use style="fill:#ff0000;stroke:#ff0000;" x="190.120071" xlink:href="#m55b75a86cb" y="126.798315"/>
     <use style="fill:#ff0000;stroke:#ff0000;" x="168.51117" xlink:href="#m55b75a86cb" y="203.613867"/>
     <use style="fill:#ff0000;stroke:#ff0000;" x="137.801215" xlink:href="#m55b75a86cb" y="158.259745"/>
     <use style="fill:#ff0000;stroke:#ff0000;" x="225.868081" xlink:href="#m55b75a86cb" y="142.800213"/>
     <use style="fill:#ff0000;stroke:#ff0000;" x="154.620333" xlink:href="#m55b75a86cb" y="186.066904"/>
     <use style="fill:#ff0000;stroke:#ff0000;" x="194.215775" xlink:href="#m55b75a86cb" y="160.473084"/>
     <use style="fill:#ff0000;stroke:#ff0000;" x="202.071242" xlink:href="#m55b75a86cb" y="129.855551"/>
     <use style="fill:#ff0000;stroke:#ff0000;" x="231.851029" xlink:href="#m55b75a86cb" y="145.857242"/>
     <use style="fill:#ff0000;stroke:#ff0000;" x="170.850759" xlink:href="#m55b75a86cb" y="212.829716"/>
     <use style="fill:#ff0000;stroke:#ff0000;" x="250.185389" xlink:href="#m55b75a86cb" y="131.849392"/>
     <use style="fill:#ff0000;stroke:#ff0000;" x="177.488173" xlink:href="#m55b75a86cb" y="233.764088"/>
     <use style="fill:#ff0000;stroke:#ff0000;" x="218.49356" xlink:href="#m55b75a86cb" y="116.630455"/>
     <use style="fill:#ff0000;stroke:#ff0000;" x="217.585142" xlink:href="#m55b75a86cb" y="89.060037"/>
     <use style="fill:#ff0000;stroke:#ff0000;" x="141.337219" xlink:href="#m55b75a86cb" y="135.290206"/>
     <use style="fill:#ff0000;stroke:#ff0000;" x="185.199195" xlink:href="#m55b75a86cb" y="197.927969"/>
     <use style="fill:#ff0000;stroke:#ff0000;" x="168.048764" xlink:href="#m55b75a86cb" y="172.361715"/>
     <use style="fill:#ff0000;stroke:#ff0000;" x="188.260917" xlink:href="#m55b75a86cb" y="119.760847"/>
     <use style="fill:#ff0000;stroke:#ff0000;" x="256.010641" xlink:href="#m55b75a86cb" y="146.601611"/>
     <use style="fill:#ff0000;stroke:#ff0000;" x="159.359257" xlink:href="#m55b75a86cb" y="167.221168"/>
     <use style="fill:#ff0000;stroke:#ff0000;" x="194.733281" xlink:href="#m55b75a86cb" y="216.005963"/>
     <use style="fill:#ff0000;stroke:#ff0000;" x="117.835759" xlink:href="#m55b75a86cb" y="170.859951"/>
     <use style="fill:#ff0000;stroke:#ff0000;" x="272.610694" xlink:href="#m55b75a86cb" y="108.677111"/>
     <use style="fill:#ff0000;stroke:#ff0000;" x="259.704843" xlink:href="#m55b75a86cb" y="116.130437"/>
     <use style="fill:#ff0000;stroke:#ff0000;" x="174.618359" xlink:href="#m55b75a86cb" y="159.2462"/>
     <use style="fill:#ff0000;stroke:#ff0000;" x="279.299174" xlink:href="#m55b75a86cb" y="103.264966"/>
     <use style="fill:#ff0000;stroke:#ff0000;" x="195.441265" xlink:href="#m55b75a86cb" y="141.914188"/>
     <use style="fill:#ff0000;stroke:#ff0000;" x="172.437899" xlink:href="#m55b75a86cb" y="165.501809"/>
     <use style="fill:#ff0000;stroke:#ff0000;" x="154.516495" xlink:href="#m55b75a86cb" y="173.948524"/>
     <use style="fill:#ff0000;stroke:#ff0000;" x="180.218702" xlink:href="#m55b75a86cb" y="176.017769"/>
     <use style="fill:#ff0000;stroke:#ff0000;" x="240.570867" xlink:href="#m55b75a86cb" y="173.192778"/>
     <use style="fill:#ff0000;stroke:#ff0000;" x="184.465258" xlink:href="#m55b75a86cb" y="184.186103"/>
     <use style="fill:#ff0000;stroke:#ff0000;" x="315.523645" xlink:href="#m55b75a86cb" y="108.843042"/>
     <use style="fill:#ff0000;stroke:#ff0000;" x="144.404772" xlink:href="#m55b75a86cb" y="156.200121"/>
     <use style="fill:#ff0000;stroke:#ff0000;" x="229.450113" xlink:href="#m55b75a86cb" y="85.254845"/>
     <use style="fill:#ff0000;stroke:#ff0000;" x="272.888634" xlink:href="#m55b75a86cb" y="159.485756"/>
     <use style="fill:#ff0000;stroke:#ff0000;" x="186.330904" xlink:href="#m55b75a86cb" y="87.045251"/>
     <use style="fill:#ff0000;stroke:#ff0000;" x="245.768258" xlink:href="#m55b75a86cb" y="136.309332"/>
     <use style="fill:#ff0000;stroke:#ff0000;" x="237.993699" xlink:href="#m55b75a86cb" y="151.572385"/>
     <use style="fill:#ff0000;stroke:#ff0000;" x="195.247205" xlink:href="#m55b75a86cb" y="170.471964"/>
     <use style="fill:#ff0000;stroke:#ff0000;" x="247.400534" xlink:href="#m55b75a86cb" y="127.987199"/>
     <use style="fill:#ff0000;stroke:#ff0000;" x="286.397999" xlink:href="#m55b75a86cb" y="169.047019"/>
     <use style="fill:#ff0000;stroke:#ff0000;" x="149.604391" xlink:href="#m55b75a86cb" y="169.628238"/>
     <use style="fill:#ff0000;stroke:#ff0000;" x="165.562346" xlink:href="#m55b75a86cb" y="195.135186"/>
     <use style="fill:#ff0000;stroke:#ff0000;" x="129.180438" xlink:href="#m55b75a86cb" y="133.855154"/>
     <use style="fill:#ff0000;stroke:#ff0000;" x="211.329621" xlink:href="#m55b75a86cb" y="170.870185"/>
     <use style="fill:#ff0000;stroke:#ff0000;" x="221.451795" xlink:href="#m55b75a86cb" y="139.041582"/>
     <use style="fill:#ff0000;stroke:#ff0000;" x="282.547586" xlink:href="#m55b75a86cb" y="140.198668"/>
     <use style="fill:#ff0000;stroke:#ff0000;" x="184.426796" xlink:href="#m55b75a86cb" y="149.112905"/>
     <use style="fill:#ff0000;stroke:#ff0000;" x="314.422659" xlink:href="#m55b75a86cb" y="137.578555"/>
     <use style="fill:#ff0000;stroke:#ff0000;" x="185.579761" xlink:href="#m55b75a86cb" y="154.951838"/>
     <use style="fill:#ff0000;stroke:#ff0000;" x="159.161596" xlink:href="#m55b75a86cb" y="147.638279"/>
     <use style="fill:#ff0000;stroke:#ff0000;" x="172.740765" xlink:href="#m55b75a86cb" y="173.80351"/>
     <use style="fill:#ff0000;stroke:#ff0000;" x="158.666984" xlink:href="#m55b75a86cb" y="171.139712"/>
     <use style="fill:#ff0000;stroke:#ff0000;" x="182.660598" xlink:href="#m55b75a86cb" y="130.962659"/>
     <use style="fill:#ff0000;stroke:#ff0000;" x="245.646676" xlink:href="#m55b75a86cb" y="215.19229"/>
     <use style="fill:#ff0000;stroke:#ff0000;" x="181.148028" xlink:href="#m55b75a86cb" y="228.300884"/>
     <use style="fill:#ff0000;stroke:#ff0000;" x="202.33458" xlink:href="#m55b75a86cb" y="187.083749"/>
     <use style="fill:#ff0000;stroke:#ff0000;" x="220.889481" xlink:href="#m55b75a86cb" y="169.020721"/>
     <use style="fill:#ff0000;stroke:#ff0000;" x="181.073829" xlink:href="#m55b75a86cb" y="196.233288"/>
     <use style="fill:#ff0000;stroke:#ff0000;" x="208.437421" xlink:href="#m55b75a86cb" y="130.679239"/>
     <use style="fill:#ff0000;stroke:#ff0000;" x="192.867388" xlink:href="#m55b75a86cb" y="197.052615"/>
     <use style="fill:#ff0000;stroke:#ff0000;" x="216.335388" xlink:href="#m55b75a86cb" y="127.481794"/>
     <use style="fill:#ff0000;stroke:#ff0000;" x="193.577949" xlink:href="#m55b75a86cb" y="186.624042"/>
     <use style="fill:#ff0000;stroke:#ff0000;" x="251.667445" xlink:href="#m55b75a86cb" y="111.543857"/>
     <use style="fill:#ff0000;stroke:#ff0000;" x="197.921586" xlink:href="#m55b75a86cb" y="218.59425"/>
     <use style="fill:#ff0000;stroke:#ff0000;" x="317.090123" xlink:href="#m55b75a86cb" y="123.860548"/>
     <use style="fill:#ff0000;stroke:#ff0000;" x="167.114998" xlink:href="#m55b75a86cb" y="186.917196"/>
     <use style="fill:#ff0000;stroke:#ff0000;" x="226.707958" xlink:href="#m55b75a86cb" y="141.205744"/>
     <use style="fill:#ff0000;stroke:#ff0000;" x="134.580615" xlink:href="#m55b75a86cb" y="206.322003"/>
     <use style="fill:#ff0000;stroke:#ff0000;" x="198.62049" xlink:href="#m55b75a86cb" y="160.995674"/>
     <use style="fill:#ff0000;stroke:#ff0000;" x="214.929157" xlink:href="#m55b75a86cb" y="147.664276"/>
     <use style="fill:#ff0000;stroke:#ff0000;" x="218.838854" xlink:href="#m55b75a86cb" y="173.369171"/>
     <use style="fill:#ff0000;stroke:#ff0000;" x="238.571245" xlink:href="#m55b75a86cb" y="197.370411"/>
     <use style="fill:#ff0000;stroke:#ff0000;" x="201.394746" xlink:href="#m55b75a86cb" y="117.135785"/>
     <use style="fill:#ff0000;stroke:#ff0000;" x="201.261538" xlink:href="#m55b75a86cb" y="181.38555"/>
     <use style="fill:#ff0000;stroke:#ff0000;" x="206.702115" xlink:href="#m55b75a86cb" y="124.110514"/>
     <use style="fill:#ff0000;stroke:#ff0000;" x="173.29626" xlink:href="#m55b75a86cb" y="178.347639"/>
     <use style="fill:#ff0000;stroke:#ff0000;" x="250.335922" xlink:href="#m55b75a86cb" y="158.157303"/>
     <use style="fill:#ff0000;stroke:#ff0000;" x="217.192443" xlink:href="#m55b75a86cb" y="150.172499"/>
     <use style="fill:#ff0000;stroke:#ff0000;" x="178.151268" xlink:href="#m55b75a86cb" y="159.173406"/>
     <use style="fill:#ff0000;stroke:#ff0000;" x="180.023738" xlink:href="#m55b75a86cb" y="187.198886"/>
     <use style="fill:#ff0000;stroke:#ff0000;" x="217.805639" xlink:href="#m55b75a86cb" y="139.686547"/>
     <use style="fill:#ff0000;stroke:#ff0000;" x="158.074912" xlink:href="#m55b75a86cb" y="155.911605"/>
     <use style="fill:#ff0000;stroke:#ff0000;" x="169.994917" xlink:href="#m55b75a86cb" y="176.340419"/>
     <use style="fill:#ff0000;stroke:#ff0000;" x="206.084959" xlink:href="#m55b75a86cb" y="180.734957"/>
     <use style="fill:#ff0000;stroke:#ff0000;" x="228.536668" xlink:href="#m55b75a86cb" y="167.48726"/>
     <use style="fill:#ff0000;stroke:#ff0000;" x="186.918271" xlink:href="#m55b75a86cb" y="167.114343"/>
     <use style="fill:#ff0000;stroke:#ff0000;" x="179.192934" xlink:href="#m55b75a86cb" y="205.434816"/>
     <use style="fill:#ff0000;stroke:#ff0000;" x="207.897813" xlink:href="#m55b75a86cb" y="148.835435"/>
     <use style="fill:#ff0000;stroke:#ff0000;" x="229.375892" xlink:href="#m55b75a86cb" y="137.000633"/>
     <use style="fill:#ff0000;stroke:#ff0000;" x="143.829276" xlink:href="#m55b75a86cb" y="140.426886"/>
     <use style="fill:#ff0000;stroke:#ff0000;" x="111.357105" xlink:href="#m55b75a86cb" y="231.705789"/>
     <use style="fill:#ff0000;stroke:#ff0000;" x="244.571438" xlink:href="#m55b75a86cb" y="130.212434"/>
     <use style="fill:#ff0000;stroke:#ff0000;" x="138.201669" xlink:href="#m55b75a86cb" y="176.095821"/>
     <use style="fill:#ff0000;stroke:#ff0000;" x="210.573653" xlink:href="#m55b75a86cb" y="149.712777"/>
     <use style="fill:#ff0000;stroke:#ff0000;" x="149.018926" xlink:href="#m55b75a86cb" y="235.424695"/>
     <use style="fill:#ff0000;stroke:#ff0000;" x="231.098723" xlink:href="#m55b75a86cb" y="139.740327"/>
     <use style="fill:#ff0000;stroke:#ff0000;" x="126.943851" xlink:href="#m55b75a86cb" y="161.14137"/>
     <use style="fill:#ff0000;stroke:#ff0000;" x="227.887739" xlink:href="#m55b75a86cb" y="183.933869"/>
     <use style="fill:#ff0000;stroke:#ff0000;" x="170.757684" xlink:href="#m55b75a86cb" y="179.408502"/>
     <use style="fill:#ff0000;stroke:#ff0000;" x="219.201721" xlink:href="#m55b75a86cb" y="218.617869"/>
     <use style="fill:#ff0000;stroke:#ff0000;" x="138.084955" xlink:href="#m55b75a86cb" y="166.864478"/>
     <use style="fill:#ff0000;stroke:#ff0000;" x="135.771817" xlink:href="#m55b75a86cb" y="231.725803"/>
     <use style="fill:#ff0000;stroke:#ff0000;" x="139.166594" xlink:href="#m55b75a86cb" y="205.979122"/>
     <use style="fill:#ff0000;stroke:#ff0000;" x="132.116142" xlink:href="#m55b75a86cb" y="184.869296"/>
     <use style="fill:#ff0000;stroke:#ff0000;" x="199.01515" xlink:href="#m55b75a86cb" y="212.404506"/>
     <use style="fill:#ff0000;stroke:#ff0000;" x="179.447327" xlink:href="#m55b75a86cb" y="172.087221"/>
     <use style="fill:#ff0000;stroke:#ff0000;" x="165.052177" xlink:href="#m55b75a86cb" y="177.65729"/>
     <use style="fill:#ff0000;stroke:#ff0000;" x="194.419547" xlink:href="#m55b75a86cb" y="157.922711"/>
     <use style="fill:#ff0000;stroke:#ff0000;" x="156.811614" xlink:href="#m55b75a86cb" y="136.750111"/>
     <use style="fill:#ff0000;stroke:#ff0000;" x="211.132033" xlink:href="#m55b75a86cb" y="142.862443"/>
     <use style="fill:#ff0000;stroke:#ff0000;" x="220.848824" xlink:href="#m55b75a86cb" y="153.323275"/>
     <use style="fill:#ff0000;stroke:#ff0000;" x="130.379129" xlink:href="#m55b75a86cb" y="204.69921"/>
     <use style="fill:#ff0000;stroke:#ff0000;" x="105.52272" xlink:href="#m55b75a86cb" y="242.693623"/>
     <use style="fill:#ff0000;stroke:#ff0000;" x="240.909195" xlink:href="#m55b75a86cb" y="132.485156"/>
     <use style="fill:#ff0000;stroke:#ff0000;" x="198.503941" xlink:href="#m55b75a86cb" y="215.440692"/>
     <use style="fill:#ff0000;stroke:#ff0000;" x="213.970606" xlink:href="#m55b75a86cb" y="144.054279"/>
     <use style="fill:#ff0000;stroke:#ff0000;" x="161.818825" xlink:href="#m55b75a86cb" y="151.282554"/>
     <use style="fill:#ff0000;stroke:#ff0000;" x="147.741571" xlink:href="#m55b75a86cb" y="107.778813"/>
     <use style="fill:#ff0000;stroke:#ff0000;" x="204.684511" xlink:href="#m55b75a86cb" y="97.761829"/>
     <use style="fill:#ff0000;stroke:#ff0000;" x="149.849687" xlink:href="#m55b75a86cb" y="159.446624"/>
     <use style="fill:#ff0000;stroke:#ff0000;" x="121.617918" xlink:href="#m55b75a86cb" y="199.501167"/>
     <use style="fill:#ff0000;stroke:#ff0000;" x="234.062023" xlink:href="#m55b75a86cb" y="114.787587"/>
     <use style="fill:#ff0000;stroke:#ff0000;" x="124.175" xlink:href="#m55b75a86cb" y="180.348322"/>
    </g>
   </g>
   <g id="PathCollection_2">
    <defs>
     <path d="M 0 0.866025 
C 0.229673 0.866025 0.449969 0.774776 0.612372 0.612372 
C 0.774776 0.449969 0.866025 0.229673 0.866025 0 
C 0.866025 -0.229673 0.774776 -0.449969 0.612372 -0.612372 
C 0.449969 -0.774776 0.229673 -0.866025 0 -0.866025 
C -0.229673 -0.866025 -0.449969 -0.774776 -0.612372 -0.612372 
C -0.774776 -0.449969 -0.866025 -0.229673 -0.866025 0 
C -0.866025 0.229673 -0.774776 0.449969 -0.612372 0.612372 
C -0.449969 0.774776 -0.229673 0.866025 0 0.866025 
z
" id="m0567b18839" style="stroke:#008000;"/>
    </defs>
    <g clip-path="url(#p8f0489fe87)">
     <use style="fill:#008000;stroke:#008000;" x="295.040907" xlink:href="#m0567b18839" y="148.827794"/>
     <use style="fill:#008000;stroke:#008000;" x="341.672576" xlink:href="#m0567b18839" y="102.36858"/>
     <use style="fill:#008000;stroke:#008000;" x="290.655144" xlink:href="#m0567b18839" y="132.589511"/>
     <use style="fill:#008000;stroke:#008000;" x="264.345543" xlink:href="#m0567b18839" y="143.66179"/>
     <use style="fill:#008000;stroke:#008000;" x="267.241948" xlink:href="#m0567b18839" y="187.653068"/>
     <use style="fill:#008000;stroke:#008000;" x="324.422849" xlink:href="#m0567b18839" y="161.513876"/>
     <use style="fill:#008000;stroke:#008000;" x="410.155791" xlink:href="#m0567b18839" y="113.667613"/>
     <use style="fill:#008000;stroke:#008000;" x="304.63507" xlink:href="#m0567b18839" y="169.767822"/>
     <use style="fill:#008000;stroke:#008000;" x="264.717848" xlink:href="#m0567b18839" y="156.163284"/>
     <use style="fill:#008000;stroke:#008000;" x="292.824828" xlink:href="#m0567b18839" y="177.136712"/>
     <use style="fill:#008000;stroke:#008000;" x="345.221629" xlink:href="#m0567b18839" y="68.772553"/>
     <use style="fill:#008000;stroke:#008000;" x="262.863906" xlink:href="#m0567b18839" y="171.310075"/>
     <use style="fill:#008000;stroke:#008000;" x="250.323583" xlink:href="#m0567b18839" y="127.043205"/>
     <use style="fill:#008000;stroke:#008000;" x="257.983176" xlink:href="#m0567b18839" y="146.87856"/>
     <use style="fill:#008000;stroke:#008000;" x="296.510369" xlink:href="#m0567b18839" y="146.617643"/>
     <use style="fill:#008000;stroke:#008000;" x="269.267496" xlink:href="#m0567b18839" y="227.52879"/>
     <use style="fill:#008000;stroke:#008000;" x="228.875005" xlink:href="#m0567b18839" y="190.665598"/>
     <use style="fill:#008000;stroke:#008000;" x="317.245013" xlink:href="#m0567b18839" y="174.21937"/>
     <use style="fill:#008000;stroke:#008000;" x="242.624913" xlink:href="#m0567b18839" y="169.598159"/>
     <use style="fill:#008000;stroke:#008000;" x="258.004576" xlink:href="#m0567b18839" y="175.524575"/>
     <use style="fill:#008000;stroke:#008000;" x="292.989658" xlink:href="#m0567b18839" y="87.256327"/>
     <use style="fill:#008000;stroke:#008000;" x="317.433119" xlink:href="#m0567b18839" y="181.144676"/>
     <use style="fill:#008000;stroke:#008000;" x="266.200028" xlink:href="#m0567b18839" y="224.444144"/>
     <use style="fill:#008000;stroke:#008000;" x="223.424406" xlink:href="#m0567b18839" y="116.198563"/>
     <use style="fill:#008000;stroke:#008000;" x="273.305428" xlink:href="#m0567b18839" y="185.093907"/>
     <use style="fill:#008000;stroke:#008000;" x="304.139733" xlink:href="#m0567b18839" y="151.128854"/>
     <use style="fill:#008000;stroke:#008000;" x="302.157976" xlink:href="#m0567b18839" y="143.419929"/>
     <use style="fill:#008000;stroke:#008000;" x="299.946939" xlink:href="#m0567b18839" y="121.151789"/>
     <use style="fill:#008000;stroke:#008000;" x="316.422527" xlink:href="#m0567b18839" y="154.192091"/>
     <use style="fill:#008000;stroke:#008000;" x="316.317969" xlink:href="#m0567b18839" y="136.18074"/>
     <use style="fill:#008000;stroke:#008000;" x="342.205754" xlink:href="#m0567b18839" y="203.012166"/>
     <use style="fill:#008000;stroke:#008000;" x="188.806511" xlink:href="#m0567b18839" y="158.643876"/>
     <use style="fill:#008000;stroke:#008000;" x="259.673567" xlink:href="#m0567b18839" y="230.879537"/>
     <use style="fill:#008000;stroke:#008000;" x="349.959369" xlink:href="#m0567b18839" y="177.644687"/>
     <use style="fill:#008000;stroke:#008000;" x="324.365204" xlink:href="#m0567b18839" y="176.281997"/>
     <use style="fill:#008000;stroke:#008000;" x="262.574994" xlink:href="#m0567b18839" y="157.521412"/>
     <use style="fill:#008000;stroke:#008000;" x="238.774492" xlink:href="#m0567b18839" y="162.882787"/>
     <use style="fill:#008000;stroke:#008000;" x="179.903689" xlink:href="#m0567b18839" y="187.768744"/>
     <use style="fill:#008000;stroke:#008000;" x="349.576703" xlink:href="#m0567b18839" y="138.268983"/>
     <use style="fill:#008000;stroke:#008000;" x="353.73268" xlink:href="#m0567b18839" y="175.577206"/>
     <use style="fill:#008000;stroke:#008000;" x="230.936331" xlink:href="#m0567b18839" y="201.980032"/>
     <use style="fill:#008000;stroke:#008000;" x="144.189207" xlink:href="#m0567b18839" y="197.932524"/>
     <use style="fill:#008000;stroke:#008000;" x="243.474704" xlink:href="#m0567b18839" y="176.956204"/>
     <use style="fill:#008000;stroke:#008000;" x="310.481364" xlink:href="#m0567b18839" y="134.005362"/>
     <use style="fill:#008000;stroke:#008000;" x="312.064119" xlink:href="#m0567b18839" y="167.757518"/>
     <use style="fill:#008000;stroke:#008000;" x="273.047742" xlink:href="#m0567b18839" y="185.684304"/>
     <use style="fill:#008000;stroke:#008000;" x="285.045796" xlink:href="#m0567b18839" y="139.935725"/>
     <use style="fill:#008000;stroke:#008000;" x="323.82166" xlink:href="#m0567b18839" y="130.057131"/>
     <use style="fill:#008000;stroke:#008000;" x="259.732759" xlink:href="#m0567b18839" y="125.670461"/>
     <use style="fill:#008000;stroke:#008000;" x="290.565204" xlink:href="#m0567b18839" y="167.404668"/>
     <use style="fill:#008000;stroke:#008000;" x="320.829324" xlink:href="#m0567b18839" y="204.436497"/>
     <use style="fill:#008000;stroke:#008000;" x="274.873822" xlink:href="#m0567b18839" y="182.829752"/>
     <use style="fill:#008000;stroke:#008000;" x="239.872305" xlink:href="#m0567b18839" y="197.057734"/>
     <use style="fill:#008000;stroke:#008000;" x="286.600613" xlink:href="#m0567b18839" y="181.988504"/>
     <use style="fill:#008000;stroke:#008000;" x="242.482805" xlink:href="#m0567b18839" y="216.432307"/>
     <use style="fill:#008000;stroke:#008000;" x="263.530163" xlink:href="#m0567b18839" y="222.488218"/>
     <use style="fill:#008000;stroke:#008000;" x="321.909095" xlink:href="#m0567b18839" y="159.693974"/>
     <use style="fill:#008000;stroke:#008000;" x="196.463588" xlink:href="#m0567b18839" y="182.854061"/>
     <use style="fill:#008000;stroke:#008000;" x="279.290331" xlink:href="#m0567b18839" y="191.089075"/>
     <use style="fill:#008000;stroke:#008000;" x="245.282092" xlink:href="#m0567b18839" y="198.294062"/>
     <use style="fill:#008000;stroke:#008000;" x="251.81128" xlink:href="#m0567b18839" y="180.153147"/>
     <use style="fill:#008000;stroke:#008000;" x="312.574397" xlink:href="#m0567b18839" y="186.741139"/>
     <use style="fill:#008000;stroke:#008000;" x="288.874621" xlink:href="#m0567b18839" y="146.104792"/>
     <use style="fill:#008000;stroke:#008000;" x="244.863893" xlink:href="#m0567b18839" y="225.873032"/>
     <use style="fill:#008000;stroke:#008000;" x="304.230635" xlink:href="#m0567b18839" y="130.448832"/>
     <use style="fill:#008000;stroke:#008000;" x="308.073548" xlink:href="#m0567b18839" y="136.962228"/>
     <use style="fill:#008000;stroke:#008000;" x="300.129027" xlink:href="#m0567b18839" y="183.064538"/>
     <use style="fill:#008000;stroke:#008000;" x="252.329294" xlink:href="#m0567b18839" y="222.671763"/>
     <use style="fill:#008000;stroke:#008000;" x="277.561119" xlink:href="#m0567b18839" y="129.989845"/>
     <use style="fill:#008000;stroke:#008000;" x="253.462299" xlink:href="#m0567b18839" y="135.826389"/>
     <use style="fill:#008000;stroke:#008000;" x="284.52218" xlink:href="#m0567b18839" y="151.515157"/>
     <use style="fill:#008000;stroke:#008000;" x="246.883164" xlink:href="#m0567b18839" y="168.19334"/>
     <use style="fill:#008000;stroke:#008000;" x="300.041157" xlink:href="#m0567b18839" y="173.355446"/>
     <use style="fill:#008000;stroke:#008000;" x="278.850622" xlink:href="#m0567b18839" y="148.501644"/>
     <use style="fill:#008000;stroke:#008000;" x="254.039636" xlink:href="#m0567b18839" y="122.396918"/>
     <use style="fill:#008000;stroke:#008000;" x="201.975312" xlink:href="#m0567b18839" y="185.425696"/>
     <use style="fill:#008000;stroke:#008000;" x="317.298436" xlink:href="#m0567b18839" y="146.392189"/>
     <use style="fill:#008000;stroke:#008000;" x="251.658504" xlink:href="#m0567b18839" y="139.929767"/>
     <use style="fill:#008000;stroke:#008000;" x="234.87698" xlink:href="#m0567b18839" y="193.417868"/>
     <use style="fill:#008000;stroke:#008000;" x="265.182967" xlink:href="#m0567b18839" y="208.082872"/>
     <use style="fill:#008000;stroke:#008000;" x="215.690661" xlink:href="#m0567b18839" y="244.335175"/>
     <use style="fill:#008000;stroke:#008000;" x="339.417866" xlink:href="#m0567b18839" y="119.374561"/>
     <use style="fill:#008000;stroke:#008000;" x="241.327834" xlink:href="#m0567b18839" y="184.063978"/>
     <use style="fill:#008000;stroke:#008000;" x="223.338184" xlink:href="#m0567b18839" y="204.135545"/>
     <use style="fill:#008000;stroke:#008000;" x="206.854165" xlink:href="#m0567b18839" y="185.632788"/>
     <use style="fill:#008000;stroke:#008000;" x="269.909069" xlink:href="#m0567b18839" y="126.805605"/>
     <use style="fill:#008000;stroke:#008000;" x="322.217751" xlink:href="#m0567b18839" y="168.785182"/>
     <use style="fill:#008000;stroke:#008000;" x="279.134935" xlink:href="#m0567b18839" y="204.938916"/>
     <use style="fill:#008000;stroke:#008000;" x="248.216547" xlink:href="#m0567b18839" y="164.859829"/>
     <use style="fill:#008000;stroke:#008000;" x="255.23756" xlink:href="#m0567b18839" y="217.373574"/>
     <use style="fill:#008000;stroke:#008000;" x="371.479996" xlink:href="#m0567b18839" y="153.727734"/>
     <use style="fill:#008000;stroke:#008000;" x="283.97953" xlink:href="#m0567b18839" y="211.32945"/>
     <use style="fill:#008000;stroke:#008000;" x="197.789401" xlink:href="#m0567b18839" y="166.466992"/>
     <use style="fill:#008000;stroke:#008000;" x="268.688175" xlink:href="#m0567b18839" y="226.948037"/>
     <use style="fill:#008000;stroke:#008000;" x="254.241075" xlink:href="#m0567b18839" y="208.503856"/>
     <use style="fill:#008000;stroke:#008000;" x="286.596566" xlink:href="#m0567b18839" y="140.403847"/>
     <use style="fill:#008000;stroke:#008000;" x="284.525981" xlink:href="#m0567b18839" y="211.681078"/>
     <use style="fill:#008000;stroke:#008000;" x="164.816514" xlink:href="#m0567b18839" y="169.142278"/>
     <use style="fill:#008000;stroke:#008000;" x="371.410219" xlink:href="#m0567b18839" y="183.174251"/>
     <use style="fill:#008000;stroke:#008000;" x="250.831395" xlink:href="#m0567b18839" y="182.067361"/>
     <use style="fill:#008000;stroke:#008000;" x="277.889651" xlink:href="#m0567b18839" y="145.774167"/>
     <use style="fill:#008000;stroke:#008000;" x="262.945833" xlink:href="#m0567b18839" y="155.760061"/>
     <use style="fill:#008000;stroke:#008000;" x="307.994612" xlink:href="#m0567b18839" y="153.029333"/>
     <use style="fill:#008000;stroke:#008000;" x="250.881902" xlink:href="#m0567b18839" y="138.538754"/>
     <use style="fill:#008000;stroke:#008000;" x="219.044224" xlink:href="#m0567b18839" y="187.442922"/>
     <use style="fill:#008000;stroke:#008000;" x="331.287957" xlink:href="#m0567b18839" y="166.731006"/>
     <use style="fill:#008000;stroke:#008000;" x="260.397622" xlink:href="#m0567b18839" y="160.845411"/>
     <use style="fill:#008000;stroke:#008000;" x="276.597708" xlink:href="#m0567b18839" y="184.938353"/>
     <use style="fill:#008000;stroke:#008000;" x="225.567888" xlink:href="#m0567b18839" y="189.559706"/>
     <use style="fill:#008000;stroke:#008000;" x="271.300657" xlink:href="#m0567b18839" y="135.001609"/>
     <use style="fill:#008000;stroke:#008000;" x="318.807162" xlink:href="#m0567b18839" y="156.657544"/>
     <use style="fill:#008000;stroke:#008000;" x="331.22256" xlink:href="#m0567b18839" y="190.056872"/>
     <use style="fill:#008000;stroke:#008000;" x="298.972896" xlink:href="#m0567b18839" y="185.476946"/>
     <use style="fill:#008000;stroke:#008000;" x="237.598212" xlink:href="#m0567b18839" y="173.327818"/>
     <use style="fill:#008000;stroke:#008000;" x="235.702137" xlink:href="#m0567b18839" y="130.126991"/>
     <use style="fill:#008000;stroke:#008000;" x="328.459666" xlink:href="#m0567b18839" y="160.886775"/>
     <use style="fill:#008000;stroke:#008000;" x="292.717744" xlink:href="#m0567b18839" y="206.867867"/>
     <use style="fill:#008000;stroke:#008000;" x="151.923082" xlink:href="#m0567b18839" y="206.482542"/>
     <use style="fill:#008000;stroke:#008000;" x="229.203238" xlink:href="#m0567b18839" y="213.433387"/>
     <use style="fill:#008000;stroke:#008000;" x="187.46026" xlink:href="#m0567b18839" y="151.506752"/>
     <use style="fill:#008000;stroke:#008000;" x="279.259476" xlink:href="#m0567b18839" y="190.548088"/>
     <use style="fill:#008000;stroke:#008000;" x="273.937382" xlink:href="#m0567b18839" y="136.192349"/>
     <use style="fill:#008000;stroke:#008000;" x="337.625443" xlink:href="#m0567b18839" y="118.55258"/>
     <use style="fill:#008000;stroke:#008000;" x="306.519574" xlink:href="#m0567b18839" y="131.962504"/>
     <use style="fill:#008000;stroke:#008000;" x="273.413901" xlink:href="#m0567b18839" y="177.359038"/>
     <use style="fill:#008000;stroke:#008000;" x="252.327336" xlink:href="#m0567b18839" y="176.7628"/>
     <use style="fill:#008000;stroke:#008000;" x="260.632535" xlink:href="#m0567b18839" y="191.574782"/>
     <use style="fill:#008000;stroke:#008000;" x="322.960946" xlink:href="#m0567b18839" y="197.56699"/>
     <use style="fill:#008000;stroke:#008000;" x="311.879014" xlink:href="#m0567b18839" y="133.613011"/>
     <use style="fill:#008000;stroke:#008000;" x="303.854297" xlink:href="#m0567b18839" y="166.666062"/>
     <use style="fill:#008000;stroke:#008000;" x="295.123518" xlink:href="#m0567b18839" y="179.99736"/>
     <use style="fill:#008000;stroke:#008000;" x="234.676611" xlink:href="#m0567b18839" y="181.483587"/>
     <use style="fill:#008000;stroke:#008000;" x="293.572757" xlink:href="#m0567b18839" y="191.975027"/>
     <use style="fill:#008000;stroke:#008000;" x="313.946342" xlink:href="#m0567b18839" y="173.331845"/>
     <use style="fill:#008000;stroke:#008000;" x="273.460847" xlink:href="#m0567b18839" y="151.81614"/>
     <use style="fill:#008000;stroke:#008000;" x="337.751579" xlink:href="#m0567b18839" y="151.418656"/>
     <use style="fill:#008000;stroke:#008000;" x="277.48249" xlink:href="#m0567b18839" y="144.670934"/>
     <use style="fill:#008000;stroke:#008000;" x="277.773725" xlink:href="#m0567b18839" y="121.437654"/>
     <use style="fill:#008000;stroke:#008000;" x="222.246042" xlink:href="#m0567b18839" y="245.407088"/>
     <use style="fill:#008000;stroke:#008000;" x="388.196114" xlink:href="#m0567b18839" y="159.038483"/>
     <use style="fill:#008000;stroke:#008000;" x="223.414998" xlink:href="#m0567b18839" y="176.328243"/>
     <use style="fill:#008000;stroke:#008000;" x="269.330251" xlink:href="#m0567b18839" y="217.069946"/>
     <use style="fill:#008000;stroke:#008000;" x="293.042678" xlink:href="#m0567b18839" y="219.022577"/>
     <use style="fill:#008000;stroke:#008000;" x="267.455486" xlink:href="#m0567b18839" y="183.266556"/>
     <use style="fill:#008000;stroke:#008000;" x="307.878867" xlink:href="#m0567b18839" y="175.957101"/>
     <use style="fill:#008000;stroke:#008000;" x="258.237634" xlink:href="#m0567b18839" y="139.528033"/>
     <use style="fill:#008000;stroke:#008000;" x="304.423023" xlink:href="#m0567b18839" y="175.239757"/>
     <use style="fill:#008000;stroke:#008000;" x="280.115473" xlink:href="#m0567b18839" y="225.553887"/>
     <use style="fill:#008000;stroke:#008000;" x="273.740116" xlink:href="#m0567b18839" y="165.516381"/>
     <use style="fill:#008000;stroke:#008000;" x="286.163324" xlink:href="#m0567b18839" y="170.860772"/>
     <use style="fill:#008000;stroke:#008000;" x="268.556446" xlink:href="#m0567b18839" y="200.970009"/>
     <use style="fill:#008000;stroke:#008000;" x="347.147024" xlink:href="#m0567b18839" y="187.856798"/>
     <use style="fill:#008000;stroke:#008000;" x="318.330271" xlink:href="#m0567b18839" y="161.293804"/>
     <use style="fill:#008000;stroke:#008000;" x="219.171425" xlink:href="#m0567b18839" y="195.64655"/>
     <use style="fill:#008000;stroke:#008000;" x="269.545048" xlink:href="#m0567b18839" y="199.723858"/>
     <use style="fill:#008000;stroke:#008000;" x="269.003337" xlink:href="#m0567b18839" y="143.699731"/>
     <use style="fill:#008000;stroke:#008000;" x="326.529292" xlink:href="#m0567b18839" y="182.942693"/>
     <use style="fill:#008000;stroke:#008000;" x="208.233097" xlink:href="#m0567b18839" y="199.689087"/>
     <use style="fill:#008000;stroke:#008000;" x="298.492022" xlink:href="#m0567b18839" y="219.801133"/>
     <use style="fill:#008000;stroke:#008000;" x="353.802236" xlink:href="#m0567b18839" y="176.470828"/>
     <use style="fill:#008000;stroke:#008000;" x="339.989253" xlink:href="#m0567b18839" y="167.089139"/>
     <use style="fill:#008000;stroke:#008000;" x="239.717022" xlink:href="#m0567b18839" y="142.326335"/>
     <use style="fill:#008000;stroke:#008000;" x="252.233792" xlink:href="#m0567b18839" y="147.913516"/>
     <use style="fill:#008000;stroke:#008000;" x="264.096897" xlink:href="#m0567b18839" y="181.209378"/>
     <use style="fill:#008000;stroke:#008000;" x="309.265641" xlink:href="#m0567b18839" y="182.332427"/>
     <use style="fill:#008000;stroke:#008000;" x="202.103061" xlink:href="#m0567b18839" y="270.449087"/>
     <use style="fill:#008000;stroke:#008000;" x="242.860902" xlink:href="#m0567b18839" y="181.793065"/>
     <use style="fill:#008000;stroke:#008000;" x="232.140961" xlink:href="#m0567b18839" y="183.97198"/>
     <use style="fill:#008000;stroke:#008000;" x="256.376372" xlink:href="#m0567b18839" y="188.111841"/>
     <use style="fill:#008000;stroke:#008000;" x="293.582706" xlink:href="#m0567b18839" y="158.025229"/>
     <use style="fill:#008000;stroke:#008000;" x="219.48217" xlink:href="#m0567b18839" y="176.934936"/>
     <use style="fill:#008000;stroke:#008000;" x="345.807993" xlink:href="#m0567b18839" y="174.145843"/>
     <use style="fill:#008000;stroke:#008000;" x="339.671767" xlink:href="#m0567b18839" y="161.899611"/>
     <use style="fill:#008000;stroke:#008000;" x="246.682495" xlink:href="#m0567b18839" y="170.514075"/>
     <use style="fill:#008000;stroke:#008000;" x="197.941655" xlink:href="#m0567b18839" y="200.323001"/>
     <use style="fill:#008000;stroke:#008000;" x="322.952743" xlink:href="#m0567b18839" y="154.873567"/>
     <use style="fill:#008000;stroke:#008000;" x="276.568464" xlink:href="#m0567b18839" y="171.451093"/>
     <use style="fill:#008000;stroke:#008000;" x="264.726117" xlink:href="#m0567b18839" y="161.625394"/>
     <use style="fill:#008000;stroke:#008000;" x="354.616306" xlink:href="#m0567b18839" y="143.162265"/>
     <use style="fill:#008000;stroke:#008000;" x="259.300347" xlink:href="#m0567b18839" y="193.753077"/>
     <use style="fill:#008000;stroke:#008000;" x="319.191171" xlink:href="#m0567b18839" y="144.443012"/>
     <use style="fill:#008000;stroke:#008000;" x="336.397508" xlink:href="#m0567b18839" y="89.908975"/>
     <use style="fill:#008000;stroke:#008000;" x="274.191749" xlink:href="#m0567b18839" y="178.189475"/>
     <use style="fill:#008000;stroke:#008000;" x="197.713098" xlink:href="#m0567b18839" y="215.906086"/>
     <use style="fill:#008000;stroke:#008000;" x="246.931738" xlink:href="#m0567b18839" y="140.132218"/>
     <use style="fill:#008000;stroke:#008000;" x="357.850917" xlink:href="#m0567b18839" y="123.749423"/>
     <use style="fill:#008000;stroke:#008000;" x="343.315333" xlink:href="#m0567b18839" y="147.55319"/>
     <use style="fill:#008000;stroke:#008000;" x="304.368064" xlink:href="#m0567b18839" y="148.102918"/>
     <use style="fill:#008000;stroke:#008000;" x="274.496362" xlink:href="#m0567b18839" y="139.97963"/>
     <use style="fill:#008000;stroke:#008000;" x="271.826916" xlink:href="#m0567b18839" y="217.997855"/>
     <use style="fill:#008000;stroke:#008000;" x="238.661544" xlink:href="#m0567b18839" y="216.927564"/>
     <use style="fill:#008000;stroke:#008000;" x="297.099949" xlink:href="#m0567b18839" y="219.722081"/>
     <use style="fill:#008000;stroke:#008000;" x="303.515868" xlink:href="#m0567b18839" y="147.51008"/>
     <use style="fill:#008000;stroke:#008000;" x="266.304941" xlink:href="#m0567b18839" y="185.28275"/>
     <use style="fill:#008000;stroke:#008000;" x="355.673413" xlink:href="#m0567b18839" y="110.819589"/>
     <use style="fill:#008000;stroke:#008000;" x="246.373945" xlink:href="#m0567b18839" y="174.423691"/>
     <use style="fill:#008000;stroke:#008000;" x="287.240142" xlink:href="#m0567b18839" y="134.24911"/>
     <use style="fill:#008000;stroke:#008000;" x="239.445398" xlink:href="#m0567b18839" y="225.634595"/>
     <use style="fill:#008000;stroke:#008000;" x="327.654997" xlink:href="#m0567b18839" y="168.192076"/>
     <use style="fill:#008000;stroke:#008000;" x="261.212008" xlink:href="#m0567b18839" y="211.703371"/>
    </g>
   </g>
   <g id="matplotlib.axis_1">
    <g id="xtick_1">
     <g id="line2d_1">
      <path clip-path="url(#p8f0489fe87)" d="M 81.9 378 
L 81.9 51.84 
" style="fill:none;stroke:#b0b0b0;stroke-linecap:square;stroke-width:0.8;"/>
     </g>
     <g id="line2d_2">
      <defs>
       <path d="M 0 0 
L 0 3.5 
" id="m276c619b9b" style="stroke:#000000;stroke-width:0.8;"/>
      </defs>
      <g>
       <use style="stroke:#000000;stroke-width:0.8;" x="81.9" xlink:href="#m276c619b9b" y="378"/>
      </g>
     </g>
     <g id="text_1">
      <!-- −4 -->
      <defs>
       <path d="M 10.59375 35.5 
L 73.1875 35.5 
L 73.1875 27.203125 
L 10.59375 27.203125 
z
" id="DejaVuSans-8722"/>
       <path d="M 37.796875 64.3125 
L 12.890625 25.390625 
L 37.796875 25.390625 
z
M 35.203125 72.90625 
L 47.609375 72.90625 
L 47.609375 25.390625 
L 58.015625 25.390625 
L 58.015625 17.1875 
L 47.609375 17.1875 
L 47.609375 0 
L 37.796875 0 
L 37.796875 17.1875 
L 4.890625 17.1875 
L 4.890625 26.703125 
z
" id="DejaVuSans-52"/>
      </defs>
      <g transform="translate(70.10625 397.1575)scale(0.16 -0.16)">
       <use xlink:href="#DejaVuSans-8722"/>
       <use x="83.789062" xlink:href="#DejaVuSans-52"/>
      </g>
     </g>
    </g>
    <g id="xtick_2">
     <g id="line2d_3">
      <path clip-path="url(#p8f0489fe87)" d="M 137.7 378 
L 137.7 51.84 
" style="fill:none;stroke:#b0b0b0;stroke-linecap:square;stroke-width:0.8;"/>
     </g>
     <g id="line2d_4">
      <g>
       <use style="stroke:#000000;stroke-width:0.8;" x="137.7" xlink:href="#m276c619b9b" y="378"/>
      </g>
     </g>
     <g id="text_2">
      <!-- −2 -->
      <defs>
       <path d="M 19.1875 8.296875 
L 53.609375 8.296875 
L 53.609375 0 
L 7.328125 0 
L 7.328125 8.296875 
Q 12.9375 14.109375 22.625 23.890625 
Q 32.328125 33.6875 34.8125 36.53125 
Q 39.546875 41.84375 41.421875 45.53125 
Q 43.3125 49.21875 43.3125 52.78125 
Q 43.3125 58.59375 39.234375 62.25 
Q 35.15625 65.921875 28.609375 65.921875 
Q 23.96875 65.921875 18.8125 64.3125 
Q 13.671875 62.703125 7.8125 59.421875 
L 7.8125 69.390625 
Q 13.765625 71.78125 18.9375 73 
Q 24.125 74.21875 28.421875 74.21875 
Q 39.75 74.21875 46.484375 68.546875 
Q 53.21875 62.890625 53.21875 53.421875 
Q 53.21875 48.921875 51.53125 44.890625 
Q 49.859375 40.875 45.40625 35.40625 
Q 44.1875 33.984375 37.640625 27.21875 
Q 31.109375 20.453125 19.1875 8.296875 
z
" id="DejaVuSans-50"/>
      </defs>
      <g transform="translate(125.90625 397.1575)scale(0.16 -0.16)">
       <use xlink:href="#DejaVuSans-8722"/>
       <use x="83.789062" xlink:href="#DejaVuSans-50"/>
      </g>
     </g>
    </g>
    <g id="xtick_3">
     <g id="line2d_5">
      <path clip-path="url(#p8f0489fe87)" d="M 193.5 378 
L 193.5 51.84 
" style="fill:none;stroke:#b0b0b0;stroke-linecap:square;stroke-width:0.8;"/>
     </g>
     <g id="line2d_6">
      <g>
       <use style="stroke:#000000;stroke-width:0.8;" x="193.5" xlink:href="#m276c619b9b" y="378"/>
      </g>
     </g>
     <g id="text_3">
      <!-- 0 -->
      <defs>
       <path d="M 31.78125 66.40625 
Q 24.171875 66.40625 20.328125 58.90625 
Q 16.5 51.421875 16.5 36.375 
Q 16.5 21.390625 20.328125 13.890625 
Q 24.171875 6.390625 31.78125 6.390625 
Q 39.453125 6.390625 43.28125 13.890625 
Q 47.125 21.390625 47.125 36.375 
Q 47.125 51.421875 43.28125 58.90625 
Q 39.453125 66.40625 31.78125 66.40625 
z
M 31.78125 74.21875 
Q 44.046875 74.21875 50.515625 64.515625 
Q 56.984375 54.828125 56.984375 36.375 
Q 56.984375 17.96875 50.515625 8.265625 
Q 44.046875 -1.421875 31.78125 -1.421875 
Q 19.53125 -1.421875 13.0625 8.265625 
Q 6.59375 17.96875 6.59375 36.375 
Q 6.59375 54.828125 13.0625 64.515625 
Q 19.53125 74.21875 31.78125 74.21875 
z
" id="DejaVuSans-48"/>
      </defs>
      <g transform="translate(188.41 397.1575)scale(0.16 -0.16)">
       <use xlink:href="#DejaVuSans-48"/>
      </g>
     </g>
    </g>
    <g id="xtick_4">
     <g id="line2d_7">
      <path clip-path="url(#p8f0489fe87)" d="M 249.3 378 
L 249.3 51.84 
" style="fill:none;stroke:#b0b0b0;stroke-linecap:square;stroke-width:0.8;"/>
     </g>
     <g id="line2d_8">
      <g>
       <use style="stroke:#000000;stroke-width:0.8;" x="249.3" xlink:href="#m276c619b9b" y="378"/>
      </g>
     </g>
     <g id="text_4">
      <!-- 2 -->
      <g transform="translate(244.21 397.1575)scale(0.16 -0.16)">
       <use xlink:href="#DejaVuSans-50"/>
      </g>
     </g>
    </g>
    <g id="xtick_5">
     <g id="line2d_9">
      <path clip-path="url(#p8f0489fe87)" d="M 305.1 378 
L 305.1 51.84 
" style="fill:none;stroke:#b0b0b0;stroke-linecap:square;stroke-width:0.8;"/>
     </g>
     <g id="line2d_10">
      <g>
       <use style="stroke:#000000;stroke-width:0.8;" x="305.1" xlink:href="#m276c619b9b" y="378"/>
      </g>
     </g>
     <g id="text_5">
      <!-- 4 -->
      <g transform="translate(300.01 397.1575)scale(0.16 -0.16)">
       <use xlink:href="#DejaVuSans-52"/>
      </g>
     </g>
    </g>
    <g id="xtick_6">
     <g id="line2d_11">
      <path clip-path="url(#p8f0489fe87)" d="M 360.9 378 
L 360.9 51.84 
" style="fill:none;stroke:#b0b0b0;stroke-linecap:square;stroke-width:0.8;"/>
     </g>
     <g id="line2d_12">
      <g>
       <use style="stroke:#000000;stroke-width:0.8;" x="360.9" xlink:href="#m276c619b9b" y="378"/>
      </g>
     </g>
     <g id="text_6">
      <!-- 6 -->
      <defs>
       <path d="M 33.015625 40.375 
Q 26.375 40.375 22.484375 35.828125 
Q 18.609375 31.296875 18.609375 23.390625 
Q 18.609375 15.53125 22.484375 10.953125 
Q 26.375 6.390625 33.015625 6.390625 
Q 39.65625 6.390625 43.53125 10.953125 
Q 47.40625 15.53125 47.40625 23.390625 
Q 47.40625 31.296875 43.53125 35.828125 
Q 39.65625 40.375 33.015625 40.375 
z
M 52.59375 71.296875 
L 52.59375 62.3125 
Q 48.875 64.0625 45.09375 64.984375 
Q 41.3125 65.921875 37.59375 65.921875 
Q 27.828125 65.921875 22.671875 59.328125 
Q 17.53125 52.734375 16.796875 39.40625 
Q 19.671875 43.65625 24.015625 45.921875 
Q 28.375 48.1875 33.59375 48.1875 
Q 44.578125 48.1875 50.953125 41.515625 
Q 57.328125 34.859375 57.328125 23.390625 
Q 57.328125 12.15625 50.6875 5.359375 
Q 44.046875 -1.421875 33.015625 -1.421875 
Q 20.359375 -1.421875 13.671875 8.265625 
Q 6.984375 17.96875 6.984375 36.375 
Q 6.984375 53.65625 15.1875 63.9375 
Q 23.390625 74.21875 37.203125 74.21875 
Q 40.921875 74.21875 44.703125 73.484375 
Q 48.484375 72.75 52.59375 71.296875 
z
" id="DejaVuSans-54"/>
      </defs>
      <g transform="translate(355.81 397.1575)scale(0.16 -0.16)">
       <use xlink:href="#DejaVuSans-54"/>
      </g>
     </g>
    </g>
   </g>
   <g id="matplotlib.axis_2">
    <g id="ytick_1">
     <g id="line2d_13">
      <path clip-path="url(#p8f0489fe87)" d="M 54 350.82 
L 388.8 350.82 
" style="fill:none;stroke:#b0b0b0;stroke-linecap:square;stroke-width:0.8;"/>
     </g>
     <g id="line2d_14">
      <defs>
       <path d="M 0 0 
L -3.5 0 
" id="mf2cc51198a" style="stroke:#000000;stroke-width:0.8;"/>
      </defs>
      <g>
       <use style="stroke:#000000;stroke-width:0.8;" x="54" xlink:href="#mf2cc51198a" y="350.82"/>
      </g>
     </g>
     <g id="text_7">
      <!-- −4 -->
      <g transform="translate(23.4125 356.89875)scale(0.16 -0.16)">
       <use xlink:href="#DejaVuSans-8722"/>
       <use x="83.789062" xlink:href="#DejaVuSans-52"/>
      </g>
     </g>
    </g>
    <g id="ytick_2">
     <g id="line2d_15">
      <path clip-path="url(#p8f0489fe87)" d="M 54 296.46 
L 388.8 296.46 
" style="fill:none;stroke:#b0b0b0;stroke-linecap:square;stroke-width:0.8;"/>
     </g>
     <g id="line2d_16">
      <g>
       <use style="stroke:#000000;stroke-width:0.8;" x="54" xlink:href="#mf2cc51198a" y="296.46"/>
      </g>
     </g>
     <g id="text_8">
      <!-- −2 -->
      <g transform="translate(23.4125 302.53875)scale(0.16 -0.16)">
       <use xlink:href="#DejaVuSans-8722"/>
       <use x="83.789062" xlink:href="#DejaVuSans-50"/>
      </g>
     </g>
    </g>
    <g id="ytick_3">
     <g id="line2d_17">
      <path clip-path="url(#p8f0489fe87)" d="M 54 242.1 
L 388.8 242.1 
" style="fill:none;stroke:#b0b0b0;stroke-linecap:square;stroke-width:0.8;"/>
     </g>
     <g id="line2d_18">
      <g>
       <use style="stroke:#000000;stroke-width:0.8;" x="54" xlink:href="#mf2cc51198a" y="242.1"/>
      </g>
     </g>
     <g id="text_9">
      <!-- 0 -->
      <g transform="translate(36.82 248.17875)scale(0.16 -0.16)">
       <use xlink:href="#DejaVuSans-48"/>
      </g>
     </g>
    </g>
    <g id="ytick_4">
     <g id="line2d_19">
      <path clip-path="url(#p8f0489fe87)" d="M 54 187.74 
L 388.8 187.74 
" style="fill:none;stroke:#b0b0b0;stroke-linecap:square;stroke-width:0.8;"/>
     </g>
     <g id="line2d_20">
      <g>
       <use style="stroke:#000000;stroke-width:0.8;" x="54" xlink:href="#mf2cc51198a" y="187.74"/>
      </g>
     </g>
     <g id="text_10">
      <!-- 2 -->
      <g transform="translate(36.82 193.81875)scale(0.16 -0.16)">
       <use xlink:href="#DejaVuSans-50"/>
      </g>
     </g>
    </g>
    <g id="ytick_5">
     <g id="line2d_21">
      <path clip-path="url(#p8f0489fe87)" d="M 54 133.38 
L 388.8 133.38 
" style="fill:none;stroke:#b0b0b0;stroke-linecap:square;stroke-width:0.8;"/>
     </g>
     <g id="line2d_22">
      <g>
       <use style="stroke:#000000;stroke-width:0.8;" x="54" xlink:href="#mf2cc51198a" y="133.38"/>
      </g>
     </g>
     <g id="text_11">
      <!-- 4 -->
      <g transform="translate(36.82 139.45875)scale(0.16 -0.16)">
       <use xlink:href="#DejaVuSans-52"/>
      </g>
     </g>
    </g>
    <g id="ytick_6">
     <g id="line2d_23">
      <path clip-path="url(#p8f0489fe87)" d="M 54 79.02 
L 388.8 79.02 
" style="fill:none;stroke:#b0b0b0;stroke-linecap:square;stroke-width:0.8;"/>
     </g>
     <g id="line2d_24">
      <g>
       <use style="stroke:#000000;stroke-width:0.8;" x="54" xlink:href="#mf2cc51198a" y="79.02"/>
      </g>
     </g>
     <g id="text_12">
      <!-- 6 -->
      <g transform="translate(36.82 85.09875)scale(0.16 -0.16)">
       <use xlink:href="#DejaVuSans-54"/>
      </g>
     </g>
    </g>
   </g>
   <g id="LineCollection_1"/>
   <g id="LineCollection_2">
    <path clip-path="url(#p8f0489fe87)" d="M 133.160481 204.466154 
L 131.004285 196.103077 
L 130.803073 187.74 
L 132.023809 179.376923 
L 134.550441 171.013846 
L 135.422449 169.062004 
L 137.993147 162.650769 
L 142.255102 155.046955 
L 142.658683 154.287692 
L 148.209479 145.924615 
L 149.087755 144.794237 
L 154.914856 137.561538 
L 155.920408 136.435627 
L 162.753061 129.406259 
L 162.97286 129.198462 
L 169.585714 123.136646 
L 172.561509 120.835385 
L 176.418367 117.751666 
L 183.25102 113.272083 
L 184.691192 112.472308 
L 190.083673 109.148151 
L 196.916327 105.898871 
L 201.832363 104.109231 
L 203.74898 103.277866 
L 210.581633 101.113314 
L 217.414286 99.790819 
L 224.246939 99.299771 
L 231.079592 99.767845 
L 237.912245 101.504603 
L 243.105825 104.109231 
L 244.744898 105.131807 
L 251.577551 112.318233 
L 251.685078 112.472308 
L 255.217323 120.835385 
L 256.295572 129.198462 
L 255.748959 137.561538 
L 253.881935 145.924615 
L 251.577551 151.990874 
L 250.80779 154.287692 
L 246.849389 162.650769 
L 244.744898 166.064439 
L 241.801379 171.013846 
L 237.912245 176.331468 
L 235.641763 179.376923 
L 231.079592 184.725545 
L 228.309378 187.74 
L 224.246939 191.874541 
L 219.514473 196.103077 
L 217.414286 197.975353 
L 210.581633 203.258006 
L 208.753225 204.466154 
L 203.74898 208.00863 
L 196.916327 211.829976 
L 194.727705 212.829231 
L 190.083673 215.267796 
L 183.25102 217.981214 
L 176.418367 219.904835 
L 169.585714 221.127834 
L 168.640402 221.192308 
L 162.753061 221.696329 
L 155.920408 221.227894 
L 155.767154 221.192308 
L 149.087755 219.573702 
L 142.255102 215.990586 
L 138.620357 212.829231 
L 135.422449 208.532796 
L 133.160481 204.466154 
" style="fill:none;stroke:#57106e;stroke-width:1.5;"/>
   </g>
   <g id="LineCollection_3">
    <path clip-path="url(#p8f0489fe87)" d="M 152.289997 187.74 
L 151.439947 179.376923 
L 152.838996 171.013846 
L 155.920408 162.837034 
L 155.988117 162.650769 
L 160.639178 154.287692 
L 162.753061 151.376595 
L 166.920137 145.924615 
L 169.585714 142.994886 
L 175.100766 137.561538 
L 176.418367 136.379725 
L 183.25102 131.079798 
L 186.192766 129.198462 
L 190.083673 126.755952 
L 196.916327 123.454157 
L 203.74898 121.093787 
L 205.113292 120.835385 
L 210.581633 119.739053 
L 217.414286 119.664436 
L 222.606882 120.835385 
L 224.246939 121.33106 
L 231.079592 126.537575 
L 233.035481 129.198462 
L 235.477952 137.561538 
L 235.09423 145.924615 
L 232.798396 154.287692 
L 231.079592 157.910366 
L 228.878052 162.650769 
L 224.246939 169.778964 
L 223.414678 171.013846 
L 217.414286 178.121923 
L 216.248605 179.376923 
L 210.581633 184.707376 
L 206.814965 187.74 
L 203.74898 190.073771 
L 196.916327 194.328606 
L 193.273745 196.103077 
L 190.083673 197.686524 
L 183.25102 200.049339 
L 176.418367 201.348788 
L 169.585714 201.395189 
L 162.753061 199.677084 
L 157.160879 196.103077 
L 155.920408 194.671451 
L 152.289997 187.74 
" style="fill:none;stroke:#bc3754;stroke-width:1.5;"/>
   </g>
   <g id="LineCollection_4">
    <path clip-path="url(#p8f0489fe87)" d="M 174.088745 179.376923 
L 171.054913 171.013846 
L 173.112823 162.650769 
L 176.418367 156.89779 
L 178.096857 154.287692 
L 183.25102 148.893728 
L 186.676199 145.924615 
L 190.083673 143.579952 
L 196.916327 140.316165 
L 203.74898 138.743729 
L 210.581633 140.26689 
L 215.392419 145.924615 
L 215.318702 154.287692 
L 211.834493 162.650769 
L 210.581633 164.394587 
L 205.236876 171.013846 
L 203.74898 172.407841 
L 196.916327 177.53544 
L 193.529188 179.376923 
L 190.083673 180.935104 
L 183.25102 182.249858 
L 176.418367 181.048315 
L 174.088745 179.376923 
" style="fill:none;stroke:#f98e09;stroke-width:1.5;"/>
   </g>
   <g id="LineCollection_5"/>
   <g id="LineCollection_6"/>
   <g id="LineCollection_7">
    <path clip-path="url(#p8f0489fe87)" d="M 215.238053 212.829231 
L 214.373252 204.466154 
L 215.121053 196.103077 
L 217.258506 187.74 
L 217.414286 187.353268 
L 220.246334 179.376923 
L 224.246939 171.628102 
L 224.542304 171.013846 
L 229.653685 162.650769 
L 231.079592 160.717827 
L 235.910152 154.287692 
L 237.912245 151.94192 
L 243.438858 145.924615 
L 244.744898 144.587003 
L 251.577551 138.279894 
L 252.450657 137.561538 
L 258.410204 132.606567 
L 263.460247 129.198462 
L 265.242857 127.903739 
L 272.07551 123.689619 
L 278.066725 120.835385 
L 278.908163 120.372349 
L 285.740816 117.328853 
L 292.573469 115.164347 
L 299.406122 113.746823 
L 306.238776 113.065194 
L 313.071429 113.237282 
L 319.904082 114.553402 
L 326.736735 117.575605 
L 330.999846 120.835385 
L 333.569388 123.693974 
L 337.079668 129.198462 
L 339.507737 137.561538 
L 339.886494 145.924615 
L 338.85377 154.287692 
L 336.60035 162.650769 
L 333.569388 169.766045 
L 333.091891 171.013846 
L 328.768836 179.376923 
L 326.736735 182.467791 
L 323.331991 187.74 
L 319.904082 192.176661 
L 316.755302 196.103077 
L 313.071429 200.220708 
L 308.904634 204.466154 
L 306.238776 207.067405 
L 299.406122 212.818015 
L 299.391398 212.829231 
L 292.573469 218.171593 
L 287.723615 221.192308 
L 285.740816 222.545155 
L 278.908163 226.442995 
L 272.07551 229.397915 
L 271.612388 229.555385 
L 265.242857 232.124436 
L 258.410204 234.007008 
L 251.577551 235.097801 
L 244.744898 235.364816 
L 237.912245 234.631157 
L 231.079592 232.516039 
L 225.991444 229.555385 
L 224.246939 228.229095 
L 218.405219 221.192308 
L 217.414286 218.888506 
L 215.238053 212.829231 
" style="fill:none;stroke:#3b528b;stroke-width:1.5;"/>
   </g>
   <g id="LineCollection_8">
    <path clip-path="url(#p8f0489fe87)" d="M 237.084745 204.466154 
L 235.134422 196.103077 
L 235.787753 187.74 
L 237.912245 180.809605 
L 238.32825 179.376923 
L 242.404996 171.013846 
L 244.744898 167.491902 
L 248.069425 162.650769 
L 251.577551 158.503765 
L 255.484778 154.287692 
L 258.410204 151.497165 
L 265.199198 145.924615 
L 265.242857 145.890434 
L 272.07551 141.339543 
L 278.908163 137.803398 
L 279.547383 137.561538 
L 285.740816 135.150096 
L 292.573469 133.569745 
L 299.406122 133.181748 
L 306.238776 134.37184 
L 312.406792 137.561538 
L 313.071429 138.129677 
L 318.096206 145.924615 
L 319.309482 154.287692 
L 318.124741 162.650769 
L 315.214144 171.013846 
L 313.071429 174.992544 
L 310.717845 179.376923 
L 306.238776 185.633639 
L 304.645838 187.74 
L 299.406122 193.479078 
L 296.721704 196.103077 
L 292.573469 199.757073 
L 286.212602 204.466154 
L 285.740816 204.805554 
L 278.908163 208.864805 
L 272.07551 211.92531 
L 269.127334 212.829231 
L 265.242857 214.078016 
L 258.410204 215.112961 
L 251.577551 214.801322 
L 245.270234 212.829231 
L 244.744898 212.594781 
L 237.912245 205.825159 
L 237.084745 204.466154 
" style="fill:none;stroke:#21918c;stroke-width:1.5;"/>
   </g>
   <g id="LineCollection_9">
    <path clip-path="url(#p8f0489fe87)" d="M 255.089372 187.74 
L 255.670189 179.376923 
L 258.410204 173.276192 
L 259.526322 171.013846 
L 265.242857 164.003544 
L 266.549568 162.650769 
L 272.07551 158.374632 
L 278.881791 154.287692 
L 278.908163 154.274177 
L 285.740816 152.51819 
L 292.573469 152.904962 
L 295.278312 154.287692 
L 299.406122 161.257841 
L 299.782484 162.650769 
L 299.406122 164.577379 
L 298.075711 171.013846 
L 293.477498 179.376923 
L 292.573469 180.46823 
L 285.740816 187.663389 
L 285.648829 187.74 
L 278.908163 192.045374 
L 272.07551 195.093232 
L 265.807088 196.103077 
L 265.242857 196.179996 
L 264.866697 196.103077 
L 258.410204 193.243589 
L 255.089372 187.74 
" style="fill:none;stroke:#5ec962;stroke-width:1.5;"/>
   </g>
   <g id="LineCollection_10"/>
   <g id="line2d_25">
    <path clip-path="url(#p8f0489fe87)" d="M 54 158.469231 
L 60.832653 162.565432 
L 67.665306 166.661633 
L 74.497959 170.757834 
L 81.330612 174.854035 
L 88.163265 178.950235 
L 94.995918 183.046436 
L 101.828571 187.142637 
L 108.661224 191.238838 
L 115.493878 195.335039 
L 122.326531 199.43124 
L 129.159184 203.527441 
L 135.991837 207.623642 
L 142.82449 211.719843 
L 149.657143 215.816044 
L 156.489796 219.912245 
L 163.322449 224.008446 
L 170.155102 228.104647 
L 176.987755 232.200848 
L 183.820408 236.297049 
L 190.653061 240.39325 
L 197.485714 244.489451 
L 204.318367 248.585651 
L 211.15102 252.681852 
L 217.983673 256.778053 
L 224.816327 260.874254 
L 231.64898 264.970455 
L 238.481633 269.066656 
L 245.314286 273.162857 
L 252.146939 277.259058 
L 258.979592 281.355259 
L 265.812245 285.45146 
L 272.644898 289.547661 
L 279.477551 293.643862 
L 286.310204 297.740063 
L 293.142857 301.836264 
L 299.97551 305.932465 
L 306.808163 310.028666 
L 313.640816 314.124867 
L 320.473469 318.221068 
L 327.306122 322.317268 
L 334.138776 326.413469 
L 340.971429 330.50967 
L 347.804082 334.605871 
L 354.636735 338.702072 
L 361.469388 342.798273 
L 368.302041 346.894474 
L 375.134694 350.990675 
L 381.967347 355.086876 
L 388.8 359.183077 
" style="fill:none;stroke:#1f77b4;stroke-linecap:square;stroke-width:1.5;"/>
   </g>
   <g id="patch_3">
    <path d="M 54 378 
L 54 51.84 
" style="fill:none;stroke:#000000;stroke-linecap:square;stroke-linejoin:miter;stroke-width:0.8;"/>
   </g>
   <g id="patch_4">
    <path d="M 54 378 
L 388.8 378 
" style="fill:none;stroke:#000000;stroke-linecap:square;stroke-linejoin:miter;stroke-width:0.8;"/>
   </g>
   <g id="legend_1">
    <g id="patch_5">
     <path d="M 62.4 372 
L 272.030625 372 
Q 274.430625 372 274.430625 369.6 
L 274.430625 317.95875 
Q 274.430625 315.55875 272.030625 315.55875 
L 62.4 315.55875 
Q 60 315.55875 60 317.95875 
L 60 369.6 
Q 60 372 62.4 372 
z
" style="fill:#ffffff;opacity:0.8;stroke:#cccccc;stroke-linejoin:miter;"/>
    </g>
    <g id="line2d_26">
     <path d="M 64.8 325.276875 
L 88.8 325.276875 
" style="fill:none;stroke:#1f77b4;stroke-linecap:square;stroke-width:1.5;"/>
    </g>
    <g id="line2d_27"/>
    <g id="text_13">
     <!-- Fisher discriminant direction -->
     <defs>
      <path d="M 9.8125 72.90625 
L 51.703125 72.90625 
L 51.703125 64.59375 
L 19.671875 64.59375 
L 19.671875 43.109375 
L 48.578125 43.109375 
L 48.578125 34.8125 
L 19.671875 34.8125 
L 19.671875 0 
L 9.8125 0 
z
" id="DejaVuSans-70"/>
      <path d="M 9.421875 54.6875 
L 18.40625 54.6875 
L 18.40625 0 
L 9.421875 0 
z
M 9.421875 75.984375 
L 18.40625 75.984375 
L 18.40625 64.59375 
L 9.421875 64.59375 
z
" id="DejaVuSans-105"/>
      <path d="M 44.28125 53.078125 
L 44.28125 44.578125 
Q 40.484375 46.53125 36.375 47.5 
Q 32.28125 48.484375 27.875 48.484375 
Q 21.1875 48.484375 17.84375 46.4375 
Q 14.5 44.390625 14.5 40.28125 
Q 14.5 37.15625 16.890625 35.375 
Q 19.28125 33.59375 26.515625 31.984375 
L 29.59375 31.296875 
Q 39.15625 29.25 43.1875 25.515625 
Q 47.21875 21.78125 47.21875 15.09375 
Q 47.21875 7.46875 41.1875 3.015625 
Q 35.15625 -1.421875 24.609375 -1.421875 
Q 20.21875 -1.421875 15.453125 -0.5625 
Q 10.6875 0.296875 5.421875 2 
L 5.421875 11.28125 
Q 10.40625 8.6875 15.234375 7.390625 
Q 20.0625 6.109375 24.8125 6.109375 
Q 31.15625 6.109375 34.5625 8.28125 
Q 37.984375 10.453125 37.984375 14.40625 
Q 37.984375 18.0625 35.515625 20.015625 
Q 33.0625 21.96875 24.703125 23.78125 
L 21.578125 24.515625 
Q 13.234375 26.265625 9.515625 29.90625 
Q 5.8125 33.546875 5.8125 39.890625 
Q 5.8125 47.609375 11.28125 51.796875 
Q 16.75 56 26.8125 56 
Q 31.78125 56 36.171875 55.265625 
Q 40.578125 54.546875 44.28125 53.078125 
z
" id="DejaVuSans-115"/>
      <path d="M 54.890625 33.015625 
L 54.890625 0 
L 45.90625 0 
L 45.90625 32.71875 
Q 45.90625 40.484375 42.875 44.328125 
Q 39.84375 48.1875 33.796875 48.1875 
Q 26.515625 48.1875 22.3125 43.546875 
Q 18.109375 38.921875 18.109375 30.90625 
L 18.109375 0 
L 9.078125 0 
L 9.078125 75.984375 
L 18.109375 75.984375 
L 18.109375 46.1875 
Q 21.34375 51.125 25.703125 53.5625 
Q 30.078125 56 35.796875 56 
Q 45.21875 56 50.046875 50.171875 
Q 54.890625 44.34375 54.890625 33.015625 
z
" id="DejaVuSans-104"/>
      <path d="M 56.203125 29.59375 
L 56.203125 25.203125 
L 14.890625 25.203125 
Q 15.484375 15.921875 20.484375 11.0625 
Q 25.484375 6.203125 34.421875 6.203125 
Q 39.59375 6.203125 44.453125 7.46875 
Q 49.3125 8.734375 54.109375 11.28125 
L 54.109375 2.78125 
Q 49.265625 0.734375 44.1875 -0.34375 
Q 39.109375 -1.421875 33.890625 -1.421875 
Q 20.796875 -1.421875 13.15625 6.1875 
Q 5.515625 13.8125 5.515625 26.8125 
Q 5.515625 40.234375 12.765625 48.109375 
Q 20.015625 56 32.328125 56 
Q 43.359375 56 49.78125 48.890625 
Q 56.203125 41.796875 56.203125 29.59375 
z
M 47.21875 32.234375 
Q 47.125 39.59375 43.09375 43.984375 
Q 39.0625 48.390625 32.421875 48.390625 
Q 24.90625 48.390625 20.390625 44.140625 
Q 15.875 39.890625 15.1875 32.171875 
z
" id="DejaVuSans-101"/>
      <path d="M 41.109375 46.296875 
Q 39.59375 47.171875 37.8125 47.578125 
Q 36.03125 48 33.890625 48 
Q 26.265625 48 22.1875 43.046875 
Q 18.109375 38.09375 18.109375 28.8125 
L 18.109375 0 
L 9.078125 0 
L 9.078125 54.6875 
L 18.109375 54.6875 
L 18.109375 46.1875 
Q 20.953125 51.171875 25.484375 53.578125 
Q 30.03125 56 36.53125 56 
Q 37.453125 56 38.578125 55.875 
Q 39.703125 55.765625 41.0625 55.515625 
z
" id="DejaVuSans-114"/>
      <path id="DejaVuSans-32"/>
      <path d="M 45.40625 46.390625 
L 45.40625 75.984375 
L 54.390625 75.984375 
L 54.390625 0 
L 45.40625 0 
L 45.40625 8.203125 
Q 42.578125 3.328125 38.25 0.953125 
Q 33.9375 -1.421875 27.875 -1.421875 
Q 17.96875 -1.421875 11.734375 6.484375 
Q 5.515625 14.40625 5.515625 27.296875 
Q 5.515625 40.1875 11.734375 48.09375 
Q 17.96875 56 27.875 56 
Q 33.9375 56 38.25 53.625 
Q 42.578125 51.265625 45.40625 46.390625 
z
M 14.796875 27.296875 
Q 14.796875 17.390625 18.875 11.75 
Q 22.953125 6.109375 30.078125 6.109375 
Q 37.203125 6.109375 41.296875 11.75 
Q 45.40625 17.390625 45.40625 27.296875 
Q 45.40625 37.203125 41.296875 42.84375 
Q 37.203125 48.484375 30.078125 48.484375 
Q 22.953125 48.484375 18.875 42.84375 
Q 14.796875 37.203125 14.796875 27.296875 
z
" id="DejaVuSans-100"/>
      <path d="M 48.78125 52.59375 
L 48.78125 44.1875 
Q 44.96875 46.296875 41.140625 47.34375 
Q 37.3125 48.390625 33.40625 48.390625 
Q 24.65625 48.390625 19.8125 42.84375 
Q 14.984375 37.3125 14.984375 27.296875 
Q 14.984375 17.28125 19.8125 11.734375 
Q 24.65625 6.203125 33.40625 6.203125 
Q 37.3125 6.203125 41.140625 7.25 
Q 44.96875 8.296875 48.78125 10.40625 
L 48.78125 2.09375 
Q 45.015625 0.34375 40.984375 -0.53125 
Q 36.96875 -1.421875 32.421875 -1.421875 
Q 20.0625 -1.421875 12.78125 6.34375 
Q 5.515625 14.109375 5.515625 27.296875 
Q 5.515625 40.671875 12.859375 48.328125 
Q 20.21875 56 33.015625 56 
Q 37.15625 56 41.109375 55.140625 
Q 45.0625 54.296875 48.78125 52.59375 
z
" id="DejaVuSans-99"/>
      <path d="M 52 44.1875 
Q 55.375 50.25 60.0625 53.125 
Q 64.75 56 71.09375 56 
Q 79.640625 56 84.28125 50.015625 
Q 88.921875 44.046875 88.921875 33.015625 
L 88.921875 0 
L 79.890625 0 
L 79.890625 32.71875 
Q 79.890625 40.578125 77.09375 44.375 
Q 74.3125 48.1875 68.609375 48.1875 
Q 61.625 48.1875 57.5625 43.546875 
Q 53.515625 38.921875 53.515625 30.90625 
L 53.515625 0 
L 44.484375 0 
L 44.484375 32.71875 
Q 44.484375 40.625 41.703125 44.40625 
Q 38.921875 48.1875 33.109375 48.1875 
Q 26.21875 48.1875 22.15625 43.53125 
Q 18.109375 38.875 18.109375 30.90625 
L 18.109375 0 
L 9.078125 0 
L 9.078125 54.6875 
L 18.109375 54.6875 
L 18.109375 46.1875 
Q 21.1875 51.21875 25.484375 53.609375 
Q 29.78125 56 35.6875 56 
Q 41.65625 56 45.828125 52.96875 
Q 50 49.953125 52 44.1875 
z
" id="DejaVuSans-109"/>
      <path d="M 54.890625 33.015625 
L 54.890625 0 
L 45.90625 0 
L 45.90625 32.71875 
Q 45.90625 40.484375 42.875 44.328125 
Q 39.84375 48.1875 33.796875 48.1875 
Q 26.515625 48.1875 22.3125 43.546875 
Q 18.109375 38.921875 18.109375 30.90625 
L 18.109375 0 
L 9.078125 0 
L 9.078125 54.6875 
L 18.109375 54.6875 
L 18.109375 46.1875 
Q 21.34375 51.125 25.703125 53.5625 
Q 30.078125 56 35.796875 56 
Q 45.21875 56 50.046875 50.171875 
Q 54.890625 44.34375 54.890625 33.015625 
z
" id="DejaVuSans-110"/>
      <path d="M 34.28125 27.484375 
Q 23.390625 27.484375 19.1875 25 
Q 14.984375 22.515625 14.984375 16.5 
Q 14.984375 11.71875 18.140625 8.90625 
Q 21.296875 6.109375 26.703125 6.109375 
Q 34.1875 6.109375 38.703125 11.40625 
Q 43.21875 16.703125 43.21875 25.484375 
L 43.21875 27.484375 
z
M 52.203125 31.203125 
L 52.203125 0 
L 43.21875 0 
L 43.21875 8.296875 
Q 40.140625 3.328125 35.546875 0.953125 
Q 30.953125 -1.421875 24.3125 -1.421875 
Q 15.921875 -1.421875 10.953125 3.296875 
Q 6 8.015625 6 15.921875 
Q 6 25.140625 12.171875 29.828125 
Q 18.359375 34.515625 30.609375 34.515625 
L 43.21875 34.515625 
L 43.21875 35.40625 
Q 43.21875 41.609375 39.140625 45 
Q 35.0625 48.390625 27.6875 48.390625 
Q 23 48.390625 18.546875 47.265625 
Q 14.109375 46.140625 10.015625 43.890625 
L 10.015625 52.203125 
Q 14.9375 54.109375 19.578125 55.046875 
Q 24.21875 56 28.609375 56 
Q 40.484375 56 46.34375 49.84375 
Q 52.203125 43.703125 52.203125 31.203125 
z
" id="DejaVuSans-97"/>
      <path d="M 18.3125 70.21875 
L 18.3125 54.6875 
L 36.8125 54.6875 
L 36.8125 47.703125 
L 18.3125 47.703125 
L 18.3125 18.015625 
Q 18.3125 11.328125 20.140625 9.421875 
Q 21.96875 7.515625 27.59375 7.515625 
L 36.8125 7.515625 
L 36.8125 0 
L 27.59375 0 
Q 17.1875 0 13.234375 3.875 
Q 9.28125 7.765625 9.28125 18.015625 
L 9.28125 47.703125 
L 2.6875 47.703125 
L 2.6875 54.6875 
L 9.28125 54.6875 
L 9.28125 70.21875 
z
" id="DejaVuSans-116"/>
      <path d="M 30.609375 48.390625 
Q 23.390625 48.390625 19.1875 42.75 
Q 14.984375 37.109375 14.984375 27.296875 
Q 14.984375 17.484375 19.15625 11.84375 
Q 23.34375 6.203125 30.609375 6.203125 
Q 37.796875 6.203125 41.984375 11.859375 
Q 46.1875 17.53125 46.1875 27.296875 
Q 46.1875 37.015625 41.984375 42.703125 
Q 37.796875 48.390625 30.609375 48.390625 
z
M 30.609375 56 
Q 42.328125 56 49.015625 48.375 
Q 55.71875 40.765625 55.71875 27.296875 
Q 55.71875 13.875 49.015625 6.21875 
Q 42.328125 -1.421875 30.609375 -1.421875 
Q 18.84375 -1.421875 12.171875 6.21875 
Q 5.515625 13.875 5.515625 27.296875 
Q 5.515625 40.765625 12.171875 48.375 
Q 18.84375 56 30.609375 56 
z
" id="DejaVuSans-111"/>
     </defs>
     <g transform="translate(98.4 329.476875)scale(0.12 -0.12)">
      <use xlink:href="#DejaVuSans-70"/>
      <use x="57.410156" xlink:href="#DejaVuSans-105"/>
      <use x="85.193359" xlink:href="#DejaVuSans-115"/>
      <use x="137.292969" xlink:href="#DejaVuSans-104"/>
      <use x="200.671875" xlink:href="#DejaVuSans-101"/>
      <use x="262.195312" xlink:href="#DejaVuSans-114"/>
      <use x="303.308594" xlink:href="#DejaVuSans-32"/>
      <use x="335.095703" xlink:href="#DejaVuSans-100"/>
      <use x="398.572266" xlink:href="#DejaVuSans-105"/>
      <use x="426.355469" xlink:href="#DejaVuSans-115"/>
      <use x="478.455078" xlink:href="#DejaVuSans-99"/>
      <use x="533.435547" xlink:href="#DejaVuSans-114"/>
      <use x="574.548828" xlink:href="#DejaVuSans-105"/>
      <use x="602.332031" xlink:href="#DejaVuSans-109"/>
      <use x="699.744141" xlink:href="#DejaVuSans-105"/>
      <use x="727.527344" xlink:href="#DejaVuSans-110"/>
      <use x="790.90625" xlink:href="#DejaVuSans-97"/>
      <use x="852.185547" xlink:href="#DejaVuSans-110"/>
      <use x="915.564453" xlink:href="#DejaVuSans-116"/>
      <use x="954.773438" xlink:href="#DejaVuSans-32"/>
      <use x="986.560547" xlink:href="#DejaVuSans-100"/>
      <use x="1050.037109" xlink:href="#DejaVuSans-105"/>
      <use x="1077.820312" xlink:href="#DejaVuSans-114"/>
      <use x="1118.902344" xlink:href="#DejaVuSans-101"/>
      <use x="1180.425781" xlink:href="#DejaVuSans-99"/>
      <use x="1235.40625" xlink:href="#DejaVuSans-116"/>
      <use x="1274.615234" xlink:href="#DejaVuSans-105"/>
      <use x="1302.398438" xlink:href="#DejaVuSans-111"/>
      <use x="1363.580078" xlink:href="#DejaVuSans-110"/>
     </g>
    </g>
    <g id="PathCollection_3">
     <g>
      <use style="fill:#ff0000;stroke:#ff0000;" x="76.8" xlink:href="#m55b75a86cb" y="343.940625"/>
     </g>
    </g>
    <g id="text_14">
     <!-- Distribution 1 -->
     <defs>
      <path d="M 19.671875 64.796875 
L 19.671875 8.109375 
L 31.59375 8.109375 
Q 46.6875 8.109375 53.6875 14.9375 
Q 60.6875 21.78125 60.6875 36.53125 
Q 60.6875 51.171875 53.6875 57.984375 
Q 46.6875 64.796875 31.59375 64.796875 
z
M 9.8125 72.90625 
L 30.078125 72.90625 
Q 51.265625 72.90625 61.171875 64.09375 
Q 71.09375 55.28125 71.09375 36.53125 
Q 71.09375 17.671875 61.125 8.828125 
Q 51.171875 0 30.078125 0 
L 9.8125 0 
z
" id="DejaVuSans-68"/>
      <path d="M 48.6875 27.296875 
Q 48.6875 37.203125 44.609375 42.84375 
Q 40.53125 48.484375 33.40625 48.484375 
Q 26.265625 48.484375 22.1875 42.84375 
Q 18.109375 37.203125 18.109375 27.296875 
Q 18.109375 17.390625 22.1875 11.75 
Q 26.265625 6.109375 33.40625 6.109375 
Q 40.53125 6.109375 44.609375 11.75 
Q 48.6875 17.390625 48.6875 27.296875 
z
M 18.109375 46.390625 
Q 20.953125 51.265625 25.265625 53.625 
Q 29.59375 56 35.59375 56 
Q 45.5625 56 51.78125 48.09375 
Q 58.015625 40.1875 58.015625 27.296875 
Q 58.015625 14.40625 51.78125 6.484375 
Q 45.5625 -1.421875 35.59375 -1.421875 
Q 29.59375 -1.421875 25.265625 0.953125 
Q 20.953125 3.328125 18.109375 8.203125 
L 18.109375 0 
L 9.078125 0 
L 9.078125 75.984375 
L 18.109375 75.984375 
z
" id="DejaVuSans-98"/>
      <path d="M 8.5 21.578125 
L 8.5 54.6875 
L 17.484375 54.6875 
L 17.484375 21.921875 
Q 17.484375 14.15625 20.5 10.265625 
Q 23.53125 6.390625 29.59375 6.390625 
Q 36.859375 6.390625 41.078125 11.03125 
Q 45.3125 15.671875 45.3125 23.6875 
L 45.3125 54.6875 
L 54.296875 54.6875 
L 54.296875 0 
L 45.3125 0 
L 45.3125 8.40625 
Q 42.046875 3.421875 37.71875 1 
Q 33.40625 -1.421875 27.6875 -1.421875 
Q 18.265625 -1.421875 13.375 4.4375 
Q 8.5 10.296875 8.5 21.578125 
z
M 31.109375 56 
z
" id="DejaVuSans-117"/>
      <path d="M 12.40625 8.296875 
L 28.515625 8.296875 
L 28.515625 63.921875 
L 10.984375 60.40625 
L 10.984375 69.390625 
L 28.421875 72.90625 
L 38.28125 72.90625 
L 38.28125 8.296875 
L 54.390625 8.296875 
L 54.390625 0 
L 12.40625 0 
z
" id="DejaVuSans-49"/>
     </defs>
     <g transform="translate(98.4 347.090625)scale(0.12 -0.12)">
      <use xlink:href="#DejaVuSans-68"/>
      <use x="77.001953" xlink:href="#DejaVuSans-105"/>
      <use x="104.785156" xlink:href="#DejaVuSans-115"/>
      <use x="156.884766" xlink:href="#DejaVuSans-116"/>
      <use x="196.09375" xlink:href="#DejaVuSans-114"/>
      <use x="237.207031" xlink:href="#DejaVuSans-105"/>
      <use x="264.990234" xlink:href="#DejaVuSans-98"/>
      <use x="328.466797" xlink:href="#DejaVuSans-117"/>
      <use x="391.845703" xlink:href="#DejaVuSans-116"/>
      <use x="431.054688" xlink:href="#DejaVuSans-105"/>
      <use x="458.837891" xlink:href="#DejaVuSans-111"/>
      <use x="520.019531" xlink:href="#DejaVuSans-110"/>
      <use x="583.398438" xlink:href="#DejaVuSans-32"/>
      <use x="615.185547" xlink:href="#DejaVuSans-49"/>
     </g>
    </g>
    <g id="PathCollection_4">
     <g>
      <use style="fill:#008000;stroke:#008000;" x="76.8" xlink:href="#m0567b18839" y="361.554375"/>
     </g>
    </g>
    <g id="text_15">
     <!-- Distribution 2 -->
     <g transform="translate(98.4 364.704375)scale(0.12 -0.12)">
      <use xlink:href="#DejaVuSans-68"/>
      <use x="77.001953" xlink:href="#DejaVuSans-105"/>
      <use x="104.785156" xlink:href="#DejaVuSans-115"/>
      <use x="156.884766" xlink:href="#DejaVuSans-116"/>
      <use x="196.09375" xlink:href="#DejaVuSans-114"/>
      <use x="237.207031" xlink:href="#DejaVuSans-105"/>
      <use x="264.990234" xlink:href="#DejaVuSans-98"/>
      <use x="328.466797" xlink:href="#DejaVuSans-117"/>
      <use x="391.845703" xlink:href="#DejaVuSans-116"/>
      <use x="431.054688" xlink:href="#DejaVuSans-105"/>
      <use x="458.837891" xlink:href="#DejaVuSans-111"/>
      <use x="520.019531" xlink:href="#DejaVuSans-110"/>
      <use x="583.398438" xlink:href="#DejaVuSans-32"/>
      <use x="615.185547" xlink:href="#DejaVuSans-50"/>
     </g>
    </g>
   </g>
  </g>
 </g>
 <defs>
  <clipPath id="p8f0489fe87">
   <rect height="326.16" width="334.8" x="54" y="51.84"/>
  </clipPath>
 </defs>
</svg>
