<?xml version="1.0" encoding="utf-8" standalone="no"?>
<!DOCTYPE svg PUBLIC "-//W3C//DTD SVG 1.1//EN"
  "http://www.w3.org/Graphics/SVG/1.1/DTD/svg11.dtd">
<!-- Created with matplotlib (https://matplotlib.org/) -->
<svg height="432pt" version="1.1" viewBox="0 0 432 432" width="432pt" xmlns="http://www.w3.org/2000/svg" xmlns:xlink="http://www.w3.org/1999/xlink">
 <defs>
  <style type="text/css">
*{stroke-linecap:butt;stroke-linejoin:round;}
  </style>
 </defs>
 <g id="figure_1">
  <g id="patch_1">
   <path d="M 0 432 
L 432 432 
L 432 0 
L 0 0 
z
" style="fill:#ffffff;"/>
  </g>
  <g id="axes_1">
   <g id="patch_2">
    <path d="M 54 378 
L 388.8 378 
L 388.8 51.84 
L 54 51.84 
z
" style="fill:#ffffff;"/>
   </g>
   <g id="PolyCollection_1">
    <defs>
     <path d="M 372.06 -68.825455 
L 372.06 -365.334545 
L 372.06 -365.334545 
L 372.06 -365.334545 
L 372.06 -365.334545 
L 372.06 -365.334545 
L 372.06 -365.334545 
L 372.06 -365.334545 
L 370.538182 -365.334545 
L 370.538182 -365.334545 
L 369.016364 -365.334545 
L 369.016364 -365.334545 
L 364.450909 -365.334545 
L 358.363636 -365.334545 
L 353.798182 -365.334545 
L 352.276364 -363.852 
L 344.667273 -363.852 
L 343.145455 -363.852 
L 330.970909 -363.852 
L 324.883636 -362.369455 
L 314.230909 -362.369455 
L 302.056364 -362.369455 
L 297.490909 -360.886909 
L 282.272727 -359.404364 
L 271.62 -359.404364 
L 257.923636 -359.404364 
L 241.183636 -357.921818 
L 227.487273 -357.921818 
L 210.747273 -356.439273 
L 198.572727 -356.439273 
L 175.745455 -354.956727 
L 165.092727 -351.991636 
L 148.352727 -344.578909 
L 139.221818 -340.131273 
L 130.090909 -332.718545 
L 116.394545 -329.753455 
L 102.698182 -322.340727 
L 95.089091 -317.893091 
L 87.48 -306.032727 
L 81.392727 -298.62 
L 78.349091 -289.724727 
L 78.349091 -277.864364 
L 76.827273 -267.486545 
L 76.827273 -246.730909 
L 75.305455 -231.905455 
L 72.261818 -221.527636 
L 70.74 -212.632364 
L 70.74 -197.806909 
L 70.74 -184.464 
L 70.74 -171.121091 
L 69.218182 -162.225818 
L 69.218182 -68.825455 
L 69.218182 -68.825455 
L 70.74 -68.825455 
L 70.74 -68.825455 
L 70.74 -68.825455 
L 70.74 -68.825455 
L 72.261818 -68.825455 
L 75.305455 -68.825455 
L 76.827273 -68.825455 
L 76.827273 -68.825455 
L 78.349091 -68.825455 
L 78.349091 -68.825455 
L 81.392727 -68.825455 
L 87.48 -68.825455 
L 95.089091 -68.825455 
L 102.698182 -68.825455 
L 116.394545 -68.825455 
L 130.090909 -68.825455 
L 139.221818 -68.825455 
L 148.352727 -68.825455 
L 165.092727 -68.825455 
L 175.745455 -68.825455 
L 198.572727 -68.825455 
L 210.747273 -68.825455 
L 227.487273 -68.825455 
L 241.183636 -68.825455 
L 257.923636 -68.825455 
L 271.62 -68.825455 
L 282.272727 -68.825455 
L 297.490909 -68.825455 
L 302.056364 -68.825455 
L 314.230909 -68.825455 
L 324.883636 -68.825455 
L 330.970909 -68.825455 
L 343.145455 -68.825455 
L 344.667273 -68.825455 
L 352.276364 -68.825455 
L 353.798182 -68.825455 
L 358.363636 -68.825455 
L 364.450909 -68.825455 
L 369.016364 -68.825455 
L 369.016364 -68.825455 
L 370.538182 -68.825455 
L 370.538182 -68.825455 
L 372.06 -68.825455 
L 372.06 -68.825455 
L 372.06 -68.825455 
L 372.06 -68.825455 
L 372.06 -68.825455 
L 372.06 -68.825455 
L 372.06 -68.825455 
z
" id="m35fea86bbd" style="stroke:#bf00bf;stroke-opacity:0.2;"/>
    </defs>
    <g clip-path="url(#pc36360cd04)">
     <use style="fill:#bf00bf;fill-opacity:0.2;stroke:#bf00bf;stroke-opacity:0.2;" x="0" xlink:href="#m35fea86bbd" y="432"/>
    </g>
   </g>
   <g id="PolyCollection_2">
    <path clip-path="url(#pc36360cd04)" d="M 373.581818 68.148 
L 373.581818 363.174545 
L 373.581818 363.174545 
L 373.581818 363.174545 
L 373.581818 363.174545 
L 373.581818 363.174545 
L 373.581818 363.174545 
L 373.581818 363.174545 
L 372.06 363.174545 
L 372.06 363.174545 
L 372.06 363.174545 
L 367.494545 363.174545 
L 365.972727 363.174545 
L 364.450909 363.174545 
L 362.929091 363.174545 
L 358.363636 363.174545 
L 353.798182 363.174545 
L 350.754545 363.174545 
L 340.101818 363.174545 
L 334.014545 363.174545 
L 326.405455 363.174545 
L 318.796364 363.174545 
L 303.578182 363.174545 
L 297.490909 363.174545 
L 288.36 363.174545 
L 274.663636 363.174545 
L 267.054545 363.174545 
L 253.358182 363.174545 
L 238.14 363.174545 
L 227.487273 363.174545 
L 207.703636 363.174545 
L 197.050909 363.174545 
L 181.832727 363.174545 
L 169.658182 363.174545 
L 154.44 363.174545 
L 146.830909 363.174545 
L 134.656364 363.174545 
L 125.525455 363.174545 
L 120.96 363.174545 
L 117.916364 363.174545 
L 105.741818 363.174545 
L 98.132727 363.174545 
L 93.567273 363.174545 
L 90.523636 363.174545 
L 85.958182 363.174545 
L 84.436364 363.174545 
L 79.870909 363.174545 
L 78.349091 363.174545 
L 78.349091 363.174545 
L 76.827273 363.174545 
L 75.305455 363.174545 
L 75.305455 363.174545 
L 75.305455 363.174545 
L 76.827273 361.692 
L 78.349091 360.209455 
L 78.349091 360.209455 
L 79.870909 358.726909 
L 84.436364 354.279273 
L 85.958182 352.796727 
L 90.523636 352.796727 
L 93.567273 349.831636 
L 98.132727 346.866545 
L 105.741818 345.384 
L 117.916364 342.418909 
L 120.96 339.453818 
L 125.525455 332.041091 
L 134.656364 323.145818 
L 146.830909 311.285455 
L 154.44 300.907636 
L 169.658182 290.529818 
L 181.832727 275.704364 
L 197.050909 269.774182 
L 207.703636 251.983636 
L 227.487273 231.228 
L 238.14 213.437455 
L 253.358182 200.094545 
L 267.054545 188.234182 
L 274.663636 180.821455 
L 288.36 168.961091 
L 297.490909 157.100727 
L 303.578182 149.688 
L 318.796364 140.792727 
L 326.405455 133.38 
L 334.014545 121.519636 
L 340.101818 115.589455 
L 350.754545 103.729091 
L 353.798182 97.798909 
L 358.363636 93.351273 
L 362.929091 88.903636 
L 364.450909 84.456 
L 365.972727 82.973455 
L 367.494545 80.008364 
L 372.06 75.560727 
L 372.06 75.560727 
L 372.06 74.078182 
L 373.581818 72.595636 
L 373.581818 72.595636 
L 373.581818 71.113091 
L 373.581818 69.630545 
L 373.581818 68.148 
L 373.581818 68.148 
L 373.581818 68.148 
z
" style="fill:url(#h03c10db4a2);stroke:#ff0000;stroke-opacity:0.6;"/>
   </g>
   <g id="matplotlib.axis_1">
    <g id="xtick_1">
     <g id="line2d_1">
      <path clip-path="url(#pc36360cd04)" d="M 69.218182 378 
L 69.218182 51.84 
" style="fill:none;stroke:#b0b0b0;stroke-linecap:square;stroke-width:0.8;"/>
     </g>
     <g id="line2d_2">
      <defs>
       <path d="M 0 0 
L 0 3.5 
" id="me2727e876f" style="stroke:#000000;stroke-width:0.8;"/>
      </defs>
      <g>
       <use style="stroke:#000000;stroke-width:0.8;" x="69.218182" xlink:href="#me2727e876f" y="378"/>
      </g>
     </g>
     <g id="text_1">
      <!-- 0 -->
      <defs>
       <path d="M 31.78125 66.40625 
Q 24.171875 66.40625 20.328125 58.90625 
Q 16.5 51.421875 16.5 36.375 
Q 16.5 21.390625 20.328125 13.890625 
Q 24.171875 6.390625 31.78125 6.390625 
Q 39.453125 6.390625 43.28125 13.890625 
Q 47.125 21.390625 47.125 36.375 
Q 47.125 51.421875 43.28125 58.90625 
Q 39.453125 66.40625 31.78125 66.40625 
z
M 31.78125 74.21875 
Q 44.046875 74.21875 50.515625 64.515625 
Q 56.984375 54.828125 56.984375 36.375 
Q 56.984375 17.96875 50.515625 8.265625 
Q 44.046875 -1.421875 31.78125 -1.421875 
Q 19.53125 -1.421875 13.0625 8.265625 
Q 6.59375 17.96875 6.59375 36.375 
Q 6.59375 54.828125 13.0625 64.515625 
Q 19.53125 74.21875 31.78125 74.21875 
z
" id="DejaVuSans-48"/>
      </defs>
      <g transform="translate(64.128182 397.1575)scale(0.16 -0.16)">
       <use xlink:href="#DejaVuSans-48"/>
      </g>
     </g>
    </g>
    <g id="xtick_2">
     <g id="line2d_3">
      <path clip-path="url(#pc36360cd04)" d="M 130.090909 378 
L 130.090909 51.84 
" style="fill:none;stroke:#b0b0b0;stroke-linecap:square;stroke-width:0.8;"/>
     </g>
     <g id="line2d_4">
      <g>
       <use style="stroke:#000000;stroke-width:0.8;" x="130.090909" xlink:href="#me2727e876f" y="378"/>
      </g>
     </g>
     <g id="text_2">
      <!-- 20 -->
      <defs>
       <path d="M 19.1875 8.296875 
L 53.609375 8.296875 
L 53.609375 0 
L 7.328125 0 
L 7.328125 8.296875 
Q 12.9375 14.109375 22.625 23.890625 
Q 32.328125 33.6875 34.8125 36.53125 
Q 39.546875 41.84375 41.421875 45.53125 
Q 43.3125 49.21875 43.3125 52.78125 
Q 43.3125 58.59375 39.234375 62.25 
Q 35.15625 65.921875 28.609375 65.921875 
Q 23.96875 65.921875 18.8125 64.3125 
Q 13.671875 62.703125 7.8125 59.421875 
L 7.8125 69.390625 
Q 13.765625 71.78125 18.9375 73 
Q 24.125 74.21875 28.421875 74.21875 
Q 39.75 74.21875 46.484375 68.546875 
Q 53.21875 62.890625 53.21875 53.421875 
Q 53.21875 48.921875 51.53125 44.890625 
Q 49.859375 40.875 45.40625 35.40625 
Q 44.1875 33.984375 37.640625 27.21875 
Q 31.109375 20.453125 19.1875 8.296875 
z
" id="DejaVuSans-50"/>
      </defs>
      <g transform="translate(119.910909 397.1575)scale(0.16 -0.16)">
       <use xlink:href="#DejaVuSans-50"/>
       <use x="63.623047" xlink:href="#DejaVuSans-48"/>
      </g>
     </g>
    </g>
    <g id="xtick_3">
     <g id="line2d_5">
      <path clip-path="url(#pc36360cd04)" d="M 190.963636 378 
L 190.963636 51.84 
" style="fill:none;stroke:#b0b0b0;stroke-linecap:square;stroke-width:0.8;"/>
     </g>
     <g id="line2d_6">
      <g>
       <use style="stroke:#000000;stroke-width:0.8;" x="190.963636" xlink:href="#me2727e876f" y="378"/>
      </g>
     </g>
     <g id="text_3">
      <!-- 40 -->
      <defs>
       <path d="M 37.796875 64.3125 
L 12.890625 25.390625 
L 37.796875 25.390625 
z
M 35.203125 72.90625 
L 47.609375 72.90625 
L 47.609375 25.390625 
L 58.015625 25.390625 
L 58.015625 17.1875 
L 47.609375 17.1875 
L 47.609375 0 
L 37.796875 0 
L 37.796875 17.1875 
L 4.890625 17.1875 
L 4.890625 26.703125 
z
" id="DejaVuSans-52"/>
      </defs>
      <g transform="translate(180.783636 397.1575)scale(0.16 -0.16)">
       <use xlink:href="#DejaVuSans-52"/>
       <use x="63.623047" xlink:href="#DejaVuSans-48"/>
      </g>
     </g>
    </g>
    <g id="xtick_4">
     <g id="line2d_7">
      <path clip-path="url(#pc36360cd04)" d="M 251.836364 378 
L 251.836364 51.84 
" style="fill:none;stroke:#b0b0b0;stroke-linecap:square;stroke-width:0.8;"/>
     </g>
     <g id="line2d_8">
      <g>
       <use style="stroke:#000000;stroke-width:0.8;" x="251.836364" xlink:href="#me2727e876f" y="378"/>
      </g>
     </g>
     <g id="text_4">
      <!-- 60 -->
      <defs>
       <path d="M 33.015625 40.375 
Q 26.375 40.375 22.484375 35.828125 
Q 18.609375 31.296875 18.609375 23.390625 
Q 18.609375 15.53125 22.484375 10.953125 
Q 26.375 6.390625 33.015625 6.390625 
Q 39.65625 6.390625 43.53125 10.953125 
Q 47.40625 15.53125 47.40625 23.390625 
Q 47.40625 31.296875 43.53125 35.828125 
Q 39.65625 40.375 33.015625 40.375 
z
M 52.59375 71.296875 
L 52.59375 62.3125 
Q 48.875 64.0625 45.09375 64.984375 
Q 41.3125 65.921875 37.59375 65.921875 
Q 27.828125 65.921875 22.671875 59.328125 
Q 17.53125 52.734375 16.796875 39.40625 
Q 19.671875 43.65625 24.015625 45.921875 
Q 28.375 48.1875 33.59375 48.1875 
Q 44.578125 48.1875 50.953125 41.515625 
Q 57.328125 34.859375 57.328125 23.390625 
Q 57.328125 12.15625 50.6875 5.359375 
Q 44.046875 -1.421875 33.015625 -1.421875 
Q 20.359375 -1.421875 13.671875 8.265625 
Q 6.984375 17.96875 6.984375 36.375 
Q 6.984375 53.65625 15.1875 63.9375 
Q 23.390625 74.21875 37.203125 74.21875 
Q 40.921875 74.21875 44.703125 73.484375 
Q 48.484375 72.75 52.59375 71.296875 
z
" id="DejaVuSans-54"/>
      </defs>
      <g transform="translate(241.656364 397.1575)scale(0.16 -0.16)">
       <use xlink:href="#DejaVuSans-54"/>
       <use x="63.623047" xlink:href="#DejaVuSans-48"/>
      </g>
     </g>
    </g>
    <g id="xtick_5">
     <g id="line2d_9">
      <path clip-path="url(#pc36360cd04)" d="M 312.709091 378 
L 312.709091 51.84 
" style="fill:none;stroke:#b0b0b0;stroke-linecap:square;stroke-width:0.8;"/>
     </g>
     <g id="line2d_10">
      <g>
       <use style="stroke:#000000;stroke-width:0.8;" x="312.709091" xlink:href="#me2727e876f" y="378"/>
      </g>
     </g>
     <g id="text_5">
      <!-- 80 -->
      <defs>
       <path d="M 31.78125 34.625 
Q 24.75 34.625 20.71875 30.859375 
Q 16.703125 27.09375 16.703125 20.515625 
Q 16.703125 13.921875 20.71875 10.15625 
Q 24.75 6.390625 31.78125 6.390625 
Q 38.8125 6.390625 42.859375 10.171875 
Q 46.921875 13.96875 46.921875 20.515625 
Q 46.921875 27.09375 42.890625 30.859375 
Q 38.875 34.625 31.78125 34.625 
z
M 21.921875 38.8125 
Q 15.578125 40.375 12.03125 44.71875 
Q 8.5 49.078125 8.5 55.328125 
Q 8.5 64.0625 14.71875 69.140625 
Q 20.953125 74.21875 31.78125 74.21875 
Q 42.671875 74.21875 48.875 69.140625 
Q 55.078125 64.0625 55.078125 55.328125 
Q 55.078125 49.078125 51.53125 44.71875 
Q 48 40.375 41.703125 38.8125 
Q 48.828125 37.15625 52.796875 32.3125 
Q 56.78125 27.484375 56.78125 20.515625 
Q 56.78125 9.90625 50.3125 4.234375 
Q 43.84375 -1.421875 31.78125 -1.421875 
Q 19.734375 -1.421875 13.25 4.234375 
Q 6.78125 9.90625 6.78125 20.515625 
Q 6.78125 27.484375 10.78125 32.3125 
Q 14.796875 37.15625 21.921875 38.8125 
z
M 18.3125 54.390625 
Q 18.3125 48.734375 21.84375 45.5625 
Q 25.390625 42.390625 31.78125 42.390625 
Q 38.140625 42.390625 41.71875 45.5625 
Q 45.3125 48.734375 45.3125 54.390625 
Q 45.3125 60.0625 41.71875 63.234375 
Q 38.140625 66.40625 31.78125 66.40625 
Q 25.390625 66.40625 21.84375 63.234375 
Q 18.3125 60.0625 18.3125 54.390625 
z
" id="DejaVuSans-56"/>
      </defs>
      <g transform="translate(302.529091 397.1575)scale(0.16 -0.16)">
       <use xlink:href="#DejaVuSans-56"/>
       <use x="63.623047" xlink:href="#DejaVuSans-48"/>
      </g>
     </g>
    </g>
    <g id="xtick_6">
     <g id="line2d_11">
      <path clip-path="url(#pc36360cd04)" d="M 373.581818 378 
L 373.581818 51.84 
" style="fill:none;stroke:#b0b0b0;stroke-linecap:square;stroke-width:0.8;"/>
     </g>
     <g id="line2d_12">
      <g>
       <use style="stroke:#000000;stroke-width:0.8;" x="373.581818" xlink:href="#me2727e876f" y="378"/>
      </g>
     </g>
     <g id="text_6">
      <!-- 100 -->
      <defs>
       <path d="M 12.40625 8.296875 
L 28.515625 8.296875 
L 28.515625 63.921875 
L 10.984375 60.40625 
L 10.984375 69.390625 
L 28.421875 72.90625 
L 38.28125 72.90625 
L 38.28125 8.296875 
L 54.390625 8.296875 
L 54.390625 0 
L 12.40625 0 
z
" id="DejaVuSans-49"/>
      </defs>
      <g transform="translate(358.311818 397.1575)scale(0.16 -0.16)">
       <use xlink:href="#DejaVuSans-49"/>
       <use x="63.623047" xlink:href="#DejaVuSans-48"/>
       <use x="127.246094" xlink:href="#DejaVuSans-48"/>
      </g>
     </g>
    </g>
    <g id="text_7">
     <!-- False positive (%) -->
     <defs>
      <path d="M 9.8125 72.90625 
L 51.703125 72.90625 
L 51.703125 64.59375 
L 19.671875 64.59375 
L 19.671875 43.109375 
L 48.578125 43.109375 
L 48.578125 34.8125 
L 19.671875 34.8125 
L 19.671875 0 
L 9.8125 0 
z
" id="DejaVuSans-70"/>
      <path d="M 34.28125 27.484375 
Q 23.390625 27.484375 19.1875 25 
Q 14.984375 22.515625 14.984375 16.5 
Q 14.984375 11.71875 18.140625 8.90625 
Q 21.296875 6.109375 26.703125 6.109375 
Q 34.1875 6.109375 38.703125 11.40625 
Q 43.21875 16.703125 43.21875 25.484375 
L 43.21875 27.484375 
z
M 52.203125 31.203125 
L 52.203125 0 
L 43.21875 0 
L 43.21875 8.296875 
Q 40.140625 3.328125 35.546875 0.953125 
Q 30.953125 -1.421875 24.3125 -1.421875 
Q 15.921875 -1.421875 10.953125 3.296875 
Q 6 8.015625 6 15.921875 
Q 6 25.140625 12.171875 29.828125 
Q 18.359375 34.515625 30.609375 34.515625 
L 43.21875 34.515625 
L 43.21875 35.40625 
Q 43.21875 41.609375 39.140625 45 
Q 35.0625 48.390625 27.6875 48.390625 
Q 23 48.390625 18.546875 47.265625 
Q 14.109375 46.140625 10.015625 43.890625 
L 10.015625 52.203125 
Q 14.9375 54.109375 19.578125 55.046875 
Q 24.21875 56 28.609375 56 
Q 40.484375 56 46.34375 49.84375 
Q 52.203125 43.703125 52.203125 31.203125 
z
" id="DejaVuSans-97"/>
      <path d="M 9.421875 75.984375 
L 18.40625 75.984375 
L 18.40625 0 
L 9.421875 0 
z
" id="DejaVuSans-108"/>
      <path d="M 44.28125 53.078125 
L 44.28125 44.578125 
Q 40.484375 46.53125 36.375 47.5 
Q 32.28125 48.484375 27.875 48.484375 
Q 21.1875 48.484375 17.84375 46.4375 
Q 14.5 44.390625 14.5 40.28125 
Q 14.5 37.15625 16.890625 35.375 
Q 19.28125 33.59375 26.515625 31.984375 
L 29.59375 31.296875 
Q 39.15625 29.25 43.1875 25.515625 
Q 47.21875 21.78125 47.21875 15.09375 
Q 47.21875 7.46875 41.1875 3.015625 
Q 35.15625 -1.421875 24.609375 -1.421875 
Q 20.21875 -1.421875 15.453125 -0.5625 
Q 10.6875 0.296875 5.421875 2 
L 5.421875 11.28125 
Q 10.40625 8.6875 15.234375 7.390625 
Q 20.0625 6.109375 24.8125 6.109375 
Q 31.15625 6.109375 34.5625 8.28125 
Q 37.984375 10.453125 37.984375 14.40625 
Q 37.984375 18.0625 35.515625 20.015625 
Q 33.0625 21.96875 24.703125 23.78125 
L 21.578125 24.515625 
Q 13.234375 26.265625 9.515625 29.90625 
Q 5.8125 33.546875 5.8125 39.890625 
Q 5.8125 47.609375 11.28125 51.796875 
Q 16.75 56 26.8125 56 
Q 31.78125 56 36.171875 55.265625 
Q 40.578125 54.546875 44.28125 53.078125 
z
" id="DejaVuSans-115"/>
      <path d="M 56.203125 29.59375 
L 56.203125 25.203125 
L 14.890625 25.203125 
Q 15.484375 15.921875 20.484375 11.0625 
Q 25.484375 6.203125 34.421875 6.203125 
Q 39.59375 6.203125 44.453125 7.46875 
Q 49.3125 8.734375 54.109375 11.28125 
L 54.109375 2.78125 
Q 49.265625 0.734375 44.1875 -0.34375 
Q 39.109375 -1.421875 33.890625 -1.421875 
Q 20.796875 -1.421875 13.15625 6.1875 
Q 5.515625 13.8125 5.515625 26.8125 
Q 5.515625 40.234375 12.765625 48.109375 
Q 20.015625 56 32.328125 56 
Q 43.359375 56 49.78125 48.890625 
Q 56.203125 41.796875 56.203125 29.59375 
z
M 47.21875 32.234375 
Q 47.125 39.59375 43.09375 43.984375 
Q 39.0625 48.390625 32.421875 48.390625 
Q 24.90625 48.390625 20.390625 44.140625 
Q 15.875 39.890625 15.1875 32.171875 
z
" id="DejaVuSans-101"/>
      <path id="DejaVuSans-32"/>
      <path d="M 18.109375 8.203125 
L 18.109375 -20.796875 
L 9.078125 -20.796875 
L 9.078125 54.6875 
L 18.109375 54.6875 
L 18.109375 46.390625 
Q 20.953125 51.265625 25.265625 53.625 
Q 29.59375 56 35.59375 56 
Q 45.5625 56 51.78125 48.09375 
Q 58.015625 40.1875 58.015625 27.296875 
Q 58.015625 14.40625 51.78125 6.484375 
Q 45.5625 -1.421875 35.59375 -1.421875 
Q 29.59375 -1.421875 25.265625 0.953125 
Q 20.953125 3.328125 18.109375 8.203125 
z
M 48.6875 27.296875 
Q 48.6875 37.203125 44.609375 42.84375 
Q 40.53125 48.484375 33.40625 48.484375 
Q 26.265625 48.484375 22.1875 42.84375 
Q 18.109375 37.203125 18.109375 27.296875 
Q 18.109375 17.390625 22.1875 11.75 
Q 26.265625 6.109375 33.40625 6.109375 
Q 40.53125 6.109375 44.609375 11.75 
Q 48.6875 17.390625 48.6875 27.296875 
z
" id="DejaVuSans-112"/>
      <path d="M 30.609375 48.390625 
Q 23.390625 48.390625 19.1875 42.75 
Q 14.984375 37.109375 14.984375 27.296875 
Q 14.984375 17.484375 19.15625 11.84375 
Q 23.34375 6.203125 30.609375 6.203125 
Q 37.796875 6.203125 41.984375 11.859375 
Q 46.1875 17.53125 46.1875 27.296875 
Q 46.1875 37.015625 41.984375 42.703125 
Q 37.796875 48.390625 30.609375 48.390625 
z
M 30.609375 56 
Q 42.328125 56 49.015625 48.375 
Q 55.71875 40.765625 55.71875 27.296875 
Q 55.71875 13.875 49.015625 6.21875 
Q 42.328125 -1.421875 30.609375 -1.421875 
Q 18.84375 -1.421875 12.171875 6.21875 
Q 5.515625 13.875 5.515625 27.296875 
Q 5.515625 40.765625 12.171875 48.375 
Q 18.84375 56 30.609375 56 
z
" id="DejaVuSans-111"/>
      <path d="M 9.421875 54.6875 
L 18.40625 54.6875 
L 18.40625 0 
L 9.421875 0 
z
M 9.421875 75.984375 
L 18.40625 75.984375 
L 18.40625 64.59375 
L 9.421875 64.59375 
z
" id="DejaVuSans-105"/>
      <path d="M 18.3125 70.21875 
L 18.3125 54.6875 
L 36.8125 54.6875 
L 36.8125 47.703125 
L 18.3125 47.703125 
L 18.3125 18.015625 
Q 18.3125 11.328125 20.140625 9.421875 
Q 21.96875 7.515625 27.59375 7.515625 
L 36.8125 7.515625 
L 36.8125 0 
L 27.59375 0 
Q 17.1875 0 13.234375 3.875 
Q 9.28125 7.765625 9.28125 18.015625 
L 9.28125 47.703125 
L 2.6875 47.703125 
L 2.6875 54.6875 
L 9.28125 54.6875 
L 9.28125 70.21875 
z
" id="DejaVuSans-116"/>
      <path d="M 2.984375 54.6875 
L 12.5 54.6875 
L 29.59375 8.796875 
L 46.6875 54.6875 
L 56.203125 54.6875 
L 35.6875 0 
L 23.484375 0 
z
" id="DejaVuSans-118"/>
      <path d="M 31 75.875 
Q 24.46875 64.65625 21.28125 53.65625 
Q 18.109375 42.671875 18.109375 31.390625 
Q 18.109375 20.125 21.3125 9.0625 
Q 24.515625 -2 31 -13.1875 
L 23.1875 -13.1875 
Q 15.875 -1.703125 12.234375 9.375 
Q 8.59375 20.453125 8.59375 31.390625 
Q 8.59375 42.28125 12.203125 53.3125 
Q 15.828125 64.359375 23.1875 75.875 
z
" id="DejaVuSans-40"/>
      <path d="M 72.703125 32.078125 
Q 68.453125 32.078125 66.03125 28.46875 
Q 63.625 24.859375 63.625 18.40625 
Q 63.625 12.0625 66.03125 8.421875 
Q 68.453125 4.78125 72.703125 4.78125 
Q 76.859375 4.78125 79.265625 8.421875 
Q 81.6875 12.0625 81.6875 18.40625 
Q 81.6875 24.8125 79.265625 28.4375 
Q 76.859375 32.078125 72.703125 32.078125 
z
M 72.703125 38.28125 
Q 80.421875 38.28125 84.953125 32.90625 
Q 89.5 27.546875 89.5 18.40625 
Q 89.5 9.28125 84.9375 3.921875 
Q 80.375 -1.421875 72.703125 -1.421875 
Q 64.890625 -1.421875 60.34375 3.921875 
Q 55.8125 9.28125 55.8125 18.40625 
Q 55.8125 27.59375 60.375 32.9375 
Q 64.9375 38.28125 72.703125 38.28125 
z
M 22.3125 68.015625 
Q 18.109375 68.015625 15.6875 64.375 
Q 13.28125 60.75 13.28125 54.390625 
Q 13.28125 47.953125 15.671875 44.328125 
Q 18.0625 40.71875 22.3125 40.71875 
Q 26.5625 40.71875 28.96875 44.328125 
Q 31.390625 47.953125 31.390625 54.390625 
Q 31.390625 60.6875 28.953125 64.34375 
Q 26.515625 68.015625 22.3125 68.015625 
z
M 66.40625 74.21875 
L 74.21875 74.21875 
L 28.609375 -1.421875 
L 20.796875 -1.421875 
z
M 22.3125 74.21875 
Q 30.03125 74.21875 34.609375 68.875 
Q 39.203125 63.53125 39.203125 54.390625 
Q 39.203125 45.171875 34.640625 39.84375 
Q 30.078125 34.515625 22.3125 34.515625 
Q 14.546875 34.515625 10.03125 39.859375 
Q 5.515625 45.21875 5.515625 54.390625 
Q 5.515625 63.484375 10.046875 68.84375 
Q 14.59375 74.21875 22.3125 74.21875 
z
" id="DejaVuSans-37"/>
      <path d="M 8.015625 75.875 
L 15.828125 75.875 
Q 23.140625 64.359375 26.78125 53.3125 
Q 30.421875 42.28125 30.421875 31.390625 
Q 30.421875 20.453125 26.78125 9.375 
Q 23.140625 -1.703125 15.828125 -13.1875 
L 8.015625 -13.1875 
Q 14.5 -2 17.703125 9.0625 
Q 20.90625 20.125 20.90625 31.390625 
Q 20.90625 42.671875 17.703125 53.65625 
Q 14.5 64.65625 8.015625 75.875 
z
" id="DejaVuSans-41"/>
     </defs>
     <g transform="translate(150.28625 416.6425)scale(0.16 -0.16)">
      <use xlink:href="#DejaVuSans-70"/>
      <use x="57.378906" xlink:href="#DejaVuSans-97"/>
      <use x="118.658203" xlink:href="#DejaVuSans-108"/>
      <use x="146.441406" xlink:href="#DejaVuSans-115"/>
      <use x="198.541016" xlink:href="#DejaVuSans-101"/>
      <use x="260.064453" xlink:href="#DejaVuSans-32"/>
      <use x="291.851562" xlink:href="#DejaVuSans-112"/>
      <use x="355.328125" xlink:href="#DejaVuSans-111"/>
      <use x="416.509766" xlink:href="#DejaVuSans-115"/>
      <use x="468.609375" xlink:href="#DejaVuSans-105"/>
      <use x="496.392578" xlink:href="#DejaVuSans-116"/>
      <use x="535.601562" xlink:href="#DejaVuSans-105"/>
      <use x="563.384766" xlink:href="#DejaVuSans-118"/>
      <use x="622.564453" xlink:href="#DejaVuSans-101"/>
      <use x="684.087891" xlink:href="#DejaVuSans-32"/>
      <use x="715.875" xlink:href="#DejaVuSans-40"/>
      <use x="754.888672" xlink:href="#DejaVuSans-37"/>
      <use x="849.908203" xlink:href="#DejaVuSans-41"/>
     </g>
    </g>
   </g>
   <g id="matplotlib.axis_2">
    <g id="ytick_1">
     <g id="line2d_13">
      <path clip-path="url(#pc36360cd04)" d="M 54 363.174545 
L 388.8 363.174545 
" style="fill:none;stroke:#b0b0b0;stroke-linecap:square;stroke-width:0.8;"/>
     </g>
     <g id="line2d_14">
      <defs>
       <path d="M 0 0 
L -3.5 0 
" id="ma53f918ec5" style="stroke:#000000;stroke-width:0.8;"/>
      </defs>
      <g>
       <use style="stroke:#000000;stroke-width:0.8;" x="54" xlink:href="#ma53f918ec5" y="363.174545"/>
      </g>
     </g>
     <g id="text_8">
      <!-- 0 -->
      <g transform="translate(36.82 369.253295)scale(0.16 -0.16)">
       <use xlink:href="#DejaVuSans-48"/>
      </g>
     </g>
    </g>
    <g id="ytick_2">
     <g id="line2d_15">
      <path clip-path="url(#pc36360cd04)" d="M 54 303.872727 
L 388.8 303.872727 
" style="fill:none;stroke:#b0b0b0;stroke-linecap:square;stroke-width:0.8;"/>
     </g>
     <g id="line2d_16">
      <g>
       <use style="stroke:#000000;stroke-width:0.8;" x="54" xlink:href="#ma53f918ec5" y="303.872727"/>
      </g>
     </g>
     <g id="text_9">
      <!-- 20 -->
      <g transform="translate(26.64 309.951477)scale(0.16 -0.16)">
       <use xlink:href="#DejaVuSans-50"/>
       <use x="63.623047" xlink:href="#DejaVuSans-48"/>
      </g>
     </g>
    </g>
    <g id="ytick_3">
     <g id="line2d_17">
      <path clip-path="url(#pc36360cd04)" d="M 54 244.570909 
L 388.8 244.570909 
" style="fill:none;stroke:#b0b0b0;stroke-linecap:square;stroke-width:0.8;"/>
     </g>
     <g id="line2d_18">
      <g>
       <use style="stroke:#000000;stroke-width:0.8;" x="54" xlink:href="#ma53f918ec5" y="244.570909"/>
      </g>
     </g>
     <g id="text_10">
      <!-- 40 -->
      <g transform="translate(26.64 250.649659)scale(0.16 -0.16)">
       <use xlink:href="#DejaVuSans-52"/>
       <use x="63.623047" xlink:href="#DejaVuSans-48"/>
      </g>
     </g>
    </g>
    <g id="ytick_4">
     <g id="line2d_19">
      <path clip-path="url(#pc36360cd04)" d="M 54 185.269091 
L 388.8 185.269091 
" style="fill:none;stroke:#b0b0b0;stroke-linecap:square;stroke-width:0.8;"/>
     </g>
     <g id="line2d_20">
      <g>
       <use style="stroke:#000000;stroke-width:0.8;" x="54" xlink:href="#ma53f918ec5" y="185.269091"/>
      </g>
     </g>
     <g id="text_11">
      <!-- 60 -->
      <g transform="translate(26.64 191.347841)scale(0.16 -0.16)">
       <use xlink:href="#DejaVuSans-54"/>
       <use x="63.623047" xlink:href="#DejaVuSans-48"/>
      </g>
     </g>
    </g>
    <g id="ytick_5">
     <g id="line2d_21">
      <path clip-path="url(#pc36360cd04)" d="M 54 125.967273 
L 388.8 125.967273 
" style="fill:none;stroke:#b0b0b0;stroke-linecap:square;stroke-width:0.8;"/>
     </g>
     <g id="line2d_22">
      <g>
       <use style="stroke:#000000;stroke-width:0.8;" x="54" xlink:href="#ma53f918ec5" y="125.967273"/>
      </g>
     </g>
     <g id="text_12">
      <!-- 80 -->
      <g transform="translate(26.64 132.046023)scale(0.16 -0.16)">
       <use xlink:href="#DejaVuSans-56"/>
       <use x="63.623047" xlink:href="#DejaVuSans-48"/>
      </g>
     </g>
    </g>
    <g id="ytick_6">
     <g id="line2d_23">
      <path clip-path="url(#pc36360cd04)" d="M 54 66.665455 
L 388.8 66.665455 
" style="fill:none;stroke:#b0b0b0;stroke-linecap:square;stroke-width:0.8;"/>
     </g>
     <g id="line2d_24">
      <g>
       <use style="stroke:#000000;stroke-width:0.8;" x="54" xlink:href="#ma53f918ec5" y="66.665455"/>
      </g>
     </g>
     <g id="text_13">
      <!-- 100 -->
      <g transform="translate(16.46 72.744205)scale(0.16 -0.16)">
       <use xlink:href="#DejaVuSans-49"/>
       <use x="63.623047" xlink:href="#DejaVuSans-48"/>
       <use x="127.246094" xlink:href="#DejaVuSans-48"/>
      </g>
     </g>
    </g>
    <g id="text_14">
     <!-- True positive (%) -->
     <defs>
      <path d="M -0.296875 72.90625 
L 61.375 72.90625 
L 61.375 64.59375 
L 35.5 64.59375 
L 35.5 0 
L 25.59375 0 
L 25.59375 64.59375 
L -0.296875 64.59375 
z
" id="DejaVuSans-84"/>
      <path d="M 41.109375 46.296875 
Q 39.59375 47.171875 37.8125 47.578125 
Q 36.03125 48 33.890625 48 
Q 26.265625 48 22.1875 43.046875 
Q 18.109375 38.09375 18.109375 28.8125 
L 18.109375 0 
L 9.078125 0 
L 9.078125 54.6875 
L 18.109375 54.6875 
L 18.109375 46.1875 
Q 20.953125 51.171875 25.484375 53.578125 
Q 30.03125 56 36.53125 56 
Q 37.453125 56 38.578125 55.875 
Q 39.703125 55.765625 41.0625 55.515625 
z
" id="DejaVuSans-114"/>
      <path d="M 8.5 21.578125 
L 8.5 54.6875 
L 17.484375 54.6875 
L 17.484375 21.921875 
Q 17.484375 14.15625 20.5 10.265625 
Q 23.53125 6.390625 29.59375 6.390625 
Q 36.859375 6.390625 41.078125 11.03125 
Q 45.3125 15.671875 45.3125 23.6875 
L 45.3125 54.6875 
L 54.296875 54.6875 
L 54.296875 0 
L 45.3125 0 
L 45.3125 8.40625 
Q 42.046875 3.421875 37.71875 1 
Q 33.40625 -1.421875 27.6875 -1.421875 
Q 18.265625 -1.421875 13.375 4.4375 
Q 8.5 10.296875 8.5 21.578125 
z
M 31.109375 56 
z
" id="DejaVuSans-117"/>
     </defs>
     <g transform="translate(9.1325 283.37875)rotate(-90)scale(0.16 -0.16)">
      <use xlink:href="#DejaVuSans-84"/>
      <use x="60.865234" xlink:href="#DejaVuSans-114"/>
      <use x="101.978516" xlink:href="#DejaVuSans-117"/>
      <use x="165.357422" xlink:href="#DejaVuSans-101"/>
      <use x="226.880859" xlink:href="#DejaVuSans-32"/>
      <use x="258.667969" xlink:href="#DejaVuSans-112"/>
      <use x="322.144531" xlink:href="#DejaVuSans-111"/>
      <use x="383.326172" xlink:href="#DejaVuSans-115"/>
      <use x="435.425781" xlink:href="#DejaVuSans-105"/>
      <use x="463.208984" xlink:href="#DejaVuSans-116"/>
      <use x="502.417969" xlink:href="#DejaVuSans-105"/>
      <use x="530.201172" xlink:href="#DejaVuSans-118"/>
      <use x="589.380859" xlink:href="#DejaVuSans-101"/>
      <use x="650.904297" xlink:href="#DejaVuSans-32"/>
      <use x="682.691406" xlink:href="#DejaVuSans-40"/>
      <use x="721.705078" xlink:href="#DejaVuSans-37"/>
      <use x="816.724609" xlink:href="#DejaVuSans-41"/>
     </g>
    </g>
   </g>
   <g id="line2d_25">
    <path clip-path="url(#pc36360cd04)" d="M 372.06 66.665455 
L 372.06 66.665455 
L 372.06 66.665455 
L 372.06 66.665455 
L 372.06 66.665455 
L 372.06 66.665455 
L 372.06 66.665455 
L 370.538182 66.665455 
L 370.538182 66.665455 
L 369.016364 66.665455 
L 369.016364 66.665455 
L 364.450909 66.665455 
L 358.363636 66.665455 
L 353.798182 66.665455 
L 352.276364 68.148 
L 344.667273 68.148 
L 343.145455 68.148 
L 330.970909 68.148 
L 324.883636 69.630545 
L 314.230909 69.630545 
L 302.056364 69.630545 
L 297.490909 71.113091 
L 282.272727 72.595636 
L 271.62 72.595636 
L 257.923636 72.595636 
L 241.183636 74.078182 
L 227.487273 74.078182 
L 210.747273 75.560727 
L 198.572727 75.560727 
L 175.745455 77.043273 
L 165.092727 80.008364 
L 148.352727 87.421091 
L 139.221818 91.868727 
L 130.090909 99.281455 
L 116.394545 102.246545 
L 102.698182 109.659273 
L 95.089091 114.106909 
L 87.48 125.967273 
L 81.392727 133.38 
L 78.349091 142.275273 
L 78.349091 154.135636 
L 76.827273 164.513455 
L 76.827273 185.269091 
L 75.305455 200.094545 
L 72.261818 210.472364 
L 70.74 219.367636 
L 70.74 234.193091 
L 70.74 247.536 
L 70.74 260.878909 
L 69.218182 269.774182 
" style="fill:none;stroke:#bf00bf;stroke-linecap:square;stroke-width:1.5;"/>
   </g>
   <g id="line2d_26">
    <path clip-path="url(#pc36360cd04)" d="M 69.218182 363.174545 
L 75.429685 357.12334 
L 81.641187 351.072134 
L 87.85269 345.020928 
L 94.064193 338.969722 
L 100.275696 332.918516 
L 106.487199 326.86731 
L 112.698701 320.816104 
L 118.910204 314.764898 
L 125.121707 308.713692 
L 131.33321 302.662486 
L 137.544712 296.61128 
L 143.756215 290.560074 
L 149.967718 284.508868 
L 156.179221 278.457662 
L 162.390724 272.406456 
L 168.602226 266.35525 
L 174.813729 260.304045 
L 181.025232 254.252839 
L 187.236735 248.201633 
L 193.448237 242.150427 
L 199.65974 236.099221 
L 205.871243 230.048015 
L 212.082746 223.996809 
L 218.294249 217.945603 
L 224.505751 211.894397 
L 230.717254 205.843191 
L 236.928757 199.791985 
L 243.14026 193.740779 
L 249.351763 187.689573 
L 255.563265 181.638367 
L 261.774768 175.587161 
L 267.986271 169.535955 
L 274.197774 163.48475 
L 280.409276 157.433544 
L 286.620779 151.382338 
L 292.832282 145.331132 
L 299.043785 139.279926 
L 305.255288 133.22872 
L 311.46679 127.177514 
L 317.678293 121.126308 
L 323.889796 115.075102 
L 330.101299 109.023896 
L 336.312801 102.97269 
L 342.524304 96.921484 
L 348.735807 90.870278 
L 354.94731 84.819072 
L 361.158813 78.767866 
L 367.370315 72.71666 
L 373.581818 66.665455 
" style="fill:none;stroke:#808080;stroke-dasharray:1.5,2.475;stroke-dashoffset:0;stroke-width:1.5;"/>
   </g>
   <g id="line2d_27">
    <path clip-path="url(#pc36360cd04)" d="M 373.581818 68.148 
L 373.581818 68.148 
L 373.581818 68.148 
L 373.581818 69.630545 
L 373.581818 71.113091 
L 373.581818 72.595636 
L 373.581818 72.595636 
L 372.06 74.078182 
L 372.06 75.560727 
L 372.06 75.560727 
L 367.494545 80.008364 
L 365.972727 82.973455 
L 364.450909 84.456 
L 362.929091 88.903636 
L 358.363636 93.351273 
L 353.798182 97.798909 
L 350.754545 103.729091 
L 340.101818 115.589455 
L 334.014545 121.519636 
L 326.405455 133.38 
L 318.796364 140.792727 
L 303.578182 149.688 
L 297.490909 157.100727 
L 288.36 168.961091 
L 274.663636 180.821455 
L 267.054545 188.234182 
L 253.358182 200.094545 
L 238.14 213.437455 
L 227.487273 231.228 
L 207.703636 251.983636 
L 197.050909 269.774182 
L 181.832727 275.704364 
L 169.658182 290.529818 
L 154.44 300.907636 
L 146.830909 311.285455 
L 134.656364 323.145818 
L 125.525455 332.041091 
L 120.96 339.453818 
L 117.916364 342.418909 
L 105.741818 345.384 
L 98.132727 346.866545 
L 93.567273 349.831636 
L 90.523636 352.796727 
L 85.958182 352.796727 
L 84.436364 354.279273 
L 79.870909 358.726909 
L 78.349091 360.209455 
L 78.349091 360.209455 
L 76.827273 361.692 
L 75.305455 363.174545 
" style="fill:none;stroke:#ff0000;stroke-linecap:square;stroke-width:1.5;"/>
   </g>
   <g id="patch_3">
    <path d="M 54 378 
L 54 51.84 
" style="fill:none;stroke:#000000;stroke-linecap:square;stroke-linejoin:miter;stroke-width:0.8;"/>
   </g>
   <g id="patch_4">
    <path d="M 388.8 378 
L 388.8 51.84 
" style="fill:none;stroke:#000000;stroke-linecap:square;stroke-linejoin:miter;stroke-width:0.8;"/>
   </g>
   <g id="patch_5">
    <path d="M 54 378 
L 388.8 378 
" style="fill:none;stroke:#000000;stroke-linecap:square;stroke-linejoin:miter;stroke-width:0.8;"/>
   </g>
   <g id="patch_6">
    <path d="M 54 51.84 
L 388.8 51.84 
" style="fill:none;stroke:#000000;stroke-linecap:square;stroke-linejoin:miter;stroke-width:0.8;"/>
   </g>
   <g id="text_15">
    <!-- Receiver Operating Characteristics -->
    <defs>
     <path d="M 44.390625 34.1875 
Q 47.5625 33.109375 50.5625 29.59375 
Q 53.5625 26.078125 56.59375 19.921875 
L 66.609375 0 
L 56 0 
L 46.6875 18.703125 
Q 43.0625 26.03125 39.671875 28.421875 
Q 36.28125 30.8125 30.421875 30.8125 
L 19.671875 30.8125 
L 19.671875 0 
L 9.8125 0 
L 9.8125 72.90625 
L 32.078125 72.90625 
Q 44.578125 72.90625 50.734375 67.671875 
Q 56.890625 62.453125 56.890625 51.90625 
Q 56.890625 45.015625 53.6875 40.46875 
Q 50.484375 35.9375 44.390625 34.1875 
z
M 19.671875 64.796875 
L 19.671875 38.921875 
L 32.078125 38.921875 
Q 39.203125 38.921875 42.84375 42.21875 
Q 46.484375 45.515625 46.484375 51.90625 
Q 46.484375 58.296875 42.84375 61.546875 
Q 39.203125 64.796875 32.078125 64.796875 
z
" id="DejaVuSans-82"/>
     <path d="M 48.78125 52.59375 
L 48.78125 44.1875 
Q 44.96875 46.296875 41.140625 47.34375 
Q 37.3125 48.390625 33.40625 48.390625 
Q 24.65625 48.390625 19.8125 42.84375 
Q 14.984375 37.3125 14.984375 27.296875 
Q 14.984375 17.28125 19.8125 11.734375 
Q 24.65625 6.203125 33.40625 6.203125 
Q 37.3125 6.203125 41.140625 7.25 
Q 44.96875 8.296875 48.78125 10.40625 
L 48.78125 2.09375 
Q 45.015625 0.34375 40.984375 -0.53125 
Q 36.96875 -1.421875 32.421875 -1.421875 
Q 20.0625 -1.421875 12.78125 6.34375 
Q 5.515625 14.109375 5.515625 27.296875 
Q 5.515625 40.671875 12.859375 48.328125 
Q 20.21875 56 33.015625 56 
Q 37.15625 56 41.109375 55.140625 
Q 45.0625 54.296875 48.78125 52.59375 
z
" id="DejaVuSans-99"/>
     <path d="M 39.40625 66.21875 
Q 28.65625 66.21875 22.328125 58.203125 
Q 16.015625 50.203125 16.015625 36.375 
Q 16.015625 22.609375 22.328125 14.59375 
Q 28.65625 6.59375 39.40625 6.59375 
Q 50.140625 6.59375 56.421875 14.59375 
Q 62.703125 22.609375 62.703125 36.375 
Q 62.703125 50.203125 56.421875 58.203125 
Q 50.140625 66.21875 39.40625 66.21875 
z
M 39.40625 74.21875 
Q 54.734375 74.21875 63.90625 63.9375 
Q 73.09375 53.65625 73.09375 36.375 
Q 73.09375 19.140625 63.90625 8.859375 
Q 54.734375 -1.421875 39.40625 -1.421875 
Q 24.03125 -1.421875 14.8125 8.828125 
Q 5.609375 19.09375 5.609375 36.375 
Q 5.609375 53.65625 14.8125 63.9375 
Q 24.03125 74.21875 39.40625 74.21875 
z
" id="DejaVuSans-79"/>
     <path d="M 54.890625 33.015625 
L 54.890625 0 
L 45.90625 0 
L 45.90625 32.71875 
Q 45.90625 40.484375 42.875 44.328125 
Q 39.84375 48.1875 33.796875 48.1875 
Q 26.515625 48.1875 22.3125 43.546875 
Q 18.109375 38.921875 18.109375 30.90625 
L 18.109375 0 
L 9.078125 0 
L 9.078125 54.6875 
L 18.109375 54.6875 
L 18.109375 46.1875 
Q 21.34375 51.125 25.703125 53.5625 
Q 30.078125 56 35.796875 56 
Q 45.21875 56 50.046875 50.171875 
Q 54.890625 44.34375 54.890625 33.015625 
z
" id="DejaVuSans-110"/>
     <path d="M 45.40625 27.984375 
Q 45.40625 37.75 41.375 43.109375 
Q 37.359375 48.484375 30.078125 48.484375 
Q 22.859375 48.484375 18.828125 43.109375 
Q 14.796875 37.75 14.796875 27.984375 
Q 14.796875 18.265625 18.828125 12.890625 
Q 22.859375 7.515625 30.078125 7.515625 
Q 37.359375 7.515625 41.375 12.890625 
Q 45.40625 18.265625 45.40625 27.984375 
z
M 54.390625 6.78125 
Q 54.390625 -7.171875 48.1875 -13.984375 
Q 42 -20.796875 29.203125 -20.796875 
Q 24.46875 -20.796875 20.265625 -20.09375 
Q 16.0625 -19.390625 12.109375 -17.921875 
L 12.109375 -9.1875 
Q 16.0625 -11.328125 19.921875 -12.34375 
Q 23.78125 -13.375 27.78125 -13.375 
Q 36.625 -13.375 41.015625 -8.765625 
Q 45.40625 -4.15625 45.40625 5.171875 
L 45.40625 9.625 
Q 42.625 4.78125 38.28125 2.390625 
Q 33.9375 0 27.875 0 
Q 17.828125 0 11.671875 7.65625 
Q 5.515625 15.328125 5.515625 27.984375 
Q 5.515625 40.671875 11.671875 48.328125 
Q 17.828125 56 27.875 56 
Q 33.9375 56 38.28125 53.609375 
Q 42.625 51.21875 45.40625 46.390625 
L 45.40625 54.6875 
L 54.390625 54.6875 
z
" id="DejaVuSans-103"/>
     <path d="M 64.40625 67.28125 
L 64.40625 56.890625 
Q 59.421875 61.53125 53.78125 63.8125 
Q 48.140625 66.109375 41.796875 66.109375 
Q 29.296875 66.109375 22.65625 58.46875 
Q 16.015625 50.828125 16.015625 36.375 
Q 16.015625 21.96875 22.65625 14.328125 
Q 29.296875 6.6875 41.796875 6.6875 
Q 48.140625 6.6875 53.78125 8.984375 
Q 59.421875 11.28125 64.40625 15.921875 
L 64.40625 5.609375 
Q 59.234375 2.09375 53.4375 0.328125 
Q 47.65625 -1.421875 41.21875 -1.421875 
Q 24.65625 -1.421875 15.125 8.703125 
Q 5.609375 18.84375 5.609375 36.375 
Q 5.609375 53.953125 15.125 64.078125 
Q 24.65625 74.21875 41.21875 74.21875 
Q 47.75 74.21875 53.53125 72.484375 
Q 59.328125 70.75 64.40625 67.28125 
z
" id="DejaVuSans-67"/>
     <path d="M 54.890625 33.015625 
L 54.890625 0 
L 45.90625 0 
L 45.90625 32.71875 
Q 45.90625 40.484375 42.875 44.328125 
Q 39.84375 48.1875 33.796875 48.1875 
Q 26.515625 48.1875 22.3125 43.546875 
Q 18.109375 38.921875 18.109375 30.90625 
L 18.109375 0 
L 9.078125 0 
L 9.078125 75.984375 
L 18.109375 75.984375 
L 18.109375 46.1875 
Q 21.34375 51.125 25.703125 53.5625 
Q 30.078125 56 35.796875 56 
Q 45.21875 56 50.046875 50.171875 
Q 54.890625 44.34375 54.890625 33.015625 
z
" id="DejaVuSans-104"/>
    </defs>
    <g transform="translate(53.568 45.84)scale(0.192 -0.192)">
     <use xlink:href="#DejaVuSans-82"/>
     <use x="69.419922" xlink:href="#DejaVuSans-101"/>
     <use x="130.943359" xlink:href="#DejaVuSans-99"/>
     <use x="185.923828" xlink:href="#DejaVuSans-101"/>
     <use x="247.447266" xlink:href="#DejaVuSans-105"/>
     <use x="275.230469" xlink:href="#DejaVuSans-118"/>
     <use x="334.410156" xlink:href="#DejaVuSans-101"/>
     <use x="395.933594" xlink:href="#DejaVuSans-114"/>
     <use x="437.046875" xlink:href="#DejaVuSans-32"/>
     <use x="468.833984" xlink:href="#DejaVuSans-79"/>
     <use x="547.544922" xlink:href="#DejaVuSans-112"/>
     <use x="611.021484" xlink:href="#DejaVuSans-101"/>
     <use x="672.544922" xlink:href="#DejaVuSans-114"/>
     <use x="713.658203" xlink:href="#DejaVuSans-97"/>
     <use x="774.9375" xlink:href="#DejaVuSans-116"/>
     <use x="814.146484" xlink:href="#DejaVuSans-105"/>
     <use x="841.929688" xlink:href="#DejaVuSans-110"/>
     <use x="905.308594" xlink:href="#DejaVuSans-103"/>
     <use x="968.785156" xlink:href="#DejaVuSans-32"/>
     <use x="1000.572266" xlink:href="#DejaVuSans-67"/>
     <use x="1070.396484" xlink:href="#DejaVuSans-104"/>
     <use x="1133.775391" xlink:href="#DejaVuSans-97"/>
     <use x="1195.054688" xlink:href="#DejaVuSans-114"/>
     <use x="1236.167969" xlink:href="#DejaVuSans-97"/>
     <use x="1297.447266" xlink:href="#DejaVuSans-99"/>
     <use x="1352.427734" xlink:href="#DejaVuSans-116"/>
     <use x="1391.636719" xlink:href="#DejaVuSans-101"/>
     <use x="1453.160156" xlink:href="#DejaVuSans-114"/>
     <use x="1494.273438" xlink:href="#DejaVuSans-105"/>
     <use x="1522.056641" xlink:href="#DejaVuSans-115"/>
     <use x="1574.15625" xlink:href="#DejaVuSans-116"/>
     <use x="1613.365234" xlink:href="#DejaVuSans-105"/>
     <use x="1641.148438" xlink:href="#DejaVuSans-99"/>
     <use x="1696.128906" xlink:href="#DejaVuSans-115"/>
    </g>
   </g>
   <g id="legend_1">
    <g id="patch_7">
     <path d="M 136.4 373 
L 381.8 373 
Q 383.8 373 383.8 371 
L 383.8 313.24375 
Q 383.8 311.24375 381.8 311.24375 
L 136.4 311.24375 
Q 134.4 311.24375 134.4 313.24375 
L 134.4 371 
Q 134.4 373 136.4 373 
z
" style="fill:#ffffff;opacity:0.8;stroke:#cccccc;stroke-linejoin:miter;"/>
    </g>
    <g id="line2d_28">
     <path d="M 138.4 319.34375 
L 158.4 319.34375 
" style="fill:none;stroke:#bf00bf;stroke-linecap:square;stroke-width:1.5;"/>
    </g>
    <g id="line2d_29"/>
    <g id="text_16">
     <!-- ROC for Fisher discriminant ($y=-1.625 x$) -->
     <defs>
      <path d="M 37.109375 75.984375 
L 37.109375 68.5 
L 28.515625 68.5 
Q 23.6875 68.5 21.796875 66.546875 
Q 19.921875 64.59375 19.921875 59.515625 
L 19.921875 54.6875 
L 34.71875 54.6875 
L 34.71875 47.703125 
L 19.921875 47.703125 
L 19.921875 0 
L 10.890625 0 
L 10.890625 47.703125 
L 2.296875 47.703125 
L 2.296875 54.6875 
L 10.890625 54.6875 
L 10.890625 58.5 
Q 10.890625 67.625 15.140625 71.796875 
Q 19.390625 75.984375 28.609375 75.984375 
z
" id="DejaVuSans-102"/>
      <path d="M 45.40625 46.390625 
L 45.40625 75.984375 
L 54.390625 75.984375 
L 54.390625 0 
L 45.40625 0 
L 45.40625 8.203125 
Q 42.578125 3.328125 38.25 0.953125 
Q 33.9375 -1.421875 27.875 -1.421875 
Q 17.96875 -1.421875 11.734375 6.484375 
Q 5.515625 14.40625 5.515625 27.296875 
Q 5.515625 40.1875 11.734375 48.09375 
Q 17.96875 56 27.875 56 
Q 33.9375 56 38.25 53.625 
Q 42.578125 51.265625 45.40625 46.390625 
z
M 14.796875 27.296875 
Q 14.796875 17.390625 18.875 11.75 
Q 22.953125 6.109375 30.078125 6.109375 
Q 37.203125 6.109375 41.296875 11.75 
Q 45.40625 17.390625 45.40625 27.296875 
Q 45.40625 37.203125 41.296875 42.84375 
Q 37.203125 48.484375 30.078125 48.484375 
Q 22.953125 48.484375 18.875 42.84375 
Q 14.796875 37.203125 14.796875 27.296875 
z
" id="DejaVuSans-100"/>
      <path d="M 52 44.1875 
Q 55.375 50.25 60.0625 53.125 
Q 64.75 56 71.09375 56 
Q 79.640625 56 84.28125 50.015625 
Q 88.921875 44.046875 88.921875 33.015625 
L 88.921875 0 
L 79.890625 0 
L 79.890625 32.71875 
Q 79.890625 40.578125 77.09375 44.375 
Q 74.3125 48.1875 68.609375 48.1875 
Q 61.625 48.1875 57.5625 43.546875 
Q 53.515625 38.921875 53.515625 30.90625 
L 53.515625 0 
L 44.484375 0 
L 44.484375 32.71875 
Q 44.484375 40.625 41.703125 44.40625 
Q 38.921875 48.1875 33.109375 48.1875 
Q 26.21875 48.1875 22.15625 43.53125 
Q 18.109375 38.875 18.109375 30.90625 
L 18.109375 0 
L 9.078125 0 
L 9.078125 54.6875 
L 18.109375 54.6875 
L 18.109375 46.1875 
Q 21.1875 51.21875 25.484375 53.609375 
Q 29.78125 56 35.6875 56 
Q 41.65625 56 45.828125 52.96875 
Q 50 49.953125 52 44.1875 
z
" id="DejaVuSans-109"/>
      <path d="M 24.8125 -5.078125 
Q 18.5625 -15.578125 14.625 -18.1875 
Q 10.6875 -20.796875 4.59375 -20.796875 
L -2.484375 -20.796875 
L -0.984375 -13.28125 
L 4.203125 -13.28125 
Q 7.953125 -13.28125 10.59375 -11.234375 
Q 13.234375 -9.1875 16.5 -3.21875 
L 19.28125 2 
L 7.171875 54.6875 
L 16.703125 54.6875 
L 25.78125 12.796875 
L 50.875 54.6875 
L 60.296875 54.6875 
z
" id="DejaVuSans-Oblique-121"/>
      <path d="M 10.59375 45.40625 
L 73.1875 45.40625 
L 73.1875 37.203125 
L 10.59375 37.203125 
z
M 10.59375 25.484375 
L 73.1875 25.484375 
L 73.1875 17.1875 
L 10.59375 17.1875 
z
" id="DejaVuSans-61"/>
      <path d="M 10.59375 35.5 
L 73.1875 35.5 
L 73.1875 27.203125 
L 10.59375 27.203125 
z
" id="DejaVuSans-8722"/>
      <path d="M 10.6875 12.40625 
L 21 12.40625 
L 21 0 
L 10.6875 0 
z
" id="DejaVuSans-46"/>
      <path d="M 10.796875 72.90625 
L 49.515625 72.90625 
L 49.515625 64.59375 
L 19.828125 64.59375 
L 19.828125 46.734375 
Q 21.96875 47.46875 24.109375 47.828125 
Q 26.265625 48.1875 28.421875 48.1875 
Q 40.625 48.1875 47.75 41.5 
Q 54.890625 34.8125 54.890625 23.390625 
Q 54.890625 11.625 47.5625 5.09375 
Q 40.234375 -1.421875 26.90625 -1.421875 
Q 22.3125 -1.421875 17.546875 -0.640625 
Q 12.796875 0.140625 7.71875 1.703125 
L 7.71875 11.625 
Q 12.109375 9.234375 16.796875 8.0625 
Q 21.484375 6.890625 26.703125 6.890625 
Q 35.15625 6.890625 40.078125 11.328125 
Q 45.015625 15.765625 45.015625 23.390625 
Q 45.015625 31 40.078125 35.4375 
Q 35.15625 39.890625 26.703125 39.890625 
Q 22.75 39.890625 18.8125 39.015625 
Q 14.890625 38.140625 10.796875 36.28125 
z
" id="DejaVuSans-53"/>
      <path d="M 60.015625 54.6875 
L 34.90625 27.875 
L 50.296875 0 
L 39.984375 0 
L 28.421875 21.6875 
L 8.296875 0 
L -2.59375 0 
L 24.3125 28.8125 
L 10.015625 54.6875 
L 20.3125 54.6875 
L 30.8125 34.90625 
L 49.125 54.6875 
z
" id="DejaVuSans-Oblique-120"/>
     </defs>
     <g transform="translate(166.4 322.84375)scale(0.1 -0.1)">
      <use transform="translate(0 0.015625)" xlink:href="#DejaVuSans-82"/>
      <use transform="translate(69.482422 0.015625)" xlink:href="#DejaVuSans-79"/>
      <use transform="translate(148.193359 0.015625)" xlink:href="#DejaVuSans-67"/>
      <use transform="translate(218.017578 0.015625)" xlink:href="#DejaVuSans-32"/>
      <use transform="translate(249.804688 0.015625)" xlink:href="#DejaVuSans-102"/>
      <use transform="translate(285.009766 0.015625)" xlink:href="#DejaVuSans-111"/>
      <use transform="translate(346.191406 0.015625)" xlink:href="#DejaVuSans-114"/>
      <use transform="translate(387.304688 0.015625)" xlink:href="#DejaVuSans-32"/>
      <use transform="translate(419.091797 0.015625)" xlink:href="#DejaVuSans-70"/>
      <use transform="translate(476.611328 0.015625)" xlink:href="#DejaVuSans-105"/>
      <use transform="translate(504.394531 0.015625)" xlink:href="#DejaVuSans-115"/>
      <use transform="translate(556.494141 0.015625)" xlink:href="#DejaVuSans-104"/>
      <use transform="translate(619.873047 0.015625)" xlink:href="#DejaVuSans-101"/>
      <use transform="translate(681.396484 0.015625)" xlink:href="#DejaVuSans-114"/>
      <use transform="translate(722.509766 0.015625)" xlink:href="#DejaVuSans-32"/>
      <use transform="translate(754.296875 0.015625)" xlink:href="#DejaVuSans-100"/>
      <use transform="translate(817.773438 0.015625)" xlink:href="#DejaVuSans-105"/>
      <use transform="translate(845.556641 0.015625)" xlink:href="#DejaVuSans-115"/>
      <use transform="translate(897.65625 0.015625)" xlink:href="#DejaVuSans-99"/>
      <use transform="translate(952.636719 0.015625)" xlink:href="#DejaVuSans-114"/>
      <use transform="translate(993.75 0.015625)" xlink:href="#DejaVuSans-105"/>
      <use transform="translate(1021.533203 0.015625)" xlink:href="#DejaVuSans-109"/>
      <use transform="translate(1118.945312 0.015625)" xlink:href="#DejaVuSans-105"/>
      <use transform="translate(1146.728516 0.015625)" xlink:href="#DejaVuSans-110"/>
      <use transform="translate(1210.107422 0.015625)" xlink:href="#DejaVuSans-97"/>
      <use transform="translate(1271.386719 0.015625)" xlink:href="#DejaVuSans-110"/>
      <use transform="translate(1334.765625 0.015625)" xlink:href="#DejaVuSans-116"/>
      <use transform="translate(1373.974609 0.015625)" xlink:href="#DejaVuSans-32"/>
      <use transform="translate(1405.761719 0.015625)" xlink:href="#DejaVuSans-40"/>
      <use transform="translate(1444.775391 0.015625)" xlink:href="#DejaVuSans-Oblique-121"/>
      <use transform="translate(1523.4375 0.015625)" xlink:href="#DejaVuSans-61"/>
      <use transform="translate(1646.191406 0.015625)" xlink:href="#DejaVuSans-8722"/>
      <use transform="translate(1749.462891 0.015625)" xlink:href="#DejaVuSans-49"/>
      <use transform="translate(1813.085938 0.015625)" xlink:href="#DejaVuSans-46"/>
      <use transform="translate(1844.873047 0.015625)" xlink:href="#DejaVuSans-54"/>
      <use transform="translate(1908.496094 0.015625)" xlink:href="#DejaVuSans-50"/>
      <use transform="translate(1972.119141 0.015625)" xlink:href="#DejaVuSans-53"/>
      <use transform="translate(2035.742188 0.015625)" xlink:href="#DejaVuSans-Oblique-120"/>
      <use transform="translate(2094.921875 0.015625)" xlink:href="#DejaVuSans-41"/>
     </g>
    </g>
    <g id="line2d_30">
     <path d="M 138.4 334.04375 
L 158.4 334.04375 
" style="fill:none;stroke:#ff0000;stroke-linecap:square;stroke-width:1.5;"/>
    </g>
    <g id="line2d_31"/>
    <g id="text_17">
     <!-- ROC for random direction ($y=0.3484 x$) -->
     <defs>
      <path d="M 40.578125 39.3125 
Q 47.65625 37.796875 51.625 33 
Q 55.609375 28.21875 55.609375 21.1875 
Q 55.609375 10.40625 48.1875 4.484375 
Q 40.765625 -1.421875 27.09375 -1.421875 
Q 22.515625 -1.421875 17.65625 -0.515625 
Q 12.796875 0.390625 7.625 2.203125 
L 7.625 11.71875 
Q 11.71875 9.328125 16.59375 8.109375 
Q 21.484375 6.890625 26.8125 6.890625 
Q 36.078125 6.890625 40.9375 10.546875 
Q 45.796875 14.203125 45.796875 21.1875 
Q 45.796875 27.640625 41.28125 31.265625 
Q 36.765625 34.90625 28.71875 34.90625 
L 20.21875 34.90625 
L 20.21875 43.015625 
L 29.109375 43.015625 
Q 36.375 43.015625 40.234375 45.921875 
Q 44.09375 48.828125 44.09375 54.296875 
Q 44.09375 59.90625 40.109375 62.90625 
Q 36.140625 65.921875 28.71875 65.921875 
Q 24.65625 65.921875 20.015625 65.03125 
Q 15.375 64.15625 9.8125 62.3125 
L 9.8125 71.09375 
Q 15.4375 72.65625 20.34375 73.4375 
Q 25.25 74.21875 29.59375 74.21875 
Q 40.828125 74.21875 47.359375 69.109375 
Q 53.90625 64.015625 53.90625 55.328125 
Q 53.90625 49.265625 50.4375 45.09375 
Q 46.96875 40.921875 40.578125 39.3125 
z
" id="DejaVuSans-51"/>
     </defs>
     <g transform="translate(166.4 337.54375)scale(0.1 -0.1)">
      <use transform="translate(0 0.015625)" xlink:href="#DejaVuSans-82"/>
      <use transform="translate(69.482422 0.015625)" xlink:href="#DejaVuSans-79"/>
      <use transform="translate(148.193359 0.015625)" xlink:href="#DejaVuSans-67"/>
      <use transform="translate(218.017578 0.015625)" xlink:href="#DejaVuSans-32"/>
      <use transform="translate(249.804688 0.015625)" xlink:href="#DejaVuSans-102"/>
      <use transform="translate(285.009766 0.015625)" xlink:href="#DejaVuSans-111"/>
      <use transform="translate(346.191406 0.015625)" xlink:href="#DejaVuSans-114"/>
      <use transform="translate(387.304688 0.015625)" xlink:href="#DejaVuSans-32"/>
      <use transform="translate(419.091797 0.015625)" xlink:href="#DejaVuSans-114"/>
      <use transform="translate(460.205078 0.015625)" xlink:href="#DejaVuSans-97"/>
      <use transform="translate(521.484375 0.015625)" xlink:href="#DejaVuSans-110"/>
      <use transform="translate(584.863281 0.015625)" xlink:href="#DejaVuSans-100"/>
      <use transform="translate(648.339844 0.015625)" xlink:href="#DejaVuSans-111"/>
      <use transform="translate(709.521484 0.015625)" xlink:href="#DejaVuSans-109"/>
      <use transform="translate(806.933594 0.015625)" xlink:href="#DejaVuSans-32"/>
      <use transform="translate(838.720703 0.015625)" xlink:href="#DejaVuSans-100"/>
      <use transform="translate(902.197266 0.015625)" xlink:href="#DejaVuSans-105"/>
      <use transform="translate(929.980469 0.015625)" xlink:href="#DejaVuSans-114"/>
      <use transform="translate(971.09375 0.015625)" xlink:href="#DejaVuSans-101"/>
      <use transform="translate(1032.617188 0.015625)" xlink:href="#DejaVuSans-99"/>
      <use transform="translate(1087.597656 0.015625)" xlink:href="#DejaVuSans-116"/>
      <use transform="translate(1126.806641 0.015625)" xlink:href="#DejaVuSans-105"/>
      <use transform="translate(1154.589844 0.015625)" xlink:href="#DejaVuSans-111"/>
      <use transform="translate(1215.771484 0.015625)" xlink:href="#DejaVuSans-110"/>
      <use transform="translate(1279.150391 0.015625)" xlink:href="#DejaVuSans-32"/>
      <use transform="translate(1310.9375 0.015625)" xlink:href="#DejaVuSans-40"/>
      <use transform="translate(1349.951172 0.015625)" xlink:href="#DejaVuSans-Oblique-121"/>
      <use transform="translate(1428.613281 0.015625)" xlink:href="#DejaVuSans-61"/>
      <use transform="translate(1531.884766 0.015625)" xlink:href="#DejaVuSans-48"/>
      <use transform="translate(1595.507812 0.015625)" xlink:href="#DejaVuSans-46"/>
      <use transform="translate(1627.294922 0.015625)" xlink:href="#DejaVuSans-51"/>
      <use transform="translate(1690.917969 0.015625)" xlink:href="#DejaVuSans-52"/>
      <use transform="translate(1754.541016 0.015625)" xlink:href="#DejaVuSans-56"/>
      <use transform="translate(1818.164062 0.015625)" xlink:href="#DejaVuSans-52"/>
      <use transform="translate(1881.787109 0.015625)" xlink:href="#DejaVuSans-Oblique-120"/>
      <use transform="translate(1940.966797 0.015625)" xlink:href="#DejaVuSans-41"/>
     </g>
    </g>
    <g id="patch_8">
     <path d="M 138.4 352.242188 
L 158.4 352.242188 
L 158.4 345.242188 
L 138.4 345.242188 
z
" style="fill:#bf00bf;opacity:0.2;stroke:#bf00bf;stroke-linejoin:miter;"/>
    </g>
    <g id="text_18">
     <!-- AUROC (Fisher) = 9305 -->
     <defs>
      <path d="M 34.1875 63.1875 
L 20.796875 26.90625 
L 47.609375 26.90625 
z
M 28.609375 72.90625 
L 39.796875 72.90625 
L 67.578125 0 
L 57.328125 0 
L 50.6875 18.703125 
L 17.828125 18.703125 
L 11.1875 0 
L 0.78125 0 
z
" id="DejaVuSans-65"/>
      <path d="M 8.6875 72.90625 
L 18.609375 72.90625 
L 18.609375 28.609375 
Q 18.609375 16.890625 22.84375 11.734375 
Q 27.09375 6.59375 36.625 6.59375 
Q 46.09375 6.59375 50.34375 11.734375 
Q 54.59375 16.890625 54.59375 28.609375 
L 54.59375 72.90625 
L 64.5 72.90625 
L 64.5 27.390625 
Q 64.5 13.140625 57.4375 5.859375 
Q 50.390625 -1.421875 36.625 -1.421875 
Q 22.796875 -1.421875 15.734375 5.859375 
Q 8.6875 13.140625 8.6875 27.390625 
z
" id="DejaVuSans-85"/>
      <path d="M 10.984375 1.515625 
L 10.984375 10.5 
Q 14.703125 8.734375 18.5 7.8125 
Q 22.3125 6.890625 25.984375 6.890625 
Q 35.75 6.890625 40.890625 13.453125 
Q 46.046875 20.015625 46.78125 33.40625 
Q 43.953125 29.203125 39.59375 26.953125 
Q 35.25 24.703125 29.984375 24.703125 
Q 19.046875 24.703125 12.671875 31.3125 
Q 6.296875 37.9375 6.296875 49.421875 
Q 6.296875 60.640625 12.9375 67.421875 
Q 19.578125 74.21875 30.609375 74.21875 
Q 43.265625 74.21875 49.921875 64.515625 
Q 56.59375 54.828125 56.59375 36.375 
Q 56.59375 19.140625 48.40625 8.859375 
Q 40.234375 -1.421875 26.421875 -1.421875 
Q 22.703125 -1.421875 18.890625 -0.6875 
Q 15.09375 0.046875 10.984375 1.515625 
z
M 30.609375 32.421875 
Q 37.25 32.421875 41.125 36.953125 
Q 45.015625 41.5 45.015625 49.421875 
Q 45.015625 57.28125 41.125 61.84375 
Q 37.25 66.40625 30.609375 66.40625 
Q 23.96875 66.40625 20.09375 61.84375 
Q 16.21875 57.28125 16.21875 49.421875 
Q 16.21875 41.5 20.09375 36.953125 
Q 23.96875 32.421875 30.609375 32.421875 
z
" id="DejaVuSans-57"/>
     </defs>
     <g transform="translate(166.4 352.242188)scale(0.1 -0.1)">
      <use xlink:href="#DejaVuSans-65"/>
      <use x="68.408203" xlink:href="#DejaVuSans-85"/>
      <use x="141.601562" xlink:href="#DejaVuSans-82"/>
      <use x="211.083984" xlink:href="#DejaVuSans-79"/>
      <use x="289.794922" xlink:href="#DejaVuSans-67"/>
      <use x="359.619141" xlink:href="#DejaVuSans-32"/>
      <use x="391.40625" xlink:href="#DejaVuSans-40"/>
      <use x="430.419922" xlink:href="#DejaVuSans-70"/>
      <use x="487.830078" xlink:href="#DejaVuSans-105"/>
      <use x="515.613281" xlink:href="#DejaVuSans-115"/>
      <use x="567.712891" xlink:href="#DejaVuSans-104"/>
      <use x="631.091797" xlink:href="#DejaVuSans-101"/>
      <use x="692.615234" xlink:href="#DejaVuSans-114"/>
      <use x="733.728516" xlink:href="#DejaVuSans-41"/>
      <use x="772.742188" xlink:href="#DejaVuSans-32"/>
      <use x="804.529297" xlink:href="#DejaVuSans-61"/>
      <use x="888.318359" xlink:href="#DejaVuSans-32"/>
      <use x="920.105469" xlink:href="#DejaVuSans-57"/>
      <use x="983.728516" xlink:href="#DejaVuSans-51"/>
      <use x="1047.351562" xlink:href="#DejaVuSans-48"/>
      <use x="1110.974609" xlink:href="#DejaVuSans-53"/>
     </g>
    </g>
    <g id="patch_9">
     <path d="M 138.4 366.920313 
L 158.4 366.920313 
L 158.4 359.920313 
L 138.4 359.920313 
z
" style="fill:url(#h03c10db4a2);opacity:0.6;stroke:#ff0000;stroke-linejoin:miter;"/>
    </g>
    <g id="text_19">
     <!-- AUROC (Random) = 3667 -->
     <defs>
      <path d="M 8.203125 72.90625 
L 55.078125 72.90625 
L 55.078125 68.703125 
L 28.609375 0 
L 18.3125 0 
L 43.21875 64.59375 
L 8.203125 64.59375 
z
" id="DejaVuSans-55"/>
     </defs>
     <g transform="translate(166.4 366.920313)scale(0.1 -0.1)">
      <use xlink:href="#DejaVuSans-65"/>
      <use x="68.408203" xlink:href="#DejaVuSans-85"/>
      <use x="141.601562" xlink:href="#DejaVuSans-82"/>
      <use x="211.083984" xlink:href="#DejaVuSans-79"/>
      <use x="289.794922" xlink:href="#DejaVuSans-67"/>
      <use x="359.619141" xlink:href="#DejaVuSans-32"/>
      <use x="391.40625" xlink:href="#DejaVuSans-40"/>
      <use x="430.419922" xlink:href="#DejaVuSans-82"/>
      <use x="499.871094" xlink:href="#DejaVuSans-97"/>
      <use x="561.150391" xlink:href="#DejaVuSans-110"/>
      <use x="624.529297" xlink:href="#DejaVuSans-100"/>
      <use x="688.005859" xlink:href="#DejaVuSans-111"/>
      <use x="749.1875" xlink:href="#DejaVuSans-109"/>
      <use x="846.599609" xlink:href="#DejaVuSans-41"/>
      <use x="885.613281" xlink:href="#DejaVuSans-32"/>
      <use x="917.400391" xlink:href="#DejaVuSans-61"/>
      <use x="1001.189453" xlink:href="#DejaVuSans-32"/>
      <use x="1032.976562" xlink:href="#DejaVuSans-51"/>
      <use x="1096.599609" xlink:href="#DejaVuSans-54"/>
      <use x="1160.222656" xlink:href="#DejaVuSans-54"/>
      <use x="1223.845703" xlink:href="#DejaVuSans-55"/>
     </g>
    </g>
   </g>
  </g>
 </g>
 <defs>
  <clipPath id="pc36360cd04">
   <rect height="326.16" width="334.8" x="54" y="51.84"/>
  </clipPath>
 </defs>
 <defs>
  <pattern height="72" id="h03c10db4a2" patternUnits="userSpaceOnUse" width="72" x="0" y="0">
   <rect fill="none" height="73" width="73" x="0" y="0"/>
   <path d="M -36 36 
L 36 108 
M -30 30 
L 42 102 
M -24 24 
L 48 96 
M -18 18 
L 54 90 
M -12 12 
L 60 84 
M -6 6 
L 66 78 
M 0 0 
L 72 72 
M 6 -6 
L 78 66 
M 12 -12 
L 84 60 
M 18 -18 
L 90 54 
M 24 -24 
L 96 48 
M 30 -30 
L 102 42 
M 36 -36 
L 108 36 
" style="fill:#ff0000;stroke:#ff0000;stroke-linecap:butt;stroke-linejoin:miter;stroke-width:1.0;"/>
  </pattern>
 </defs>
</svg>
